<svg
  xmlns="http://www.w3.org/2000/svg"
  width="120"
  height="120"
  viewBox="0 0 120 120"
  fill="none"
>
<g clip-path="url(#clip0_31972_116741)">
<path
      d="M60 120C93.1371 120 120 93.1371 120 60C120 26.8629 93.1371 0 60 0C26.8629 0 0 26.8629 0 60C0 93.1371 26.8629 120 60 120Z"
      fill="black"
    />
<path
      fill-rule="evenodd"
      clip-rule="evenodd"
      d="M64.789 29.4987L67.1742 14.1444C64.8166 13.7794 62.4035 13.5938 59.9998 13.5938H59.9627V44.918H59.9998C61.3207 44.918 62.6264 45.0881 63.8855 45.4221L67.9383 30.1577C66.9019 29.8823 65.85 29.6658 64.792 29.4987H64.789ZM52.448 46.9413L44.6517 33.5112H44.6487C43.7297 34.0465 42.8325 34.6249 41.9756 35.25L32.6665 22.4944C34.6249 21.0651 36.7102 19.7812 38.8634 18.6768L45.948 32.5057C47.3866 31.7726 48.8777 31.1508 50.4122 30.6495L45.5923 15.8769C47.8971 15.1251 50.2793 14.5497 52.677 14.1692L55.155 29.7647C54.1062 29.9318 53.0637 30.1608 52.0364 30.4362L56.0707 45.4315C54.8053 45.7718 53.5863 46.2823 52.448 46.9413ZM18.6212 38.9721L32.6946 46.1372C31.9706 47.5603 31.3552 49.0516 30.8632 50.5706L15.8368 45.7104C16.5824 43.4025 17.5198 41.1347 18.6212 38.9721ZM86.4795 44.6362L73.0526 52.4388C73.7147 53.5772 74.2221 54.7962 74.5624 56.0616L89.5577 52.0212C89.8331 53.0482 90.0621 54.0909 90.229 55.1365L105.825 52.6523C105.444 50.2547 104.869 47.8725 104.114 45.5677L89.3442 50.3969C88.8431 48.8625 88.2213 47.3712 87.4849 45.9326L101.311 38.8388C100.206 36.6853 98.9224 34.6034 97.4902 32.6449L84.7378 41.9602C85.3627 42.8173 85.9441 43.7145 86.4764 44.6332L86.4795 44.6362ZM81.0021 18.6082L81.0035 18.6088V18.6057L81.0021 18.6082ZM74.2622 15.8275C76.5696 16.573 78.837 17.5071 81.0021 18.6082L73.8476 32.6852C72.4214 31.9615 70.9301 31.3458 69.4111 30.8569L74.2622 15.8275ZM75.3973 33.2362L67.5112 46.92C68.6529 47.5788 69.7048 48.3832 70.6423 49.3177L92.7563 27.1291C91.0423 25.4184 89.1769 23.8313 87.2184 22.4112L78.0982 34.9873C77.2289 34.3561 76.3284 33.7716 75.3973 33.2362ZM46.9259 52.4794L33.2452 44.587H33.2421C33.7805 43.6589 34.3652 42.7587 34.9964 41.8894L22.4233 32.7628C23.8465 30.8044 25.4334 28.942 27.1444 27.228L49.3266 49.3484C48.3923 50.2859 47.5847 51.3377 46.9259 52.4794ZM30.1638 52.0462L45.4254 56.1084H45.4221C45.0881 57.3675 44.918 58.6763 44.918 60.0005H13.5938C13.5938 57.5904 13.7825 55.1679 14.1506 52.8012L29.505 55.1927C29.6688 54.1348 29.8884 53.0827 30.1638 52.0462ZM87.3054 73.8628L101.379 81.0279C102.48 78.8653 103.417 76.5977 104.163 74.2896L89.1368 69.4294C88.6448 70.9486 88.0291 72.4397 87.3054 73.8628ZM67.5516 73.0587L75.3478 86.4888L75.3509 86.4919C76.2698 85.9566 77.167 85.3781 78.0239 84.7531L87.333 97.5087C85.3746 98.9379 83.2894 100.222 81.1362 101.326L74.0515 87.4973C72.6129 88.2305 71.1218 88.8523 69.5873 89.3536L74.4073 104.126C72.1024 104.878 69.7202 105.453 67.3226 105.834L64.8445 90.2353C65.8934 90.0682 66.9359 89.8392 67.9631 89.5638L63.9288 74.5685C65.1942 74.2282 66.413 73.7177 67.5516 73.0587ZM33.5205 75.3635L46.9474 67.5612C46.2853 66.4226 45.7781 65.2036 45.4378 63.9382L30.4423 67.9788C30.1669 66.9516 29.9381 65.9091 29.771 64.8633L14.1723 67.3477C14.5529 69.7453 15.1283 72.1275 15.8831 74.4323L30.6527 69.603C31.1538 71.1375 31.7756 72.6286 32.512 74.0672L18.6861 81.1612C19.7906 83.3145 21.0745 85.3966 22.5069 87.3548L35.2594 78.0396C34.6343 77.1827 34.0528 76.2855 33.5205 75.3666V75.3635ZM38.9974 101.392L38.9963 101.391V101.394L38.9974 101.392ZM38.9974 101.392C41.1628 102.493 43.4299 103.427 45.7376 104.172L50.5884 89.1429C49.0695 88.654 47.5784 88.0385 46.152 87.3145L38.9974 101.392ZM44.6023 86.7637L44.603 86.7626L44.6053 86.7637H44.6023ZM44.603 86.7626L52.4883 73.0802C51.3466 72.4212 50.2948 71.6168 49.3573 70.6826L27.2463 92.8709C28.9603 94.5818 30.8257 96.1687 32.7841 97.5888L41.9044 85.0127C42.7732 85.6434 43.6725 86.2277 44.603 86.7626ZM73.0772 67.5206L86.7577 75.4127V75.4158C86.2193 76.3439 85.6348 77.2444 85.0036 78.1137L97.5766 87.2402C96.1535 89.1984 94.5663 91.061 92.8554 92.7748L70.6765 70.6514C71.6107 69.7141 72.4181 68.6623 73.0772 67.5206ZM56.1141 74.5777V74.5786L56.111 74.5777H56.1141ZM56.1141 74.5786L52.0613 89.8423C53.0977 90.1177 54.1495 90.3342 55.2077 90.5013L52.8225 105.855C55.1798 106.221 57.593 106.406 59.9967 106.406H60.034V75.082H59.9967C58.6767 75.082 57.3722 74.9121 56.1141 74.5786ZM74.5777 63.8918C74.9114 62.6337 75.0816 61.3261 75.0818 60.003H106.406C106.406 62.4131 106.217 64.8354 105.849 67.2021L90.498 64.8075C90.334 65.8657 90.1144 66.9176 89.839 67.954L74.5777 63.8918Z"
      fill="white"
    />
</g>
<defs>
<clipPath id="clip0_31972_116741">
<rect width="120" height="120" fill="white" />
</clipPath>
</defs>
</svg>
