<svg width="1440" height="1186" viewBox="0 0 1440 1186" fill="none" xmlns="http://www.w3.org/2000/svg">
<path opacity="0.6" d="M889.49 886.673L889.338 887.15L889.49 886.673ZM322.442 986.343L322.513 986.838L322.513 986.838L322.442 986.343ZM881.779 904.616L881.929 904.139L881.927 904.138L881.779 904.616ZM304.991 974.077L305.064 974.572L305.066 974.572L304.991 974.077ZM874.076 922.612L874.221 922.133L874.076 922.612ZM287.333 961.598L287.257 961.104L287.257 961.104L287.333 961.598ZM866.36 940.528L866.502 940.049L866.36 940.528ZM269.777 949.213L269.856 949.706L269.856 949.706L269.777 949.213ZM858.628 958.528L858.489 959.008L858.628 958.528ZM252.228 936.88L252.146 936.387L252.146 936.387L252.228 936.88ZM850.843 976.535L850.706 977.016L850.706 977.016L850.843 976.535ZM234.584 924.48L234.499 923.987L234.499 923.987L234.584 924.48ZM843.201 994.387L843.334 993.905L843.334 993.905L843.201 994.387ZM217.123 912.162L217.036 911.67L217.036 911.67L217.123 912.162ZM835.645 1012.42L835.514 1012.9L835.645 1012.42ZM199.709 899.783L199.62 899.291L199.62 899.291L199.709 899.783ZM827.804 1030.43L827.932 1029.95L827.932 1029.95L827.804 1030.43ZM182.018 887.444L182.11 887.935L182.018 887.444ZM820.096 1048.4L820.222 1047.92L820.096 1048.4ZM164.497 875.107L164.403 874.616L164.403 874.616L164.497 875.107ZM812.358 1066.35L812.48 1065.86L812.358 1066.35ZM146.941 862.722L146.845 862.231L146.845 862.231L146.941 862.722ZM804.655 1084.34L804.775 1083.86L804.775 1083.86L804.655 1084.34ZM129.393 850.389L129.491 850.879L129.393 850.389ZM796.837 1102.33L796.719 1102.81L796.719 1102.81L796.837 1102.33ZM111.836 838.004L111.735 837.514L111.836 838.004ZM789.239 1120.28L789.353 1119.79L789.353 1119.79L789.239 1120.28ZM94.2863 825.671L94.3874 826.161L94.3892 826.161L94.2863 825.671ZM781.532 1138.25L781.644 1137.76L781.644 1137.76L781.532 1138.25ZM76.7302 813.286L76.8333 813.775L76.8345 813.775L76.7302 813.286ZM773.824 1156.22L773.934 1155.73L773.933 1155.73L773.824 1156.22ZM59.1819 800.953L59.2871 801.442L59.2877 801.442L59.1819 800.953ZM1700.93 908.858C1700.64 908.454 1700.64 908.455 1700.63 908.456C1700.63 908.457 1700.63 908.458 1700.63 908.461C1700.62 908.465 1700.61 908.472 1700.6 908.482C1700.57 908.501 1700.53 908.53 1700.48 908.569C1700.37 908.646 1700.2 908.761 1699.98 908.912C1699.54 909.215 1698.88 909.663 1697.99 910.239C1696.2 911.393 1693.5 913.063 1689.86 915.124C1682.57 919.246 1671.49 924.932 1656.37 931.174C1626.12 943.659 1579.67 958.371 1514.91 967.256C1385.4 985.027 1182.61 979.493 889.642 886.197L889.338 887.15C1182.42 980.483 1385.36 986.041 1515.05 968.247C1579.89 959.35 1626.42 944.615 1656.75 932.099C1671.91 925.84 1683.02 920.137 1690.35 915.995C1694.01 913.924 1696.73 912.243 1698.53 911.079C1699.43 910.497 1700.1 910.044 1700.55 909.736C1700.77 909.582 1700.94 909.464 1701.05 909.385C1701.11 909.345 1701.15 909.314 1701.18 909.294C1701.2 909.284 1701.21 909.276 1701.21 909.271C1701.22 909.268 1701.22 909.266 1701.22 909.264C1701.22 909.263 1701.23 909.262 1700.93 908.858ZM889.642 886.197C732.942 836.295 625.914 856.29 540.625 891.247C498.004 908.715 460.801 929.926 425.595 947.974C390.37 966.032 357.138 980.926 322.372 985.848L322.513 986.838C357.456 981.891 390.815 966.927 426.052 948.864C461.307 930.791 498.435 909.619 541.004 892.172C626.095 857.296 732.881 837.325 889.338 887.15L889.642 886.197ZM322.372 985.848C269.946 993.263 221.309 987.079 172.35 978.117C123.409 969.158 74.1116 957.414 20.4764 953.762C-86.8654 946.453 -211.589 971.547 -386.311 1115.82L-385.674 1116.59C-211.118 972.455 -86.6402 947.471 20.4084 954.76C73.9685 958.406 123.164 970.13 172.17 979.101C221.158 988.068 269.924 994.276 322.513 986.838L322.372 985.848ZM1697.13 885.942C1696.8 885.562 1696.8 885.562 1696.8 885.563C1696.8 885.565 1696.8 885.567 1696.79 885.57C1696.79 885.575 1696.78 885.584 1696.76 885.596C1696.73 885.619 1696.69 885.655 1696.63 885.702C1696.52 885.796 1696.35 885.937 1696.12 886.122C1695.66 886.493 1694.97 887.042 1694.04 887.751C1692.18 889.168 1689.38 891.227 1685.61 893.783C1678.06 898.897 1666.63 906.004 1651.09 913.967C1620.02 929.894 1572.54 949.248 1506.93 962.929C1375.71 990.291 1171.96 994.97 881.929 904.139L881.63 905.093C1171.8 995.968 1375.73 991.31 1507.13 963.908C1572.83 950.208 1620.4 930.823 1651.55 914.857C1667.12 906.874 1678.59 899.746 1686.17 894.611C1689.96 892.044 1692.78 889.974 1694.65 888.546C1695.58 887.831 1696.28 887.277 1696.75 886.9C1696.98 886.712 1697.16 886.568 1697.27 886.471C1697.33 886.423 1697.38 886.386 1697.41 886.361C1697.42 886.349 1697.43 886.339 1697.44 886.333C1697.44 886.33 1697.45 886.327 1697.45 886.325C1697.45 886.324 1697.45 886.323 1697.13 885.942ZM881.927 904.138C719.639 853.997 611.709 865.892 526.147 893.081C483.384 906.67 446.21 924.08 410.676 939.44C375.128 954.806 341.219 968.123 304.917 973.583L305.066 974.572C341.506 969.091 375.518 955.727 411.072 940.358C446.64 924.983 483.749 907.604 526.449 894.034C611.814 866.908 719.536 855.012 881.632 905.094L881.927 904.138ZM304.919 973.583C252.039 981.354 202.854 976.972 153.676 970.237C104.514 963.504 55.3251 954.413 2.53712 952.804C-103.103 949.585 -223.169 976.326 -386.929 1111.58L-386.292 1112.35C-222.698 977.234 -102.864 950.593 2.50666 953.804C55.2245 955.41 104.32 964.487 153.54 971.228C202.745 977.966 252.042 982.364 305.064 974.572L304.919 973.583ZM1693.32 863.053C1692.98 862.692 1692.98 862.692 1692.98 862.694C1692.97 862.696 1692.97 862.698 1692.97 862.701C1692.96 862.708 1692.95 862.719 1692.94 862.732C1692.91 862.76 1692.86 862.802 1692.8 862.857C1692.69 862.967 1692.51 863.133 1692.27 863.35C1691.79 863.786 1691.07 864.43 1690.11 865.264C1688.19 866.932 1685.29 869.358 1681.4 872.385C1673.61 878.44 1661.84 886.899 1645.92 896.507C1614.07 915.723 1565.61 939.533 1499.19 957.888C1366.36 994.596 1161.64 1009.49 874.221 922.133L873.93 923.09C1161.52 1010.5 1366.42 995.615 1499.46 958.852C1565.98 940.471 1614.52 916.623 1646.44 897.364C1662.39 887.734 1674.2 879.252 1682.01 873.175C1685.92 870.136 1688.83 867.699 1690.77 866.019C1691.74 865.18 1692.46 864.53 1692.94 864.089C1693.18 863.868 1693.37 863.7 1693.49 863.587C1693.55 863.53 1693.59 863.487 1693.62 863.458C1693.64 863.444 1693.65 863.433 1693.66 863.425C1693.66 863.421 1693.67 863.419 1693.67 863.417C1693.67 863.415 1693.67 863.413 1693.32 863.053ZM874.221 922.133C538.846 820.21 438.849 937.698 287.257 961.104L287.41 962.092C439.502 938.609 538.831 821.25 873.93 923.09L874.221 922.133ZM287.257 961.104C233.943 969.343 184.232 966.812 134.851 962.313C85.4841 957.816 36.4179 951.348 -15.5177 951.739C-119.446 952.522 -234.877 980.771 -387.772 1107.02L-387.135 1107.79C-234.406 981.678 -119.194 953.521 -15.5102 952.739C36.3602 952.348 85.3424 958.807 134.76 963.309C184.164 967.81 233.973 970.35 287.41 962.092L287.257 961.104ZM1689.52 840.136C1689.15 839.794 1689.15 839.794 1689.15 839.796C1689.15 839.798 1689.15 839.801 1689.14 839.805C1689.14 839.813 1689.13 839.825 1689.11 839.841C1689.08 839.873 1689.03 839.921 1688.97 839.984C1688.85 840.112 1688.67 840.303 1688.42 840.554C1687.92 841.056 1687.18 841.799 1686.18 842.763C1684.19 844.691 1681.19 847.498 1677.18 851.013C1669.14 858.042 1657.02 867.899 1640.7 879.202C1608.05 901.808 1558.58 930.195 1491.33 953.301C1356.82 999.511 1151.14 1024.61 866.502 940.049L866.217 941.007C1151.05 1025.62 1356.94 1000.53 1491.65 954.247C1559 931.108 1608.55 902.676 1641.27 880.024C1657.62 868.698 1669.77 858.817 1677.84 851.765C1681.87 848.239 1684.88 845.42 1686.88 843.482C1687.88 842.512 1688.63 841.763 1689.13 841.255C1689.38 841.002 1689.57 840.808 1689.69 840.678C1689.76 840.613 1689.8 840.563 1689.83 840.53C1689.85 840.514 1689.86 840.501 1689.87 840.492C1689.87 840.488 1689.88 840.485 1689.88 840.483C1689.88 840.48 1689.88 840.479 1689.52 840.136ZM866.502 940.049C693.292 888.604 583.586 884.414 497.401 896.28C454.315 902.212 417.121 912.155 380.837 922.196C344.547 932.238 309.178 942.376 269.697 948.719L269.856 949.706C309.402 943.352 344.829 933.198 381.104 923.16C417.384 913.12 454.523 903.193 497.537 897.271C583.551 885.429 693.11 889.593 866.217 941.007L866.502 940.049ZM269.697 948.719C215.944 957.352 165.698 956.649 116.107 954.391C66.5283 952.134 17.5792 948.322 -33.5062 950.756C-135.726 955.626 -246.509 985.504 -388.483 1102.74L-387.846 1103.51C-246.036 986.409 -135.458 956.615 -33.4587 951.755C17.5657 949.324 66.4411 953.132 116.062 955.39C165.67 957.649 215.999 958.356 269.856 949.706L269.697 948.719ZM1685.71 817.221C1685.33 816.894 1685.33 816.895 1685.33 816.897C1685.33 816.899 1685.33 816.902 1685.32 816.907C1685.32 816.916 1685.3 816.929 1685.29 816.947C1685.26 816.984 1685.21 817.038 1685.14 817.11C1685.02 817.255 1684.83 817.471 1684.57 817.756C1684.06 818.325 1683.28 819.169 1682.25 820.263C1680.19 822.451 1677.09 825.642 1672.95 829.646C1664.66 837.654 1652.19 848.915 1635.45 861.92C1601.99 887.93 1551.5 920.913 1483.4 948.786C1347.2 1004.53 1140.54 1039.85 858.768 958.048L858.489 959.008C1140.48 1040.87 1347.37 1005.54 1483.77 949.711C1551.97 921.799 1602.54 888.768 1636.07 862.71C1652.83 849.681 1665.33 838.396 1673.64 830.365C1677.8 826.349 1680.91 823.148 1682.98 820.948C1684.02 819.849 1684.79 819 1685.31 818.425C1685.57 818.138 1685.76 817.919 1685.89 817.772C1685.96 817.698 1686.01 817.642 1686.04 817.605C1686.06 817.586 1686.07 817.572 1686.08 817.562C1686.08 817.557 1686.09 817.554 1686.09 817.551C1686.09 817.549 1686.09 817.547 1685.71 817.221ZM858.768 958.048C680.044 906.16 569.454 893.912 482.987 898.062C439.755 900.137 402.566 906.31 365.925 913.669C329.273 921.029 293.204 929.566 252.146 936.387L252.31 937.373C293.388 930.549 329.514 922 366.121 914.649C402.739 907.296 439.874 901.132 483.035 899.061C569.354 894.918 679.829 907.139 858.489 959.008L858.768 958.048ZM252.146 936.387C197.945 945.403 147.16 946.514 97.3579 946.486C47.5652 946.457 -1.26527 945.288 -51.499 949.754C-152.007 958.69 -258.137 990.182 -389.203 1098.4L-388.566 1099.17C-257.661 991.085 -151.722 959.668 -51.4104 950.75C-1.23415 946.289 47.533 947.457 97.3573 947.486C147.172 947.514 198.024 946.403 252.31 937.373L252.146 936.387ZM1681.91 794.331C1681.52 794.018 1681.52 794.019 1681.52 794.022C1681.52 794.024 1681.51 794.028 1681.51 794.033C1681.5 794.043 1681.49 794.058 1681.47 794.078C1681.44 794.119 1681.39 794.18 1681.32 794.261C1681.19 794.423 1680.99 794.664 1680.73 794.983C1680.2 795.62 1679.4 796.564 1678.33 797.789C1676.2 800.24 1673 803.815 1668.73 808.311C1660.18 817.304 1647.35 829.977 1630.21 844.692C1595.92 874.123 1544.39 911.719 1475.43 944.37C1337.53 1009.67 1129.88 1055.2 850.979 976.054L850.706 977.016C1129.86 1056.24 1337.75 1010.67 1475.86 945.274C1544.91 912.578 1596.52 874.929 1630.86 845.451C1648.03 830.712 1660.89 818.015 1669.45 809C1673.74 804.493 1676.95 800.906 1679.09 798.445C1680.16 797.215 1680.96 796.266 1681.49 795.624C1681.76 795.302 1681.96 795.058 1682.1 794.894C1682.17 794.812 1682.22 794.749 1682.25 794.708C1682.27 794.687 1682.28 794.671 1682.29 794.66C1682.29 794.655 1682.3 794.651 1682.3 794.648C1682.3 794.645 1682.3 794.644 1681.91 794.331ZM850.979 976.054C666.702 923.743 555.207 903.415 468.457 899.824C381.702 896.233 319.711 909.386 234.499 923.987L234.668 924.973C319.915 910.365 381.789 897.238 468.416 900.823C555.048 904.409 666.454 924.712 850.706 977.016L850.979 976.054ZM234.499 923.987C179.856 933.378 128.535 936.303 78.5197 938.505C28.5123 940.707 -20.2026 942.186 -69.5872 948.689C-168.388 961.7 -269.871 994.821 -390.015 1094.03L-389.378 1094.8C-269.39 995.721 -168.086 962.669 -69.4567 949.681C-20.126 943.184 28.5353 941.707 78.5637 939.504C128.584 937.302 179.959 934.375 234.669 924.973L234.499 923.987ZM1678.11 771.415C1677.71 771.115 1677.71 771.116 1677.7 771.118C1677.7 771.121 1677.7 771.125 1677.69 771.131C1677.69 771.142 1677.67 771.159 1677.66 771.181C1677.62 771.226 1677.57 771.294 1677.5 771.383C1677.36 771.562 1677.16 771.83 1676.88 772.182C1676.33 772.887 1675.51 773.931 1674.41 775.288C1672.21 778.002 1668.9 781.963 1664.5 786.953C1655.7 796.931 1642.51 811.018 1624.96 827.446C1589.85 860.302 1537.28 902.517 1467.47 939.946C1327.87 1014.8 1119.27 1070.51 843.334 993.905L843.067 994.869C1119.28 1071.55 1328.14 1015.79 1467.95 940.827C1537.84 903.35 1590.48 861.08 1625.64 828.176C1643.22 811.725 1656.43 797.614 1665.25 787.614C1669.66 782.614 1672.97 778.642 1675.18 775.918C1676.29 774.556 1677.12 773.507 1677.67 772.797C1677.95 772.442 1678.16 772.173 1678.3 771.991C1678.37 771.9 1678.42 771.832 1678.45 771.786C1678.47 771.763 1678.48 771.745 1678.49 771.733C1678.5 771.728 1678.5 771.723 1678.5 771.72C1678.5 771.717 1678.51 771.715 1678.11 771.415ZM843.334 993.905C653.507 941.278 541.102 912.897 454.074 901.586C367.019 890.271 305.362 896.037 217.036 911.67L217.21 912.654C305.48 897.032 367.027 891.281 453.945 902.578C540.891 913.878 653.227 942.238 843.067 994.869L843.334 993.905ZM217.036 911.67C-3.26525 950.67 -172.221 909.339 -390.647 1089.71L-390.011 1090.48C-171.855 910.334 -3.43942 951.716 217.21 912.654L217.036 911.67ZM1674.3 748.499C1673.89 748.21 1673.89 748.211 1673.89 748.214C1673.89 748.217 1673.88 748.221 1673.88 748.228C1673.87 748.24 1673.86 748.258 1673.84 748.283C1673.81 748.332 1673.75 748.406 1673.68 748.504C1673.54 748.701 1673.33 748.994 1673.04 749.381C1672.47 750.154 1671.62 751.299 1670.48 752.788C1668.21 755.766 1664.81 760.116 1660.28 765.601C1651.22 776.57 1637.68 792.079 1619.71 810.229C1583.78 846.528 1530.18 893.386 1459.53 935.614C1318.23 1020.06 1108.7 1086.01 835.776 1011.93L835.514 1012.9C1108.75 1087.05 1318.55 1021.04 1460.04 936.472C1530.78 894.192 1584.44 847.278 1620.42 810.932C1638.41 792.759 1651.98 777.228 1661.05 766.237C1665.59 760.742 1669 756.382 1671.28 753.395C1672.42 751.901 1673.28 750.751 1673.85 749.973C1674.13 749.584 1674.35 749.289 1674.49 749.09C1674.56 748.991 1674.62 748.915 1674.65 748.865C1674.67 748.84 1674.69 748.821 1674.69 748.808C1674.7 748.802 1674.7 748.797 1674.7 748.794C1674.71 748.79 1674.71 748.788 1674.3 748.499ZM835.776 1011.93C640.319 958.882 527.004 922.396 439.735 903.341C352.417 884.276 291.112 882.646 199.62 899.291L199.799 900.275C291.159 883.654 352.331 885.281 439.522 904.318C526.762 923.366 639.989 959.829 835.514 1012.9L835.776 1011.93ZM199.62 899.291C-22.4778 939.714 -194.617 923.01 -391.228 1085.35L-390.592 1086.12C-194.245 924 -22.5436 940.743 199.799 900.275L199.62 899.291ZM1670.5 725.609C1670.08 725.33 1670.08 725.331 1670.08 725.335C1670.08 725.338 1670.08 725.343 1670.07 725.35C1670.06 725.363 1670.05 725.383 1670.03 725.41C1669.99 725.464 1669.94 725.544 1669.87 725.651C1669.72 725.865 1669.5 726.184 1669.21 726.605C1668.62 727.446 1667.74 728.693 1666.57 730.315C1664.22 733.557 1660.72 738.296 1656.06 744.278C1646.75 756.242 1632.84 773.177 1614.46 793.052C1577.7 832.804 1523.05 884.314 1451.54 931.346C1308.5 1025.41 1097.98 1101.56 827.932 1029.95L827.676 1030.91C1098.06 1102.62 1308.87 1026.36 1452.09 932.182C1523.69 885.095 1578.39 833.527 1615.19 793.731C1633.59 773.833 1647.52 756.876 1656.85 744.893C1661.51 738.901 1665.03 734.152 1667.38 730.9C1668.55 729.274 1669.44 728.022 1670.03 727.177C1670.32 726.754 1670.54 726.432 1670.69 726.217C1670.76 726.109 1670.82 726.027 1670.86 725.972C1670.88 725.945 1670.89 725.924 1670.9 725.91C1670.9 725.903 1670.91 725.898 1670.91 725.895C1670.91 725.891 1670.91 725.889 1670.5 725.609ZM827.932 1029.95C626.905 976.645 512.774 932.085 425.174 905.236C337.563 878.384 276.549 869.274 181.926 886.952L182.11 887.935C276.532 870.294 337.378 879.373 424.881 906.192C512.396 933.015 626.636 977.608 827.676 1030.91L827.932 1029.95ZM181.926 886.952C-41.9971 928.776 -217.216 936.685 -392.091 1081.01L-391.454 1081.78C-216.832 937.665 -41.9606 929.787 182.11 887.935L181.926 886.952ZM1666.69 702.693C1666.27 702.423 1666.27 702.424 1666.27 702.428C1666.27 702.431 1666.26 702.437 1666.26 702.444C1666.25 702.458 1666.24 702.48 1666.22 702.509C1666.18 702.567 1666.12 702.654 1666.05 702.77C1665.9 703.001 1665.67 703.346 1665.37 703.801C1664.76 704.711 1663.85 706.06 1662.65 707.814C1660.23 711.323 1656.62 716.452 1651.84 722.932C1642.27 735.893 1628 754.256 1609.2 775.86C1571.61 819.07 1515.92 875.24 1443.54 927.083C1298.79 1030.76 1087.29 1117.13 820.222 1047.92L819.971 1048.88C1087.41 1118.19 1299.21 1031.7 1444.13 927.896C1516.58 875.997 1572.33 819.769 1609.95 776.517C1628.77 754.89 1643.06 736.506 1652.64 723.526C1657.43 717.037 1661.05 711.898 1663.47 708.381C1664.68 706.622 1665.59 705.269 1666.2 704.355C1666.5 703.898 1666.73 703.551 1666.88 703.318C1666.96 703.201 1667.02 703.113 1667.06 703.054C1667.07 703.024 1667.09 703.002 1667.1 702.987C1667.1 702.98 1667.11 702.974 1667.11 702.97C1667.11 702.966 1667.11 702.964 1666.69 702.693ZM820.222 1047.92C613.598 994.376 498.528 941.725 410.678 907.113C322.8 872.491 262.127 855.907 164.403 874.616L164.591 875.598C262.05 856.94 322.516 873.453 410.311 908.044C498.135 942.645 613.273 995.325 819.971 1048.88L820.222 1047.92ZM164.403 874.616C-61.3565 917.924 -239.864 950.425 -392.815 1076.65L-392.179 1077.42C-239.46 951.388 -61.2256 918.917 164.592 875.598L164.403 874.616ZM1662.89 679.777C1662.46 679.514 1662.46 679.516 1662.46 679.52C1662.46 679.524 1662.45 679.53 1662.45 679.537C1662.44 679.553 1662.42 679.576 1662.41 679.608C1662.37 679.67 1662.31 679.764 1662.23 679.888C1662.07 680.137 1661.84 680.508 1661.53 680.997C1660.9 681.976 1659.97 683.427 1658.73 685.314C1656.24 689.089 1652.53 694.61 1647.61 701.59C1637.78 715.549 1623.15 735.345 1603.94 758.683C1565.51 805.36 1508.78 866.2 1435.54 922.858C1289.05 1036.17 1076.57 1132.73 812.48 1065.86L812.235 1066.83C1076.72 1133.8 1289.51 1037.08 1436.15 923.649C1509.46 866.934 1566.25 806.036 1604.71 759.318C1623.94 735.959 1638.59 716.143 1648.43 702.165C1653.35 695.176 1657.07 689.647 1659.56 685.864C1660.81 683.973 1661.74 682.518 1662.37 681.535C1662.68 681.044 1662.92 680.671 1663.08 680.42C1663.15 680.295 1663.21 680.2 1663.25 680.137C1663.27 680.105 1663.29 680.081 1663.3 680.065C1663.3 680.057 1663.31 680.051 1663.31 680.047C1663.31 680.043 1663.31 680.04 1662.89 679.777ZM812.48 1065.86C600.268 1012.13 484.298 951.389 396.183 908.992C352.125 887.793 314.996 871.162 276.28 862.304C237.55 853.443 197.251 852.363 146.845 862.231L147.037 863.212C197.319 853.369 237.475 854.451 276.056 863.279C314.652 872.109 351.691 888.694 395.749 909.893C483.867 952.291 599.917 1013.07 812.235 1066.83L812.48 1065.86ZM146.845 862.231C-80.7273 906.803 -262.446 964.075 -393.534 1072.32L-392.898 1073.09C-262.014 965.016 -80.5095 907.78 147.038 863.212L146.845 862.231ZM1659.09 656.888C1658.66 656.632 1658.66 656.634 1658.65 656.638C1658.65 656.642 1658.65 656.648 1658.64 656.657C1658.63 656.673 1658.62 656.698 1658.6 656.732C1658.56 656.799 1658.5 656.899 1658.42 657.032C1658.26 657.298 1658.01 657.696 1657.69 658.22C1657.05 659.267 1656.09 660.82 1654.81 662.842C1652.25 666.884 1648.44 672.797 1643.39 680.278C1633.31 695.241 1618.31 716.474 1598.68 741.551C1559.42 791.706 1501.64 857.23 1427.53 918.714C1279.32 1041.68 1065.87 1148.45 804.775 1083.86L804.535 1084.83C1066.06 1149.53 1279.83 1042.56 1428.17 919.483C1502.35 857.942 1560.18 792.361 1599.47 742.167C1619.11 717.069 1634.12 695.817 1644.22 680.837C1649.27 673.348 1653.1 667.426 1655.66 663.376C1656.94 661.351 1657.9 659.794 1658.55 658.742C1658.87 658.217 1659.11 657.818 1659.27 657.55C1659.35 657.416 1659.41 657.314 1659.45 657.247C1659.48 657.213 1659.49 657.187 1659.5 657.17C1659.51 657.161 1659.51 657.155 1659.51 657.151C1659.51 657.146 1659.52 657.144 1659.09 656.888ZM804.775 1083.86C586.924 1029.98 470.045 961.131 381.665 910.928C337.476 885.828 300.366 865.36 261.317 853.776C222.249 842.187 181.258 839.495 129.295 849.899L129.491 850.879C181.305 840.505 222.131 843.195 261.033 854.735C299.954 866.281 336.968 886.689 381.171 911.798C469.574 962.014 586.549 1030.92 804.535 1084.83L804.775 1083.86ZM129.295 849.899C-100.1 895.818 -285.024 977.782 -394.255 1067.98L-393.618 1068.75C-284.557 978.693 -99.8051 896.779 129.491 850.879L129.295 849.899ZM1655.28 633.972C1654.85 633.722 1654.85 633.724 1654.84 633.729C1654.84 633.733 1654.84 633.74 1654.83 633.749C1654.82 633.766 1654.81 633.793 1654.79 633.829C1654.74 633.9 1654.68 634.007 1654.6 634.149C1654.43 634.433 1654.18 634.856 1653.85 635.415C1653.19 636.531 1652.2 638.187 1650.89 640.342C1648.26 644.652 1644.34 650.959 1639.17 658.942C1628.82 674.909 1613.46 697.582 1593.41 724.4C1553.32 778.038 1494.48 848.253 1419.5 914.567C1269.54 1047.2 1055.09 1164.18 796.954 1101.84L796.719 1102.81C1055.31 1165.26 1270.08 1048.05 1420.16 915.316C1495.2 848.945 1554.09 778.674 1594.21 724.999C1614.28 698.16 1629.65 675.469 1640.01 659.486C1645.19 651.495 1649.11 645.18 1651.74 640.863C1653.06 638.704 1654.05 637.044 1654.71 635.924C1655.05 635.364 1655.3 634.939 1655.46 634.653C1655.55 634.511 1655.61 634.403 1655.65 634.331C1655.67 634.295 1655.69 634.267 1655.7 634.249C1655.7 634.24 1655.71 634.233 1655.71 634.228C1655.71 634.224 1655.71 634.221 1655.28 633.972ZM796.954 1101.84C573.523 1047.84 455.77 970.877 367.138 912.856C322.825 883.848 285.738 859.535 246.357 845.219C206.952 830.893 165.263 826.579 111.735 837.514L111.936 838.494C165.29 827.595 206.791 831.899 246.016 846.159C285.266 860.428 322.252 884.667 366.59 913.693C455.262 971.74 573.127 1048.77 796.719 1102.81L796.954 1101.84ZM111.735 837.514C-119.481 884.752 -307.583 991.463 -394.979 1063.62L-394.342 1064.39C-307.072 992.337 -119.119 885.699 111.936 838.494L111.735 837.514ZM1651.47 611.056C1651.04 610.812 1651.04 610.814 1651.03 610.819C1651.03 610.824 1651.03 610.831 1651.02 610.84C1651.01 610.859 1650.99 610.888 1650.97 610.926C1650.93 611.001 1650.87 611.115 1650.78 611.266C1650.61 611.567 1650.36 612.017 1650.02 612.61C1649.34 613.796 1648.32 615.555 1646.97 617.845C1644.27 622.424 1640.25 629.127 1634.94 637.615C1624.34 654.591 1608.62 678.71 1588.15 707.278C1547.22 764.415 1487.34 839.339 1411.5 910.496C1259.82 1052.82 1044.43 1179.99 789.353 1119.79L789.124 1120.77C1044.69 1181.08 1260.41 1053.64 1412.19 911.225C1488.08 840.012 1548.01 765.033 1588.96 707.861C1609.44 679.274 1625.18 655.136 1635.79 638.145C1641.1 629.649 1645.13 622.939 1647.83 618.353C1649.18 616.059 1650.2 614.297 1650.88 613.107C1651.22 612.513 1651.48 612.061 1651.65 611.758C1651.74 611.607 1651.8 611.492 1651.85 611.416C1651.87 611.377 1651.88 611.348 1651.89 611.329C1651.9 611.319 1651.9 611.312 1651.91 611.307C1651.91 611.302 1651.91 611.3 1651.47 611.056ZM789.353 1119.79C560.161 1065.77 441.435 980.612 352.518 914.713C308.064 881.767 271.002 853.587 231.308 836.549C191.583 819.498 149.23 813.608 94.1834 825.182L94.3892 826.161C149.239 814.628 191.381 820.5 230.913 837.468C270.476 854.449 307.433 882.544 351.922 915.516C440.891 981.454 559.745 1066.7 789.124 1120.77L789.353 1119.79ZM94.1853 825.182C-138.951 873.294 -330.171 1005.18 -395.7 1059.28L-395.063 1060.06C-329.607 1006.01 -138.533 874.228 94.3874 826.161L94.1853 825.182ZM1647.67 588.167C1647.23 587.928 1647.23 587.93 1647.23 587.935C1647.23 587.94 1647.22 587.948 1647.22 587.958C1647.21 587.978 1647.19 588.008 1647.17 588.048C1647.12 588.128 1647.06 588.249 1646.97 588.408C1646.8 588.727 1646.53 589.203 1646.18 589.831C1645.49 591.086 1644.44 592.948 1643.06 595.372C1640.29 600.22 1636.16 607.316 1630.73 616.307C1619.86 634.29 1603.77 659.852 1582.89 690.164C1541.12 750.79 1480.19 830.411 1403.48 906.401C1250.07 1058.4 1033.7 1195.77 781.644 1137.76L781.42 1138.74C1033.99 1196.86 1250.69 1059.19 1404.19 907.112C1480.95 831.065 1541.92 751.391 1583.71 690.731C1604.61 660.401 1620.71 634.822 1631.58 616.825C1637.02 607.826 1641.15 600.723 1643.92 595.868C1645.31 593.441 1646.36 591.576 1647.06 590.317C1647.41 589.688 1647.67 589.21 1647.85 588.89C1647.94 588.729 1648 588.608 1648.05 588.527C1648.07 588.487 1648.08 588.456 1648.1 588.436C1648.1 588.426 1648.11 588.418 1648.11 588.413C1648.11 588.408 1648.11 588.405 1647.67 588.167ZM781.644 1137.76C546.833 1083.73 427.193 990.481 337.997 916.75C293.406 879.89 256.361 847.85 216.334 828.06C176.271 808.252 133.226 800.714 76.6258 812.797L76.8345 813.775C133.215 801.739 176.031 809.248 215.891 828.956C255.787 848.682 292.725 880.625 337.36 917.521C426.617 991.303 546.397 1084.66 781.42 1138.74L781.644 1137.76ZM76.627 812.797C-158.302 862.332 -352.737 1018.86 -396.424 1054.92L-395.787 1055.69C-352.113 1019.65 -157.839 863.257 76.8333 813.775L76.627 812.797ZM1643.87 565.25C1643.42 565.017 1643.42 565.019 1643.42 565.024C1643.42 565.03 1643.41 565.038 1643.41 565.048C1643.4 565.069 1643.38 565.101 1643.36 565.144C1643.31 565.229 1643.24 565.356 1643.15 565.524C1642.97 565.861 1642.7 566.364 1642.35 567.027C1641.63 568.354 1640.56 570.321 1639.13 572.882C1636.29 578.005 1632.06 585.505 1626.49 595.012C1615.36 614.025 1598.9 641.063 1577.59 673.156C1534.97 737.346 1472.96 821.754 1395.38 902.639C1240.2 1064.43 1022.86 1212 773.934 1155.73L773.714 1156.71C1023.18 1213.1 1240.86 1065.19 1396.1 903.331C1473.74 822.391 1535.79 737.931 1578.43 673.71C1599.75 641.598 1616.22 614.544 1627.36 595.517C1632.93 586.004 1637.16 578.497 1640.01 573.367C1641.43 570.803 1642.51 568.833 1643.23 567.503C1643.58 566.838 1643.86 566.334 1644.04 565.995C1644.13 565.826 1644.2 565.698 1644.24 565.613C1644.26 565.57 1644.28 565.538 1644.29 565.516C1644.3 565.506 1644.3 565.497 1644.3 565.492C1644.31 565.487 1644.31 565.484 1643.87 565.25ZM773.933 1155.73C533.366 1102.14 412.821 1000.81 323.384 919.142C278.674 878.316 241.673 842.336 201.336 819.73C160.959 797.101 117.236 787.865 59.076 800.464L59.2877 801.442C117.205 788.895 160.679 798.09 200.847 820.602C241.056 843.137 277.95 879.009 322.71 919.881C412.214 1001.61 532.912 1103.06 773.715 1156.71L773.933 1155.73ZM59.0767 800.464C-177.612 851.418 -375.33 1032.58 -397.144 1050.59L-396.507 1051.36C-374.64 1033.31 -177.116 852.335 59.2871 801.442L59.0767 800.464ZM1640.06 542.334C1639.62 542.105 1639.61 542.108 1639.61 542.113C1639.61 542.119 1639.6 542.127 1639.6 542.138C1639.59 542.161 1639.57 542.194 1639.55 542.239C1639.5 542.328 1639.43 542.461 1639.34 542.639C1639.15 542.993 1638.88 543.522 1638.51 544.219C1637.77 545.614 1636.67 547.682 1635.22 550.376C1632.31 555.763 1627.97 563.652 1622.28 573.655C1610.89 593.66 1594.07 622.121 1572.35 655.938C1528.91 723.574 1465.86 812.629 1387.43 898.314C1230.53 1069.72 1012.21 1227.48 766.191 1173.68L765.977 1174.65C1012.56 1228.59 1231.23 1070.44 1388.16 898.989C1466.65 813.25 1529.73 724.145 1573.19 656.479C1594.92 622.645 1611.75 594.168 1623.15 574.149C1628.84 564.14 1633.18 556.245 1636.1 550.851C1637.55 548.155 1638.66 546.083 1639.39 544.686C1639.76 543.987 1640.04 543.457 1640.23 543.101C1640.32 542.923 1640.39 542.789 1640.43 542.699C1640.46 542.654 1640.48 542.62 1640.49 542.598C1640.49 542.586 1640.5 542.578 1640.5 542.572C1640.5 542.566 1640.5 542.563 1640.06 542.334ZM766.191 1173.68C520.022 1119.84 398.57 1010.43 308.855 920.993C264.007 876.284 227.024 836.491 186.357 811.172C145.645 785.825 101.23 774.971 41.5171 788.079L41.7315 789.056C101.18 776.006 145.329 786.806 185.828 812.021C226.371 837.263 263.247 876.938 308.149 921.701C397.934 1011.21 519.55 1120.76 765.977 1174.65L766.191 1173.68ZM41.5171 788.079C-77.7402 814.258 -187.599 878.813 -267.627 936.804C-307.645 965.801 -340.212 993.163 -362.776 1013.28C-374.058 1023.33 -382.839 1031.58 -388.801 1037.31C-391.782 1040.18 -394.058 1042.41 -395.589 1043.93C-396.354 1044.7 -396.934 1045.28 -397.322 1045.67C-397.516 1045.86 -397.662 1046.01 -397.76 1046.11C-397.809 1046.16 -397.846 1046.2 -397.871 1046.23C-397.883 1046.24 -397.892 1046.25 -397.898 1046.25C-397.901 1046.26 -397.904 1046.26 -397.905 1046.26C-397.907 1046.26 -397.908 1046.26 -397.55 1046.61C-397.192 1046.96 -397.192 1046.96 -397.19 1046.96C-397.189 1046.96 -397.186 1046.96 -397.183 1046.95C-397.177 1046.95 -397.168 1046.94 -397.156 1046.93C-397.132 1046.9 -397.096 1046.86 -397.047 1046.81C-396.95 1046.72 -396.805 1046.57 -396.612 1046.37C-396.225 1045.98 -395.648 1045.4 -394.884 1044.64C-393.356 1043.13 -391.084 1040.89 -388.108 1038.03C-382.154 1032.31 -373.382 1024.07 -362.111 1014.02C-339.567 993.928 -307.026 966.588 -267.041 937.613C-187.063 879.66 -77.3338 815.193 41.7315 789.056L41.5171 788.079Z" fill="url(#paint0_linear_0_1)"/>
<path opacity="0.6" d="M462.263 208.255L462.323 208.498L462.263 208.255ZM930.257 365.556L930.187 365.796L930.257 365.556ZM467.144 226.894L467.087 226.651L467.086 226.651L467.144 226.894ZM946.031 355.145L945.958 355.384L945.959 355.384L946.031 355.145ZM472.014 245.585L471.958 245.341L472.014 245.585ZM961.998 344.543L962.072 344.304L962.072 344.304L961.998 344.543ZM476.901 264.198L476.847 263.954L476.847 263.954L476.901 264.198ZM977.871 334.023L977.796 334.262L977.796 334.262L977.871 334.023ZM481.794 282.895L481.846 283.14L481.794 282.895ZM993.733 323.556L993.81 323.318L993.81 323.318L993.733 323.556ZM486.732 301.606L486.783 301.851L486.732 301.606ZM1009.68 313.031L1009.76 312.794L1009.76 312.794L1009.68 313.031ZM491.563 320.147L491.514 319.902L491.514 319.902L491.563 320.147ZM1025.47 302.569L1025.55 302.332L1025.47 302.569ZM496.305 338.855L496.352 339.101L496.305 338.855ZM1041.22 292.041L1041.3 291.805L1041.22 292.041ZM501.289 357.58L501.243 357.334L501.289 357.58ZM1057.2 281.582L1057.12 281.818L1057.12 281.818L1057.2 281.582ZM506.165 376.245L506.12 375.999L506.165 376.245ZM1073.04 271.108L1073.12 270.872L1073.12 270.872L1073.04 271.108ZM511.068 394.89L511.026 394.644L511.068 394.89ZM1088.91 260.588L1089 260.353L1089 260.353L1088.91 260.588ZM515.938 413.581L515.897 413.334L515.938 413.581ZM1104.77 250.12L1104.69 250.355L1104.77 250.12ZM520.905 432.273L520.944 432.52L520.944 432.52L520.905 432.273ZM1120.65 239.601L1120.74 239.367L1120.74 239.367L1120.65 239.601ZM525.69 450.91L525.652 450.663L525.652 450.663L525.69 450.91ZM1136.51 229.134L1136.42 229.368L1136.42 229.368L1136.51 229.134ZM530.564 469.575L530.528 469.328L530.564 469.575ZM1152.38 218.615L1152.29 218.848L1152.3 218.848L1152.38 218.615ZM535.44 488.24L535.406 487.992L535.405 487.992L535.44 488.24ZM1168.25 208.147L1168.16 208.38L1168.16 208.38L1168.25 208.147ZM-222.17 147.099C-222.352 147.27 -222.351 147.271 -222.35 147.273C-222.349 147.274 -222.346 147.277 -222.344 147.28C-222.338 147.285 -222.33 147.294 -222.319 147.306C-222.297 147.329 -222.264 147.363 -222.221 147.408C-222.134 147.498 -222.004 147.632 -221.83 147.807C-221.482 148.158 -220.958 148.677 -220.254 149.347C-218.845 150.687 -216.714 152.634 -213.822 155.067C-208.038 159.934 -199.208 166.743 -187.021 174.519C-162.647 190.072 -124.844 209.496 -71.1149 224.993C36.3447 255.988 207.498 271.274 462.323 208.498L462.204 208.013C207.449 270.771 36.3857 255.479 -70.9763 224.513C-124.658 209.029 -162.417 189.626 -186.752 174.098C-198.92 166.333 -207.732 159.538 -213.5 154.685C-216.384 152.258 -218.508 150.318 -219.909 148.984C-220.61 148.318 -221.13 147.803 -221.475 147.455C-221.647 147.281 -221.776 147.149 -221.861 147.061C-221.904 147.017 -221.935 146.983 -221.956 146.961C-221.967 146.95 -221.975 146.942 -221.98 146.936C-221.982 146.934 -221.984 146.932 -221.985 146.93C-221.987 146.929 -221.987 146.929 -222.17 147.099ZM462.323 208.498C598.395 174.976 686.451 205.8 754.927 249.237C789.177 270.963 818.522 295.84 846.549 317.428C874.565 339.007 901.265 357.299 930.187 365.796L930.328 365.316C901.504 356.847 874.868 338.609 846.854 317.032C818.851 295.462 789.47 270.557 755.195 248.815C686.619 205.314 598.424 174.453 462.204 208.013L462.323 208.498ZM930.187 365.796C973.73 378.582 1015.28 377.41 1057.28 373.515C1099.29 369.618 1141.73 363.001 1187.11 364.867C1277.83 368.598 1380.32 406.237 1514.27 567.552L1514.66 567.233C1380.64 405.839 1278.02 368.105 1187.13 364.367C1141.7 362.499 1099.21 369.124 1057.23 373.017C1015.25 376.911 973.778 378.075 930.328 365.316L930.187 365.796ZM-216.921 124.695C-217.116 124.852 -217.115 124.853 -217.113 124.854C-217.112 124.856 -217.11 124.859 -217.107 124.862C-217.101 124.869 -217.093 124.88 -217.082 124.893C-217.059 124.921 -217.026 124.962 -216.981 125.016C-216.892 125.123 -216.759 125.283 -216.58 125.494C-216.223 125.915 -215.686 126.536 -214.964 127.341C-213.521 128.952 -211.339 131.296 -208.385 134.236C-202.475 140.116 -193.472 148.377 -181.094 157.911C-156.337 176.977 -118.078 201.131 -64.0583 221.493C43.9832 262.217 215.051 287.767 467.203 227.137L467.086 226.651C215.019 287.26 44.0546 261.71 -63.8819 221.025C-117.851 200.682 -156.068 176.554 -180.789 157.514C-193.149 147.995 -202.136 139.747 -208.032 133.882C-210.98 130.949 -213.155 128.611 -214.592 127.008C-215.31 126.206 -215.845 125.588 -216.199 125.17C-216.376 124.962 -216.508 124.803 -216.596 124.697C-216.64 124.644 -216.672 124.604 -216.694 124.577C-216.705 124.564 -216.713 124.554 -216.718 124.548C-216.721 124.544 -216.723 124.542 -216.724 124.54C-216.725 124.539 -216.726 124.538 -216.921 124.695ZM467.201 227.137C608.032 193.939 697.593 216.823 766.99 252.576C801.699 270.457 831.364 291.558 859.898 310.496C888.425 329.43 915.82 346.201 945.958 355.384L946.104 354.906C916.042 345.746 888.699 329.012 860.175 310.08C831.657 291.153 801.96 270.029 767.219 252.131C697.717 216.324 608.035 193.425 467.087 226.651L467.201 227.137ZM945.959 355.384C989.837 368.568 1031.68 369.25 1073.66 367.594C1115.65 365.937 1157.76 361.943 1202.25 365.753C1291.2 373.369 1389.63 412.178 1515.17 563.397L1515.55 563.077C1389.95 411.779 1291.4 372.884 1202.3 365.255C1157.77 361.441 1115.6 365.439 1073.64 367.094C1031.67 368.75 989.9 368.064 946.103 354.906L945.959 355.384ZM-211.676 102.316C-211.88 102.462 -211.879 102.463 -211.878 102.465C-211.876 102.467 -211.874 102.47 -211.871 102.474C-211.865 102.482 -211.857 102.494 -211.845 102.51C-211.822 102.541 -211.788 102.588 -211.742 102.651C-211.651 102.775 -211.515 102.96 -211.332 103.203C-210.966 103.69 -210.417 104.409 -209.679 105.342C-208.203 107.208 -205.975 109.929 -202.963 113.349C-196.938 120.19 -187.775 129.832 -175.22 141.042C-150.11 163.462 -111.431 192.154 -57.1463 217.254C51.4271 267.455 222.407 303.275 472.07 245.828L471.958 245.341C222.394 302.765 51.5289 266.951 -56.9364 216.8C-111.171 191.723 -149.809 163.06 -174.887 140.669C-187.426 129.473 -196.575 119.846 -202.588 113.019C-205.594 109.605 -207.817 106.891 -209.287 105.032C-210.022 104.103 -210.569 103.386 -210.932 102.903C-211.114 102.661 -211.249 102.478 -211.339 102.355C-211.384 102.294 -211.418 102.248 -211.44 102.217C-211.451 102.201 -211.46 102.19 -211.465 102.182C-211.468 102.178 -211.47 102.175 -211.471 102.174C-211.472 102.172 -211.473 102.171 -211.676 102.316ZM472.07 245.828C617.554 212.358 708.595 227.373 778.956 255.6C814.144 269.717 844.165 287.14 873.254 303.474C902.339 319.805 930.494 335.049 961.924 344.782L962.072 344.304C930.698 334.589 902.585 319.37 873.499 303.038C844.418 286.708 814.367 269.267 779.142 255.136C708.677 226.867 617.53 211.851 471.958 245.341L472.07 245.828ZM961.924 344.782C1006.11 358.471 1048.22 361.053 1090.17 361.643C1132.12 362.233 1173.91 360.832 1217.51 366.542C1304.67 377.957 1399.08 417.801 1516.29 558.947L1516.67 558.627C1399.4 417.401 1304.88 377.481 1217.57 366.046C1173.94 360.331 1132.1 361.733 1090.17 361.143C1048.24 360.554 1006.19 357.972 962.072 344.304L961.924 344.782ZM-206.427 79.9114C-206.637 80.0467 -206.636 80.048 -206.635 80.0504C-206.633 80.0526 -206.631 80.0561 -206.628 80.0607C-206.622 80.0698 -206.613 80.0834 -206.602 80.1014C-206.578 80.1373 -206.543 80.1909 -206.497 80.2618C-206.403 80.4035 -206.263 80.6144 -206.076 80.8918C-205.702 81.4465 -205.139 82.2673 -204.385 83.3327C-202.876 85.4636 -200.599 88.5732 -197.526 92.491C-191.381 100.327 -182.052 111.395 -169.313 124.333C-143.836 150.209 -104.72 183.561 -50.1587 213.478C58.969 273.314 229.863 319.394 476.956 264.442L476.847 263.954C229.871 318.88 59.101 272.816 -49.9182 213.04C-104.431 183.15 -143.508 149.829 -168.957 123.982C-181.681 111.059 -190.998 100.005 -197.133 92.1824C-200.2 88.2713 -202.472 85.1682 -203.977 83.0437C-204.729 81.9815 -205.289 81.1638 -205.662 80.6121C-205.848 80.3363 -205.987 80.1269 -206.079 79.9867C-206.125 79.9166 -206.16 79.8638 -206.183 79.8286C-206.194 79.811 -206.203 79.7978 -206.208 79.789C-206.211 79.7846 -206.213 79.7814 -206.215 79.7792C-206.216 79.7772 -206.217 79.7762 -206.427 79.9114ZM476.956 264.442C627.155 231.051 719.69 238.143 790.994 258.751C826.65 269.056 857.005 282.744 886.621 296.452C916.234 310.158 945.113 323.888 977.796 334.262L977.947 333.785C945.301 323.423 916.452 309.708 886.831 295.998C857.214 282.289 826.829 268.588 791.133 258.271C719.731 237.635 627.109 230.549 476.847 263.954L476.956 264.442ZM977.796 334.262C1022.3 348.385 1064.68 352.843 1106.61 355.684C1148.54 358.526 1189.99 359.752 1232.7 367.405C1318.07 382.705 1408.44 423.7 1517.27 554.76L1517.65 554.441C1408.76 423.301 1318.29 382.236 1232.78 366.912C1190.04 359.253 1148.55 358.026 1106.64 355.185C1064.73 352.345 1022.4 347.89 977.947 333.785L977.796 334.262ZM-201.176 57.5071C-201.392 57.6339 -201.391 57.6352 -201.39 57.6379C-201.388 57.6405 -201.386 57.6444 -201.383 57.6494C-201.377 57.6597 -201.368 57.6749 -201.356 57.695C-201.332 57.7353 -201.296 57.7954 -201.248 57.875C-201.152 58.0341 -201.009 58.2709 -200.817 58.5826C-200.434 59.2059 -199.858 60.1285 -199.086 61.327C-197.543 63.7241 -195.216 67.2248 -192.082 71.6422C-185.813 80.477 -176.313 92.9788 -163.385 107.652C-137.531 136.998 -97.9654 175.029 -43.1196 209.779C66.5778 279.282 237.387 335.643 481.846 283.14L481.741 282.651C237.415 335.125 66.7395 278.792 -42.852 209.357C-97.6505 174.637 -137.181 136.639 -163.01 107.321C-175.925 92.6627 -185.414 80.1748 -191.674 71.3528C-194.804 66.9418 -197.126 63.4474 -198.666 61.0563C-199.436 59.8608 -200.01 58.9411 -200.392 58.3207C-200.582 58.0105 -200.725 57.7751 -200.82 57.6174C-200.867 57.5386 -200.902 57.4791 -200.926 57.4395C-200.938 57.4197 -200.946 57.4049 -200.952 57.395C-200.955 57.3901 -200.957 57.3864 -200.959 57.384C-200.96 57.3816 -200.961 57.3804 -201.176 57.5071ZM481.846 283.14C636.752 249.867 730.773 249.039 803.019 262.016C839.143 268.505 869.83 278.447 899.973 289.518C930.11 300.588 959.721 312.793 993.656 323.794L993.81 323.318C959.886 312.321 930.306 300.127 900.145 289.049C869.99 277.973 839.272 268.02 803.107 261.524C730.775 248.531 636.685 249.37 481.741 282.651L481.846 283.14ZM993.656 323.794C1038.49 338.34 1081.15 344.66 1123.05 349.74C1164.95 354.821 1206.08 358.662 1247.89 368.247C1331.48 387.412 1417.8 429.544 1518.26 550.522L1518.65 550.203C1418.12 429.146 1331.71 386.951 1248 367.76C1206.16 358.167 1164.99 354.323 1123.11 349.244C1081.22 344.164 1038.6 337.849 993.81 323.318L993.656 323.794ZM-195.933 35.1285C-196.152 35.2478 -196.152 35.2493 -196.15 35.2523C-196.148 35.2551 -196.146 35.2594 -196.143 35.265C-196.137 35.2763 -196.128 35.2932 -196.115 35.3155C-196.091 35.3603 -196.054 35.427 -196.005 35.5152C-195.907 35.6918 -195.76 35.9548 -195.564 36.3009C-195.172 36.9932 -194.582 38.0181 -193.793 39.3505C-192.215 42.0152 -189.837 45.9091 -186.64 50.8287C-180.246 60.6679 -170.573 74.61 -157.455 91.0262C-131.218 123.858 -91.197 166.588 -36.0606 206.182C74.218 285.375 244.954 352.016 486.783 301.851L486.681 301.361C245.004 351.495 74.4087 284.896 -35.7689 205.776C-90.8605 166.214 -130.849 123.518 -157.064 90.714C-170.171 74.312 -179.835 60.3833 -186.221 50.5563C-189.414 45.6428 -191.788 41.7547 -193.363 39.0957C-194.15 37.7661 -194.738 36.7439 -195.129 36.0543C-195.325 35.7095 -195.471 35.4479 -195.568 35.2727C-195.617 35.1851 -195.653 35.119 -195.677 35.075C-195.689 35.053 -195.698 35.0364 -195.704 35.0254C-195.707 35.02 -195.709 35.0159 -195.711 35.0132C-195.712 35.0105 -195.713 35.0092 -195.933 35.1285ZM486.783 301.851C646.425 268.72 741.948 259.948 815.145 265.267C888.338 270.587 939.218 289.997 1009.6 313.268L1009.76 312.794C939.395 289.529 888.45 270.094 815.181 264.769C741.915 259.444 646.338 268.228 486.681 301.361L486.783 301.851ZM1009.6 313.268C1054.77 328.229 1097.7 336.409 1139.58 343.729C1181.45 351.051 1222.25 357.512 1263.17 369.036C1344.98 392.077 1427.25 435.36 1519.33 546.253L1519.72 545.934C1427.57 434.963 1345.21 391.624 1263.3 368.555C1222.36 357.023 1181.53 350.556 1139.66 343.237C1097.79 335.917 1054.89 327.742 1009.76 312.794L1009.6 313.268ZM-190.683 12.7239C-190.906 12.8369 -190.905 12.8385 -190.903 12.8417C-190.902 12.8448 -190.899 12.8495 -190.896 12.8557C-190.89 12.8681 -190.881 12.8866 -190.868 12.9112C-190.843 12.9603 -190.805 13.0336 -190.755 13.1306C-190.655 13.3247 -190.504 13.6138 -190.304 13.9945C-189.902 14.7559 -189.299 15.8836 -188.492 17.35C-186.879 20.283 -184.451 24.571 -181.191 29.9939C-174.671 40.8394 -164.824 56.2245 -151.514 74.386C-124.894 110.709 -84.4191 158.14 -28.9977 202.576C81.8504 291.451 252.485 368.336 491.612 320.392L491.514 319.902C252.557 367.812 82.0691 290.985 -28.6849 202.186C-84.0644 157.784 -124.51 110.387 -151.111 74.0905C-164.411 55.9425 -174.249 40.5704 -180.762 29.7362C-184.018 24.3191 -186.444 20.0367 -188.054 17.109C-188.859 15.6451 -189.461 14.5201 -189.861 13.7612C-190.061 13.3818 -190.211 13.094 -190.311 12.9011C-190.361 12.8046 -190.398 12.732 -190.423 12.6835C-190.435 12.6592 -190.444 12.6411 -190.451 12.6289C-190.454 12.6229 -190.456 12.6184 -190.458 12.6154C-190.459 12.6124 -190.46 12.611 -190.683 12.7239ZM491.612 320.392C655.979 287.51 753.002 270.82 827.147 268.496C901.276 266.173 952.539 278.21 1025.39 302.806L1025.55 302.332C952.668 277.726 901.342 265.671 827.132 267.996C752.937 270.322 655.872 287.022 491.514 319.902L491.612 320.392ZM1025.39 302.806C1207.41 364.273 1352.84 340.402 1520.25 542.021L1520.64 541.701C1353.1 339.937 1207.39 363.739 1025.55 302.332L1025.39 302.806ZM-185.434 -9.68069C-185.659 -9.57331 -185.659 -9.57153 -185.657 -9.5681C-185.655 -9.56473 -185.653 -9.55958 -185.65 -9.55283C-185.643 -9.53928 -185.634 -9.51917 -185.621 -9.49238C-185.595 -9.43885 -185.557 -9.35896 -185.505 -9.25306C-185.403 -9.0414 -185.249 -8.72598 -185.043 -8.31058C-184.633 -7.47972 -184.016 -6.24884 -183.192 -4.64753C-181.543 -1.44498 -179.064 3.2392 -175.742 9.16779C-169.097 21.0249 -159.078 37.86 -145.577 57.7757C-118.577 97.6064 -77.6523 149.762 -21.9527 199.061C89.4508 297.661 259.961 384.834 496.352 339.101L496.257 338.61C260.055 384.307 89.6963 297.211 -21.6212 198.686C-77.282 149.422 -118.18 97.3007 -145.164 57.4951C-158.655 37.5926 -168.667 20.7697 -175.306 8.92327C-178.625 3.00014 -181.101 -1.67881 -182.747 -4.87641C-183.57 -6.4752 -184.186 -7.70369 -184.595 -8.53215C-184.8 -8.94638 -184.953 -9.26064 -185.055 -9.4712C-185.106 -9.57648 -185.145 -9.65583 -185.17 -9.7088C-185.183 -9.73529 -185.192 -9.75515 -185.198 -9.7684C-185.202 -9.77496 -185.204 -9.77992 -185.206 -9.78323C-185.207 -9.78648 -185.208 -9.78802 -185.434 -9.68069ZM496.352 339.101C665.532 306.367 764.032 281.708 839.111 271.708C914.16 261.711 965.77 266.369 1041.14 292.278L1041.3 291.805C965.859 265.871 914.171 261.206 839.045 271.212C763.949 281.215 665.397 305.884 496.257 338.61L496.352 339.101ZM1041.14 292.278C1224.48 355.322 1370.45 356.293 1521.13 537.748L1521.52 537.429C1370.72 355.832 1224.52 354.807 1041.3 291.805L1041.14 292.278ZM-180.19 -32.0593C-180.418 -31.9569 -180.417 -31.955 -180.415 -31.9512C-180.414 -31.9476 -180.411 -31.942 -180.408 -31.9347C-180.401 -31.9201 -180.391 -31.8983 -180.378 -31.8693C-180.352 -31.8113 -180.313 -31.7247 -180.26 -31.61C-180.155 -31.3807 -179.998 -31.0389 -179.788 -30.5886C-179.368 -29.6881 -178.738 -28.3537 -177.896 -26.6171C-176.212 -23.1441 -173.682 -18.0627 -170.297 -11.6268C-163.525 1.24484 -153.331 19.5341 -139.638 41.2084C-112.252 84.5561 -70.8675 141.447 -14.8728 195.615C97.119 303.953 267.567 401.411 501.335 357.826L501.243 357.334C267.682 400.881 97.3901 303.52 -14.5251 195.255C-70.4839 141.122 -111.845 84.2653 -139.216 40.9413C-152.901 19.2796 -163.088 1.00186 -169.854 -11.8596C-173.237 -18.2903 -175.764 -23.3669 -177.446 -26.8353C-178.286 -28.5695 -178.916 -29.9016 -179.335 -30.8C-179.544 -31.2491 -179.701 -31.5898 -179.805 -31.8181C-179.858 -31.9323 -179.897 -32.0183 -179.923 -32.0758C-179.936 -32.1045 -179.946 -32.126 -179.952 -32.1404C-179.955 -32.1476 -179.958 -32.1529 -179.959 -32.1565C-179.961 -32.1601 -179.962 -32.1618 -180.19 -32.0593ZM501.335 357.826C675.181 325.421 775.233 292.783 851.246 275.075C889.257 266.22 921.258 261.098 953.487 261.591C985.714 262.085 1018.18 268.194 1057.12 281.818L1057.28 281.346C1018.31 267.708 985.785 261.586 953.495 261.091C921.207 260.597 889.16 265.73 851.133 274.588C775.069 292.308 675.082 324.931 501.243 357.334L501.335 357.826ZM1057.12 281.818C1241.8 346.421 1388.23 372.204 1522.24 533.519L1522.63 533.199C1388.5 371.75 1241.9 345.924 1057.28 281.346L1057.12 281.818ZM-174.94 -54.4638C-175.17 -54.3657 -175.169 -54.3637 -175.167 -54.3597C-175.165 -54.3557 -175.163 -54.3498 -175.159 -54.3419C-175.153 -54.3262 -175.143 -54.3026 -175.129 -54.2714C-175.102 -54.2091 -175.062 -54.1158 -175.008 -53.9922C-174.901 -53.7452 -174.74 -53.3769 -174.525 -52.8917C-174.096 -51.9213 -173.452 -50.4831 -172.593 -48.611C-170.873 -44.8669 -168.292 -39.3872 -164.843 -32.443C-157.946 -18.5546 -147.577 1.19204 -133.69 24.6281C-105.918 71.4995 -64.0739 133.132 -7.78956 192.173C104.779 310.255 275.135 417.991 506.209 376.491L506.12 375.999C275.272 417.459 105.075 309.84 -7.42763 191.828C-63.6788 132.822 -105.501 71.2222 -133.26 24.3732C-147.139 0.949063 -157.503 -18.7866 -164.396 -32.6654C-167.842 -39.6048 -170.421 -45.0799 -172.138 -48.8197C-172.997 -50.6896 -173.64 -52.1257 -174.068 -53.094C-174.282 -53.5782 -174.443 -53.9454 -174.55 -54.1915C-174.603 -54.3146 -174.643 -54.4073 -174.67 -54.4692C-174.683 -54.5002 -174.693 -54.5234 -174.7 -54.5389C-174.703 -54.5466 -174.706 -54.5525 -174.707 -54.5563C-174.709 -54.5601 -174.71 -54.562 -174.94 -54.4638ZM506.209 376.491C684.827 344.415 786.363 303.827 863.324 278.415C901.804 265.708 934.126 256.801 966.87 254.639C999.609 252.476 1032.78 257.056 1072.96 271.343L1073.12 270.872C1032.89 256.565 999.653 251.972 966.837 254.14C934.027 256.307 901.655 265.231 863.167 277.94C786.191 303.357 684.696 343.931 506.12 375.999L506.209 376.491ZM1072.96 271.343C1258.99 337.589 1406.03 388.178 1523.24 529.255L1523.63 528.935C1406.32 387.736 1259.14 337.11 1073.12 270.872L1072.96 271.343ZM-169.69 -76.8686C-169.922 -76.7742 -169.921 -76.772 -169.919 -76.7678C-169.918 -76.7636 -169.915 -76.7572 -169.911 -76.7487C-169.905 -76.7319 -169.894 -76.7067 -169.881 -76.6733C-169.853 -76.6064 -169.812 -76.5065 -169.757 -76.374C-169.647 -76.1092 -169.483 -75.7143 -169.264 -75.1941C-168.825 -74.1536 -168.167 -72.6113 -167.29 -70.6033C-165.535 -66.5872 -162.902 -60.708 -159.39 -53.254C-152.365 -38.3459 -141.819 -17.138 -127.739 8.06434C-99.5776 58.4682 -57.272 124.853 -0.694627 188.773C112.458 316.61 282.727 434.619 511.111 395.137L511.026 394.644C282.885 434.085 112.776 316.215 -0.320253 188.441C-56.8671 124.556 -99.1529 58.2032 -127.302 7.82044C-141.377 -17.3705 -151.917 -38.5681 -158.937 -53.4671C-162.448 -60.9167 -165.079 -66.7915 -166.832 -70.8035C-167.708 -72.8095 -168.365 -74.3498 -168.803 -75.3884C-169.022 -75.9077 -169.186 -76.3015 -169.295 -76.5654C-169.35 -76.6974 -169.391 -76.7968 -169.418 -76.8633C-169.432 -76.8965 -169.442 -76.9214 -169.449 -76.9381C-169.452 -76.9463 -169.455 -76.9525 -169.456 -76.9567C-169.458 -76.9608 -169.459 -76.9628 -169.69 -76.8686ZM511.111 395.137C694.47 363.44 797.495 314.887 875.395 281.751C914.346 265.183 946.993 252.479 980.259 247.651C1013.52 242.825 1047.4 245.869 1088.83 260.823L1089 260.353C1047.5 245.374 1013.53 242.317 980.187 247.156C946.85 251.994 914.149 264.723 875.2 281.291C797.301 314.427 694.322 362.959 511.026 394.644L511.111 395.137ZM1088.83 260.823C1276.22 328.493 1423.79 404.052 1524.24 525.017L1524.62 524.697C1424.08 403.626 1276.41 328.03 1089 260.353L1088.83 260.823ZM-164.447 -99.2472C-164.68 -99.1563 -164.679 -99.154 -164.677 -99.1495C-164.675 -99.1449 -164.672 -99.1381 -164.669 -99.1292C-164.662 -99.1112 -164.651 -99.0843 -164.637 -99.0486C-164.609 -98.9773 -164.567 -98.8706 -164.511 -98.7293C-164.399 -98.4465 -164.231 -98.0251 -164.007 -97.4696C-163.559 -96.3588 -162.887 -94.7121 -161.992 -92.5675C-160.202 -88.2785 -157.518 -81.9985 -153.942 -74.0329C-146.789 -58.1016 -136.069 -35.4275 -121.794 -8.45342C-93.2451 45.4938 -50.4789 116.644 6.38917 185.453C120.12 323.063 290.297 451.351 515.979 413.827L515.897 413.334C290.475 450.814 120.46 322.689 6.77453 185.134C-50.0656 116.36 -92.8137 45.24 -121.352 -8.68732C-135.621 -35.6506 -146.337 -58.3149 -153.486 -74.2377C-157.06 -82.1991 -159.742 -88.475 -161.531 -92.7602C-162.425 -94.9027 -163.096 -96.5477 -163.543 -97.6567C-163.767 -98.2112 -163.934 -98.6318 -164.046 -98.9136C-164.102 -99.0545 -164.144 -99.1607 -164.172 -99.2316C-164.186 -99.2671 -164.196 -99.2938 -164.203 -99.3115C-164.207 -99.3204 -164.209 -99.327 -164.211 -99.3315C-164.213 -99.3359 -164.214 -99.3381 -164.447 -99.2472ZM515.979 413.827C704.114 382.563 808.64 326.027 887.477 285.146C926.896 264.704 959.866 248.192 993.65 240.695C1027.42 233.201 1062.02 234.715 1104.69 250.355L1104.86 249.886C1062.11 234.215 1027.41 232.691 993.542 240.207C959.683 247.72 926.657 264.265 887.246 284.702C808.423 325.577 703.952 382.083 515.897 413.334L515.979 413.827ZM1104.69 250.355C1293.44 319.533 1441.53 419.976 1525.23 520.779L1525.61 520.459C1441.84 419.57 1293.67 319.085 1104.86 249.886L1104.69 250.355ZM-159.196 -121.652C-159.43 -121.564 -159.43 -121.561 -159.428 -121.557C-159.426 -121.552 -159.423 -121.545 -159.42 -121.535C-159.412 -121.516 -159.402 -121.487 -159.387 -121.45C-159.359 -121.374 -159.316 -121.26 -159.258 -121.11C-159.144 -120.809 -158.972 -120.361 -158.744 -119.771C-158.286 -118.589 -157.601 -116.838 -156.688 -114.557C-154.862 -109.994 -152.126 -103.313 -148.485 -94.8345C-141.205 -77.8783 -130.307 -53.7355 -115.836 -24.987C-86.8954 32.5093 -43.6627 108.433 13.504 182.135C127.829 329.529 297.935 468.103 520.944 432.52L520.865 432.026C298.134 467.565 128.189 329.177 13.8991 181.828C-43.242 108.159 -86.4582 32.2657 -115.39 -25.2118C-129.855 -53.9501 -140.749 -78.0836 -148.026 -95.0318C-151.665 -103.506 -154.399 -110.184 -156.224 -114.742C-157.136 -117.022 -157.821 -118.772 -158.277 -119.951C-158.506 -120.541 -158.677 -120.988 -158.791 -121.288C-158.848 -121.438 -158.891 -121.551 -158.92 -121.626C-158.934 -121.664 -158.945 -121.692 -158.952 -121.711C-158.955 -121.721 -158.958 -121.728 -158.96 -121.733C-158.962 -121.737 -158.962 -121.74 -159.196 -121.652ZM520.944 432.52C713.803 401.7 819.802 337.172 899.561 288.531C939.443 264.209 972.733 243.88 1007.04 233.706C1041.33 223.537 1076.64 223.513 1120.56 239.836L1120.74 239.367C1076.72 223.009 1041.29 223.026 1006.9 233.227C972.516 243.423 939.167 263.792 899.301 288.104C819.563 336.733 713.629 401.222 520.865 432.026L520.944 432.52ZM1120.56 239.836C1310.69 310.498 1459.25 435.865 1526.23 516.515L1526.61 516.195C1459.59 435.484 1310.95 310.062 1120.74 239.367L1120.56 239.836ZM-153.945 -144.056C-154.181 -143.971 -154.18 -143.968 -154.178 -143.963C-154.176 -143.958 -154.173 -143.951 -154.17 -143.94C-154.162 -143.92 -154.151 -143.89 -154.137 -143.85C-154.107 -143.769 -154.063 -143.649 -154.005 -143.49C-153.888 -143.171 -153.713 -142.696 -153.48 -142.07C-153.013 -140.818 -152.314 -138.961 -151.383 -136.543C-149.521 -131.706 -146.734 -124.62 -143.03 -115.627C-135.623 -97.6409 -124.55 -72.0224 -109.887 -41.4917C-80.5611 19.5689 -36.872 100.282 20.579 178.888C135.47 336.085 305.459 484.931 525.727 451.158L525.652 450.663C305.677 484.392 135.849 335.756 20.9827 178.593C-36.4448 100.019 -80.1188 19.3346 -109.436 -41.7082C-124.095 -72.2292 -135.164 -97.8388 -142.568 -115.818C-146.27 -124.807 -149.056 -131.889 -150.916 -136.722C-151.846 -139.139 -152.545 -140.994 -153.011 -142.245C-153.244 -142.87 -153.419 -143.344 -153.536 -143.662C-153.594 -143.821 -153.638 -143.941 -153.667 -144.021C-153.681 -144.061 -153.692 -144.091 -153.7 -144.111C-153.703 -144.121 -153.706 -144.129 -153.708 -144.134C-153.709 -144.139 -153.71 -144.141 -153.945 -144.056ZM525.727 451.158C723.452 420.908 831.014 348.311 911.726 291.855C952.085 263.623 985.697 239.454 1020.51 226.613C1055.3 213.779 1091.3 212.261 1136.42 229.368L1136.6 228.9C1091.36 211.752 1055.24 213.268 1020.34 226.144C985.45 239.012 951.777 263.229 911.439 291.445C830.754 347.883 723.266 420.43 525.652 450.663L525.727 451.158ZM1136.42 229.368C1328.05 301.082 1476.99 451.784 1527.22 512.277L1527.61 511.958C1477.35 451.433 1328.34 300.657 1136.6 228.9L1136.42 229.368ZM-148.702 -166.435C-148.938 -166.352 -148.938 -166.349 -148.936 -166.344C-148.934 -166.339 -148.931 -166.331 -148.927 -166.32C-148.92 -166.299 -148.908 -166.267 -148.894 -166.224C-148.864 -166.139 -148.819 -166.012 -148.759 -165.844C-148.64 -165.508 -148.461 -165.006 -148.223 -164.344C-147.747 -163.022 -147.034 -161.06 -146.085 -158.504C-144.188 -153.393 -141.349 -145.906 -137.581 -136.399C-130.045 -117.386 -118.795 -90.2957 -103.936 -57.9876C-74.2194 6.62781 -30.0658 92.1201 27.679 175.622C143.154 342.605 313.051 501.724 530.601 469.823L530.528 469.328C313.287 501.184 143.551 342.299 28.0903 175.337C-29.6329 91.8669 -73.7729 6.40213 -103.482 -58.1966C-118.337 -90.4954 -129.583 -117.577 -137.116 -136.583C-140.882 -146.086 -143.72 -153.57 -145.616 -158.678C-146.564 -161.233 -147.277 -163.193 -147.753 -164.514C-147.99 -165.175 -148.169 -165.676 -148.288 -166.011C-148.347 -166.179 -148.392 -166.306 -148.422 -166.39C-148.437 -166.432 -148.448 -166.464 -148.455 -166.485C-148.459 -166.496 -148.462 -166.504 -148.464 -166.509C-148.465 -166.514 -148.466 -166.517 -148.702 -166.435ZM530.601 469.823C733.07 440.135 842.134 359.575 923.786 295.348C964.617 263.231 998.559 235.228 1033.9 219.69C1069.21 204.161 1105.92 201.083 1152.29 218.848L1152.47 218.381C1105.98 200.568 1069.13 203.651 1033.7 219.232C998.285 234.803 964.283 262.858 923.477 294.955C841.854 359.159 732.872 439.658 530.528 469.328L530.601 469.823ZM1152.3 218.848C1345.28 292.151 1494.71 467.67 1528.22 508.013L1528.61 507.694C1495.09 467.35 1345.59 291.735 1152.47 218.381L1152.3 218.848ZM-143.452 -188.839C-143.689 -188.759 -143.688 -188.756 -143.686 -188.751C-143.684 -188.745 -143.681 -188.737 -143.678 -188.725C-143.67 -188.703 -143.659 -188.669 -143.643 -188.624C-143.613 -188.535 -143.567 -188.401 -143.506 -188.224C-143.384 -187.869 -143.202 -187.34 -142.959 -186.642C-142.473 -185.247 -141.746 -183.178 -140.779 -180.481C-138.845 -175.089 -135.953 -167.189 -132.12 -157.157C-124.454 -137.092 -113.024 -108.497 -97.9659 -74.373C-67.8506 -6.12677 -23.224 84.2359 34.82 172.696C92.8627 261.154 164.33 347.721 248.131 408.364C331.935 469.01 428.085 503.738 535.475 488.487L535.405 487.992C428.175 503.22 332.153 468.551 248.424 407.959C164.692 347.365 93.2633 260.853 35.238 172.421C-22.7861 83.9918 -67.4002 -6.34447 -97.5084 -74.5749C-112.563 -108.69 -123.99 -137.277 -131.653 -157.335C-135.485 -167.364 -138.376 -175.261 -140.308 -180.65C-141.275 -183.345 -142.002 -185.413 -142.487 -186.806C-142.729 -187.503 -142.912 -188.032 -143.033 -188.386C-143.094 -188.563 -143.14 -188.696 -143.17 -188.786C-143.185 -188.83 -143.197 -188.864 -143.204 -188.886C-143.208 -188.897 -143.211 -188.906 -143.213 -188.911C-143.215 -188.917 -143.215 -188.92 -143.452 -188.839ZM535.474 488.488C742.763 459.826 853.32 371.308 935.889 299.204C977.18 263.147 1011.44 231.229 1047.29 212.926C1083.12 194.637 1120.54 189.948 1168.16 208.38L1168.34 207.914C1120.58 189.428 1083.01 194.129 1047.06 212.481C1011.14 230.82 976.823 262.795 935.56 298.828C853.024 370.903 742.555 459.35 535.406 487.992L535.474 488.488ZM1168.16 208.38C1362.47 283.267 1512.44 483.586 1529.21 503.775L1529.6 503.456C1512.86 483.301 1362.8 282.857 1168.34 207.914L1168.16 208.38ZM-138.202 -211.244C-138.439 -211.166 -138.438 -211.163 -138.436 -211.157C-138.434 -211.151 -138.431 -211.142 -138.428 -211.13C-138.42 -211.107 -138.408 -211.071 -138.393 -211.024C-138.362 -210.93 -138.315 -210.79 -138.253 -210.604C-138.129 -210.231 -137.943 -209.676 -137.695 -208.943C-137.2 -207.478 -136.459 -205.306 -135.475 -202.475C-133.506 -196.812 -130.563 -188.516 -126.667 -177.977C-118.876 -156.899 -107.272 -126.852 -92.0233 -90.9726C-61.5253 -19.215 -16.4441 75.8743 41.8882 169.195C100.219 262.515 171.808 354.078 255.326 418.773C338.847 483.47 434.312 521.306 540.378 507.133L540.312 506.638C434.416 520.788 339.082 483.019 255.632 418.378C172.18 353.733 100.627 262.224 42.3122 168.93C-16.0018 75.6384 -61.0715 -19.4257 -91.5631 -91.1683C-106.809 -127.039 -118.409 -157.079 -126.199 -178.15C-130.093 -188.686 -133.035 -196.979 -135.003 -202.639C-135.987 -205.468 -136.727 -207.64 -137.222 -209.103C-137.469 -209.835 -137.655 -210.39 -137.779 -210.762C-137.84 -210.948 -137.887 -211.088 -137.918 -211.181C-137.933 -211.228 -137.945 -211.263 -137.953 -211.287C-137.957 -211.299 -137.96 -211.307 -137.961 -211.313C-137.963 -211.319 -137.964 -211.322 -138.202 -211.244ZM540.378 507.133C752.416 478.8 864.467 382.324 947.966 302.514C989.723 262.603 1024.31 226.897 1060.68 205.934C1097.03 184.987 1135.16 178.769 1184.03 197.86L1184.21 197.395C1135.2 178.245 1096.91 184.483 1060.43 205.501C1023.99 226.503 989.347 262.27 947.621 302.153C864.154 381.931 752.197 478.325 540.312 506.638L540.378 507.133ZM1184.03 197.86C1281.86 236.081 1368.4 311.481 1430.49 377.342C1461.53 410.27 1486.46 440.809 1503.63 463.115C1512.21 474.268 1518.86 483.363 1523.35 489.669C1525.6 492.822 1527.31 495.278 1528.46 496.945C1529.04 497.779 1529.47 498.415 1529.76 498.843C1529.91 499.057 1530.02 499.219 1530.09 499.328C1530.13 499.382 1530.15 499.423 1530.17 499.45C1530.18 499.463 1530.19 499.474 1530.19 499.48C1530.19 499.484 1530.2 499.486 1530.2 499.488C1530.2 499.49 1530.2 499.49 1530.41 499.351C1530.61 499.213 1530.61 499.212 1530.61 499.21C1530.61 499.208 1530.61 499.206 1530.61 499.202C1530.6 499.195 1530.6 499.185 1530.59 499.171C1530.57 499.144 1530.54 499.103 1530.5 499.048C1530.43 498.939 1530.32 498.777 1530.18 498.563C1529.88 498.134 1529.45 497.496 1528.87 496.661C1527.72 494.992 1526.01 492.534 1523.76 489.379C1519.26 483.068 1512.61 473.968 1504.03 462.81C1486.85 440.493 1461.91 409.941 1430.85 376.999C1368.74 311.118 1282.14 235.656 1184.21 197.395L1184.03 197.86Z" fill="url(#paint1_linear_0_1)"/>
<g filter="url(#filter0_ii_0_1)">
<circle cx="1331" cy="1030" r="8" fill="#8CA3FF"/>
</g>
<g filter="url(#filter1_ii_0_1)">
<path d="M1352.39 842.755C1352.39 842.066 1353.3 841.809 1353.66 842.392L1355.96 846.039C1356.09 846.238 1356.3 846.359 1356.54 846.361L1360.85 846.389C1361.54 846.394 1361.8 847.294 1361.21 847.662L1357.57 849.961C1357.37 850.086 1357.25 850.304 1357.25 850.539L1357.22 854.85C1357.21 855.539 1356.31 855.796 1355.94 855.213L1353.65 851.566C1353.52 851.367 1353.3 851.246 1353.07 851.244L1348.76 851.216C1348.07 851.212 1347.81 850.311 1348.39 849.943L1352.04 847.645C1352.24 847.519 1352.36 847.301 1352.36 847.066L1352.39 842.755Z" fill="#F9F9F9"/>
</g>
<g filter="url(#filter2_ii_0_1)">
<path d="M188.893 227.466C189.843 226.748 191.142 227.714 190.728 228.83L188.142 235.817C188 236.198 188.063 236.625 188.308 236.949L192.8 242.893C193.518 243.843 192.553 245.142 191.436 244.729L184.449 242.142C184.068 242.001 183.642 242.064 183.317 242.309L177.373 246.801C176.424 247.518 175.124 246.553 175.538 245.436L178.125 238.45C178.266 238.068 178.203 237.642 177.958 237.318L173.466 231.374C172.748 230.424 173.714 229.125 174.83 229.538L181.817 232.125C182.198 232.266 182.625 232.203 182.949 231.958L188.893 227.466Z" fill="#F4CE6F"/>
</g>
<g filter="url(#filter3_ii_0_1)">
<path d="M965.493 161.179C966.005 160.793 966.705 161.313 966.482 161.915L965.088 165.68C965.012 165.885 965.046 166.115 965.178 166.29L967.599 169.493C967.986 170.005 967.465 170.705 966.864 170.482L963.098 169.088C962.893 169.012 962.663 169.046 962.488 169.178L959.285 171.599C958.773 171.986 958.073 171.466 958.296 170.864L959.69 167.099C959.766 166.893 959.732 166.663 959.6 166.488L957.179 163.285C956.792 162.773 957.313 162.073 957.914 162.296L961.68 163.69C961.885 163.766 962.115 163.732 962.29 163.6L965.493 161.179Z" fill="#F4CE6F"/>
</g>
<g filter="url(#filter4_ii_0_1)">
<circle cx="1116.5" cy="297.5" r="6.5" fill="white"/>
</g>
<g filter="url(#filter5_ii_0_1)">
<circle cx="1356" cy="605" r="12" fill="white"/>
</g>
<g filter="url(#filter6_ii_0_1)">
<circle cx="720" cy="427" r="7" fill="white"/>
</g>
<g filter="url(#filter7_ii_0_1)">
<circle cx="71.5" cy="445.5" r="15.5" fill="#8CA3FF"/>
</g>
<g filter="url(#filter8_ii_0_1)">
<circle cx="1290.5" cy="203.5" r="12.5" fill="#FFC875"/>
</g>
<g filter="url(#filter9_ii_0_1)">
<circle cx="67" cy="977" r="14" fill="white"/>
</g>
<g filter="url(#filter10_ii_0_1)">
<circle cx="249.5" cy="1171.5" r="5.5" fill="#FFC875"/>
</g>
<defs>
<filter id="filter0_ii_0_1" x="1318.73" y="1017.73" width="24.5333" height="24.5333" filterUnits="userSpaceOnUse" color-interpolation-filters="sRGB">
<feFlood flood-opacity="0" result="BackgroundImageFix"/>
<feBlend mode="normal" in="SourceGraphic" in2="BackgroundImageFix" result="shape"/>
<feColorMatrix in="SourceAlpha" type="matrix" values="0 0 0 0 0 0 0 0 0 0 0 0 0 0 0 0 0 0 127 0" result="hardAlpha"/>
<feOffset dx="-4.26667" dy="-4.26667"/>
<feGaussianBlur stdDeviation="2.66667"/>
<feComposite in2="hardAlpha" operator="arithmetic" k2="-1" k3="1"/>
<feColorMatrix type="matrix" values="0 0 0 0 0.533333 0 0 0 0 0.623529 0 0 0 0 1 0 0 0 1 0"/>
<feBlend mode="multiply" in2="shape" result="effect1_innerShadow_0_1"/>
<feColorMatrix in="SourceAlpha" type="matrix" values="0 0 0 0 0 0 0 0 0 0 0 0 0 0 0 0 0 0 127 0" result="hardAlpha"/>
<feOffset dx="4.26667" dy="4.26667"/>
<feGaussianBlur stdDeviation="4.26667"/>
<feComposite in2="hardAlpha" operator="arithmetic" k2="-1" k3="1"/>
<feColorMatrix type="matrix" values="0 0 0 0 1 0 0 0 0 1 0 0 0 0 1 0 0 0 0.5 0"/>
<feBlend mode="screen" in2="effect1_innerShadow_0_1" result="effect2_innerShadow_0_1"/>
</filter>
<filter id="filter1_ii_0_1" x="1347.63" y="841.633" width="14.3403" height="14.3395" filterUnits="userSpaceOnUse" color-interpolation-filters="sRGB">
<feFlood flood-opacity="0" result="BackgroundImageFix"/>
<feBlend mode="normal" in="SourceGraphic" in2="BackgroundImageFix" result="shape"/>
<feColorMatrix in="SourceAlpha" type="matrix" values="0 0 0 0 0 0 0 0 0 0 0 0 0 0 0 0 0 0 127 0" result="hardAlpha"/>
<feOffset dx="0.436263" dy="0.436263"/>
<feGaussianBlur stdDeviation="0.872526"/>
<feComposite in2="hardAlpha" operator="arithmetic" k2="-1" k3="1"/>
<feColorMatrix type="matrix" values="0 0 0 0 1 0 0 0 0 1 0 0 0 0 1 0 0 0 0.5 0"/>
<feBlend mode="screen" in2="shape" result="effect1_innerShadow_0_1"/>
<feColorMatrix in="SourceAlpha" type="matrix" values="0 0 0 0 0 0 0 0 0 0 0 0 0 0 0 0 0 0 127 0" result="hardAlpha"/>
<feOffset dx="-0.436263" dy="-0.436263"/>
<feGaussianBlur stdDeviation="0.5"/>
<feComposite in2="hardAlpha" operator="arithmetic" k2="-1" k3="1"/>
<feColorMatrix type="matrix" values="0 0 0 0 0.489618 0 0 0 0 0.704931 0 0 0 0 0.995833 0 0 0 1 0"/>
<feBlend mode="multiply" in2="effect1_innerShadow_0_1" result="effect2_innerShadow_0_1"/>
</filter>
<filter id="filter2_ii_0_1" x="172.465" y="226.465" width="21.3369" height="21.3364" filterUnits="userSpaceOnUse" color-interpolation-filters="sRGB">
<feFlood flood-opacity="0" result="BackgroundImageFix"/>
<feBlend mode="normal" in="SourceGraphic" in2="BackgroundImageFix" result="shape"/>
<feColorMatrix in="SourceAlpha" type="matrix" values="0 0 0 0 0 0 0 0 0 0 0 0 0 0 0 0 0 0 127 0" result="hardAlpha"/>
<feOffset dx="0.753906" dy="0.753906"/>
<feGaussianBlur stdDeviation="1.50781"/>
<feComposite in2="hardAlpha" operator="arithmetic" k2="-1" k3="1"/>
<feColorMatrix type="matrix" values="0 0 0 0 1 0 0 0 0 1 0 0 0 0 1 0 0 0 0.5 0"/>
<feBlend mode="screen" in2="shape" result="effect1_innerShadow_0_1"/>
<feColorMatrix in="SourceAlpha" type="matrix" values="0 0 0 0 0 0 0 0 0 0 0 0 0 0 0 0 0 0 127 0" result="hardAlpha"/>
<feOffset dx="-0.753906" dy="-0.753906"/>
<feGaussianBlur stdDeviation="1.50781"/>
<feComposite in2="hardAlpha" operator="arithmetic" k2="-1" k3="1"/>
<feColorMatrix type="matrix" values="0 0 0 0 1 0 0 0 0 0.741176 0 0 0 0 0.360784 0 0 0 1 0"/>
<feBlend mode="multiply" in2="effect1_innerShadow_0_1" result="effect2_innerShadow_0_1"/>
</filter>
<filter id="filter3_ii_0_1" x="956.64" y="160.64" width="11.4991" height="11.4987" filterUnits="userSpaceOnUse" color-interpolation-filters="sRGB">
<feFlood flood-opacity="0" result="BackgroundImageFix"/>
<feBlend mode="normal" in="SourceGraphic" in2="BackgroundImageFix" result="shape"/>
<feColorMatrix in="SourceAlpha" type="matrix" values="0 0 0 0 0 0 0 0 0 0 0 0 0 0 0 0 0 0 127 0" result="hardAlpha"/>
<feOffset dx="0.406296" dy="0.406296"/>
<feGaussianBlur stdDeviation="0.812591"/>
<feComposite in2="hardAlpha" operator="arithmetic" k2="-1" k3="1"/>
<feColorMatrix type="matrix" values="0 0 0 0 1 0 0 0 0 1 0 0 0 0 1 0 0 0 0.5 0"/>
<feBlend mode="screen" in2="shape" result="effect1_innerShadow_0_1"/>
<feColorMatrix in="SourceAlpha" type="matrix" values="0 0 0 0 0 0 0 0 0 0 0 0 0 0 0 0 0 0 127 0" result="hardAlpha"/>
<feOffset dx="-0.406296" dy="-0.406296"/>
<feGaussianBlur stdDeviation="0.812591"/>
<feComposite in2="hardAlpha" operator="arithmetic" k2="-1" k3="1"/>
<feColorMatrix type="matrix" values="0 0 0 0 1 0 0 0 0 0.741176 0 0 0 0 0.360784 0 0 0 1 0"/>
<feBlend mode="multiply" in2="effect1_innerShadow_0_1" result="effect2_innerShadow_0_1"/>
</filter>
<filter id="filter4_ii_0_1" x="1108.27" y="289.267" width="16.3789" height="16.3789" filterUnits="userSpaceOnUse" color-interpolation-filters="sRGB">
<feFlood flood-opacity="0" result="BackgroundImageFix"/>
<feBlend mode="normal" in="SourceGraphic" in2="BackgroundImageFix" result="shape"/>
<feColorMatrix in="SourceAlpha" type="matrix" values="0 0 0 0 0 0 0 0 0 0 0 0 0 0 0 0 0 0 127 0" result="hardAlpha"/>
<feOffset dx="-1.73333" dy="-1.73333"/>
<feGaussianBlur stdDeviation="1.73333"/>
<feComposite in2="hardAlpha" operator="arithmetic" k2="-1" k3="1"/>
<feColorMatrix type="matrix" values="0 0 0 0 0.14902 0 0 0 0 0.509804 0 0 0 0 1 0 0 0 0.35 0"/>
<feBlend mode="multiply" in2="shape" result="effect1_innerShadow_0_1"/>
<feColorMatrix in="SourceAlpha" type="matrix" values="0 0 0 0 0 0 0 0 0 0 0 0 0 0 0 0 0 0 127 0" result="hardAlpha"/>
<feOffset dx="1.64557" dy="1.64557"/>
<feGaussianBlur stdDeviation="2.63291"/>
<feComposite in2="hardAlpha" operator="arithmetic" k2="-1" k3="1"/>
<feColorMatrix type="matrix" values="0 0 0 0 1 0 0 0 0 1 0 0 0 0 1 0 0 0 0.75 0"/>
<feBlend mode="normal" in2="effect1_innerShadow_0_1" result="effect2_innerShadow_0_1"/>
</filter>
<filter id="filter5_ii_0_1" x="1340.8" y="589.8" width="30.238" height="30.238" filterUnits="userSpaceOnUse" color-interpolation-filters="sRGB">
<feFlood flood-opacity="0" result="BackgroundImageFix"/>
<feBlend mode="normal" in="SourceGraphic" in2="BackgroundImageFix" result="shape"/>
<feColorMatrix in="SourceAlpha" type="matrix" values="0 0 0 0 0 0 0 0 0 0 0 0 0 0 0 0 0 0 127 0" result="hardAlpha"/>
<feOffset dx="-3.2" dy="-3.2"/>
<feGaussianBlur stdDeviation="3.2"/>
<feComposite in2="hardAlpha" operator="arithmetic" k2="-1" k3="1"/>
<feColorMatrix type="matrix" values="0 0 0 0 0.14902 0 0 0 0 0.509804 0 0 0 0 1 0 0 0 0.35 0"/>
<feBlend mode="multiply" in2="shape" result="effect1_innerShadow_0_1"/>
<feColorMatrix in="SourceAlpha" type="matrix" values="0 0 0 0 0 0 0 0 0 0 0 0 0 0 0 0 0 0 127 0" result="hardAlpha"/>
<feOffset dx="3.03797" dy="3.03797"/>
<feGaussianBlur stdDeviation="4.86076"/>
<feComposite in2="hardAlpha" operator="arithmetic" k2="-1" k3="1"/>
<feColorMatrix type="matrix" values="0 0 0 0 1 0 0 0 0 1 0 0 0 0 1 0 0 0 0.75 0"/>
<feBlend mode="normal" in2="effect1_innerShadow_0_1" result="effect2_innerShadow_0_1"/>
</filter>
<filter id="filter6_ii_0_1" x="710.533" y="417.533" width="18.8086" height="18.8086" filterUnits="userSpaceOnUse" color-interpolation-filters="sRGB">
<feFlood flood-opacity="0" result="BackgroundImageFix"/>
<feBlend mode="normal" in="SourceGraphic" in2="BackgroundImageFix" result="shape"/>
<feColorMatrix in="SourceAlpha" type="matrix" values="0 0 0 0 0 0 0 0 0 0 0 0 0 0 0 0 0 0 127 0" result="hardAlpha"/>
<feOffset dx="-2.46676" dy="-2.46676"/>
<feGaussianBlur stdDeviation="2.46676"/>
<feComposite in2="hardAlpha" operator="arithmetic" k2="-1" k3="1"/>
<feColorMatrix type="matrix" values="0 0 0 0 0.14902 0 0 0 0 0.509804 0 0 0 0 1 0 0 0 0.35 0"/>
<feBlend mode="multiply" in2="shape" result="effect1_innerShadow_0_1"/>
<feColorMatrix in="SourceAlpha" type="matrix" values="0 0 0 0 0 0 0 0 0 0 0 0 0 0 0 0 0 0 127 0" result="hardAlpha"/>
<feOffset dx="2.34186" dy="2.34186"/>
<feGaussianBlur stdDeviation="3.74697"/>
<feComposite in2="hardAlpha" operator="arithmetic" k2="-1" k3="1"/>
<feColorMatrix type="matrix" values="0 0 0 0 1 0 0 0 0 1 0 0 0 0 1 0 0 0 0.75 0"/>
<feBlend mode="normal" in2="effect1_innerShadow_0_1" result="effect2_innerShadow_0_1"/>
</filter>
<filter id="filter7_ii_0_1" x="47.7333" y="421.733" width="47.5333" height="47.5333" filterUnits="userSpaceOnUse" color-interpolation-filters="sRGB">
<feFlood flood-opacity="0" result="BackgroundImageFix"/>
<feBlend mode="normal" in="SourceGraphic" in2="BackgroundImageFix" result="shape"/>
<feColorMatrix in="SourceAlpha" type="matrix" values="0 0 0 0 0 0 0 0 0 0 0 0 0 0 0 0 0 0 127 0" result="hardAlpha"/>
<feOffset dx="-8.26667" dy="-8.26667"/>
<feGaussianBlur stdDeviation="5.16667"/>
<feComposite in2="hardAlpha" operator="arithmetic" k2="-1" k3="1"/>
<feColorMatrix type="matrix" values="0 0 0 0 0.533333 0 0 0 0 0.623529 0 0 0 0 1 0 0 0 1 0"/>
<feBlend mode="multiply" in2="shape" result="effect1_innerShadow_0_1"/>
<feColorMatrix in="SourceAlpha" type="matrix" values="0 0 0 0 0 0 0 0 0 0 0 0 0 0 0 0 0 0 127 0" result="hardAlpha"/>
<feOffset dx="8.26667" dy="8.26667"/>
<feGaussianBlur stdDeviation="8.26667"/>
<feComposite in2="hardAlpha" operator="arithmetic" k2="-1" k3="1"/>
<feColorMatrix type="matrix" values="0 0 0 0 1 0 0 0 0 1 0 0 0 0 1 0 0 0 0.5 0"/>
<feBlend mode="screen" in2="effect1_innerShadow_0_1" result="effect2_innerShadow_0_1"/>
</filter>
<filter id="filter8_ii_0_1" x="1271.33" y="184.333" width="38.3333" height="38.3333" filterUnits="userSpaceOnUse" color-interpolation-filters="sRGB">
<feFlood flood-opacity="0" result="BackgroundImageFix"/>
<feBlend mode="normal" in="SourceGraphic" in2="BackgroundImageFix" result="shape"/>
<feColorMatrix in="SourceAlpha" type="matrix" values="0 0 0 0 0 0 0 0 0 0 0 0 0 0 0 0 0 0 127 0" result="hardAlpha"/>
<feOffset dx="6.66667" dy="6.66667"/>
<feGaussianBlur stdDeviation="6.66667"/>
<feComposite in2="hardAlpha" operator="arithmetic" k2="-1" k3="1"/>
<feColorMatrix type="matrix" values="0 0 0 0 1 0 0 0 0 1 0 0 0 0 1 0 0 0 0.5 0"/>
<feBlend mode="screen" in2="shape" result="effect1_innerShadow_0_1"/>
<feColorMatrix in="SourceAlpha" type="matrix" values="0 0 0 0 0 0 0 0 0 0 0 0 0 0 0 0 0 0 127 0" result="hardAlpha"/>
<feOffset dx="-6.66667" dy="-6.66667"/>
<feGaussianBlur stdDeviation="4.16667"/>
<feComposite in2="hardAlpha" operator="arithmetic" k2="-1" k3="1"/>
<feColorMatrix type="matrix" values="0 0 0 0 1 0 0 0 0 0.835294 0 0 0 0 0.407843 0 0 0 1 0"/>
<feBlend mode="multiply" in2="effect1_innerShadow_0_1" result="effect2_innerShadow_0_1"/>
</filter>
<filter id="filter9_ii_0_1" x="49.2667" y="959.267" width="35.2776" height="35.2776" filterUnits="userSpaceOnUse" color-interpolation-filters="sRGB">
<feFlood flood-opacity="0" result="BackgroundImageFix"/>
<feBlend mode="normal" in="SourceGraphic" in2="BackgroundImageFix" result="shape"/>
<feColorMatrix in="SourceAlpha" type="matrix" values="0 0 0 0 0 0 0 0 0 0 0 0 0 0 0 0 0 0 127 0" result="hardAlpha"/>
<feOffset dx="-3.73333" dy="-3.73333"/>
<feGaussianBlur stdDeviation="3.73333"/>
<feComposite in2="hardAlpha" operator="arithmetic" k2="-1" k3="1"/>
<feColorMatrix type="matrix" values="0 0 0 0 0.14902 0 0 0 0 0.509804 0 0 0 0 1 0 0 0 0.35 0"/>
<feBlend mode="multiply" in2="shape" result="effect1_innerShadow_0_1"/>
<feColorMatrix in="SourceAlpha" type="matrix" values="0 0 0 0 0 0 0 0 0 0 0 0 0 0 0 0 0 0 127 0" result="hardAlpha"/>
<feOffset dx="3.5443" dy="3.5443"/>
<feGaussianBlur stdDeviation="5.67089"/>
<feComposite in2="hardAlpha" operator="arithmetic" k2="-1" k3="1"/>
<feColorMatrix type="matrix" values="0 0 0 0 1 0 0 0 0 1 0 0 0 0 1 0 0 0 0.75 0"/>
<feBlend mode="normal" in2="effect1_innerShadow_0_1" result="effect2_innerShadow_0_1"/>
</filter>
<filter id="filter10_ii_0_1" x="241.067" y="1163.07" width="16.8667" height="16.8667" filterUnits="userSpaceOnUse" color-interpolation-filters="sRGB">
<feFlood flood-opacity="0" result="BackgroundImageFix"/>
<feBlend mode="normal" in="SourceGraphic" in2="BackgroundImageFix" result="shape"/>
<feColorMatrix in="SourceAlpha" type="matrix" values="0 0 0 0 0 0 0 0 0 0 0 0 0 0 0 0 0 0 127 0" result="hardAlpha"/>
<feOffset dx="2.93333" dy="2.93333"/>
<feGaussianBlur stdDeviation="2.93333"/>
<feComposite in2="hardAlpha" operator="arithmetic" k2="-1" k3="1"/>
<feColorMatrix type="matrix" values="0 0 0 0 1 0 0 0 0 1 0 0 0 0 1 0 0 0 0.5 0"/>
<feBlend mode="screen" in2="shape" result="effect1_innerShadow_0_1"/>
<feColorMatrix in="SourceAlpha" type="matrix" values="0 0 0 0 0 0 0 0 0 0 0 0 0 0 0 0 0 0 127 0" result="hardAlpha"/>
<feOffset dx="-2.93333" dy="-2.93333"/>
<feGaussianBlur stdDeviation="1.83333"/>
<feComposite in2="hardAlpha" operator="arithmetic" k2="-1" k3="1"/>
<feColorMatrix type="matrix" values="0 0 0 0 1 0 0 0 0 0.835294 0 0 0 0 0.407843 0 0 0 1 0"/>
<feBlend mode="multiply" in2="effect1_innerShadow_0_1" result="effect2_innerShadow_0_1"/>
</filter>
<linearGradient id="paint0_linear_0_1" x1="-445.998" y1="1030.13" x2="70.9039" y2="38.6468" gradientUnits="userSpaceOnUse">
<stop offset="0.111653" stop-color="#C9FCFF"/>
<stop offset="0.46875" stop-color="#AEEBE0" stop-opacity="0.5"/>
<stop offset="1" stop-color="white" stop-opacity="0.83"/>
</linearGradient>
<linearGradient id="paint1_linear_0_1" x1="1572.63" y1="487.921" x2="1110.94" y2="-497.149" gradientUnits="userSpaceOnUse">
<stop offset="0.111653" stop-color="#C9FCFF"/>
<stop offset="0.46875" stop-color="#AEEBE0" stop-opacity="0.5"/>
<stop offset="0.763411" stop-color="#34AAFF" stop-opacity="0.4"/>
</linearGradient>
</defs>
</svg>
