<?xml version="1.0" encoding="UTF-8"?>
<svg id="Layer_1" data-name="Layer 1" xmlns="http://www.w3.org/2000/svg" viewBox="0 0 20 20">
  <defs>
    <style>
      .cls-1 {
        fill: #fff;
        stroke-width: 0px;
      }
    </style>
  </defs>
  <path class="cls-1" d="m17.01,17.01c-1.61,0-3.22.02-4.83.02-2.26,0-4.52,0-6.78,0-.8,0-1.3-.47-1.29-1.2.01-.71.51-1.15,1.29-1.15,3.73,0,7.45,0,11.18,0,.15,0,.29.01.44.02.86-.14,1.2-.49,1.2-1.31,0-3.84,0-7.68,0-11.53,0-.84-.44-1.26-1.27-1.26-3.86,0-7.72,0-11.58,0-2,0-3.52,1.46-3.54,3.47-.03,3.94-.03,7.88,0,11.82.02,1.92,1.46,3.44,3.34,3.46,3.97.05,7.95.02,11.92.01.71,0,1.17-.54,1.13-1.25-.04-.64-.42-.99-1.2-1.11Zm-6.85-8.5s.03-.02.04-.02c.96-.24,1.57-.83,1.81-1.81.04-.16.12-.31.31-.33.18,0,.28.11.32.25.26,1.01.87,1.66,1.9,1.91.15.04.28.13.29.3,0,.17-.13.27-.27.31-1.02.26-1.65.89-1.91,1.91-.04.15-.14.27-.31.27-.17,0-.27-.13-.31-.27-.25-1-.87-1.63-1.86-1.88-.16-.04-.32-.14-.31-.33,0-.16.15-.24.29-.29Zm-3.05-4.1c.39-.18.65-.43.83-.83.15-.36.44-.36.6-.02.19.41.43.71.86.86.14.05.25.16.25.32-.04.19-.18.28-.34.33-.36.13-.6.37-.73.73-.05.15-.14.31-.33.32-.2,0-.29-.14-.35-.29-.14-.4-.43-.61-.8-.79-.38-.19-.39-.43,0-.61Z"/>
  <path class="cls-1" d="m16.2,14.84c-3.47,0-6.93,0-10.4,0-.23,0-.46-.01-.68.03-.49.09-.85.51-.85.99,0,.48.36.9.85.99.23.04.45.03.68.03,3.47,0,6.93,0,10.4,0,.27,0,.5,0,.8,0,0-.77,0-1.27,0-2.04-.29,0-.53,0-.8,0Z"/>
</svg>