<?xml version="1.0" encoding="utf-8"?>
<!-- Generator: Adobe Illustrator 28.0.0, SVG Export Plug-In . SVG Version: 6.00 Build 0)  -->
<svg version="1.1" id="Layer_1" xmlns="http://www.w3.org/2000/svg" xmlns:xlink="http://www.w3.org/1999/xlink" x="0px" y="0px"
	 viewBox="0 0 20 20" style="enable-background:new 0 0 20 20;" xml:space="preserve">
<style type="text/css">
	.st0{fill:#FFFFFF;}
</style>
<g>
	<path class="st0" d="M3.2,5.2C3,5.4,2.9,5.7,2.6,5.9C2.2,6.2,1.7,6.5,1.2,6.8c-0.4,0.2-0.8,0-1-0.4C0,6.1,0.2,5.6,0.5,5.5
		c1.3-0.5,2-1.7,2.8-2.8c0.5-0.8,1-0.8,1.5,0c2.4,3.8,7.9,3.8,10.4,0c0.5-0.8,1-0.8,1.5,0c0,0.1,0.1,0.1,0.1,0.2
		C17.2,3.4,17.5,4,18,4.5c0.4,0.4,0.9,0.7,1.4,1c0.4,0.3,0.6,0.6,0.4,1s-0.6,0.5-1,0.3C18.1,6.4,17.6,6,17,5.5
		c-0.1-0.1-0.2-0.2-0.2-0.3l-0.1,0.1c0,1.4,0,2.8,0,4.3c0.6,0,1.2,0,1.7,0c0.3,0,0.6,0,0.8,0c0.4,0.1,0.6,0.4,0.6,0.8
		c0,0.4-0.3,0.6-0.7,0.6c-0.1,0-0.2,0-0.3,0C12.9,11,7,11,1.1,11c-0.1,0-0.2,0-0.3,0c-0.4,0-0.7-0.3-0.7-0.7s0.2-0.7,0.7-0.7
		s1,0,1.5,0c1.1,0,1.1,0,1.1-1.1s0-2.1,0-3.2C3.3,5.3,3.3,5.2,3.2,5.2z M6.3,9.5C6.3,9.5,6.3,9.4,6.3,9.5c0.1-1.2,0.1-2.2,0.1-3.3
		c0-0.1,0-0.2-0.1-0.2c-0.5-0.3-1-0.7-1.5-1c0,1.5,0,3,0,4.5C5.3,9.5,5.8,9.5,6.3,9.5z M15.2,5c-0.5,0.3-0.8,0.6-1.2,0.9
		c-0.2,0.1-0.3,0.3-0.3,0.6c0,0.7,0,1.3,0,2c0,1.2,0,1.1,1.2,1.1c0.3,0,0.4-0.1,0.4-0.4c0-1.2,0-2.4,0-3.5C15.2,5.4,15.2,5.3,15.2,5
		z M7.8,9.5c0.4,0,0.9,0,1.3,0c0.1,0,0.3-0.2,0.3-0.3c0-0.7,0-1.3,0-2C9.3,7.2,9.2,7,9.1,7C8.7,6.9,8.3,6.8,7.8,6.7
		C7.8,7.7,7.8,8.6,7.8,9.5z M12.2,9.5c0-0.9,0-1.9,0-2.8c-0.5,0.1-0.9,0.2-1.4,0.3c-0.1,0-0.1,0.1-0.1,0.2c0,0.8,0,1.6,0,2.4
		C11.2,9.5,11.7,9.5,12.2,9.5z"/>
	<path class="st0" d="M13.9,16.4c0.5,0,1,0,1.5,0c0-0.5,0-1,0.1-1.4c0.4-1.7,1.9-2.6,3.6-2.5c0.5,0,0.7,0.3,0.7,0.7
		s-0.3,0.7-0.8,0.7c-0.3,0-0.6,0-0.8,0c-0.8,0.2-1.3,0.8-1.3,1.6c0,0.3,0,0.6,0,0.9c0,0.8-0.6,1.4-1.4,1.4c-0.5,0-1.1,0-1.6,0
		c-0.8,0-1.3-0.6-1.4-1.3c-0.1-0.7-0.2-1.3-0.7-1.8c-0.7-0.7-1.8-1-2.7-0.7c-1,0.4-1.6,1.1-1.7,2.2s-0.6,1.6-1.7,1.6
		c-0.4,0-0.8,0-1.2,0c-0.9,0-1.5-0.6-1.5-1.5c0-0.3,0-0.7-0.1-1C3,14.5,2.3,14,1.5,13.9c-0.2,0-0.5,0-0.7,0
		c-0.4-0.1-0.6-0.3-0.6-0.7s0.2-0.6,0.6-0.7C2.3,12.3,4,13,4.4,14.8c0.1,0.5,0.1,1,0.2,1.6c0.4,0,0.9,0,1.3,0c0.1,0,0.2-0.2,0.2-0.3
		c0.1-1.7,1.3-3,2.9-3.4c2.3-0.6,4.5,0.9,4.9,3.3C13.9,16,13.9,16.2,13.9,16.4z"/>
</g>
</svg>
