<?xml version="1.0" encoding="UTF-8"?>
<svg id="Layer_1" data-name="Layer 1" xmlns="http://www.w3.org/2000/svg" viewBox="0 0 75 75">
  <defs>
    <style>
      .cls-1 {
        fill: #f7931a;
        stroke-width: 0px;
      }
    </style>
  </defs>
  <path class="cls-1" d="m10.73,41.48c-2.52,0-4.91,0-7.31,0-.25,0-.5,0-.76,0-.74-.03-1.17-.44-1.18-1.1,0-.65.42-1.09,1.15-1.14.52-.03,1.05,0,1.63,0v-6.17c-.34.41-.52.67-.75.9-.55.56-1.18.62-1.67.19-.5-.44-.45-1.11.04-1.74,1.57-2.06,3.22-4.07,4.64-6.23,1.72-2.62,2.91-5.51,3.47-8.63.13-.71.53-1.08,1.3-1.08,2.04,0,4.08-.03,6.12-.05.71,0,1.27.4,1.29,1.11.09,3.98,2.52,6.39,5.59,8.32,3.47,2.18,7.34,3.13,11.39,3.35,4.51.25,8.89-.34,13.03-2.27,2.15-1,4.09-2.29,5.59-4.15,1.18-1.46,1.96-3.09,1.97-5.03,0-.9.52-1.35,1.37-1.34,2.01.03,4.03.06,6.04.05.73,0,1.16.31,1.29.99,1.1,5.73,4.14,10.41,7.9,14.71.15.17.32.33.44.52.31.52.27,1.03-.18,1.44-.45.41-.97.41-1.44.03-.32-.26-.59-.59-.98-.99v6.06c.52,0,.99-.01,1.47,0,.84.02,1.31.44,1.31,1.14,0,.71-.46,1.1-1.32,1.11-2.34,0-4.68,0-7.03,0-.27,0-.54,0-.89,0v.89c0,4.89,0,9.77,0,14.66,0,1.19-.34,1.54-1.51,1.54-1.64,0-3.27,0-4.91,0-1.18,0-1.52-.34-1.52-1.53,0-4.86,0-9.72,0-14.59,0-.3,0-.59,0-.93H18.68c0,.33,0,.63,0,.92,0,4.81,0,9.62,0,14.43,0,1.4-.29,1.69-1.67,1.69-1.61,0-3.22,0-4.84,0-1.08,0-1.44-.37-1.44-1.46,0-4.89,0-9.77,0-14.66,0-.3,0-.59,0-.97Zm45.54-17.5c-1.78,2.16-3.82,3.65-6.13,4.76-.48.23-.64.51-.64,1.03.02,2.9.01,5.79.01,8.69,0,.24.03.48.04.72h6.72v-15.2Zm-37.54.01v15.2h6.64c.04-.07.06-.09.06-.11.02-3.22.04-6.44.03-9.67,0-.18-.22-.44-.4-.53-2.37-1.19-4.5-2.66-6.32-4.88Zm28.49,5.98c-3.14,1.06-6.31,1.52-9.52,1.56v7.66h9.52v-9.22ZM13.03,18.75v20.43h3.35v-20.43h-3.35Zm48.9,20.45v-20.43h-3.32v20.43h3.32Zm-34.17-9.05v9.03h7.57v-7.56c-2.54-.49-5.03-.98-7.57-1.47Zm-17.07-6.87c-.1.1-.16.15-.19.2-1.22,2.14-2.45,4.27-3.65,6.42-.16.29-.28.65-.28.98-.02,2.57-.01,5.14,0,7.71,0,.19.04.39.05.58h4.08v-15.89Zm53.6.27v15.62h4.12c0-2.91,0-5.75-.01-8.59,0-.21-.12-.43-.23-.62-1.31-2.17-2.62-4.34-3.88-6.41ZM13.05,41.52v14.76h3.31v-14.76h-3.31Zm48.89,14.77v-14.76h-3.33v14.76h3.33Z"/>
</svg>