<svg width="24" height="24" viewBox="0 0 24 24" fill="none" xmlns="http://www.w3.org/2000/svg">
  <path d="M23.6408 14.9029C22.0379 21.3315 15.5261 25.2438 9.09602 23.6407C2.66858 22.038 -1.24421 15.5266 0.359461 9.09838C1.96163 2.66907 8.47345 -1.24364 14.9016 0.359095C21.3313 1.96183 25.2437 8.47401 23.6408 14.9029Z" fill="#F7931A"/>
  <path d="M17.4515 10.6098C17.6904 9.01286 16.4745 8.15439 14.8119 7.5817L15.3512 5.41847L14.0345 5.09031L13.5094 7.19654C13.1633 7.11028 12.8077 7.02889 12.4544 6.94826L12.9832 4.82816L11.6672 4.5L11.1275 6.66248C10.841 6.59722 10.5597 6.53272 10.2867 6.46483L10.2882 6.45808L8.47226 6.00466L8.12198 7.41106C8.12198 7.41106 9.09896 7.63496 9.07833 7.64884C9.61163 7.78197 9.70802 8.13489 9.69189 8.41467L9.07758 10.8791C9.11433 10.8884 9.16196 10.9019 9.21447 10.9229C9.17059 10.9121 9.12371 10.9001 9.07533 10.8884L8.21424 14.3407C8.14898 14.5027 7.98359 14.7457 7.6108 14.6535C7.62392 14.6726 6.65369 14.4146 6.65369 14.4146L6 15.9218L7.71356 16.349C8.03234 16.4289 8.34475 16.5125 8.65228 16.5913L8.10735 18.7793L9.42261 19.1074L9.9623 16.9427C10.3216 17.0402 10.6704 17.1302 11.0117 17.215L10.4739 19.3696L11.7906 19.6977L12.3356 17.5139C14.5809 17.9388 16.2693 17.7674 16.98 15.7366C17.5527 14.1014 16.9515 13.1582 15.7702 12.5431C16.6305 12.3447 17.2786 11.7788 17.4515 10.6098ZM14.4429 14.8286C14.036 16.4638 11.2828 15.5798 10.3902 15.3582L11.1133 12.4595C12.0059 12.6822 14.8682 13.1233 14.4429 14.8286ZM14.8502 10.5861C14.4789 12.0736 12.1874 11.3179 11.4441 11.1326L12.0996 8.50355C12.843 8.68882 15.2369 9.03461 14.8502 10.5861Z" fill="white"/>
</svg>
