<?xml version="1.0" encoding="UTF-8"?>
<svg id="Layer_1" data-name="Layer 1" xmlns="http://www.w3.org/2000/svg" viewBox="0 0 20 20">
  <defs>
    <style>
      .cls-1 {
        fill: #fff;
        stroke-width: 0px;
      }
    </style>
  </defs>
  <path class="cls-1" d="m17.69,8.54c-.42-.13-.82-.23-1.21-.38-.09-.03-.16-.23-.16-.35-.01-1.13,0-2.25,0-3.38,0-.6-.13-.73-.74-.73-4.36,0-8.73,0-13.09,0-.59,0-.73.13-.73.74,0,2.74,0,5.48,0,8.21,0,.6.13.73.73.73,2.34,0,4.67,0,7.01,0h.44c.07.49.14.93.21,1.43-.56,0-1.1.01-1.65,0-.25,0-.36.07-.39.32-.04.37-.11.73-.18,1.15.89,0,1.73.01,2.57,0,.26,0,.41.09.57.28.32.39.68.75,1.05,1.15-.14,0-.26,0-.39,0-2.19,0-4.38,0-6.56-.01-.25,0-.57-.08-.72-.24-.14-.16-.17-.49-.13-.73.05-.31.35-.43.65-.44.51-.01,1.02,0,1.56,0,.08-.49.16-.95.25-1.47-.18,0-.32,0-.46,0-1.29,0-2.58,0-3.87,0-1.26,0-2.08-.8-2.08-2.06,0-2.81,0-5.61,0-8.42,0-1.26.81-2.07,2.07-2.07,4.4,0,8.81,0,13.21,0,1.26,0,2.06.81,2.07,2.07,0,1.28,0,2.55,0,3.83,0,.12-.01.23-.02.37Z"/>
  <path class="cls-1" d="m10.99,13.39c0-2.4,1.91-4.34,4.31-4.35,2.41,0,4.35,1.93,4.34,4.35,0,2.4-1.93,4.33-4.33,4.33-2.39,0-4.32-1.93-4.32-4.33Zm3.79-2.17c-.16.07-.31.12-.45.19-.49.2-.72.6-.72,1.11,0,.48.25.84.71,1.02.22.09.45.17.68.25.27.09.54.17.8.27.08.03.19.15.18.22,0,.07-.12.18-.21.2-.22.04-.45.09-.67.05-.29-.04-.57-.16-.85-.23-.27-.07-.49.02-.59.28-.11.27-.04.51.23.65.15.08.32.14.49.17.28.05.45.14.44.48,0,.3.21.47.5.47.27,0,.48-.17.48-.45,0-.31.15-.41.4-.49.52-.17.78-.57.8-1.09.03-.51-.2-.92-.69-1.12-.37-.16-.76-.26-1.13-.4-.2-.07-.39-.17-.59-.25v-.18c.26-.06.52-.15.77-.16.25,0,.5.11.75.11.17,0,.39-.08.48-.2.09-.12.11-.4.03-.51-.11-.15-.35-.2-.52-.31-.11-.08-.25-.18-.28-.3-.08-.31-.22-.53-.56-.5-.33.02-.45.25-.46.55,0,.07-.02.13-.02.19Z"/>
  <path class="cls-1" d="m12.28,6.6c-.18,0-.38.01-.57,0-.44-.03-.72-.33-.71-.73,0-.38.28-.68.7-.69.8-.02,1.61-.02,2.42,0,.41.01.66.26.68.66.03.67.02,1.34,0,2.01,0,.09-.14.22-.23.24-.36.1-.73.16-1.13.25-.01-.2-.02-.41-.04-.7-.15.14-.26.22-.35.32-.77.77-1.55,1.53-2.31,2.31-1.22,1.25-1.22,1.24-2.43-.02-.38-.39-.76-.79-1.2-1.24-.38.4-.72.76-1.07,1.11-.5.51-1,1.01-1.51,1.51-.36.35-.73.37-1.03.08-.31-.29-.3-.72.05-1.07,1-1.01,2.01-2.02,3.02-3.02.38-.38.73-.37,1.12.01.61.6,1.21,1.22,1.78,1.8.96-.96,1.88-1.89,2.82-2.84Z"/>
</svg>