<?xml version="1.0" encoding="UTF-8"?>
<svg id="Layer_1" data-name="Layer 1" xmlns="http://www.w3.org/2000/svg" viewBox="0 0 30 30">
  <defs>
    <style>
      .cls-1 {
        fill: #f7931a;
        stroke-width: 0px;
      }
    </style>
  </defs>
  <path class="cls-1" d="m1.79,26.59V3.46c.27-.01.5-.04.72-.04,7.76,0,15.52,0,23.28-.02.67,0,.84.21.79.82-.05.6-.04,1.2,0,1.8.04.54-.2.68-.69.66-.88-.03-1.75,0-2.63,0-5.84,0-11.69,0-17.53,0-.25,0-.7.1-.72.2-.06.47-.04.96.04,1.42.02.09.45.14.69.14,4.36,0,8.73,0,13.09,0,2.86,0,5.73,0,8.59,0,.25,0,.49,0,.77,0v18.13H1.79Zm21.53-7.36c1,0,1.72-.71,1.72-1.68,0-.97-.8-1.75-1.77-1.73-.95.02-1.68.79-1.67,1.75.01.99.71,1.66,1.73,1.65Z"/>
</svg>