<?xml version="1.0" encoding="UTF-8"?>
<svg id="Layer_1" data-name="Layer 1" xmlns="http://www.w3.org/2000/svg" viewBox="0 0 75 75">
  <defs>
    <style>
      .cls-1 {
        fill: #f7931a;
        stroke-width: 0px;
      }
    </style>
  </defs>
  <path class="cls-1" d="m54.69,41.75c4.2-2.33,8.53-2.28,12.95-.26v-.87c0-2.54,0-5.07,0-7.61,0-3.51-2.04-5.55-5.56-5.54-8.68.01-17.37.02-26.05.06-.71,0-.99-.24-1.19-.88-.74-2.34-1.54-4.66-2.32-6.99-.52-1.56-1.03-3.12-1.57-4.76.51,0,.92,0,1.33,0,1.59-.02,2.72-1.08,2.7-2.53-.01-1.42-1.13-2.48-2.67-2.49-9.1,0-18.2,0-27.3,0-1.54,0-2.65,1.06-2.67,2.49-.01,1.46,1.12,2.52,2.71,2.53.75,0,1.5,0,2.25,0,.03.16.06.23.06.3,0,5.41.01,10.83-.02,16.24,0,.24-.28.57-.51.72-1.17.74-2.41,1.37-3.54,2.15-.97.67-1.18,1.8-.72,2.87.47,1.09,1.53,1.79,2.62,1.55.59-.13,1.15-.47,1.66-.82,9.43-6.55,22.6-1.54,25.17,9.64.37,1.61.42,3.29.63,4.99h14.95c.62-4.77,2.91-8.45,7.11-10.78Zm-25.03-13.21c-.54,1.45-1.37,2.72-2.76,3.49-.35.2-.95.28-1.29.12-4.08-1.94-8.34-2.62-12.81-1.89-.1.02-.21,0-.39,0v-15.32c.23-.02.45-.04.68-.04,3.95,0,7.89.01,11.84-.02.59,0,.8.22.96.73,1.26,3.84,2.56,7.67,3.8,11.52.14.43.12.99-.04,1.41Zm13.21,11.47c-.65,0-1.31,0-1.96,0-.62,0-.9-.32-.9-.93,0-.94,0-1.88,0-2.82,0-.94,0-1.88,0-2.82,0-.65.3-.97.95-.96.63,0,1.25,0,1.88,0,.6,0,.94.27.94.89,0,1.91,0,3.81,0,5.72,0,.61-.29.92-.91.92Zm7.49,0c-.63,0-1.25,0-1.88,0-.6,0-.93-.28-.93-.9,0-1.91,0-3.81,0-5.72,0-.61.3-.92.91-.91.65,0,1.31,0,1.96,0,.62,0,.9.33.89.94,0,.94,0,1.88,0,2.82s0,1.88,0,2.82c0,.65-.31.96-.96.96Z"/>
  <path class="cls-1" d="m29.08,48.8c-.2,0-.41-.03-.46-.03-.64-1.53-1.24-2.96-1.86-4.44q.86-1.09-.19-2.15c-.57-.57-1.15-1.14-1.72-1.72-.45-.45-.89-.5-1.35-.03-.14.14-.31.26-.33.28-1.53-.64-2.94-1.23-4.47-1.87-.05-.53.12-1.32-.88-1.34-1.1-.02-2.2,0-3.29,0-.58,0-.86.31-.87.88,0,.2-.03.41-.03.46-1.53.64-2.96,1.24-4.44,1.86q-1.09-.86-2.2.25c-.55.56-1.1,1.12-1.67,1.66-.46.45-.51.88-.04,1.35.14.14.26.31.28.33-.65,1.55-1.24,2.98-1.85,4.45-1.13.1-1.33.2-1.34.9-.03,1.1-.01,2.2,0,3.29,0,.57.31.86.88.87.2,0,.41.03.47.03.64,1.53,1.24,2.96,1.86,4.44q-.85,1.09.25,2.19c.55.55,1.12,1.1,1.66,1.66.45.46.88.5,1.35.04.14-.14.31-.26.34-.29,1.55.64,2.98,1.24,4.47,1.86.05.53-.12,1.32.88,1.34,1.1.02,2.2,0,3.29,0,.57,0,.86-.31.87-.88,0-.2.03-.41.03-.47,1.53-.64,2.96-1.24,4.44-1.86q1.09.85,2.2-.25c.55-.55,1.1-1.11,1.66-1.66.46-.45.5-.89.04-1.36-.14-.14-.26-.31-.28-.34.64-1.55,1.24-2.98,1.86-4.47.54-.05,1.33.12,1.34-.88.02-1.1,0-2.2,0-3.29,0-.57-.31-.86-.88-.87Zm-13.02,7.53c-2.73-.04-4.94-2.31-4.93-5.05.01-2.77,2.29-5.01,5.07-4.99,2.77.02,5,2.31,4.97,5.09-.03,2.77-2.33,4.99-5.11,4.95Z"/>
  <path class="cls-1" d="m72.66,52.41c0-.86-.2-1.03-1.05-1.11-.23-.02-.56-.16-.65-.35-.34-.72-.61-1.48-.91-2.24.06-.07.13-.15.2-.23.75-.78.75-.99,0-1.74-.53-.54-1.07-1.07-1.61-1.61q-1.03-1.03-2.14-.04s-.09.03-.1.03c-.66-.28-1.27-.59-1.91-.78-.48-.14-.69-.35-.64-.86.06-.71-.35-.97-1.02-.96-.97.02-1.93,0-2.9,0-.86,0-1.03.2-1.1,1.05-.02.22-.12.55-.28.63-.75.35-1.53.62-2.42.97-.11-.14-.24-.35-.4-.51-.38-.37-.79-.38-1.17,0-.8.79-1.6,1.58-2.38,2.39-.38.39-.34.79.03,1.17.16.17.32.34.48.51-.3.71-.61,1.32-.81,1.96-.15.48-.35.69-.86.64-.71-.06-.97.35-.96,1.02.02.97,0,1.93,0,2.9,0,.86.2,1.04,1.05,1.11.22.02.55.12.63.28.35.75.62,1.53.92,2.31q-1.01,1.16.08,2.25c.54.54,1.07,1.08,1.61,1.61.66.65.91.65,1.57.02.13-.12.27-.23.36-.31.69.29,1.29.6,1.94.8.48.15.69.34.64.86-.06.71.34.98,1.01.96.97-.01,1.93,0,2.9,0,.86,0,1.03-.2,1.11-1.05.02-.23.16-.56.35-.65.72-.34,1.48-.61,2.25-.91.07.06.15.13.22.2.78.75.98.75,1.74,0,.52-.51,1.04-1.03,1.55-1.55q1.09-1.09.09-2.19s-.03-.09-.03-.1c.28-.66.59-1.27.78-1.91.15-.48.35-.69.86-.64.71.06.97-.35.96-1.02-.02-.97,0-1.93,0-2.9Zm-11.32,5.18c-2.08-.01-3.77-1.74-3.74-3.83.03-2.05,1.73-3.71,3.79-3.7,2.08.01,3.77,1.74,3.74,3.83-.03,2.05-1.73,3.71-3.79,3.7Z"/>
  <path class="cls-1" d="m47.69,23.67h4.79c.05-.12.08-.16.08-.21,0-1.7.1-3.4,0-5.09-.16-2.64,1.25-3.71,3.43-3.48.08,0,.16,0,.23,0,.88-.04,1.35-.49,1.38-1.36.02-.76.02-1.52,0-2.27-.02-.88-.48-1.35-1.36-1.38-.55-.02-1.1-.02-1.65.01-3.38.19-6.46,2.79-6.85,6.14-.29,2.48-.13,5-.16,7.51,0,.04.06.08.11.13Z"/>
</svg>