<?xml version="1.0" encoding="UTF-8"?>
<svg id="Layer_1" data-name="Layer 1" xmlns="http://www.w3.org/2000/svg" viewBox="0 0 75 75">
  <defs>
    <style>
      .cls-1 {
        fill: #f7931a;
        stroke-width: 0px;
      }
    </style>
  </defs>
  <path class="cls-1" d="m3.28,65.78c.46-.96,1.37-.61,2.22-.73,0-.71,0-1.42,0-2.12q0-2.27,2.31-2.27h2.13c0-1.04,0-1.99,0-2.94,0-1.24.25-1.49,1.48-1.5.2,0,.4,0,.66,0v-21.94c-.36,0-.73.02-1.1,0-.68-.04-1.01-.38-1.02-1.06-.02-1.09,0-2.17,0-3.36-1.05,0-2.04,0-3.04,0-1.11,0-1.39-.28-1.4-1.37,0-1.27,0-2.54,0-3.81,0-.91.36-1.31,1.26-1.23,1.18.11,2.1-.31,3.06-.97,8.87-6.19,17.78-12.33,26.67-18.49.95-.66,1.07-.66,2.01,0,9.08,6.28,18.16,12.56,27.23,18.87.59.41,1.17.69,1.9.59.26-.03.53-.02.8,0,.67.03,1.04.38,1.06,1.04.02,1.45.02,2.9,0,4.34-.01.7-.38,1.03-1.12,1.04-1.07.01-2.13,0-3.31,0,0,.93,0,1.81,0,2.69,0,1.57-.13,1.71-1.7,1.74-.13,0-.26.02-.44.03v21.91c.32,0,.62,0,.93,0,.88.03,1.2.35,1.21,1.23,0,1.04,0,2.08,0,3.21h2.19q2.24,0,2.24,2.27v2.1c.8.18,1.77-.23,2.22.75v5.08c-.33.52-.81.67-1.42.67-21.87-.01-43.74-.01-65.61,0-.61,0-1.09-.14-1.42-.67v-5.08ZM67.47,25.42c-.35,0-.64,0-.92,0-12.34,0-24.68,0-37.02,0-1.04,0-1.51-.3-1.52-.98-.01-.7.47-1.02,1.55-1.02,10.85,0,21.7,0,32.54,0h.93c-.3-.23-.46-.35-.61-.46-8.13-5.63-16.25-11.25-24.37-16.89-.42-.29-.69-.27-1.1,0-8.1,5.63-16.21,11.24-24.32,16.85-.17.12-.32.26-.61.49h.89c3.85,0,7.71,0,11.56,0,.2,0,.4-.01.6.01.56.07.97.51.92,1.04-.05.56-.38.89-.94.95-.22.02-.45.01-.67.01-5.35,0-10.69,0-16.04,0h-.77v2.36h59.91v-2.36Zm-36.52,4.48h-7.95c0,1.1.01,2.14,0,3.19-.01.84-.35,1.16-1.19,1.19-.33.01-.65,0-.97,0v21.94c.29,0,.54,0,.78,0,1.09.02,1.38.31,1.39,1.41,0,.8.03,1.6,0,2.4-.02.5.14.65.64.64,2-.03,4.01-.01,6.01-.01.42,0,.83,0,1.31,0,0-1.1,0-2.12,0-3.14,0-.94.34-1.27,1.29-1.3.28,0,.57,0,.89,0v-21.94c-.29,0-.53,0-.77,0-1.12-.01-1.41-.31-1.41-1.44,0-.97,0-1.95,0-2.94Zm13.18-.02c-.04.07-.07.11-.07.14,0,.89-.02,1.78-.02,2.67,0,1.32-.24,1.57-1.54,1.58-.21,0-.43.02-.66.04v21.85c.21.02.38.04.56.04,1.44.03,1.63.23,1.63,1.69,0,.9,0,1.8,0,2.7h7.95c0-1,0-1.96,0-2.91,0-1.19.28-1.47,1.44-1.48.24,0,.47,0,.73,0v-21.91c-.17-.01-.3-.03-.43-.03-1.61-.04-1.74-.17-1.74-1.78,0-.86,0-1.72,0-2.62h-7.86ZM5.32,69.46h64.35v-2.34H5.32v2.34Zm62.14-6.76H7.56v2.33h59.9v-2.33ZM14.18,34.31v21.85h4.55v-21.85h-4.55Zm46.64,21.86v-21.85h-4.56v21.85h4.56Zm-25.59,0h4.53v-21.84h-4.53v21.84Zm-14.27,2.1h-8.96v2.35h8.96v-2.35Zm12.06,0v2.35h8.98v-2.35h-8.98Zm21.02,2.35h9.01v-2.33h-9.01v2.33Zm-12.03-30.73h-9v2.35h9v-2.35Zm-21.04,0h-8.97v2.34h8.97v-2.34Zm42.07,0h-8.98v2.35h8.98v-2.35Z"/>
  <path class="cls-1" d="m37.47,14.57c1.8,0,3.23,1.41,3.24,3.19,0,1.78-1.44,3.23-3.22,3.23-1.74,0-3.19-1.43-3.21-3.17-.02-1.79,1.4-3.24,3.18-3.25Zm1.23,3.19c0-.65-.53-1.17-1.18-1.18-.68-.01-1.23.53-1.22,1.21,0,.65.54,1.18,1.18,1.19.67.01,1.23-.55,1.22-1.22Z"/>
</svg>