<?xml version="1.0" encoding="utf-8"?>
<!-- Generator: Adobe Illustrator 28.0.0, SVG Export Plug-In . SVG Version: 6.00 Build 0)  -->
<svg version="1.1" id="Layer_1" xmlns="http://www.w3.org/2000/svg" xmlns:xlink="http://www.w3.org/1999/xlink" x="0px" y="0px"
	 viewBox="0 0 18 18" style="enable-background:new 0 0 18 18;" xml:space="preserve">
<style type="text/css">
	.st0{fill:#F7931A;}
</style>
<g>
	<path class="st0" d="M1.5,16.2c-0.2,0-0.3,0-0.4-0.1c-0.4-0.2-0.5-0.7-0.2-1.1l6.5-9.7c0.2-0.4,0.7-0.5,1.1-0.2l3.8,2.5l3.9-5.5
		c0.3-0.4,0.7-0.4,1.1-0.2c0.4,0.3,0.4,0.7,0.2,1.1l-4.4,6.1c-0.2,0.3-0.7,0.4-1.1,0.2L8.2,6.8l-6.1,9.1C2,16.1,1.7,16.2,1.5,16.2z"
		/>
	<g>
		<path class="st0" d="M1.4,8.5c-0.4-0.1-0.9,0.2-1,0.6C0.3,9.6,0.6,10,1,10.1l1.6,0.4L3.5,9L1.4,8.5z"/>
		<path class="st0" d="M7.1,11.5l4.7,3.8c0.1,0.1,0.3,0.2,0.5,0.2c0.2,0,0.4-0.1,0.5-0.2l4.5-3.7c0.3-0.3,0.4-0.8,0.1-1.1
			c-0.3-0.3-0.8-0.4-1.1-0.1l-4,3.3L8,10.2C7.9,10.1,7.8,10,7.7,10L7.4,9.9l-0.9,1.4L7.1,11.5z"/>
	</g>
</g>
</svg>
