<svg xmlns="http://www.w3.org/2000/svg" width="845" height="873" fill="none"><g opacity=".25" clip-path="url(#clip0_38_7559)"><path style="mix-blend-mode:screen;fill: #72542f;" d="M958.434 958.442c217.946-217.941 216.436-572.802-3.368-792.604-219.801-219.802-574.662-221.31-792.604-3.368C-55.48 380.411-53.972 735.272 165.83 955.074c219.802 219.806 574.663 221.306 792.604 3.368z" fill="url(#paint0_radial_38_7559)"/><path style="mix-blend-mode:screen;fill: #F7931A;" d="M906.629 876.34c185.941-185.941 184.661-488.695-2.869-676.221-187.525-187.525-490.28-188.81-676.221-2.869-185.94 185.941-184.656 488.696 2.869 676.221C417.934 1061 720.688 1062.28 906.629 876.34z" fill="url(#paint1_radial_38_7559)"/><path fill-rule="evenodd" clip-rule="evenodd" d="M148.714 538.581c0 229.422 186.025 415.447 415.446 415.447 195.022 0 358.643-134.337 403.363-315.511 7.938-32.018 12.084-65.448 12.084-99.936 0-15.259-.794-30.254-2.382-45.073-22.492-208.252-198.814-370.374-413.065-370.374-229.421 0-415.446 186.025-415.446 415.447z" fill="#23E5C3" style="&#10;    fill: #F7931A;&#10;"/><g opacity=".2" fill-rule="evenodd" clip-rule="evenodd" fill="#625EAB"><path d="M669.125 819.426c-5.204 11.203-8.733 20.993-17.641 30.167-9.703 10.055-17.2 11.907-29.725 15.612-7.321 2.117-8.821 4.675-18.082 4.498-6.087-.088-14.466-1.587-20.376-.264-13.143 2.999-20.199 14.642-34.929 15.436-14.025.794-23.022-3.881-35.194-7.586-11.467-3.528-24.786-8.468-35.37-12.525-11.555-4.41-21.963-7.497-33.959-11.29-12.878-4.146-19.494-12.702-35.635-8.203-1.059 5.998.441 15.524-6.88 18.523-5.028 2.028-13.496-3.264-18.876-5.381-14.113-5.38-26.815-8.379-40.222-14.024-6.527-2.735-11.202-2.558-17.729-7.41-6.263-4.675-13.054-8.203-19.67-12.613-12.172-8.115-24.08-16.935-36.164-25.139-23.286-15.788-38.193-37.487-52.306-60.42-7.409-12.084-11.643-25.315-16.318-39.163-5.733-16.936-3.792-21.787 7.498-35.635 20.375 8.468 28.402-4.146 22.757-25.933-4.94-19.052-7.057-44.367-2.823-64.301.794-3.528 3.44-6.086 4.058-11.026.617-5.557-.441-9.614.97-15.171 2.381-9.173 3.969-15.348 3.881-25.139 0-9.878-1.323-20.64 1.147-30.166 1.587-5.998 3.704-8.556 4.057-15.083.353-6.703-.882-12.525 1.059-18.964 4.851-16.759 20.199-21.522 34.047-26.285 9.438-3.264 14.201-6.527 20.287 0 6.439 6.88 4.851 16.318 4.939 25.227.089 16.847-10.761 31.665-20.11 45.249-4.146 6.086-11.467 11.908-10.409 20.287.618 4.587 6.263 5.292 5.91 9.879-.441 5.557-6.439 7.321-9.438 11.202-23.992 31.401 21.258 58.921 42.78 75.592 12.26 9.526 30.783 14.289 35.458 30.078 5.028 16.847-6.615 30.872-12.701 45.249-6.439 15.083-11.908 41.457-2.646 55.57 3.969 5.997 11.731 9.614 17.729 12.437 8.82 4.233 12.172 9.526 20.022 15.259 12.702 9.262 28.402 12.261 44.191 11.29 9.967-.617 17.288-4.675 25.139-10.143 6.086-4.234 14.112-11.908 21.257-13.937 5.116-1.411 8.909-.353 14.113-.97 7.056-.882 8.468-3.793 14.642-5.381 10.673-2.734 18.347 4.764 26.726 9.086 7.145 3.616 15.524 8.732 24.168 6.527 8.292-2.205 17.994-7.498 26.021-9.174 19.229-3.969 50.277-5.38 65.625 7.674 7.762 6.616 10.496 15.789 17.376 22.757 6.88 6.968 19.405 8.38 21.522 23.816l-.176-.089zm-382.458-437.85c18.435.353 35.37-13.496 50.453-23.904 12.349-8.556 25.315-21.963 31.313-35.194 1.764-3.969 2.382-7.233 3.793-11.29.265-.882 4.763-12.878 4.763-13.231-.176-6.968-5.91-15.347-11.114-20.728-14.995-15.436-37.928-4.322-53.011 5.028-14.201 8.82-27.961 18.787-39.957 30.254-5.822 5.469-13.76 10.497-17.817 17.465-5.381 9.173-3.882 20.375-3.705 31.577.265 17.024-22.051 36.605 4.939 40.398 10.585 1.5 43.045-7.409 45.426-20.199h-15.083v-.176z"/><path d="M618.848 920.069c4.586 5.116 9.967 1.587 15.171 0 5.028-1.588 9.35-2.47 14.995-2.47 11.026 0 20.993 0 31.489-2.558 9.967-2.47 19.405-3.881 28.932-6.263 3.792-.97 7.409-3.087 11.202-3.881 2.381-.529 5.027.353 7.409-.088 1.146-.176 1.235-1.588 2.029-1.764 1.94-.441 3.792-.176 5.733-.529 9.526-1.676 18.523-4.499 26.991-7.057 4.057-1.235 7.673-1.323 11.378-3.616 3.881-2.382 9.173-4.94 12.613-7.586 13.584-10.055 28.403-18.435 40.84-30.872 11.643-11.731 23.639-22.404 35.899-33.341 2.823-2.558 5.116-5.822 8.115-8.203 3.263-2.558 6.351-3.793 9.438-6.88 6.351-6.439 11.29-13.496 16.406-20.817 9.967-14.377 22.669-26.108 30.519-41.809 3.793-7.585 7.145-14.995 11.643-22.228 2.823-4.586 5.557-10.231 7.586-15.259 1.499-3.793 4.586-8.291 5.645-11.908 1.588-5.38 1.499-10.584 2.999-15.877.617-2.293 2.205-3.881 2.734-6.086.706-2.822-.794-6.174-.264-8.997.529-2.558 2.117-3.704 2.734-6.086.706-2.823-.794-6.174-.265-8.997.53-2.558 2.117-3.704 2.735-6.086.794-3.264-1.059-7.056-.265-10.32.618-2.382 2.205-3.528 2.734-6.086.53-2.646 0-6.175-.088-8.909 0-6.527 2.205-11.467 2.558-17.641.265-5.645 1.235-13.495 0-18.964-.529-2.558-2.205-3.705-2.734-6.086-.794-3.264.794-6.616-.265-9.967-6.792-1.765-4.675 12.613-4.586 16.141 0 6.527-2.647 10.055-2.47 16.318.176 7.762-3.087 8.821-7.674 14.554-1.941 2.47-6.527 7.233-7.586 10.496-.617 2.117-.617 5.557-1.146 7.674-.706 2.646-1.323 4.41-1.235 7.586.088 6.174.441 9.261-4.322 13.231-3.352 2.734-8.997 6.174-13.143 7.056-5.733 1.323-10.761 1.235-16.582 2.293-2.647.53-3.617 2.117-6.087 2.735-3.175.794-6.615-1.235-9.702.353-2.911 1.499-6.704 7.321-7.498 10.143-1.587 5.381-.529 9.879 1.941 14.554.882 1.676 1.499 3.44 2.558 5.028 1.147 1.852 3.528 3.704 4.498 5.557 4.763 8.732-2.117 22.845-3.969 30.254-.706 2.823-5.028 11.555-2.646 14.201 2.381 2.646 16.671.353 19.317-1.235 1.588 3.176-1.411 9.262-2.382 12.702-1.058 3.969-2.999 9.614-5.38 13.495-4.587 7.498-12.79 14.466-20.552 18.523-5.116 2.735-8.203 4.146-9.173-2.734-.441-3.087.441-4.851-1.147-7.674-1.147-2.029-3.175-2.293-3.969-4.851-.882-2.735.882-6.263.176-8.997-.529-2.029-1.94-3.352-2.381-5.116-1.412-5.91.882-12.613-.089-18.611-2.028-12.085-11.025-17.553-21.522-20.111-10.673-2.646-21.257-5.557-31.312-10.056-11.291-5.027-23.551-6.88-35.371-3.175-9.614 2.999-17.288 8.821-26.109 13.495-4.057 2.206-7.762 3.088-11.731 4.675-4.587 1.764-9.35 3.529-14.024 4.852-8.292 2.381-17.906 3.792-25.58 8.379-7.233 4.322-16.935 9.967-22.051 17.024-4.852 6.703-9.615 20.463-5.998 28.843 2.646 6.351 12.26 11.819 16.759 17.2 7.762 9.085 5.645 15.083 0 24.433-2.117 3.44-5.734 7.938-6.704 11.643-1.323 4.939-.529 12.348-.264 17.376.264 4.851 1.764 8.027 4.41 11.996 2.47 3.705 8.203 6.086 10.232 9.879 1.852 3.44.088 5.116-1.323 7.762-.441.706-1.676.97-2.029 1.764-.97 1.764-.353 3.44-1.059 5.204-2.469 5.734-7.497 4.852-12.613 6.263-5.292 1.411-10.055.794-15.171-1.147-3.087-1.235-4.058-2.117-7.41-2.646-3.704-.529-5.468 1.411-8.203 2.029-6.174 1.323-9.702-2.999-15.877-3.264-4.939-.264-8.026 1.941-11.819 5.734-3.175 3.175-7.674 8.467-7.145 13.319.53 4.939 6.792 7.938 10.232 12.525l.265-.441zm47.807-188.671a39.63 39.63 0 00-4.41-2.117c-3.969 4.586-8.292 9.173-13.231 12.172-7.321 4.587-11.026 1.676-12.702-6.174-.882-4.058 1.324-6.528 2.029-9.438.882-3.352 0-6.88 3.617-8.997 4.939-2.911 19.228-1.412 17.111 7.056l7.586 7.586v-.088zm241.506-324.596c1.147 1.941 2.646 2.647 4.675 2.294 1.058-4.234.97-11.643.176-15.965-.441-2.382-2.029-3.529-2.381-6.439-.265-2.47 0-4.587-.53-7.057-.705-3.087-3.263-8.026-3.881-11.202-1.058-4.851-1.235-7.497-3.175-11.908-1.764-4.057-2.823-9.349-4.675-14.024-1.676-4.234-3.616-7.321-5.998-11.114-4.675-7.674-8.468-15.083-13.231-22.757-8.379-13.584-17.729-27.079-30.342-37.664-4.322-3.616-9.174-6.35-13.672-9.526-1.588-1.058-2.734-2.822-4.234-3.793-1.499-.97-3.881-1.411-5.204-2.381-3.969-2.911-15.259-14.289-20.375-11.555 3.528 9.35 9.702 18.7 14.201 27.873 5.204 10.584 14.906 10.143 22.668 17.641 12.084 11.731-8.115 16.671-15.083 21.257-6.88 4.499-6.968 10.938-6.968 18.347 0 6.88-.529 12.437-2.558 18.876-.794 2.646-2.205 5.998-2.646 8.82.088 1.765.176 3.44.265 5.205-.177 1.323-.882 2.381-2.117 2.91-1.588 7.145 1.411 11.467 3.881 17.641 2.381 5.998 3.881 11.82 8.82 16.407 4.94 4.586 10.408 3.087 17.024 3.175 4.234 0 6.174-.97 10.055-1.941 2.558-.617 6.175-2.116 8.115-2.469 2.999-.618 5.91-.441 8.909-1.147 3.087-.706 3.352-2.47 7.585-1.411 4.323 1.146 8.468 6.086 13.055 7.144 6.351 1.412 13.495-1.587 19.846.265.176.706.265 1.411-2.117 4.587l-.088-.089zM437.498 728.046c7.321-.177 16.847 8.291 21.169 14.554 5.91 8.556-5.116 17.376-11.29 21.61-2.293 1.588-4.41 3.175-7.145 4.234-1.587.617-5.028 2.999-6.527 2.999-4.41 0-6.174-10.585-7.762-14.113-5.292-11.026 3.175-19.052 11.467-25.58v-3.792l.088.088zm-35.723 16.935c.529.441 1.058.794 1.587 1.235 2.47-5.38-1.411-11.026-1.852-16.053-3.616-.177-11.114 6.527-11.114 10.143 0 6.175 9.085 6.528 13.319 6.616l-1.852-1.853-.088-.088zm-65.801-244.24c2.117-9.173 14.906 1.058 18.346 4.234 2.294 2.205 4.763 4.322 6.175 6.968 1.852 3.616 1.676 7.939 1.852 12.261.176 4.674 1.941 8.379 1.852 13.142 0 4.94-.441 9.526-1.852 14.201-2.382 8.027-8.379 14.025-15.083 18.7-3.44 2.381-7.498 4.057-11.29 6.086-4.852 2.646-4.94 3.793-10.056 1.147-5.821-2.999-12.084-5.91-16.671-10.585-5.468-5.557-10.672-10.761-14.553-17.377-4.94-8.467.352-15.083 4.763-22.58 5.204-8.732 12.966-16.142 20.11-23.904 1.941-2.117 4.94-6.35 7.41-7.585 4.851-2.47 9.967 1.587 8.997 5.292zm1.94-33.871c.529-.088.97-.264 1.5-.353.176-2.469 5.38-10.231 1.94-12.525-2.558-1.676-6.615 3.528-8.115 5.293-2.558 3.087-4.763 8.555-1.499 11.907 3.175 3.264 9.35.441 8.026-4.322h-1.852zm31.93 407.685c.883 1.499 2.029 2.028 3.529 1.676 2.028-4.234-8.556-11.026-11.467-12.526-5.028-2.469-14.642-7.85-16.494.442-1.235 5.38 4.763 12.525 9.349 15.171 5.293 2.911 15.613.176 16.936-6.616l-1.853 1.853zM213.898 519.529c.529.088 1.058.176 1.587.353 2.205 7.497-1.235 15.083-1.587 22.227-.441 7.41 0 15.083 0 22.581v22.58c0 3.088.176 6.087-.441 8.997-.265 1.323-1.235 2.294-1.5 4.146-.353 2.381 0 5.116 0 7.586 0 3.616.265 7.321-.441 10.849 0 .353-1.323 3.704-1.499 4.145-.706 2.117 0 2.382-1.412 4.234-3.44 5.204-9.967 8.556-15.612 5.645-4.587-2.381-8.115-5.998-12.966-8.026-6.88-2.911-9.967-6.704-13.231-13.143-2.734-5.292-3.793-11.202-5.557-17.023-.529-1.588-1.676-1.941-2.029-3.529-.352-1.676 0-3.616-.352-5.292-.265-1.235-1.324-2.293-1.5-4.146 0-1.323.176-2.557.176-3.881-.088-1.058-.617-1.764-1.587-2.205-.706-2.999-.177-5.909-.353-8.997-.265-3.969-1.676-7.144-1.852-11.29-.177-4.057-1.941-7.056-1.941-11.29v-11.29c0-7.498.088-14.995 0-22.581 0-3.881 1.147-5.91 1.852-9.35.794-3.704.971-7.762 1.765-11.378.529-2.558 2.91-5.469 3.44-7.85.882-3.793 1.499-5.646 3.704-8.997 4.058-6.175 6.439-8.733 13.143-11.644 6.351-2.822 14.995-1.675 20.728 2.823 1.941 1.5 5.38 4.675 6.086 6.968.441 1.5 0 3.705.353 5.293.441 2.028 1.499 3.263 1.411 6.086-.088 7.233-1.764 17.464-.088 24.521.794 3.44 3.175 7.497 4.322 11.202 1.5 4.498 1.411 8.291 5.204 1.852l.177-.176zm9.349-95.791c4.94-1.588 7.498 9.614 7.498 13.142 0 2.999.97 6.528-1.764 8.556-1.764 1.323-7.321 1.588-9.526.971-5.998-1.764-5.469-10.32-5.557-15.083 0-5.381 4.498-12.526 11.29-11.291l-1.852 3.793-.089-.088zm623.788 7.497c4.763-.088-1.676-13.495-7.057-12.789-4.586.617-8.644 8.114-9.702 11.995-4.675 16.848 20.816 18.083 20.463 2.647l-3.793-1.853h.089zm-62.009 30.078c.441 3.97 4.322 6.351 5.204 9.791.883 3.617-.617 6.527-2.822 9.526-1.676 2.294-4.94 5.91-8.115 5.293-3.087-.618-5.028-4.94-7.409-6.792-4.94-3.705-13.672-7.498-7.586-14.995 2.47-2.999 6.616-4.234 10.32-4.763 5.469-.794 8.027.705 12.172 3.793l-1.852-1.853h.088zM384.839 224.57c1.765-3.44 2.999-4.939 0-7.585-2.469-2.205-5.909-2.382-8.997-1.411-4.41 1.323-9.085 6.791-12.172 10.32-1.676 1.94-4.587 6.262-4.763 8.467-.265 2.735 1.059 5.116 2.823 7.586 2.999 4.146 7.762 7.586 11.29 11.202 5.38 5.557 8.732 2.293 13.142-2.823 3.44-4.057 6.263-8.732 9.438-13.054.794-1.058 3.617-6.439 3.793-7.586.265-2.293-.882-5.027-2.381-7.056-3.176-4.234-9.262-9.614-14.113-11.202l1.852 13.142h.088zm-45.073 14.995c.53.089 1.059.177 1.588.353 1.588 4.851-.441 8.115-5.204 9.174-4.322.97-10.496-.883-11.467-4.764-.882-3.792 2.911-7.409 5.734-9.526 4.41-3.263 8.467-3.881 9.438 2.823v1.852l-.089.088zm28.226 480.983c-.529 1.853 1.676 7.057 2.294 8.997.793 2.646 2.116 6.263 3.351 8.909 1.323 2.911 2.205 6.086 2.823 9.438.617 3.44 2.293 6.174 2.911 9.35 1.323 7.056-6.969 11.996-13.319 10.496-5.645-1.323-10.761-5.821-15.348-9.085-3.087-2.205-3.881-1.764-5.645-5.557-1.5-3.264-2.205-6.615-3.264-9.967-1.058-3.44-1.94-5.292-1.94-9.262 0-3.704-.441-7.674.441-11.29 4.322-17.729 23.727-6.351 27.784 5.645v-7.497l-.088-.177zm-56.363 122.076c1.852-6.615-10.673-11.29-14.995-11.29-5.116 0-6.086.618-7.938 5.204-1.676 4.058-2.294 6.968.441 10.849 3.969 5.646 14.906 8.997 21.522 6.439 7.85-3.087 4.41-13.495-2.646-14.906l3.792 3.793-.176-.089zm80.708-135.218c2.117-.441 5.116-3.44 5.733-5.557.529-1.676-.176-3.528.353-5.292.353-1.412 1.235-2.294 1.5-4.146.264-1.852-.53-3.881-.177-5.645.441-2.029 1.676-3.617 2.029-5.645.617-3.617-.794-7.674-.177-11.291.618-3.351 3.881-7.232 1.588-10.849-1.94-2.999-5.998-2.646-9.085-2.293-3.264.353-5.998 1.588-9.35 2.381-3.881.882-8.732 2.999-12.084 5.204-5.292 3.529-10.937 7.586-12.437 14.025-1.323 5.998-.353 16.142.97 21.699 1.147 4.763 3.44 11.29 8.38 14.201 4.851 2.91 16.053 1.234 20.728-.971l1.852-5.645.177-.176zm-43.133-3.793v-1.235c1.676 9.085-9.085 8.115-11.378 1.323-2.558-7.674 9.791-10.055 11.378-1.94v1.852z"/></g></g><defs><radialGradient id="paint0_radial_38_7559" cx="0" cy="0" r="1" gradientUnits="userSpaceOnUse" gradientTransform="rotate(-135 367.337 148.933) scale(561.81 557.108)"><stop stop-color="#279884"/><stop offset=".16" stop-color="#25938C"/><stop offset=".32" stop-color="#22877B"/><stop offset=".49" stop-color="#1D6872"/><stop offset=".65" stop-color="#165551"/><stop offset=".82" stop-color="#0C2A30"/><stop offset="1"/></radialGradient><radialGradient id="paint1_radial_38_7559" cx="0" cy="0" r="1" gradientUnits="userSpaceOnUse" gradientTransform="matrix(-338.97497 -338.97497 336.13806 -336.13806 528.55 490.458)"><stop stop-color="#23E5C3"/><stop offset=".16" stop-color="#20939A"/><stop offset=".31" stop-color="#1D8E80"/><stop offset=".48" stop-color="#197A74"/><stop offset=".64" stop-color="#135D5D"/><stop offset=".8" stop-color="#0B3835"/><stop offset=".96" stop-color="#020C0A"/><stop offset="1"/></radialGradient><clipPath id="clip0_38_7559"><path fill="#fff" d="M0 0h1121v1121H0z"/></clipPath></defs></svg>