<svg width="755" height="1261" fill="none" xmlns="http://www.w3.org/2000/svg"><path style="mix-blend-mode:screen" d="M946.789 946.795c173.221-173.226 172.031-455.279-2.677-629.983-174.705-174.704-456.757-175.902-629.983-2.677-173.226 173.226-172.027 455.279 2.677 629.983 174.704 174.702 456.757 175.902 629.983 2.677z" fill="url(#paint0_radial_38_7529)"/><path style="mix-blend-mode:screen" d="M905.613 881.538c147.787-147.79 146.767-388.428-2.281-537.478-149.05-149.05-389.687-150.071-537.478-2.28-147.791 147.791-146.77 388.428 2.281 537.478 149.05 149.052 389.687 150.072 537.478 2.28z" fill="url(#paint1_radial_38_7529)"/><path fill-rule="evenodd" clip-rule="evenodd" d="M303.202 613.078c0 182.351 147.857 330.208 330.207 330.208 155.009 0 285.059-106.774 320.603-250.776 6.31-25.449 9.605-52.02 9.605-79.432 0-12.128-.631-24.047-1.893-35.825-17.877-165.524-158.023-294.382-328.315-294.382-182.35 0-330.207 147.857-330.207 330.207z" fill="#23E5C3"/><g opacity=".2" fill-rule="evenodd" clip-rule="evenodd" fill="#625EAB"><path d="M716.838 836.301c-4.137 8.904-6.941 16.686-14.022 23.977-7.712 7.992-13.671 9.465-23.626 12.409-5.819 1.683-7.011 3.716-14.372 3.576-4.838-.07-11.498-1.262-16.195-.211-10.446 2.384-16.055 11.638-27.763 12.269-11.147.631-18.298-3.084-27.973-6.029-9.114-2.804-19.7-6.73-28.113-9.955-9.184-3.506-17.457-5.959-26.992-8.974-10.235-3.295-15.493-10.096-28.323-6.52-.841 4.767.35 12.339-5.469 14.723-3.996 1.612-10.726-2.594-15.003-4.277-11.217-4.277-21.312-6.66-31.969-11.147-5.188-2.173-8.903-2.033-14.091-5.889-4.978-3.716-10.376-6.52-15.634-10.026-9.675-6.45-19.14-13.46-28.745-19.98-18.508-12.55-30.356-29.796-41.574-48.024-5.889-9.605-9.254-20.121-12.97-31.128-4.557-13.461-3.014-17.317 5.96-28.324 16.195 6.731 22.574-3.295 18.087-20.611-3.926-15.144-5.608-35.265-2.243-51.109.631-2.804 2.734-4.837 3.225-8.763.491-4.417-.351-7.642.771-12.059 1.893-7.291 3.155-12.199 3.085-19.981 0-7.852-1.052-16.405.911-23.976 1.262-4.768 2.945-6.801 3.225-11.989.281-5.328-.701-9.955.842-15.073 3.855-13.321 16.054-17.106 27.061-20.892 7.502-2.594 11.287-5.188 16.125 0 5.118 5.468 3.856 12.97 3.926 20.051.07 13.39-8.553 25.168-15.985 35.965-3.295 4.837-9.114 9.464-8.272 16.125.49 3.645 4.977 4.206 4.697 7.852-.351 4.417-5.118 5.819-7.502 8.903-19.069 24.959 16.896 46.832 34.003 60.083 9.745 7.571 24.467 11.357 28.183 23.907 3.996 13.39-5.258 24.537-10.096 35.965-5.117 11.988-9.464 32.951-2.103 44.168 3.155 4.767 9.325 7.642 14.092 9.885 7.011 3.365 9.675 7.572 15.914 12.129 10.096 7.361 22.575 9.745 35.124 8.973 7.923-.49 13.741-3.715 19.981-8.062 4.838-3.365 11.217-9.464 16.896-11.077 4.066-1.122 7.081-.28 11.217-.771 5.609-.701 6.731-3.015 11.638-4.277 8.483-2.173 14.583 3.786 21.243 7.221 5.679 2.875 12.339 6.941 19.209 5.188 6.591-1.752 14.302-5.959 20.682-7.291 15.284-3.155 39.962-4.276 52.16 6.099 6.17 5.259 8.343 12.55 13.812 18.088 5.468 5.539 15.423 6.661 17.106 18.929l-.14-.07zM412.85 488.286c14.653.281 28.114-10.726 40.102-18.999 9.815-6.8 20.121-17.457 24.888-27.973 1.402-3.155 1.893-5.749 3.015-8.974.21-.701 3.786-10.236 3.786-10.516-.14-5.539-4.697-12.199-8.834-16.475-11.918-12.269-30.146-3.436-42.135 3.996-11.287 7.011-22.224 14.933-31.758 24.047-4.628 4.346-10.937 8.343-14.162 13.881-4.277 7.291-3.085 16.195-2.945 25.099.211 13.531-17.527 29.094 3.926 32.109 8.413 1.192 34.213-5.889 36.106-16.055H412.85v-.14z"/><path d="M676.876 916.294c3.646 4.067 7.922 1.262 12.059 0 3.996-1.261 7.431-1.963 11.918-1.963 8.764 0 16.686 0 25.029-2.033 7.922-1.963 15.423-3.084 22.995-4.977 3.015-.771 5.889-2.454 8.904-3.085 1.893-.421 3.996.28 5.889-.07.911-.14.981-1.262 1.612-1.402 1.543-.351 3.015-.14 4.557-.421 7.572-1.332 14.723-3.575 21.453-5.609 3.225-.981 6.1-1.051 9.044-2.874 3.085-1.893 7.291-3.926 10.026-6.029 10.796-7.993 22.574-14.653 32.459-24.538 9.255-9.324 18.789-17.807 28.534-26.501 2.244-2.033 4.067-4.627 6.45-6.52 2.594-2.033 5.048-3.014 7.502-5.468 5.048-5.118 8.974-10.727 13.04-16.546 7.922-11.427 18.018-20.751 24.257-33.231 3.015-6.029 5.679-11.918 9.254-17.667 2.244-3.645 4.417-8.132 6.03-12.128 1.191-3.015 3.645-6.591 4.487-9.465 1.261-4.277 1.191-8.413 2.383-12.619.491-1.823 1.753-3.085 2.174-4.838.56-2.243-.631-4.907-.211-7.151.421-2.033 1.683-2.944 2.174-4.837.56-2.244-.631-4.908-.211-7.151.421-2.033 1.683-2.945 2.174-4.838.631-2.594-.842-5.608-.211-8.202.491-1.893 1.753-2.805 2.174-4.838.42-2.103 0-4.907-.07-7.081 0-5.188 1.752-9.114 2.033-14.021.21-4.487.981-10.727 0-15.073-.421-2.034-1.753-2.945-2.174-4.838-.631-2.594.631-5.258-.21-7.922-5.398-1.402-3.716 10.025-3.646 12.83 0 5.188-2.103 7.992-1.963 12.97.141 6.169-2.453 7.01-6.099 11.567-1.542 1.963-5.188 5.749-6.029 8.343-.491 1.683-.491 4.417-.912 6.1-.561 2.103-1.051 3.505-.981 6.029.07 4.907.35 7.361-3.435 10.516-2.665 2.173-7.151 4.908-10.447 5.609-4.557 1.051-8.553.981-13.18 1.822-2.103.421-2.874 1.683-4.837 2.174-2.524.631-5.258-.982-7.712.28-2.314 1.192-5.328 5.819-5.959 8.063-1.262 4.276-.421 7.852 1.542 11.567.701 1.332 1.192 2.735 2.033 3.997.912 1.472 2.805 2.944 3.576 4.416 3.786 6.941-1.683 18.158-3.155 24.047-.561 2.244-3.996 9.184-2.103 11.288 1.893 2.103 13.25.28 15.353-.982 1.262 2.524-1.121 7.361-1.893 10.096-.841 3.155-2.383 7.641-4.276 10.726-3.646 5.959-10.166 11.498-16.335 14.723-4.067 2.173-6.52 3.295-7.292-2.174-.35-2.453.351-3.855-.911-6.099-.911-1.612-2.524-1.823-3.155-3.856-.701-2.173.701-4.977.14-7.151-.42-1.612-1.542-2.664-1.893-4.066-1.121-4.697.702-10.025-.07-14.793-1.612-9.605-8.763-13.951-17.106-15.984-8.483-2.104-16.896-4.417-24.888-7.993-8.974-3.996-18.719-5.468-28.113-2.524-7.642 2.384-13.742 7.011-20.752 10.727-3.225 1.753-6.17 2.454-9.325 3.716-3.645 1.402-7.431 2.804-11.147 3.856-6.59 1.892-14.232 3.014-20.331 6.66-5.749 3.435-13.461 7.922-17.527 13.531-3.856 5.328-7.642 16.265-4.767 22.925 2.103 5.048 9.745 9.394 13.32 13.671 6.17 7.221 4.487 11.988 0 19.42-1.682 2.734-4.557 6.309-5.328 9.254-1.052 3.926-.421 9.815-.21 13.811.21 3.856 1.402 6.38 3.505 9.535 1.963 2.944 6.52 4.837 8.132 7.852 1.473 2.734.071 4.066-1.051 6.169-.351.561-1.332.772-1.613 1.403-.771 1.402-.28 2.734-.841 4.136-1.963 4.557-5.959 3.856-10.025 4.978-4.207 1.121-7.993.631-12.059-.912-2.454-.981-3.225-1.682-5.889-2.103-2.944-.421-4.347 1.122-6.52 1.612-4.907 1.052-7.712-2.383-12.619-2.594-3.926-.21-6.38 1.543-9.395 4.557-2.524 2.524-6.099 6.731-5.679 10.587.421 3.926 5.399 6.309 8.133 9.955l.21-.351zm37.999-149.96a31.705 31.705 0 00-3.506-1.683c-3.154 3.646-6.59 7.291-10.516 9.675-5.819 3.646-8.763 1.332-10.095-4.907-.701-3.225 1.051-5.188 1.612-7.502.701-2.664 0-5.468 2.875-7.151 3.926-2.314 15.283-1.122 13.601 5.609l6.029 6.029v-.07zm-182.14-2.664c5.819-.14 13.39 6.59 16.826 11.568 4.697 6.8-4.067 13.811-8.974 17.176-1.823 1.262-3.506 2.524-5.679 3.365-1.262.491-3.996 2.384-5.188 2.384-3.505 0-4.908-8.413-6.169-11.217-4.207-8.764 2.523-15.144 9.114-20.332V763.6l.07.07zm-28.394 13.46c.421.351.841.631 1.262.982 1.963-4.277-1.122-8.764-1.472-12.76-2.875-.14-8.834 5.188-8.834 8.063 0 4.907 7.221 5.188 10.586 5.258l-1.472-1.472-.07-.071zm-52.3-194.128c1.682-7.291 11.848.841 14.582 3.365 1.823 1.753 3.786 3.435 4.908 5.539 1.472 2.874 1.332 6.309 1.472 9.745.14 3.715 1.542 6.66 1.472 10.446 0 3.926-.35 7.571-1.472 11.287-1.893 6.38-6.66 11.147-11.989 14.863-2.734 1.893-5.959 3.225-8.973 4.837-3.856 2.104-3.926 3.015-7.993.912-4.627-2.384-9.604-4.698-13.25-8.413-4.347-4.417-8.483-8.553-11.568-13.811-3.926-6.731.281-11.989 3.786-17.948 4.136-6.941 10.306-12.83 15.985-18.999 1.542-1.683 3.926-5.048 5.889-6.03 3.856-1.963 7.922 1.262 7.151 4.207zm1.542-26.921c.421-.07.771-.211 1.192-.281.14-1.963 4.276-8.132 1.542-9.955-2.033-1.332-5.258 2.804-6.45 4.206-2.033 2.454-3.785 6.801-1.191 9.465 2.523 2.594 7.431.35 6.379-3.435h-1.472zm65.691 327.052c2.033-2.453 8.203-3.505 11.217-2.874 3.786.841 6.731 2.173 10.446 2.804 7.432 1.262 16.826 5.048 23.206 8.974 9.324 5.749 25.66 21.944 9.885 30.076-6.38 3.295-14.442 2.735-21.803 2.805-3.786 0-5.819-1.543-9.745-1.473-4.137.07-7.502-1.332-11.218-2.243-6.66-1.613-12.969-3.576-19.419-6.31-5.749-2.383-10.166-6.52-14.583-10.867-5.538-5.398-6.31-12.619-.701-18.298 3.295-3.365 6.24-2.594 10.797-2.594h11.918zm-40.312-3.014c.701 1.192 1.613 1.612 2.804 1.332 1.613-3.365-6.8-8.764-9.114-9.956-3.996-1.963-11.638-6.239-13.11.351-.981 4.277 3.786 9.955 7.432 12.059 4.206 2.313 12.409.14 13.46-5.259l-1.472 1.473zM355.011 597.935c.421.07.842.14 1.262.28 1.753 5.96-.981 11.989-1.262 17.668-.35 5.889 0 11.988 0 17.947v17.948c0 2.454.141 4.837-.35 7.151-.21 1.051-.982 1.823-1.192 3.295-.28 1.893 0 4.066 0 6.029 0 2.874.21 5.819-.351 8.623 0 .281-1.051 2.945-1.191 3.295-.561 1.683 0 1.893-1.122 3.366-2.734 4.136-7.922 6.8-12.409 4.486-3.646-1.892-6.45-4.767-10.306-6.379-5.468-2.314-7.922-5.329-10.516-10.446-2.173-4.207-3.015-8.904-4.417-13.531-.421-1.262-1.332-1.543-1.612-2.805-.281-1.332 0-2.874-.281-4.206-.21-.982-1.051-1.823-1.192-3.295 0-1.052.141-2.033.141-3.085-.071-.841-.491-1.402-1.262-1.752-.561-2.384-.141-4.698-.281-7.152-.21-3.154-1.332-5.678-1.472-8.973-.14-3.225-1.542-5.609-1.542-8.974v-8.974c0-5.959.07-11.918 0-17.947 0-3.085.911-4.698 1.472-7.432.631-2.944.771-6.169 1.402-9.044.421-2.033 2.314-4.347 2.734-6.239.701-3.015 1.192-4.487 2.945-7.151 3.225-4.908 5.118-6.941 10.446-9.255 5.047-2.243 11.918-1.332 16.475 2.244 1.542 1.192 4.277 3.716 4.838 5.538.35 1.192 0 2.945.28 4.207.35 1.612 1.192 2.594 1.122 4.837-.07 5.749-1.402 13.882-.07 19.49.631 2.734 2.523 5.959 3.435 8.904 1.192 3.575 1.122 6.59 4.136 1.472l.14-.14zm7.432-76.137c3.926-1.262 5.959 7.641 5.959 10.446 0 2.383.771 5.188-1.402 6.8-1.402 1.052-5.819 1.262-7.572.771-4.767-1.402-4.346-8.202-4.417-11.988 0-4.277 3.576-9.955 8.974-8.974l-1.472 3.015-.07-.07zM490.88 363.494c1.403-2.734 2.384-3.926 0-6.029-1.963-1.753-4.697-1.893-7.151-1.122-3.505 1.052-7.221 5.399-9.675 8.203-1.332 1.542-3.645 4.978-3.785 6.73-.211 2.174.841 4.067 2.243 6.03 2.384 3.295 6.17 6.029 8.974 8.903 4.277 4.417 6.941 1.823 10.446-2.243 2.734-3.225 4.978-6.941 7.502-10.376.63-.841 2.874-5.118 3.014-6.029.21-1.823-.701-3.996-1.893-5.609-2.524-3.365-7.361-7.642-11.217-8.904l1.472 10.446h.07zm-35.825 11.919c.421.07.842.14 1.262.28 1.262 3.856-.35 6.45-4.136 7.291-3.435.771-8.343-.701-9.114-3.786-.701-3.014 2.313-5.889 4.557-7.571 3.505-2.594 6.73-3.085 7.501 2.243v1.473l-.07.07zM477.49 757.71c-.421 1.473 1.332 5.609 1.823 7.151.631 2.104 1.682 4.978 2.664 7.081 1.051 2.314 1.752 4.838 2.243 7.502.491 2.734 1.823 4.907 2.314 7.431 1.051 5.609-5.539 9.535-10.587 8.343-4.487-1.051-8.553-4.627-12.198-7.221-2.454-1.753-3.085-1.402-4.487-4.417-1.192-2.594-1.753-5.258-2.594-7.922-.842-2.734-1.543-4.206-1.543-7.361 0-2.945-.35-6.1.351-8.974 3.435-14.092 18.859-5.048 22.084 4.487v-5.959l-.07-.141zm-44.799 97.03c1.472-5.258-8.483-8.974-11.919-8.974-4.066 0-4.837.491-6.309 4.136-1.332 3.225-1.823 5.539.35 8.623 3.155 4.487 11.849 7.152 17.107 5.118 6.239-2.453 3.505-10.726-2.104-11.848l3.015 3.015-.14-.07zm64.149-107.476c1.682-.35 4.066-2.734 4.557-4.416.42-1.332-.141-2.805.28-4.207.28-1.122.981-1.823 1.192-3.295.21-1.472-.421-3.085-.14-4.487.35-1.612 1.332-2.874 1.612-4.487.491-2.874-.631-6.099-.14-8.973.491-2.665 3.085-5.749 1.262-8.624-1.543-2.383-4.768-2.103-7.221-1.823-2.594.281-4.768 1.262-7.432 1.893-3.085.701-6.94 2.384-9.605 4.137-4.206 2.804-8.693 6.029-9.885 11.147-1.051 4.767-.28 12.83.771 17.246.912 3.786 2.735 8.974 6.661 11.288 3.856 2.313 12.759.981 16.475-.771l1.472-4.487.141-.141zm-34.283-3.014v-.982c1.332 7.221-7.221 6.45-9.044 1.052-2.033-6.099 7.782-7.992 9.044-1.542v1.472z"/></g><defs><radialGradient id="paint0_radial_38_7529" cx="0" cy="0" r="1" gradientUnits="userSpaceOnUse" gradientTransform="matrix(-315.75217 -315.75217 313.10971 -313.10971 599.716 593.534)"><stop stop-color="#279884"/><stop offset=".16" stop-color="#25938C"/><stop offset=".32" stop-color="#22877B"/><stop offset=".49" stop-color="#1D6872"/><stop offset=".65" stop-color="#165551"/><stop offset=".82" stop-color="#0C2A30"/><stop offset="1"/></radialGradient><radialGradient id="paint1_radial_38_7529" cx="0" cy="0" r="1" gradientUnits="userSpaceOnUse" gradientTransform="rotate(-135 421.603 162.093) scale(381.026 377.838)"><stop stop-color="#23E5C3"/><stop offset=".16" stop-color="#20939A"/><stop offset=".31" stop-color="#1D8E80"/><stop offset=".48" stop-color="#197A74"/><stop offset=".64" stop-color="#135D5D"/><stop offset=".8" stop-color="#0B3835"/><stop offset=".96" stop-color="#020C0A"/><stop offset="1"/></radialGradient></defs></svg>