<?xml version="1.0" encoding="UTF-8"?>
<svg id="Layer_1" data-name="Layer 1" xmlns="http://www.w3.org/2000/svg" viewBox="0 0 75 75">
  <defs>
    <style>
      .cls-1 {
        fill: #f7931a;
        stroke-width: 0px;
      }
    </style>
  </defs>
  <path class="cls-1" d="m66.72,4.21h-5.06c-1.51.16-3.02.29-4.53.49-5.62.74-10.97,2.35-15.91,5.17-4.8,2.75-8.87,6.38-12.46,10.57-.31.36-.62.57-1.12.61-2.89.2-5.79.44-8.68.68-1.46.12-2.68.76-3.49,1.96-2.22,3.29-4.44,6.59-6.57,9.94-1.28,2.01-.02,4.62,2.33,5.03,1.36.24,2.72.42,4.08.63,1.23.19,2.47.39,3.67.58.03.11.05.15.05.18,0,.08,0,.17-.02.25-.29,1.79.31,3.27,1.58,4.52,3.5,3.49,6.99,6.98,10.48,10.48.91.91,1.97,1.48,3.25,1.59.53.05,1.06,0,1.64,0,.02.09.08.24.1.4.38,2.42.73,4.84,1.13,7.25.4,2.45,3.06,3.69,5.15,2.34,3.25-2.09,6.47-4.24,9.68-6.39,1.26-.85,1.98-2.07,2.11-3.6.25-2.95.47-5.91.72-8.86.02-.27.19-.58.39-.76,1.01-.97,2.08-1.88,3.08-2.85,7.6-7.35,11.87-16.31,12.98-26.8.12-1.14.23-2.29.35-3.43V4.21h-4.94ZM19.95,36.27c-2.55-.39-5.04-.78-7.6-1.18.43-.66.82-1.24,1.2-1.82,1.55-2.35,3.1-4.71,4.67-7.05.21-.32.58-.7.91-.74,2.02-.23,4.05-.37,6.21-.55-2.35,3.57-4.18,7.26-5.39,11.33Zm16.68,16.59c-2.62.57-2.07.68-3.86-1.1-3.17-3.15-6.31-6.32-9.49-9.47-.52-.51-.74-1.04-.55-1.76.43-1.66.83-3.34,1.25-5.02,5.49,5.49,10.88,10.88,16.33,16.33-1.21.33-2.43.74-3.69,1.01Zm13.98,1.84c-.01.14-.04.29-.05.43-.13,2.43-.08,1.96-1.87,3.17-2.39,1.61-4.8,3.18-7.21,4.77-.2.14-.41.26-.71.45-.3-1.92-.59-3.74-.86-5.57-.1-.66-.42-1.49-.15-1.96.25-.43,1.16-.48,1.77-.7,3-1.06,5.82-2.48,8.5-4.19.23-.14.45-.29.68-.43.03-.02.08,0,.19-.02-.1,1.36-.2,2.7-.3,4.04Zm16.94-36.97c-.53,5.03-1.91,9.85-4.34,14.3-3.42,6.26-8.28,11.23-14.12,15.25-1.44.99-3,1.78-4.5,2.68-.33.2-.55.19-.84-.1-5.9-5.92-11.81-11.82-17.72-17.73-.24-.24-.35-.42-.16-.78,4.4-8.26,10.55-14.82,18.9-19.15,4.56-2.37,9.49-3.55,14.59-4.04,1.33-.13,2.67-.19,4-.29,0,.02,0,.05,0,.07.95,0,1.89-.03,2.84,0,1.35.05,1.73.37,1.71,1.7-.05,2.69-.07,5.39-.35,8.07Z"/>
  <path class="cls-1" d="m51.74,14.87c-5.11,0-9.25,4.15-9.25,9.27,0,5.14,4.12,9.25,9.25,9.25,5.12,0,9.27-4.14,9.27-9.25,0-5.1-4.17-9.27-9.27-9.27Zm-.02,14.81c-3.07,0-5.52-2.46-5.52-5.53,0-3.08,2.5-5.59,5.57-5.57,3.05.02,5.53,2.51,5.54,5.55.01,3.07-2.5,5.56-5.58,5.55Z"/>
  <path class="cls-1" d="m24.84,51.62c-.38-.43-.81-.83-1.25-1.19-2.38-1.9-5.45-2.51-8.44-1.68-3.08.86-5.57,3.17-6.67,6.16l-5.05,13.86c-.19.52-.08,1.09.28,1.51.29.33.7.51,1.13.51.11,0,.22-.01.33-.04l14.37-3.25c3.3-.75,5.97-3.11,7.14-6.31,1.11-3.05.62-6.38-1.3-8.92-.17-.22-.35-.44-.54-.65Zm-.98,8.54c-.82,2.24-2.68,3.89-4.98,4.41l-11.69,2.64,4.11-11.27c.76-2.09,2.5-3.7,4.66-4.3.6-.17,1.21-.25,1.81-.25,1.43,0,2.81.47,3.94,1.38.32.26.62.54.9.85.14.15.27.31.39.47,1.32,1.74,1.64,3.96.87,6.07Z"/>
</svg>