<svg width="18" height="17" viewBox="0 0 18 17" fill="none" xmlns="http://www.w3.org/2000/svg">
<path d="M5.66797 9.1665H1.66797V1.1665H13.668V6.61384" stroke="#207EFF" stroke-width="1.5" stroke-linecap="round" stroke-linejoin="round"/>
<path d="M8.33398 8.5V11.1667C8.33398 12.2713 10.1247 13.1667 12.334 13.1667C14.5433 13.1667 16.334 12.2713 16.334 11.1667V8.5" stroke="#207EFF" stroke-width="1.5" stroke-linecap="round" stroke-linejoin="round"/>
<path d="M8.33398 11.1665V13.8332C8.33398 14.9378 10.1247 15.8332 12.334 15.8332C14.5433 15.8332 16.334 14.9378 16.334 13.8332V11.1665" stroke="#207EFF" stroke-width="1.5" stroke-linecap="round" stroke-linejoin="round"/>
<path d="M12.334 10.5C14.5431 10.5 16.334 9.60457 16.334 8.5C16.334 7.39543 14.5431 6.5 12.334 6.5C10.1248 6.5 8.33398 7.39543 8.33398 8.5C8.33398 9.60457 10.1248 10.5 12.334 10.5Z" stroke="#207EFF" stroke-width="1.5" stroke-linecap="round" stroke-linejoin="round"/>
<path d="M7.66862 5.83333C8.03681 5.83333 8.33529 5.53486 8.33529 5.16667C8.33529 4.79848 8.03681 4.5 7.66862 4.5C7.30043 4.5 7.00195 4.79848 7.00195 5.16667C7.00195 5.53486 7.30043 5.83333 7.66862 5.83333Z" stroke="#207EFF" stroke-width="1.5" stroke-linecap="round" stroke-linejoin="round"/>
<path d="M7.66862 5.83333C8.03681 5.83333 8.33529 5.53486 8.33529 5.16667C8.33529 4.79848 8.03681 4.5 7.66862 4.5C7.30043 4.5 7.00195 4.79848 7.00195 5.16667C7.00195 5.53486 7.30043 5.83333 7.66862 5.83333Z" fill="#207EFF" stroke="#207EFF" stroke-width="1.5" stroke-linecap="round" stroke-linejoin="round"/>
</svg>
