<svg width="76" height="76" fill="none" xmlns="http://www.w3.org/2000/svg"><path d="M39.583 3.958a2.375 2.375 0 10-4.75 0v27.519L20.416 17.052a2.374 2.374 0 10-3.36 3.357l14.42 14.424H3.959a2.375 2.375 0 100 4.75h27.519L17.056 54.001a2.375 2.375 0 003.356 3.36l14.421-14.418v27.515a2.375 2.375 0 104.75 0V42.94l14.418 14.421a2.374 2.374 0 003.36-3.357l-14.418-14.42h27.515a2.375 2.375 0 100-4.75H42.94l14.421-14.419a2.373 2.373 0 00.031-3.387 2.376 2.376 0 00-3.388.028l-14.42 14.418V3.958z" fill="#23CEE6"/></svg>