<svg width="18" height="17" viewBox="0 0 18 17" fill="none" xmlns="http://www.w3.org/2000/svg">
<path d="M1.66797 3.1665V5.83317C1.66797 6.93784 3.45864 7.83317 5.66797 7.83317C7.8773 7.83317 9.66797 6.93784 9.66797 5.83317V3.1665" stroke="#207EFF" stroke-width="1.5" stroke-linecap="round" stroke-linejoin="round"/>
<path d="M1.66797 5.83301V8.49967C1.66797 9.60434 3.45864 10.4997 5.66797 10.4997C6.69264 10.4997 7.62664 10.3063 8.33464 9.98967" stroke="#207EFF" stroke-width="1.5" stroke-linecap="round" stroke-linejoin="round"/>
<path d="M1.66797 8.5V11.1667C1.66797 12.2713 3.45864 13.1667 5.66797 13.1667C6.69264 13.1667 7.6273 12.974 8.33464 12.6573" stroke="#207EFF" stroke-width="1.5" stroke-linecap="round" stroke-linejoin="round"/>
<path d="M5.66797 5.1665C7.87711 5.1665 9.66797 4.27107 9.66797 3.1665C9.66797 2.06193 7.87711 1.1665 5.66797 1.1665C3.45883 1.1665 1.66797 2.06193 1.66797 3.1665C1.66797 4.27107 3.45883 5.1665 5.66797 5.1665Z" stroke="#207EFF" stroke-width="1.5" stroke-linecap="round" stroke-linejoin="round"/>
<path d="M8.33398 8.5V11.1667C8.33398 12.2713 10.1247 13.1667 12.334 13.1667C14.5433 13.1667 16.334 12.2713 16.334 11.1667V8.5" stroke="#207EFF" stroke-width="1.5" stroke-linecap="round" stroke-linejoin="round"/>
<path d="M8.33398 11.1665V13.8332C8.33398 14.9378 10.1247 15.8332 12.334 15.8332C14.5433 15.8332 16.334 14.9378 16.334 13.8332V11.1665" stroke="#207EFF" stroke-width="1.5" stroke-linecap="round" stroke-linejoin="round"/>
<path d="M12.334 10.5C14.5431 10.5 16.334 9.60457 16.334 8.5C16.334 7.39543 14.5431 6.5 12.334 6.5C10.1248 6.5 8.33398 7.39543 8.33398 8.5C8.33398 9.60457 10.1248 10.5 12.334 10.5Z" stroke="#207EFF" stroke-width="1.5" stroke-linecap="round" stroke-linejoin="round"/>
</svg>
