<?xml version="1.0" encoding="UTF-8"?>
<svg id="Layer_1" data-name="Layer 1" xmlns="http://www.w3.org/2000/svg" viewBox="0 0 75 75">
  <defs>
    <style>
      .cls-1 {
        fill: #f7931a;
        stroke-width: 0px;
      }
    </style>
  </defs>
  <path class="cls-1" d="m70.56,45.96s-.03-.08-.04-.12c-.78-3.73-3.45-5.98-7.16-6.03-4.39-.06-8.96-.06-13.6,0-3.69.04-6.56,2.45-7.14,5.98-.16,1-.15,2.02-.14,3.01,0,.32,0,.63,0,.94,0,.57.18,1.06.53,1.4.33.32.77.49,1.27.49h.04c1.07-.02,1.78-.77,1.8-1.92,0-.5,0-1.01,0-1.51v-.85c0-2.31,1.56-3.86,3.86-3.86,4.38-.01,8.76-.01,13.14,0,2.24,0,3.82,1.58,3.85,3.83,0,.33,0,.66,0,.98,0,.55,0,1.1.02,1.64.03.89.58,1.51,1.47,1.66,1.16.2,1.71-.48,2.1-1.18l.06-.11v-4.08l-.07-.27Z"/>
  <path class="cls-1" d="m17.17,18.97c1.32,0,2.64.01,3.96.01s2.68,0,4.01-.01c1.15,0,1.91-.72,1.92-1.8,0-.55-.17-1.02-.52-1.35-.34-.33-.83-.5-1.42-.51-.88-.01-1.77-.01-2.65,0h-.64c7.34-4.5,15.33-5.62,23.75-3.33,4,1.09,7.73,3.11,11.1,6.01.24.21.73.57,1.3.68.87.17,1.7-.51,2.01-1.27.34-.82.1-1.62-.64-2.14-.51-.36-1.01-.73-1.52-1.1-1.35-1-2.76-2.03-4.27-2.82-10.3-5.43-20.8-5.63-31.19-.59-.98.47-1.88,1.03-2.83,1.62-.21.13-.42.26-.63.39v-1.05c0-.9.01-1.8-.01-2.69-.02-.68-.31-1.26-.8-1.59-.48-.33-1.1-.39-1.7-.17-1.17.42-1.17,1.55-1.17,1.93v6.51c0,.15,0,.29,0,.44,0,.35-.02.71.02,1.07.11,1.16.76,1.76,1.92,1.77Z"/>
  <path class="cls-1" d="m57.43,56.13c-2.32,0-4.63,0-6.95,0-.27,0-.56,0-.85.06-.9.17-1.43.84-1.43,1.78,0,.94.53,1.61,1.43,1.78.32.06.65.06.91.06,1.1,0,2.2,0,3.3,0-6.46,4.2-13.69,5.62-21.48,4.24-5.15-.91-9.86-3.22-14.02-6.86-.51-.45-1.06-.66-1.58-.62-.46.03-.87.26-1.2.66-.32.39-.48.82-.44,1.26.05.52.35,1.02.91,1.49,4.88,4.05,10.44,6.59,16.54,7.55,7.98,1.25,15.59-.2,22.62-4.33.38-.22.76-.46,1.16-.72v1.05c0,.87-.01,1.73.01,2.59.02.66.29,1.21.76,1.54.29.2.64.31,1.02.31.22,0,.44-.04.67-.11.79-.26,1.2-.9,1.21-1.9v-1.06c.04-2.03.07-4.05.09-6.08,0-.8-.06-1.6-.56-2.11-.51-.51-1.31-.58-2.11-.58Z"/>
  <path class="cls-1" d="m25.27,43.49c1.95.01,3.56,1.64,3.59,3.62,0,.44,0,.87,0,1.31,0,.43,0,.87,0,1.31.02,1.14.75,1.91,1.82,1.91h.01c1.09,0,1.8-.74,1.81-1.9.01-.93.02-2.02-.02-3.08-.13-3.55-2.92-6.52-6.35-6.75-1.78-.12-3.58-.09-5.33-.06-.63.01-1.25.02-1.88.02v-.08h-2.5c-1.53,0-3.07,0-4.61,0-3.7.03-6.61,2.31-7.26,5.67-.2,1.07-.2,2.17-.2,3.24,0,.35,0,.69,0,1.03,0,.55.17,1.05.52,1.39.34.34.81.51,1.34.5,1.06-.02,1.75-.75,1.78-1.86,0-.43,0-.86,0-1.29,0-.44,0-.89,0-1.33.05-2.08,1.61-3.66,3.61-3.67,4.53-.03,9.11-.03,13.64,0Z"/>
  <path class="cls-1" d="m51.43,25.55c-1.39,1.37-2.15,3.2-2.16,5.17,0,1.96.74,3.8,2.09,5.17,1.36,1.37,3.19,2.13,5.15,2.13h.03c4.06,0,7.25-3.18,7.29-7.24.03-4.07-3.15-7.28-7.25-7.32-1.92.02-3.77.72-5.15,2.08Zm5.11,8.82c-.91,0-1.83-.41-2.52-1.11s-1.09-1.62-1.09-2.52c0-1.91,1.7-3.59,3.62-3.59h0c1.95,0,3.59,1.66,3.59,3.61,0,.92-.4,1.84-1.1,2.54-.69.69-1.57,1.1-2.5,1.07Z"/>
  <path class="cls-1" d="m18.41,38.02s.02,0,.03,0c1.95,0,3.78-.74,5.14-2.1,1.37-1.36,2.13-3.19,2.13-5.15h0c.01-4.07-3.17-7.28-7.24-7.31h-.06c-3.97,0-7.23,3.24-7.26,7.25-.02,1.95.72,3.77,2.08,5.15,1.37,1.38,3.2,2.15,5.17,2.16Zm-3.57-7.26c0-1.95,1.63-3.61,3.58-3.62h.01c1.92,0,3.61,1.67,3.62,3.58,0,.9-.39,1.82-1.08,2.52-.7.7-1.61,1.11-2.52,1.11-.9-.02-1.81-.38-2.5-1.07-.7-.69-1.1-1.62-1.11-2.54Z"/>
</svg>