<?xml version="1.0" encoding="utf-8"?>
<!-- Generator: Adobe Illustrator 28.0.0, SVG Export Plug-In . SVG Version: 6.00 Build 0)  -->
<svg version="1.1" id="Layer_1" xmlns="http://www.w3.org/2000/svg" xmlns:xlink="http://www.w3.org/1999/xlink" x="0px" y="0px"
	 viewBox="0 0 32 34" style="enable-background:new 0 0 32 34;" xml:space="preserve">
<style type="text/css">
	.st0{fill:none;stroke:#F7931A;}
	.st1{fill:#CE7819;}
	.st2{fill:#CC7619;}
	.st3{fill:#F7931A;}
</style>
<g>
	<g>
		<path class="st0" d="M31.1,17c0,8.6-6.8,15.6-15.1,15.6S0.9,25.6,0.9,17S7.7,1.4,16,1.4S31.1,8.4,31.1,17z"/>
		<path class="st1" d="M13.1,24.4c-0.5,0-0.4-0.2-0.6-0.7l-1.5-5l11.4-7"/>
		<path class="st2" d="M13.1,24.4c0.4,0,0.6-0.2,0.8-0.4l2.1-2.1l-2.6-1.6"/>
		<path class="st3" d="M13.4,20.3l6.3,4.8c0.7,0.4,1.2,0.2,1.4-0.7l2.6-12.4c0.3-1.1-0.4-1.6-1.1-1.3l-15,6c-1,0.4-1,1-0.2,1.3
			l3.9,1.2l8.9-5.8c0.4-0.3,0.8-0.1,0.5,0.2"/>
	</g>
</g>
</svg>
