<?xml version="1.0" encoding="UTF-8"?>
<svg id="Layer_1" data-name="Layer 1" xmlns="http://www.w3.org/2000/svg" xmlns:xlink="http://www.w3.org/1999/xlink" viewBox="0 0 190 150">
  <defs>
    <style>
      .cls-1 {
        fill: #f5931c;
      }

      .cls-1, .cls-2, .cls-3, .cls-4, .cls-5, .cls-6, .cls-7, .cls-8, .cls-9, .cls-10 {
        fill-rule: evenodd;
        stroke-width: 0px;
      }

      .cls-2 {
        fill: url(#linear-gradient-3);
      }

      .cls-3 {
        fill: #df861c;
      }

      .cls-4 {
        fill: url(#linear-gradient);
      }

      .cls-5 {
        fill: #fff;
      }

      .cls-6 {
        fill: url(#linear-gradient-2);
      }

      .cls-7 {
        fill: url(#linear-gradient-5);
      }

      .cls-8 {
        fill: #1e110e;
      }

      .cls-9 {
        fill: #c2b8bd;
      }

      .cls-10 {
        fill: url(#linear-gradient-4);
      }

      .cls-11 {
        filter: url(#outer-glow-2);
      }
    </style>
    <filter id="outer-glow-2" filterUnits="userSpaceOnUse">
      <feOffset dx="0" dy="0"/>
      <feGaussianBlur result="blur" stdDeviation="5"/>
      <feFlood flood-color="#ff8500" flood-opacity=".75"/>
      <feComposite in2="blur" operator="in"/>
      <feComposite in="SourceGraphic"/>
    </filter>
    <linearGradient id="linear-gradient" x1="23.56" y1="75.6" x2="164.04" y2="75.6" gradientUnits="userSpaceOnUse">
      <stop offset="0" stop-color="#f7931a"/>
      <stop offset="1" stop-color="#1e110e"/>
    </linearGradient>
    <linearGradient id="linear-gradient-2" x1="32.44" y1="50.53" x2="51.69" y2="50.53" xlink:href="#linear-gradient"/>
    <linearGradient id="linear-gradient-3" x1="42.35" y1="83.39" x2="42.35" y2="107.24" xlink:href="#linear-gradient"/>
    <linearGradient id="linear-gradient-4" x1="46.91" y1="101.9" x2="46.91" y2="135.53" xlink:href="#linear-gradient"/>
    <linearGradient id="linear-gradient-5" x1="104.68" y1="81.79" x2="138.14" y2="81.79" gradientUnits="userSpaceOnUse">
      <stop offset="0" stop-color="#1e110e"/>
      <stop offset="1" stop-color="#f7931a"/>
    </linearGradient>
  </defs>
  <g class="cls-11">
    <g>
      <path class="cls-4" d="m48.96,35.04s-.16,2.25-2.42,3.23c-2.26.99-4.34,1.43-5.01,2.72-.67,1.29-.81,2.85-.42,3.39.39.55.62.9.62.9,0,0-1.76,2.08-4.7,3.4-2.94,1.32-4.44,1.62-4.54,3.67-.09,2.05,1.26,4.22,2.15,4.73.89.51,1.94.44,1.94.44,0,0-1.03-2.24.51-3.86,1.54-1.62,5.32-3,6.3-3.08.97-.09,1.77-.02,1.77-.02,0,0-.53,2.12-1.56,3.56-1.03,1.44-2.26,2.48-2.26,2.48l-1.21.65s1.86,1.43,3.27,1.07c1.4-.36,3.47-1.23,3.47-1.23,0,0-2.86,3.19-4.38,4.63-1.52,1.44-6.69,6.28-7.16,9.66-.47,3.38.42,5.68,1.22,6.78.8,1.1,1.75,1.75,1.75,1.75,0,0,.34-2.57.41-2.78.07-.21,1.19,2.71,2.38,4.07,1.19,1.37,2.56,2.4,2.88,2.72.32.32,2.26,4.29,2.26,4.29l1.02,3.9s-3.07-.73-4.41-1.35c-1.35-.62-4.3-3.53-5.67-5.35-1.37-1.82-2.74-2.62-3.92-1.68-1.19.94-1.66,1.71-1.66,1.71,0,0-2.76-.33-4.28,1.57-1.52,1.9-1.23,3.76-1.23,3.76,0,0,.54-1.9,2.3-2.1,1.76-.19,2.92.04,2.92.04l.76,1.61-2.76,1.79-3.25,1.54-2.46,3.01.86,3.23.98,1.21s.57-2.56,1.98-3.23c1.4-.67.94.66,1.93,1.52.98.86,1.46.5,3.32.02,1.85-.48,5.79-1.69,5.79-1.69,0,0,1.76-.33,1.75.8,0,1.12-.86,2.31-.78,3.22.08.91.36,1.63.36,1.63,0,0-.64,2.03-1.56,2.32-.92.29-1.37.09-1.37.09,0,0,.37,1.62,1.61,1.63,1.24,0,2.66-.79,2.66-.79l1.64-2.33s1.08.28,1.54-.72c.46-1.01.25-2.84.26-4.34.01-1.5.63-2.34.94-2.56.3-.21,4.09,1.85,5.84,3.6,1.75,1.75,1.63,3.71.4,8.05-1.22,4.35-3.36,8.52-3.36,8.52,0,0-2.38,1.2-5.39,1.13-3.01-.07-7.43-1.32-8.7-.52-1.28.8-2.17,2.67-2.17,2.67,0,0-1.86.97-2.74,2.73-.88,1.75-.61,3.25.19,3.95.79.7,1.54,1.08,1.54,1.08,0,0-.58-1.08.27-2.15.85-1.07,1.7-1.75,1.7-1.75l1.5.61-.05,2.22s-3.36,2.57-3.51,4.26c-.16,1.69.61,3.78,2.17,4.17,1.55.39,2.48.45,2.48.45,0,0-1.18-1.53-.49-2.89.69-1.37,1.78-2.25,1.78-2.25,0,0,1.41,2.18,3.5.84,2.09-1.33,5.34-5.98,8.72-6.53,3.39-.55,6.59-.84,7.67-.97,1.08-.12,3.86-.98,3.86-.98,0,0,2.39,1.61,2.58,2.3.19.7,1.23.99,1.57-.67.34-1.66.05-3.49-.86-4.04-.91-.55-1.85-1.07-1.88-1.31-.03-.24,1-1.13-.61-1.34s-3.36.22-3.87.48c-.51.26-2.57.7-2.92.53-.35-.16-1.38-.99-1.38-.99,0,0,1.66-4.09,2.86-5.65,1.19-1.57,5.26-8.14,6.22-8.57.96-.43,3.82,3.25,5.2,3.71,1.38.47,1.89.4,1.89.4l-1-3.19s3.87.83,4.15.79c.28-.04-1.31-3.34-1.31-3.34l.81-2s3.4,4.04,7.76,5.7c4.36,1.66,5.86,1.73,5.86,1.73,0,0-.98,3.33-2.58,5.52-1.59,2.19-3.86,4.18-3.86,4.18,0,0-4.63,1.8-6.06,2.2-1.43.41-3.38.97-3.38.97,0,0-1.58,1.94-.62,2.89.97.95,3.67,1.67,5.53,1.31,1.86-.36,8.21-2.38,8.21-2.38l2.06-1.22s2.39-4.89,3.96-7.17,5.66-6.84,5.66-6.84l1.76-.79s7.36,1.46,7.95,1.68c.59.22,1.68,3.68,1.96,4.7.28,1.03.64,8.75.58,9.36-.06.61-1.32,8.93-.99,10.16.33,1.23,1.02,3.5,2.62,3.31,1.59-.19,3.37-1.47,3.37-1.47,0,0,1.79,1.12,3.5.5,1.71-.62,2.01-2.17,2.01-2.17,0,0-.22,1.4,1.46.95,1.68-.45,2.15-1.62,2.15-1.62,0,0,1,1.15,1.55-.06.55-1.21-.68-4.61-.92-5.04-.24-.42-1.9-1.53-2.18-1.69-.28-.15-3.89-5.81-3.86-11.05.03-5.24.3-7.14.01-8.65-.29-1.52-1.77-3.38-2.24-3.36-.47.02-6.63,1-7.24-2.43-.6-3.42.16-4.79-.35-8.9-.51-4.11-2.89-10.63-4.51-12.1-1.62-1.48-8.17-4.62-8.17-4.62l-4.35-2.55s4.15,2.06,5.67,1.32c1.52-.73,1.39-.14,1.39-.14,0,0-3.19-1.36-4.84-2.84-1.66-1.49-3.22-3.55-3.22-3.55,0,0,6.95,3.69,9.59,3.93,2.63.24,3.71.65,3.71.65,0,0-4.93-4.06-6.37-6.01-1.44-1.95,4.14,2.08,7.92,2.13,3.78.05,5.14,0,5.14,0,0,0-6.45-4.35-7.07-5.01-.62-.66,6.39,3.34,10.3,2.69,3.91-.64,6.44-1.61,6.44-1.61,0,0-8.4-2.82-9.33-4.86-.93-2.04,7.45,2.94,13.76,3.18,6.31.24,12.54-1.66,12.54-1.66,0,0-5.39-2.13-9.62-3.39-4.23-1.26-10.52-4.49-12.34-5.76-1.82-1.27-4.58-2.98-1.54-2,3.05.98,12.84,4.34,18.46,5.07,5.62.72,15.29.42,17.84-1.15,2.54-1.57.42-2-6.26-3.22-6.68-1.22-12.48-4.03-12.48-4.03,0,0,11.11,2.87,16.51,1.77,5.4-1.1,13.1-5.62,11.79-5.89-1.31-.27-12.36-.42-17.4-1.77-5.05-1.35-4.86-.33-5.2-1.06-.34-.73,2.46-1.45,7.19-1.17,4.73.28,14.97-2.2,18.38-4.04,3.41-1.84,4.32-3.68,4.32-3.68,0,0-15.86.37-24.16-1.17-8.3-1.54-21.13-4.19-26.93-5.67-5.8-1.49-17.34-5.04-23.3-6.05-5.96-1.01-15.55-.89-17.65,1.11-2.09,2-3.81,5.73-3.81,5.73,0,0-15.18-1.96-20.73-1.44-5.55.52-11.11,2.43-10.45,7.57.65,5.14,5.29,4.33,6.35,5.82,1.06,1.49,2.4,2.6,2.4,2.6,0,0,1.28.89,1.89.05.62-.84,1.3-2.52,1.3-2.52h0Z"/>
      <path class="cls-3" d="m65.43,66.65s.39,4.64-3.91,10.58c-4.3,5.94-4.71,7.08-4.46,10.82.25,3.74,1.46,5.6,1.78,6.17.32.57-7.44-.5-8.11-4.56-.67-4.05.3-8.43.3-8.43,0,0,3.86-6.08,4.09-6.31.22-.23.32,6.57.32,6.57l5.27-5.54,4.73-9.31h0Z"/>
      <path class="cls-3" d="m66.42,59.91s.45,4.71,2.48,7.86c2.04,3.15,6,5.38,6,5.38l-3.88-7.66-4.61-5.57h0Z"/>
      <path class="cls-3" d="m73.41,81.61s1,2.57-1.13,7.45c-2.13,4.88-4.05,8.47-3.8,10.52,0,0-2.09-2.12-2.45-4.52,0,0-1.08,2.83-.64,5.18.44,2.35,1.08,3.5,1.08,3.5l-2.27-3.69s-1.69.51-3.33,2.83c-1.65,2.32-1.11,4.35-1.11,4.35l3.23-3.31,5.21,3.14.97.28-.76-2.97,3.45.82s-.49-3.76-.56-4.78c-.07-1.03,3.1-4.81,3.1-4.81l.87-6.25v-4.31s-1.82-3.43-1.82-3.43h0Z"/>
      <path class="cls-3" d="m82.74,82.69s-1.64,1.84-2.49,4.4c-.86,2.55-3.13,1.34-4.32-1.34l-1.75,7.68,7.35,3.86,2.56.31-1.86-9.77.51-5.14h0Z"/>
      <path class="cls-3" d="m77.42,97.51s1.62,7.32,5.45,8.39c3.83,1.07,6.83,1.02,6.83,1.02l-5.18,7.64-8.32,3.73,5.36-1.08-1.8,1.31,4.49-.32s-1.06,2.16-3.53,3.3c-2.47,1.14-5.95,3.05-5.95,3.05,0,0,8.63-.97,9.66-2.68,1.03-1.71,3.26-6.2,3.26-6.2l7.89-9.09-8.38-5.28s-2.51-3.61-2.68-3.94c-.16-.34-7.11.17-7.11.17h0Z"/>
      <path class="cls-3" d="m78.69,70.22s3.58,5.37,5.45,6.28l-2.92,3.1s4.06-2.61,8.33-3.19c4.27-.58,9.31,3.01,11.33,10.15,2.02,7.14,3.08,13.38,3.08,13.38l-6.16-3.19s1.41,2.1,4.8,3.93c3.39,1.83,10.39,1.7,11.02,3.88.62,2.17.04,9.35.04,9.35l-1.6-3.61s.64,5.32,1.76,8.46c1,2.82,2.41,5.14,2.41,5.14l3.29.89s-2.31-5.94-2.98-8.13c-.67-2.19-.85-7.61-.65-8.22s-.03-5.11-.03-5.11c0,0-7.7-2.93-8.63-3.05-.93-.11-1.42-7.73-1.4-8.18.02-.45-.46-7.34-1.88-10.19-1.42-2.86-7.61-7.38-8.66-7.75-1.05-.37-2.76-1.34-2.76-1.34l-7.91-4.58s-.48,1.3.74,2.4c1.22,1.09-.32,1.3-.32,1.3l-6.31-1.71h0Z"/>
      <path class="cls-3" d="m138.57,40.07s-15.53-2.62-26.28-6.91c-10.75-4.29-25.39-8.39-28.11-7.65-2.72.74-3.26,2.64-3.26,2.64l-1.61-3.29,7.97-1.23s6.74,1.25,11.53,3.03c4.79,1.78,26.97,9.58,26.97,9.58l12.78,3.83h0Z"/>
      <path class="cls-3" d="m133.1,48.04s-13.35-1.64-21.85-5.73c-8.5-4.09-16.83-9.83-22.14-10.47-5.31-.64-7.87-.07-7.87-.07l.25-1.65s7-.91,12.43,1.21c5.42,2.12,13.46,5.87,13.76,6.15.31.28,21.11,8.96,21.11,8.96l4.31,1.6h0Z"/>
      <path class="cls-3" d="m123.96,56.08s-6.33.06-15.74-6.13c-9.41-6.2-9.47-6.56-13.35-8.61-3.87-2.04-10.51-2.98-10.51-2.98l-.46-1.48s7.01,1.26,11.14,3c4.13,1.74,10.08,5.58,10.08,5.58l18.85,10.62h0Z"/>
      <path class="cls-3" d="m111.3,61.19s-4.91-1.3-12.21-7.87c-7.3-6.57-14.55-8.9-14.55-8.9l-1.22-1.95,1.36.88s9.12,3.02,14.23,7.84c5.11,4.82,12.4,10,12.4,10h0Z"/>
      <path class="cls-3" d="m101.6,63.68s-5.01-2.19-9.23-7.27c-4.22-5.08-9.58-8.21-9.58-8.21l.02-1.3s7.65,3.84,11.08,8.92c3.43,5.08,7.71,7.87,7.71,7.87h0Z"/>
      <path class="cls-3" d="m94.97,66.17s-3.89-3.1-6.49-6.62c-2.61-3.51-6.24-5.47-6.24-5.47l.39-2.38s5.52,4.63,8.38,8.83c2.86,4.21,3.96,5.62,3.96,5.62h0Z"/>
      <path class="cls-3" d="m90.33,69.56s-3.18-2.12-5.78-5.54c-2.59-3.42-4.31-6.72-4.31-6.72l.98-1.92s3.59,6.42,5.4,9.25c1.81,2.83,3.7,4.93,3.7,4.93h0Z"/>
      <path class="cls-3" d="m86.3,71.81s-4.12-3.06-5.8-5.76c-1.67-2.7-1.76-5.51-1.76-5.51,0,0,.65-1.66.84-2.03.19-.37,1.75,5.76,3.21,8.33,1.46,2.58,3.5,4.96,3.5,4.96h0Z"/>
      <path class="cls-3" d="m73.67,44.29s-1.18-3.15-3.69-6.52c-2.52-3.37-6.61-5.92-6.61-5.92l3.15,5.3,7.16,7.14h0Z"/>
      <path class="cls-3" d="m69.35,51.24s-.15-9.19-4.21-14.64c-4.06-5.46-9.93-7.68-9.93-7.68,0,0,2.98,1.53,6.28,7.15,3.3,5.62,7.86,15.17,7.86,15.17h0Z"/>
      <path class="cls-3" d="m60.57,39.99s-1.17-3.87-2.24-5.46-1.32-1.66-1.32-1.66l-.03,2.1s-.27,2.46-.44,2.75c-.17.29-.8.97-.8.97l4.45,1.99.37-.68h0Z"/>
      <path class="cls-3" d="m53.74,36.21l2.18-1.07,1.3-1.88s-.37-.89-3.48-2.77c-3.11-1.88-7.11-2.2-7.11-2.2,0,0,5.7,2.78,6.51,4.38.81,1.6.6,3.55.6,3.55h0Z"/>
      <path class="cls-3" d="m51.89,37.26l1.84-1.04s.91-.44-.73-2.12c-1.65-1.69-3.79-1.91-5.55-2.2-1.76-.29-3.24.3-3.24.3l4.06,2.35,1.99.67,1.62,2.05h0Z"/>
      <path class="cls-5" d="m59.61,44.13s5.25,5.46,6.59,13.55c0,0,.03,6.63-1.3,10.62-1.32,3.99-5.41,8.73-6.49,9.87-1.08,1.14-3.81,3.05-3.81,3.05l.5-4.77,1.69-4.45s-3.62,4.75-4.5,7.11c-.87,2.36-1.32,6.87-1.32,6.87l-2.91,1.87-4.21-3.66s-3.23-3.31-3.58-4.1c-.35-.78-1.38-3.43-1.38-3.43,0,0-.52,1.64-.58,2.36-.06.72-.7.31-.7.31,0,0-2.69-2.29-2.54-5.43.15-3.14,2.41-7.45,4.59-9.34,2.19-1.89,6.9-7.18,6.9-7.18,0,0,3.53-3.2,4.41-4.91.89-1.72,1.02-3.07.53-3.51-.49-.44-2.69-1.53-3.39-1.78-.7-.25-2.51-1.32-2.51-1.32,0,0-1.03-3.5-1.87-2.82-.84.68-1.27,1.79-1.27,1.79,0,0-2.21-.37-1.67-2.37.54-2,3.66-2.64,5.21-3.62,1.54-.98,2.77-3.7,2.77-3.7,0,0,2.21-.28,2.67.58.47.85.7,1.7.7,1.7,0,0,2.34-1.11,3.38-2.08,1.04-.97,1.79-1.51,1.79-1.51,0,0,.13,2.46-.69,3.53-.81,1.07-1.23,1.49-1.23,1.49,0,0,2.96.21,4.78,2.05,1.82,1.84,3.66,4.95,3.66,4.95,0,0-1.28.38-1.75.08-.47-.31-2.48-1.78-2.48-1.78h0Z"/>
      <path class="cls-9" d="m52.67,49.9s.24,5.54-1.8,9.99c-2.04,4.44-3.92,7.09-3.92,7.09,0,0,1.55-5.05,1.32-7.34,0,0-2.63,4.58-4.86,7.11-2.23,2.54-4.39,8.54-3.3,11.53,1.09,2.99,2.79,4.43,2.79,4.43,0,0-3.82-1.24-4.22-5.99-.39-4.75.7-7.91,3.2-11.97,2.5-4.06,4.04-6.84,4.04-6.84l4.85-4.84,1.9-3.18h0Z"/>
      <path class="cls-9" d="m44.59,84.15s-2.11-1.85-1.82-6.37c.29-4.52,3.68-10.14,3.68-10.14,0,0-1.59,3.33-1.42,8.09.17,4.76,1.78,9.11,1.78,9.11l-2.22-.68h0Z"/>
      <path class="cls-9" d="m36.4,78s.09-2.77,1.01-4.9c.93-2.13,2.79-4.9,2.79-4.9,0,0-1.97,5.12-1.61,6.9.35,1.78.39,2.36.39,2.36l-.57-.4-.35,2.14-.89.12-.78-1.33h0Z"/>
      <path class="cls-9" d="m49.79,86.29s-2.79-3.32-1.59-9.41c1.2-6.09,8.25-17.44,8.25-17.44,0,0-5.09,10.56-5.93,14.76-.85,4.2-.83,5.58-.83,5.58,0,0,3.3-6.69,6.83-11.53,3.53-4.84,4.09-11.06,4.09-11.06,0,0,2.25,2.38-1.38,10.91-3.63,8.53-5.53,8.37-5.53,8.37,0,0-3.26,7.79-3.26,8.25,0,.46-.64,1.55-.64,1.55h0Z"/>
      <path class="cls-9" d="m55.83,77.3s3.91-2.66,6.17-6.55c2.25-3.89,3.86-9.62,3.86-12.2s1.04,1.22-.51,7.36c-1.55,6.14-2.42,7.33-3.35,8.44-.93,1.11-4.65,4.94-4.65,4.94l-2.45,2.33.93-4.31h0Z"/>
      <path class="cls-9" d="m58.71,43.43s3.62,3.89,4.98,9.6c1.36,5.71,1,11.62.5,13.55-.5,1.93.32,2.8.32,2.8,0,0,1.65-7.89,1.55-10.58-.11-2.69-2.14-8.88-2.14-8.88l-2.54-4.25-2.67-2.24h0Z"/>
      <path class="cls-9" d="m63.12,45.45s-2.01-1.59-3.36-2.95c-1.35-1.36-4.89-1.79-4.89-1.79l4.56,3.46,3.11,1.43.57-.14h0Z"/>
      <path class="cls-9" d="m56.86,34.64s-.43,1.65-1.47,2.56c-1.03.91-2.29,1.89-2.29,1.89l3.04-.44s.33-.73.68-1.67c.35-.94.37-2.59.37-2.59l-.33.25h0Z"/>
      <path class="cls-9" d="m49.27,35.23s.94,1.33.27,2.47c-.67,1.14-.68,1.1-.68,1.1l3.35-1.41s-.27-.94-1.27-1.72c-1-.78-1.66-.44-1.66-.44h0Z"/>
      <path class="cls-9" d="m42.29,44.51s-.39-.76.23-1.73c.61-.97,3.18-1.56,3.18-1.56,0,0-.94,2.12-.06,2.61.89.49,2.32.26,2.32.26,0,0-.27,1.08,0,1.22,0,0-.84-.32-1.28-.51-.44-.19-1.33-.44-1.05.45.29.89-.25.5-.25.5,0,0-.33-1.9-1.06-2.3-.73-.39-.75-.7-1.69.7-.94,1.41-.35.35-.35.35h0Z"/>
      <path class="cls-9" d="m50.92,41.31s1.26-.7,2.46-.02c1.2.67,2.66,1.94,2.66,1.94,0,0-1.96-.96-2.75-.93,0,0,.02,1.18-.7,1.99-.71.82-1.99,1.16-1.99,1.16,0,0,.61-.93.76-1.88.15-.95-.45-2.26-.45-2.26h0Z"/>
      <path class="cls-9" d="m50.6,45.45s2.73-.54,4.87.72c2.14,1.27,1.76,3.52.8,4.58-.97,1.06-1.69.37-1.69.37,0,0,1.38-1.6.84-2.89-.54-1.29-2.46-2.04-2.46-2.04l-2.36-.75h0Z"/>
      <path class="cls-8" d="m121.67,129.02c.06.03.12.29.13.35.13.4.19.84.1,1.25-.14.64-.55.74-.97,1.13-.21.19-.33.47-.53.67-.39.39-.91.59-1.44.67-.58.09-1.08-.15-1.65-.19-.12,0-.3-.1-.41-.06-.08.03-.11.26-.15.33-.09.18-.23.33-.39.45-.66.5-1.54.7-2.36.69-.4,0-.76-.18-.96-.53-.1-.18-.14-.44-.32-.57-.16-.12-.77-.1-.96-.05-.18.05-.25.43-.37.56-.28.3-.69.51-1.07.67-.37.15-.75.25-1.16.23-.11,0-.47-.14-.56-.07-.03.03.08.16.1.18.09.14.17.34.11.51-.08.21-.35.16-.53.16-.02,0-.28-.02-.26.02.02.05.16.08.21.09.23.08.47.14.71.18.72.12,1.53-.06,2.19-.34.27-.12.6-.44.89-.47.18-.02.49.26.65.33.51.22,1.02.4,1.59.37.88-.05,1.81-.48,2.52-.98.21-.15.41-.32.56-.53.03-.04.12-.27.17-.27.08-.01.23.09.31.12.2.06.41.09.61.11.77.05,1.57-.2,2.23-.59.26-.15.44-.37.68-.54.21-.15.5-.15.72-.3.51-.36.83-1.02,1.08-1.57.21-.48.54-1.22-.14-1.46-.11-.04-.22-.07-.33-.08"/>
      <path class="cls-8" d="m123.39,129.08s.02.06.02.09c0,.07,0,.15,0,.22,0,.2-.03.4-.06.6-.08.6-.28,1.24-.57,1.77-.61,1.11-1.47,2.11-2.68,2.56-.53.2-1.1.27-1.66.31"/>
      <path class="cls-8" d="m123.43,128.91c-.11.73-.07,1.37-.34,2.07"/>
      <path class="cls-8" d="m123.28,128.33c.41,1.02.26,1.99-.12,2.99-.6,1.56-1.57,2.69-3.15,3.28-.72.27-1.5.34-2.26.22-.3-.05-.65-.12-.88-.33-.23-.21.19-.82.41-.91.27-.11.8.1,1.08.12.57.05,1.13-.05,1.67-.21,1.04-.32,2.13-1.32,2.41-2.4.12-.47.04-.98.04-1.45"/>
      <path class="cls-8" d="m118.26,134.41s-.11,0-.16.02c-.11.07-.21.15-.32.23-.5.42-1.03.77-1.63,1.02-.95.39-2.18.57-3.07-.05-.4-.28-.71-.72-1-1.1-.04-.05.24.07.26.08.16.06.33.09.49.13.52.12,1.04.18,1.57.14.77-.05,1.38-.39,2.04-.76.36-.2.77-.47,1.1-.07"/>
      <path class="cls-8" d="m112.92,134.88s-.08.06-.12.09c-.08.06-.16.11-.24.16-.26.17-.56.29-.85.39-.89.31-1.89.38-2.82.2-.22-.04-.44-.12-.64-.21-.04-.02-.19-.06-.2-.1,0-.02.12-.02.13-.02.17-.01.33-.03.5-.05.37-.05.73-.12,1.09-.22.54-.15,1.06-.37,1.57-.61.34-.16.69-.42,1.04-.16"/>
      <path class="cls-8" d="m72.36,123.64c-.02.1.17.28.22.33.29.3.68.46,1.09.51.66.07,1.28-.17,1.92-.28.89-.16,1.79-.21,2.68-.38.43-.08.85-.16,1.29-.18.03,0,.39-.03.38.03,0,.05-.12.08-.16.09-.17.06-.35.11-.53.15-.8.17-1.62.24-2.43.42-.59.13-1.17.28-1.75.46-.76.24-1.48.4-2.28.33-.3-.02-.59-.13-.89-.16-.41-.04-.82,0-1.23-.11-1-.27-1.8-1.14-1.9-2.18,0-.03-.03-.33.01-.34.01,0,.05.13.06.14.04.1.1.19.16.28.17.23.42.39.59.62.12.16.18.4.4.48.01,0-.11-.41-.12-.48,0-.02-.03-.13,0-.14.04-.01.22.26.24.29.15.16.34.26.54.34.03.01.32.15.36.12.06-.06.07-.33.09-.41,0,0,.03-.11.04-.11.03.01.13.27.18.31.33.3.73.2,1-.09"/>
      <path class="cls-5" d="m128.14,25.93s.02,0-.02,0c-1,.12-2.36-.51-3.31-.76-3.58-.95-7.1-2.08-10.72-2.89-6.58-1.47-13.01-3.28-19.51-5.02-4.89-1.31-10.26-2.79-15.36-2.22-3.7.41-10.79,2.61-11.32,7.11-.18,1.54.49,3.06.86,4.52.89,3.48,1.38,5.54,3.17,8.76.49.88,1,1.75,1.57,2.58.19.27.37.54.54.82.02.03.26.42.26.42,0,0-.1-.17-.1-.18-.26-.44-.54-.87-.76-1.34-.48-1-.72-2.09-1.01-3.16-1.11-3.98-2.68-8.84-.2-12.66,3.09-4.76,9.56-4.88,14.56-4.38,10.69,1.08,22.51,3.73,32.9,6.68"/>
      <path class="cls-6" d="m44.83,44.38s-.65-2.01-1.55-1.21c-.9.8.53-.07-1.93,2.39-2.47,2.45-3.75,2.5-5.54,3.43-1.79.92-4.09,3.98-3.13,5.76.96,1.79,3.21,2.92,3.6,2.85,0,0-1.12-3.66,1.79-5.17,2.92-1.51,7.06-1.86,7.06-1.86,0,0,.52-.19-.24,1.52-.76,1.71-4.39,5.21-4.39,5.21,0,0,2.26,1.73,5.12.02,2.86-1.71,5.75-4.86,6-6.67.24-1.81.07-2.31-1.42-2.78-1.49-.48-3.62-1.19-3.84-1.35-.23-.16-1.51-2.13-1.51-2.13h0Z"/>
      <path class="cls-5" d="m162.17,29.88c.41.02-13.02,3.85-32.92,1.67-19.9-2.18-38.86-7.43-38.86-7.43,0,0,27.65,11,42.18,11.97,14.53.97,23.42-.43,26.53-2.27,3.11-1.84,2.66-3.95,3.07-3.94h0Z"/>
      <path class="cls-5" d="m151.48,41.14s-12.07,1.46-24.73-.08c-12.66-1.55-28.55-8.35-28.55-8.35,0,0,22.85,12.15,29.66,12.66,6.81.51,12.66,1.79,17.2,1.09,4.55-.71,10.8-3.53,11.25-3.96.45-.44-.03-1.35-.03-1.35h-4.81Z"/>
      <path class="cls-5" d="m147.57,50.72c.33-.27-6.22-1.64-6.22-1.64,0,0-1.68,1.91-10.56,1.48-8.88-.42-23.99-4.58-25.97-5.31-1.97-.74,14.82,6.4,24.01,7.88,9.19,1.48,15.07.9,16.62.11s1.79-2.26,2.12-2.52h0Z"/>
      <path class="cls-5" d="m132.61,58.79l-5.73-1.58s.11.9-8.18-.06c-8.28-.96-16.92-4.55-20.36-7.28-3.45-2.73-3.93-3.39-3.93-3.39,0,0,6.21,7.42,14.33,10.85,8.13,3.42,15.72,4.4,19.35,3.86,3.62-.54,4.53-2.4,4.53-2.4h0Z"/>
      <path class="cls-5" d="m111.8,61.24s-6.26.12-10.88-2.08c-4.61-2.2-8.62-5-8.62-5,0,0,10.84,9.64,15.29,10.49,4.45.85,9.68-1.07,9.68-1.07l-1.31-1.32-4.16-1.02h0Z"/>
      <path class="cls-5" d="m103.21,64.04s-6.51-1.29-10.06-3.07c-3.54-1.78-4.34-2.81-4.34-2.81,0,0,4.99,5.6,9.61,7.33,4.62,1.72,10.14,1.35,10.14,1.35l-3.51-1.91-1.84-.89h0Z"/>
      <path class="cls-5" d="m95.77,66.45s-2.23-.12-5.59-1.78c-3.36-1.66-5.51-3.36-5.51-3.36,0,0,2.1,4.01,7.43,6.5,5.32,2.49,8.87,2.5,9.01,2.3.15-.2-5.34-3.67-5.34-3.67h0Z"/>
      <path class="cls-5" d="m95.09,71.95l-2.91-1.73s-2.93-.57-5.35-2.01c-2.42-1.44-4.43-3.16-4.43-3.16,0,0,1.67,4.18,6.04,6.15,4.37,1.97,6.65.75,6.65.75h0Z"/>
      <path class="cls-5" d="m87.78,72.67l-3.14-2.74-5.67.37s3.26,2.5,5.58,2.85c2.32.35,3.23-.49,3.23-.49h0Z"/>
      <path class="cls-1" d="m81.87,25.64s11.13,2.26,19.91,5.3c8.78,3.04,18.17,6.12,18.17,6.12,0,0-16.45-3.73-22.04-5.07-5.59-1.34-12.12-3.9-15.94-2.41,0,0-2.26.56-2.52-1.03-.25-1.59,2.42-2.9,2.42-2.9h0Z"/>
      <path class="cls-1" d="m82.43,32.23s6.68-.01,13.47,3.3c6.79,3.31,17.25,9.06,17.25,9.06,0,0-16.71-5.88-22.18-6.91-5.47-1.03-8.36-.79-8.36-.79l-.18-4.65h0Z"/>
      <path class="cls-1" d="m83.2,39.87s4.69-.8,11.76,2.86c7.06,3.66,14.17,8.82,14.17,8.82,0,0-10.14-4.62-15.54-6.19-5.4-1.57-9.09-1.65-9.09-1.65l-1.29-3.84h0Z"/>
      <path class="cls-1" d="m84.49,43.7s6.02,3.44,9.41,6.42c3.39,2.98,6.15,5.3,6.15,5.3,0,0-10.16-5.66-12.37-6.38-2.2-.73-3.57-1.12-3.57-1.12l.37-4.22h0Z"/>
      <polygon class="cls-1" points="84.12 47.93 90.93 56.2 82.98 51.87 84.12 47.93 84.12 47.93"/>
      <polygon class="cls-1" points="82.34 53.2 86.64 59.43 81.08 56.11 82.34 53.2 82.34 53.2"/>
      <path class="cls-1" d="m72.49,57.33s3.57-7.37,2.19-11.11c-1.37-3.75-7.77-9.56-7.77-9.56,0,0,2.82,13.93,2.86,15.5.04,1.57-3.38-11.9-6.87-16.26-3.49-4.36-5.98-5.56-5.98-5.56,0,0,2.48,2.6,3.34,5.62.86,3.02,1.11,5.34,1.11,5.34l-2.26-1.43-2.09-5.27s-.03,2.2-.53,3.2c-.5,1,3.93,2.21,4.88,3.5.95,1.29,2.13,4.51,2.13,4.51l-2.18-.08s2.1.74,3.23,5.63c1.14,4.88,2.69,8.95,3.96,10.92,1.27,1.97.75,2.48,1.5.98.75-1.5,2.47-5.91,2.47-5.91h0Z"/>
      <path class="cls-5" d="m68.95,29.6s-2.62-3.39-5.16-4.22c-2.54-.83-5.66-1.35-5.66-1.35,0,0,2.41,1.46,3.55,2.61,1.14,1.15,1.39,2.1,1.39,2.1,0,0-3.11-2.37-7.59-3.74-4.48-1.37-10.07-.63-10.07-.63,0,0,3.65.61,5.6,1.63,0,0-5.11-1.22-8.57-.41-3.46.81-5.18,3.71-3.83,5.69,0,0-4.17-2.58.48-6.63,4.65-4.05,11.76-3.49,15.26-3.38,3.51.1,13.97,1.64,13.97,1.64,0,0-.49,2.47-.08,3.62.42,1.14.7,3.06.7,3.06h0Z"/>
      <path class="cls-1" d="m75.72,85.21s.48,4.63,1.54,6.34c1.07,1.72,4.47,2.02,4.47,2.02,0,0,.78,2.37,1.08,2.68.3.31-6.41.12-6.65-.26-.24-.38-1.91-6.19-1.91-6.19l1.46-4.6h0Z"/>
      <path class="cls-1" d="m82.91,82.74s-1.4,9.95,5.47,15.55c6.87,5.59,17.59,8.84,21.96,7.5l-2.64,1.69s1.49,5.19,2.35,10.45c.86,5.26.63,7.79.63,7.79,0,0,2.77-2.11,4.88-1.81l4.01,1.51s-2.59-.47-5.71,1.06c-3.12,1.53-6.29,6.4-4.78,7.66,1.51,1.26,1.75.63,1.75.63,0,0-3.89.93-4.68-2.02-.79-2.95.89-8.66.6-12.83-.29-4.17-1.99-11.98-1.99-11.98,0,0-6.29,0-12.12-2.8-5.84-2.8-7.38-5.25-8.56-7.69-1.18-2.44-2.06-7.12-2.06-7.12l.88-7.58h0Z"/>
      <path class="cls-1" d="m78.75,97.13s-1.39,2.9,1.59,5.34c2.98,2.44,10.53,4.25,10.86,4.1.33-.15-4.41,2.59-9.7-.35-5.29-2.94-6.63-5.88-7.01-7.08-.39-1.2-.23-2.83-.07-3.37.16-.54,4.33,1.37,4.33,1.37h0Z"/>
      <path class="cls-1" d="m89.66,107.16l-5.89,10.29s-1.83,1.16-4.98,1.81c-3.15.65-5.93,2.88-5.93,2.88,0,0,.01-1.58-1.14-1.58-1.15,0,2.04-1.43,2.04-1.43,0,0,5.13-1.45,5.57-1.7.44-.26,2.7-3.14,2.7-3.14l3.94-6.96,3.68-.18h0Z"/>
      <path class="cls-2" d="m59.59,95.57l1.78,2.69s-1.99.24-3.34,1.34c-1.34,1.1-1.35,1.78-1.35,1.78l2.81.61-1.57,2.11s-3.55-1.01-5.66-2.78c-2.11-1.77-4.17-3.88-4.17-3.88l-2.63-1.03s-1.79,1.84-1.18,3.9c.61,2.06.53,2.76.17,3.07-.36.31-1.85.93-1.85.93,0,0-.15,2.32-1.8,2.81-1.64.5-3.78-1.18-3.78-1.18,0,0,2.25-1.48,2.51-2.21.26-.73.18-1.3-.24-2.34-.43-1.05.86-3.05.86-3.05l-1.06-.8s-4.03,1.95-6.34,2.14c-2.32.19-3.23-.21-3.5-.47-.27-.26-.93-1.72-.93-1.72,0,0-1.86.15-2.32,1.31-.46,1.16-.69,2.24-.69,2.24,0,0-1.85-2.1-1.98-4.06-.13-1.95,2.23-3.74,3.4-3.88,1.17-.13,2.13-.51,2.13-.51,0,0-.65-1.24.99-1.68,1.64-.44,2.51-.44,2.51-.44l-.92-1.6s-2.23-.82-3.35-.15c-1.12.66-1.89,1.36-1.89,1.36,0,0-.95-2.26.94-3.47,1.89-1.21,4.58-1.06,4.58-1.06,0,0,1.17-2.63,2.89-2.11,1.71.52,2.44,2.65,4.29,4.24,1.85,1.59,4.28,3.36,5.29,3.74,1.01.38,8.5,1.34,8.5,1.34l6.89,2.8h0Z"/>
      <path class="cls-1" d="m59.5,102l-2.81-.61s.35-1.11,1.36-1.71c0,0-2.18.2-5.37-1.15-3.19-1.35-5.13-2.79-7.22-3.43-2.08-.64-4.36-.07-4.36-.07,0,0,2.94.26,5.63,1.77,2.7,1.51,9.11,6.6,9.25,6.63.14.03,1.98,1,1.98,1l1.54-2.43h0Z"/>
      <path class="cls-1" d="m40.57,92.29s-2.13-.31-3.48-1.3c-1.35-.98-2.41-1.67-2.41-1.67,0,0-3.26-2.32-4.97-2.04-1.7.28-3.12,1.41-3.28,1.6-.15.19-.21.7-.21.7,0,0,2.99-1.18,3.16-1.18.16,0,1.96.34,1.96.34l1.03,1.65,2.65,1.28,2.49.88,1.55.26,1.49-.53h0Z"/>
      <path class="cls-1" d="m32.52,85.54l2.65.98-1.14-1.08s.83-.41,2.14.66c1.32,1.07,2.62,2.15,2.62,2.15,0,0-.36-3.48-2.55-4.15-2.19-.67-3.25-.53-3.49-.27-.24.26-.76,1.38-.76,1.38l.52.34h0Z"/>
      <path class="cls-1" d="m41.3,47.66s1.69-1.37,2.15-1.02c.45.35,1.02,1.28-.23,1.33-1.25.04-1.92-.31-1.92-.31h0Z"/>
      <path class="cls-1" d="m35.77,57.38s-1.05-2.95,1.33-5.52c2.38-2.57,6.54-3.36,8.87-2.88,2.32.48,4.19,1.26,4.19,1.26,0,0-.01,1.29-1.76,3.52-1.74,2.22-4.62,4-6.03,3.97-1.41-.03-1.83-.37-1.83-.37l2.04-1.39,1.87-2.71.66-2.82s-4.23.46-5.9,1.52c-1.67,1.06-3.05,3.01-2.98,3.26.07.24.46,1.73.46,1.73l-.92.42h0Z"/>
      <path class="cls-1" d="m42.64,98.04s-1.9-1.37-4.61-1.4c-2.71-.03-4.15,1.11-5.01,1.17-.86.05-1.1-.28-1.1-.28l.87-.13s-.51-1.43-2.81-1.73c-2.3-.3-4,.69-4.47,1.82-.47,1.12-.33,3.05-.33,3.05,0,0,1.25-2.54,2.18-2.95.93-.41,1.44,1.1,1.85,1.58.41.47,1.96.9,3.82.57,1.86-.33,4.39-1.98,4.74-1.96.35.02,1.96-.19,1.96-.19l2.92.47h0Z"/>
      <path class="cls-1" d="m38.15,92.84s-4.61-1.02-5.47-.88c-.85.15-1.4.86-1.4.86l2.56.76s-2.18-.6-3.79-.51c-1.61.09-2.43.32-2.43.32,0,0,.38-1.48,2.2-2.24,1.82-.76,3.9.05,4.15.13.25.08,2.6.84,2.71.9.11.06,1.46.66,1.46.66h0Z"/>
      <path class="cls-1" d="m44.23,95.71s-1.21,1.38-1.25,3.14c-.04,1.76.28,3.8.28,3.8l-.79-1.42s.15.93-1.08,2.85c-1.22,1.92-3.82,2.04-3.95,2.07-.13.03,1.35,2.1,3.05.93,1.7-1.17,2.51-3.18,2.51-3.18,0,0,1.31.96,1.75-.64.43-1.6-.32-3.96-.32-3.96l.88-2.49.58-.55-1.65-.55h0Z"/>
      <path class="cls-10" d="m53.02,101.9s-2.22,10.53-3.62,13.03c-1.4,2.5-2.08,2.76-2.08,2.76,0,0-5.27.52-7.49.07-2.22-.45-4.67-1.67-6.2-.24-1.53,1.44-1.71,2.96-1.71,2.96,0,0-3.46,1.74-3.26,3.57.19,1.84,2.27,3.84,2.27,3.84,0,0-.44-1.16.77-2.62,1.21-1.45.94-1.73,1.57-1.41.63.32,1.85,1.09,1.85,1.09l-.7,2s-4.09,3.45-3.1,5.77c.99,2.32.36,2.07,1.64,2.43,1.28.36,2.83.36,2.83.36,0,0-1.21-2.36-.51-3.34.7-.98,1.43-1.76,1.43-1.76,0,0,1.12,1.87,3.16.99,2.04-.89,4.01-4.77,8.36-5.83,4.35-1.06,6.6-1.54,8.59-1.67,1.99-.14,3.88-.89,3.88-.89,0,0,.97.26,1.82,1.37.86,1.11.85,1.5.85,1.5,0,0,1.84-.2,1.77-2.47-.07-2.27-2.58-3.74-2.58-3.74,0,0,.25-1.13-.95-1.75-1.2-.62-2.27-.48-3.55.19-1.29.67-2.96,1.22-3.49.92-.54-.3-1.47-1.26-1.47-1.26l6.25-10.63-3.97-3.7-2.38-1.54h0Z"/>
      <path class="cls-1" d="m53.95,102.93s.73,6.39-.47,9.79c-1.19,3.4-3.56,8.21-3.56,8.21,0,0,1.75.18,3.12-2.77,1.36-2.95,4.17-9.22,4.27-9.61.1-.39-.09-3.19-.09-3.19l-3.26-2.43h0Z"/>
      <path class="cls-1" d="m64.01,125.08s-1.12-2.75-2.93-3.52c-1.81-.77-4.61-.15-4.61-.15l1.5.67s-1.88.28-3.2.4c-1.32.12-4.5,1.04-4.5,1.04l4.49-2.15s-1.07-.38-4.97.81c-3.89,1.19-6.5,3.96-7.88,5.21-1.38,1.25-3.05,1.26-3.05,1.26l2.83-2.66s-3.73.87-6.42,3.27c-2.7,2.4-2.91,4.76-1.86,5.64,1.05.88,2.34.8,2.34.8,0,0-1.29-2.49-.53-3.77.76-1.28,1.75-1.75,1.75-1.75,0,0,1.03,1.53,2.42,1.38,1.4-.15,4.34-2.93,6.51-4.5,2.17-1.57,4.39-2.49,5.63-2.52,1.24-.03,4.58-.51,5.11-.63.53-.12,3.16-.65,3.16-.65l.92-.45,2.29,2.23.99.04h0Z"/>
      <path class="cls-1" d="m35.15,126.51l2.51-1.06s-1.1-.3.13-1.37c1.23-1.07,5.7-3.01,5.7-3.01,0,0-5.98,1.26-7.57,2.46-1.59,1.21-1.98,2.93-1.98,2.93l1.21.06h0Z"/>
      <path class="cls-1" d="m43.49,121.07s-5.89.83-6.6.88c-.72.05-1.19-.04-1.19-.04,0,0,2.98-1.45,3.19-1.42.21.02-3.24-.18-6.2,1.54-2.95,1.72-3.81,3.17-3.24,4.41.58,1.24,1.32,1.4,1.32,1.4l.16-2.1s1.44-1.79,1.63-1.87c.2-.07,1.83.62,1.83.62,0,0,4.24-2.23,4.63-2.31.4-.07,4.46-1.11,4.46-1.11h0Z"/>
      <path class="cls-1" d="m32.69,120.02l3.33-.64s-.32-.7.79-.96,4.12-.1,4.12-.1c0,0-4.49-1.75-6.62-.89-2.13.86-2.66,1.98-2.66,1.98l1.04.61h0Z"/>
      <path class="cls-8" d="m37.92,79.8s-.52-1.37.23-3.67c.53-1.61.53-.29.53-.29l.2,1.55s-.71,1.55-.23,2.87l-.73-.47h0Z"/>
      <path class="cls-8" d="m46.52,56.54s-2.76,3.34-6.63,7.03c-3.87,3.69-5.39,6.33-5.65,9.83-.26,3.5,2.27,5.72,3.14,6.27.86.54,1.29.6,1.29.6,0,0-2.94-2.69-2.66-7.05.29-4.48,4.81-8.43,6.73-10.38,1.91-1.95,3.34-3.99,4.26-5.41.92-1.42,1.13-2.32,1.13-2.32l-1.6,1.44h0Z"/>
      <path class="cls-8" d="m40.79,67.23s-1.85,2.19-2.38,5.5c-.53,3.31-.25,5.76.81,7.56,1.06,1.8,2.35,3.19,3.94,4.11,1.59.92,3.41,3.04,3.61,3.7,0,0-.16-2.77-2.71-4.91-1.76-1.48-4.86-3.98-4.92-8.55-.07-4.57,1.64-7.45,1.66-7.41h0Z"/>
      <path class="cls-8" d="m61.09,61.81s-.57,3.96-3.8,8.17c-3.23,4.21-6.14,8.48-7.26,11.81-1.13,3.33,1,6.81,1.08,6.97.09.15-.68-2.55.41-5.89,1.09-3.34,3.79-7.7,6.48-11.82,2.68-4.12,3.09-9.24,3.09-9.24h0Z"/>
      <path class="cls-8" d="m58.73,69.79s-1.82,3.94-2.46,5.96c-.64,2.02-.73,4.2-.73,4.2,0,0,4.74-4.56,6.84-7.49,2.1-2.93,3.21-10.08,3.23-10.13.02-.05.6,3.96-1.15,8.36-1.75,4.4-5.42,7.35-7.87,9.59-2.45,2.24-3.19,3.49-3.19,3.49,0,0,.12-5.54,1.52-8.65,1.4-3.11,3.82-5.32,3.82-5.32h0Z"/>
      <path class="cls-8" d="m95.57,25.34s-13.37-4.88-16.99-2.41c-3.62,2.47-1.15,11.31,1.77,17.88,2.92,6.57,1.18,10.54-.47,15.32,0,0,.56-2.31-.04-4.43-.6-2.12-1.91-2.87-1.91-2.87,0,0,1.33,2.36.22,6.68-1.12,4.32-2.91,7.91-2.1,10.07.81,2.17,3.36,3.28,3.36,3.28,0,0-1.9-2.64.3-7.71,2.2-5.06,4.12-6.62,5.47-15.18,1.35-8.56-5.72-17.76-2.45-20.72,1.97-1.78,10.36-.23,12.87.09h0Z"/>
      <path class="cls-8" d="m80.46,29.11s5.32-.8,9.27.65c3.95,1.45,6.87,2.91,6.87,2.91,0,0-4.87-1.42-8.98-1.5-4.11-.07-6.96.26-6.96.26l-.2-2.32h0Z"/>
      <path class="cls-8" d="m82.86,35.74s4.1.54,6.83,1.5c2.74.96,5.94,2.86,5.94,2.86,0,0-6.97-1.72-9.11-1.71-2.15,0-3.09.01-3.09.01l-.57-2.67h0Z"/>
      <polygon class="cls-8" points="84.46 42.88 90.17 46.02 84.37 45.01 84.46 42.88 84.46 42.88"/>
      <polygon class="cls-8" points="84.14 48.9 87.49 52.59 83.7 50.99 84.14 48.9 84.14 48.9"/>
      <path class="cls-8" d="m96.59,105.85s5.6,1.2,8.68,1.04c3.07-.15,5.49-1.06,5.49-1.06,0,0-2.28,2.87-9.36,2.3-7.08-.58-13.63-4.35-15.97-7.36l6.26,3.42,4.91,1.65h0Z"/>
      <path class="cls-8" d="m103.64,81.24s7.27,6.73,14.92,8.76c7.65,2.02,19.77-3.91,17.93-11.95-1.56-6.81-8.93-5.68-12.51-3.6,0,0-.33,1.77-2.72,3.82-4.25,3.65-8.8,2.19-8.8,2.19l4.94-2.3s-.89.7-4.06.27c-5.79-.77-8.89-5.54-8.89-5.54,0,0,5.82,1.94,8.28,1.54,2.74-.44,4.4-1.49,4.4-1.49,0,0-2.61.22-4.63.14-2.02-.08-3.25-.24-3.25-.24,0,0,2.64-.18,5.56-1.25,2.92-1.07,7.45-1.08,8.28-.01.83,1.07.62,1.4.62,1.4,0,0,3.49-2.61,8.81-1.34,5.32,1.27,9.2,9.57,2.77,15.74-6.86,6.59-14.9,5.74-19.37,4.64-4.48-1.11-10.87-6.47-10.87-6.47l-1.41-4.32h0Z"/>
      <path class="cls-7" d="m121.89,92.29c-1.88,0-3.85-.25-5.85-.75-4-.99-9.7-5.58-10.56-6.28l-.81-2.47c2.48,2.05,7.97,6.15,13.76,7.69,1.04.28,2.18.42,3.39.42,5.09,0,10.59-2.44,13.38-5.95,1.72-2.16,2.33-4.58,1.78-7.01-.83-3.6-3.34-5.59-7.09-5.59-2.06,0-4.36.62-6.16,1.67-.13.07-.21.2-.24.34,0,.01-.35,1.65-2.55,3.54-2.27,1.95-4.62,2.36-6.2,2.36-.21,0-.41,0-.6-.02l3.11-1.45c.27-.09.42-.2.46-.23.2-.16.25-.44.12-.66-.09-.15-.26-.24-.43-.24-.07,0-.14.01-.21.05l-.37.17c-.23.08-.75.19-1.62.19-.54,0-1.14-.04-1.8-.13-3.66-.49-6.22-2.67-7.53-4.08,1.67.48,4.29,1.14,6.1,1.14.31,0,.6-.02.84-.06,2.81-.45,4.52-1.52,4.59-1.57.19-.12.28-.36.21-.58-.07-.2-.26-.34-.47-.34-.01,0-.03,0-.04,0-.02,0-1.85.16-3.6.16h-.2c.54-.15,1.11-.33,1.69-.54,1.33-.49,3.11-.78,4.77-.78s2.71.31,2.94.6c.46.59.53.88.54.95-.05.18,0,.38.14.51.09.09.22.13.34.13.1,0,.21-.03.3-.1.02-.02,2.19-1.59,5.61-1.59.92,0,1.86.11,2.79.34,2.48.59,4.67,2.89,5.43,5.72.88,3.22-.18,6.57-2.9,9.18-3.63,3.49-8.02,5.26-13.06,5.26Z"/>
      <path class="cls-8" d="m67.41,102.8l1.07,3.57s-2.02-.5-3.09-1.52c-1.07-1.02-1.37-1.8-1.37-1.8l-1.85,1.13s1.81,1.68,4.05,2.88c2.24,1.2,3.81,1.2,3.81,1.2l-1.34-4.05-1.27-1.42h0Z"/>
      <path class="cls-8" d="m63.9,104.13s-2.45.94-3.31,1.84c-.86.9-1.09,1.69-1.09,1.69,0,0-.37-1.52.9-3.22,1.27-1.7,3.29-2.04,3.29-2.04l.6,1.29-.39.45h0Z"/>
      <path class="cls-8" d="m59.7,101.91s-1.12.98-.96,2.76c.16,1.78,1.03,1.93,1.03,1.93l-.27.93s-1.75-.53-1.82-2.63c-.05-1.56,1.2-2.72,2.02-3h0Z"/>
      <path class="cls-8" d="m58.25,103.73s-2.19-.59-6.39-3.9c-4.21-3.31-6.22-3.97-7.75-4.24,0,0,3.07,1.68,5.65,4.06,2.57,2.38,4.32,4.1,5.73,4.87,1.42.77,2.71.75,2.71.75l.05-1.54h0Z"/>
      <path class="cls-8" d="m40.77,92.27s-.77,1.32-4.3.23c-3.53-1.08-5.33-1.36-6.31-.57-.95.77-1.2,1.13-1.2,1.13l-.93-.11s-.28-5.3,6.61-2.26c1.48.66,3.34,2.22,6.13,1.58h0Z"/>
      <path class="cls-8" d="m44.32,91.68s-2.7-.71-4.78-2.56c-2.08-1.84-3.17-4.35-4.73-4.76-1.56-.41-2.39,1.15-2.39,1.15l-1.35.35s1.13-3.96,4.21-3.27c3.08.69,2.51,3.78,4.24,5.32,1.73,1.54,4.01,2.74,5.36,3.21,1.34.47,2.02.7,2.02.7l-2.59-.15h0Z"/>
      <path class="cls-8" d="m34.11,85.94s-1.91-1.18-4.51-.93c-2.59.25-4.56,2.77-4.24,4.87.32,2.09,1.38,2.8,1.38,2.8,0,0-1.47-2.65.39-4.68,2.54-2.77,6.23-2.21,6.97-2.05h0Z"/>
      <path class="cls-8" d="m34.79,89.28s-4.15-.63-5.87-.37c-1.72.26-2.75,2.16-2.34,3.55l-.78-1.93s-.2-1.36,1.84-2.3c2.04-.94,6.63.87,7.16,1.05h0Z"/>
      <path class="cls-8" d="m30.8,88.87s.49.88.62,1.23c.13.36,1.37.53,1.37.53l.8.04-1.47-1.99-1.32.18h0Z"/>
      <path class="cls-8" d="m31.2,92.87s-2.16-.99-5.44.04c-3.28,1.03-3.34,3.67-2.85,5.43.74,2.62,2.92,3.51,2.92,3.51,0,0-.16-1.29-.47-1.62-.89-.93-1.59-3.14-.91-4.45,1.44-2.74,6.31-2.9,6.75-2.91h0Z"/>
      <path class="cls-8" d="m48.14,116.78l-.59.96s-2.16,1.11-5.73.71c-3.57-.4-5.63-.92-7.38-.19-1.75.73-1.48,2.57-1.48,2.57l-1.32.75s-1.36-1.59.35-3.76c1.72-2.18,5.23-1.37,7.47-.76,2.24.61,7.65.31,8.67-.27h0Z"/>
      <path class="cls-8" d="m36.17,119.43s-3.12,1.24-4.92,2.42c-1.8,1.18-2.01,3.13-1.41,4.39.59,1.27,1.65,2.15,1.65,2.15,0,0-3.48-.86-3.38-3.97.15-4.35,5.89-5.04,8.06-5h0Z"/>
      <path class="cls-8" d="m30.42,127.62s-.31-1.5.66-2.92c.97-1.42,4.57-2.79,4.57-2.79,0,0-2.2,1.5-3.24,2.74-1.04,1.25-1.4,2.75-.9,3.7l-1.09-.74h0Z"/>
      <path class="cls-8" d="m33.62,123.48s.22.64,1.3.3c1.08-.35-.45,1.18-.45,1.18,0,0-1.51-.1-1.76-.71-.25-.61.91-.77.91-.77h0Z"/>
      <path class="cls-8" d="m37.74,129.5s.71,1.76,2.42.93c1.72-.83,4.5-4,7.63-5.26,3.13-1.27,3.95-1.73,7.67-1.67,3.72.06,4.68-1.24,4.68-1.24l1.15.48s-.43,1.59-4.47,2.22c-4.04.63-5.88-.17-9.57,2.2-3.68,2.37-5.3,5.1-7.19,5.5-1.89.4-3.99-1.9-3.99-1.9l1.66-1.25h0Z"/>
      <path class="cls-8" d="m75.1,90.81s-.45,2.09,1.34,3.28c1.79,1.19,6.12,2.26,6.12,2.26l-6.48.82s-1.05,1.88.44,4.35c1.49,2.47,6.84,5.99,10.49,6,0,0-1.32,1.12-4.96.34-4.12-.88-10.73-5.61-10.65-8.09l2.19-5.57,1.5-3.39h0Z"/>
      <path class="cls-8" d="m84.53,108.14s.14,1.7-2.09,4.32c-2.23,2.63-5.08,5.16-5.08,5.16l3.56-1.07s1.91-1.33,3.34-3.59c1.83-2.9,2.77-5.43,2.77-5.43l-2.5.62h0Z"/>
      <path class="cls-8" d="m75.05,96.73s2.89,1.37,5.45,1.79c2.57.42,4.75.52,4.75.52,0,0-2.37-3.3-2.7-7.04-.33-3.73.19-9.68.19-9.68,0,0-2.26,6.76-1.88,9.61.38,2.85,1.03,3.94,1.03,3.94,0,0-5.43-.65-6.79-3.79,0,0-1.17-.29-1.52,1.4-.35,1.69,1.47,3.25,1.47,3.25h0Z"/>
      <path class="cls-8" d="m82.74,82.32s-.55,5.71.63,10.38c1.18,4.66,3.34,7.28,7.09,10.03,4.69,3.44,11.97,4.05,11.97,4.05,0,0-3.93,1.42-11.02-1.54-5.17-2.15-9.41-6.93-9.86-12.05-.45-5.13,1.19-10.87,1.19-10.87h0Z"/>
      <path class="cls-8" d="m111.05,129.02s.94-.42,1.74.95c.8,1.37.75,5.39.75,5.39,0,0-2.14-.31-2.94-3.37-.8-3.06.45-2.97.45-2.97h0Z"/>
      <path class="cls-8" d="m116.07,128.14s.98.84,1.5,2.2c.89,2.38-.03,4.37-.03,4.37,0,0-.26-1.14-1.98-3.65-1.23-1.78.04-2.81.51-2.92h0Z"/>
      <path class="cls-8" d="m60.27,119.57s2.29.37,3.44,1.71c1.47,1.73-.01,3.45-.01,3.45,0,0-1.46-2-3.11-2.59-1.65-.59-2.06-.04-2.06-.04,0,0,1.45.4,2.82,1.63,1.5,1.35,1.61,2.78,1.61,2.78,0,0,2.19-.12,2.67-2.59.58-2.99-1.76-4.4-3.03-4.67-1.27-.28-2.32.33-2.32.33h0Z"/>
      <path class="cls-8" d="m52.99,118.28s.63,2.07,3.23,1.16c2.6-.91,4.64-1.67,5.09-.7.44.97.23,1.11.23,1.11l.98.17s1.11-2.17-1.02-3.06c-2.13-.89-3.93.81-5.56,1.44-1.62.63-2.47-1.12-2.47-1.12l-.49,1h0Z"/>
      <path class="cls-8" d="m48.14,116.78l-.59.96m-10.33-19.69s2.57-.41,2.31.99c-.2,1.06-1.14,1.75-.91,3.32.14,1.01,2.26,1.05,2.26,1.05,0,0-1.21-.35-.99-1.6.22-1.25,1.14-2.49.95-3.33-.19-.84-1.46-1.01-1.46-1.01,0,0-2.1.78-2.15.59h0Z"/>
      <path class="cls-8" d="m45.15,96.14s-1.25.89-1.41,2.32c-.16,1.43.42,2.61.37,3.94-.06,1.33-1.43,1.57-1.43,1.57,0,0,1.33,1.05,2.5-.37.86-1.05-.2-2.73-.33-4.3-.13-1.58,1.55-2.67,1.55-2.67l-1.25-.49h0Z"/>
      <path class="cls-8" d="m43.17,102.86s-.38,4.01-2.15,4.73c-3.47,1.4-5.01-1.49-5.6-2.74,0,0,2.75,1.97,4.32,1.57.66-.17,1.3-.51,1.72-1.05,1.07-1.38,1.71-2.5,1.71-2.5h0Z"/>
      <path class="cls-8" d="m29.09,97.37s-.62,1.68,1.97,1.71c2.59.03,4.33-1.3,7.03-1.75,2.7-.45,4.93.83,4.93.83,0,0-2.25-.49-4.54.05-2.29.54-4.9,2.65-7.27,2.58-2.37-.06-2.62-1.78-2.98-2.55-.36-.78.12-.98.12-.98l.73.1h0Z"/>
      <path class="cls-8" d="m51.52,100.74s.52,2.8-.33,5.79c-.85,3-2.9,9.63-4.07,11.28-1.17,1.66-1.99,2.36-1.99,2.36,0,0,2.23-.45,4.74-5.35,2.51-4.9,4.24-11.99,4.24-11.99l-2.6-2.1h0Z"/>
      <path class="cls-8" d="m58.97,106.4s-2.22,3.72-3.72,6.36c-1.49,2.64-3.29,7.11-3.29,7.11,0,0,4.05-5.95,5.93-8.86,1.88-2.91,4.79-6.79,4.79-6.79l-2.43,1.34-.84,1.62-.45-.78h0Z"/>
      <path class="cls-8" d="m94.27,105.89s-2.22,2.59-4.82,5.69c-3.52,4.2-4.9,9.48-4.31,9.05,0,0,3.33-5.58,5.95-8.56,2.62-2.99,5.96-5.5,5.96-5.5l-2.78-.68h0Z"/>
      <path class="cls-8" d="m80.84,115.58s-4.74,1.78-6.8,3.4c-2.06,1.62-2.12,3.16-1.73,4.16,0,0,.56-2.5,3.37-3.86,2.81-1.35,7.28-2.35,7.28-2.35l-2.56-.71.44-.64h0Z"/>
      <path class="cls-8" d="m85.4,119.16s-.69,1.98-2.22,2.53c-1.53.55-9.11,2.84-9.11,2.84,0,0,6.49-.58,9.46-1.35,2.96-.77,2.38-4.44,2.38-4.44l-.51.42h0Z"/>
      <path class="cls-8" d="m77.63,117.24s-2.35.98-4.61,1.57c-2.26.59-3.76,1.17-4.1,2.38-.34,1.21-.06,1.59-.06,1.59,0,0,.18-1.71,1.46-2.29,1.29-.58,3.17-.25,3.17-.25l4.14-3h0Z"/>
      <path class="cls-8" d="m74.13,121.26s-1.02.71-1.18,1.88.06,1.83.06,1.83c0,0,.94-.86,1.68-1.42.74-.56.95-1.13.76-1.62-.19-.49-.83-.96-1.33-.68h0Z"/>
      <path class="cls-8" d="m103.43,107.2s2.37-.5,3.27,4.24c1.11,5.81,1.56,9.91.81,14.61-.75,4.7-2.59,4.34-2.59,4.34,0,0,1.53-7.53.83-13.96-.7-6.43-2.33-9.23-2.33-9.23h0Z"/>
      <path class="cls-8" d="m105.85,124.33c.19.69-.22,1.79-.34,2.47-.49,2.74-1.64,6.55,1.44,8.29.45.26,1.19.61,1.74.55.14-.02-.25-.41-.28-.45-.22-.28-.42-.57-.6-.87-.53-.89-.77-1.98-.83-3-.12-1.94.56-3.7.62-5.6.02-.48-.43-1.07-.96-1.04"/>
      <path class="cls-8" d="m106.78,129.16c.13-.04,0,.28.01.42.01.29.03.58.05.88.07.91.19,1.86.57,2.7.45.98,1.22,1.46,2.29,1.45.33,0,.66-.05.95-.2.14-.07.3-.4.39-.27.09.12-.13.51-.19.61-.3.52-.94.94-1.55,1-2.45.22-3.54-2.39-3.49-4.44"/>
      <path class="cls-8" d="m120.21,128.16c.75,1.12,1.35,3.03,1.17,4.37-.03.26-.21,1.19-.55,1.28-.11.03-.14-.73-.15-.8-.07-.55-.21-1.12-.46-1.62-.13-.26-1.01-1.47-1.2-1.7-.62-.77-.42-2.33,1.19-1.52h0Z"/>
      <path class="cls-8" d="m109.54,126.54s.32-2.92,5.97-3.18c5.65-.26,7.82,3.6,8.02,5.63.2,2.03-1.29,2.79-1.29,2.79,0,0,.65-2.51-.61-4.05-1.26-1.54-3.54-3.68-5.82-3.44-2.27.25-4.82,1.24-4.82,1.24l-1.45,1.01h0Z"/>
      <path class="cls-8" d="m109.6,126.65c.08.01.34-.24.4-.28.37-.26.77-.5,1.17-.7,1.2-.6,2.56-.96,3.91-1,1.17-.03,2.25.19,3.23.65.92.44,1.74,1.09,2.42,1.96.45.57,1.06,1.7,1.23,2.87.03.23.19-.55.2-.85.05-1.26-.54-2.75-1.28-3.77-1.15-1.59-3.18-1.9-5.02-1.95-.6-.02-1.22-.07-1.82.04-.57.1-1.12.31-1.67.47-1.12.35-2.76,1.26-2.92,2.6"/>
      <path class="cls-8" d="m118.25,120.37c-.06.05.15.56.17.61.21.64.48,1.25.79,1.84.61,1.14,1.23,2.26,1.98,3.32.66.92,1.51,1.87,1.75,3.01.16.75,0,1.49-.4,2.14-.07.11-.26.51-.4.54-.06.02-.07-.25-.08-.28-.03-.34-.08-1.1-.12-1.43-.09-.88-.21-1.29-.58-2.1-.38-.85-.87-1.59-1.48-2.3-.25-.29-.63-.47-.85-.8-.1-.15-.02-.39-.01-.56,0-.26-.03-.53-.1-.79-.22-.87-.75-1.63-.98-2.5"/>
      <path class="cls-8" d="m71.66,122.95l-.03-1.61s-.76.13-1.1.95c-.34.81.11,1.55.41,1.92.31.37.47.47.47.47,0,0,.17-1.71.25-1.72h0Z"/>
      <path class="cls-8" d="m69.55,121.81s-.58.51-.5,1.38c.08.86.86,1.21.86,1.21l.13-1.06s-.54-1.44-.5-1.53h0Z"/>
      <path class="cls-8" d="m73.94,119.52l-.45.71s-1.09-.25-1.88.15c-.8.4-1.4,1.97-1.4,1.97,0,0-.36-1.27.46-2.18.82-.9,3.26-.66,3.26-.66h0Z"/>
      <path class="cls-8" d="m42.96,43.64s-.61,2.27-3.99,4.4c-1.8,1.14-3.41,1.32-4.79,2.98-1.37,1.66-1.28,3.82.07,5.2,1.35,1.38,3.27,1.4,3.3,1.42.03.01-1.94,1.15-4.43-1.34-2.49-2.48-1.51-5.9.81-7.32,2.32-1.42,4.32-1.54,5.92-2.82,1.6-1.28,3.1-2.52,3.1-2.52h0Z"/>
      <path class="cls-8" d="m43.23,128.31s3.79-3.7,5.64-4.81c1.85-1.11,4.76-1.8,4.76-1.8,0,0-1.94.8-4.15,2.66-2.22,1.85-2.45,2.51-2.45,2.51l-3.8,1.44h0Z"/>
      <path class="cls-8" d="m54.42,113.41s-2.64,6.37-2.73,6.62c-.09.25,1.42-1.59,1.75-2.02"/>
      <path class="cls-8" d="m54.42,113.41l-.98,4.6m-15.88-60.37s-1.07-.94-.31-2.91c.76-1.97,3.67-3.36,6.69-3.87,3.02-.52,5.55.05,5.55.05,0,0-2.17-1.17-6.55-.65-4.39.52-5.89,1.9-6.81,3.66-.93,1.76-.32,3.62-.32,3.62l1.77.1h0Z"/>
      <path class="cls-8" d="m41.27,47.59s1.28-.66,1.64-.25c.36.42-1.64.25-1.64.25h0Z"/>
      <path class="cls-8" d="m44.13,50.77s.13,1.53-1.08,3.46c-1.21,1.93-3.07,2.8-3.66,2.65,0,0,.95.59,2.37.11s2.81-2.26,3.49-3.94.77-2.67.77-2.67l-1.89.39h0Z"/>
      <path class="cls-8" d="m43.08,43.5s.5-.77,1.14-.01c.89,1.05,0,2.8,2.53,3.74,2.53.94,4.14,1.08,4.23,2.71.09,1.63-.99,2.94-2.49,4.77-1.5,1.82-3.59,2.44-4.97,2.8-1.38.35-2.38-.54-2.38-.54h-1.58s1.52,2.21,4.62,1.36c3.1-.85,4.13-2.08,5.82-3.7,1.4-1.34,2.27-2.25,2.65-3.89.26-1.1-.05-3.05-2.54-3.57-2.49-.52-4.25-1.34-4.79-2.5-.62-1.32-.97-1.63-1.5-1.69-.53-.06-.72.54-.72.54h0Z"/>
      <path class="cls-8" d="m75.07,73.22s-3.62-4.08-2.88-10.59c.74-6.52,4.74-11.62,2.87-16.49-1.88-4.88-4.73-5.73-4.73-5.73,0,0,4.96,5.05,3.46,10.01-1.82,6.02-4.08,8.3-3.44,14.61.64,6.3,4.72,8.2,4.72,8.2h0Z"/>
      <path class="cls-8" d="m70.32,40.41s3.66-.15,5.7,1.81c2.04,1.96,2.24,5.28,2.24,5.28,0,0-1.25-3.67-3.49-4.65-2.25-.98-2.17.05-2.17.05l-2.29-2.49h0Z"/>
      <path class="cls-8" d="m76.72,43.32s-.97-1.95-3.11-6.19c-1.69-3.34-7.53-10.93-3.02-16.51,1.78-2.21,4.23-3.49,7.07-4.14,6.79-1.56,15.9,1.52,23.37,3.35,10.59,2.59,27.55,7.04,38.9,9.02,13.78,2.4,23.6.58,23.74.56.14-.02,3.65-2.3,3.65-2.3,0,0-10.19,3.13-30.18-.12-10.1-1.64-36.7-8.99-50.01-12.31-8.65-2.16-16.08-.28-18.91,5.5-2.23,4.57.37,10.08,3,14.9,2,3.67,3.6,6.69,3.6,6.96l1.89,1.28h0Z"/>
      <path class="cls-8" d="m48.18,35.73s-1.77-2.72-4.37-3.62c0,0,2.31-.15,3.94.9,1.64,1.05,2.3,2.02,2.3,2.02l-1.28.03-.12.92-.47-.25h0Z"/>
      <path class="cls-8" d="m53.16,36.23s.34-2.02-2.32-4.52c-2.65-2.5-5.63-3.78-5.63-3.78,0,0,3.83.21,6.73,2.73,2.91,2.52,3.25,4.96,3.25,4.96l-2.04.61h0Z"/>
      <path class="cls-8" d="m46.88,37.82s-2.33-3.29-6.26-5.31c-3.93-2.02-4.82-6.75,1.49-9.47,6.31-2.72,25.07.42,25.93.72l.66-1.57s-13.98-2.75-22.8-1.04c-8.82,1.71-10.69,6.93-9.11,9.83,1.58,2.91,6.07,4.51,7.4,5.73,1.33,1.22,1.66,2.06,1.66,2.06l1.03-.96h0Z"/>
      <path class="cls-8" d="m91.73,73.86s4.82-.09,9.59,6.18c4.77,6.27,3.18,16.18,4.01,19.59.83,3.41,5.8,1.98,8.51,3.62,2.71,1.64-1.02,8,1.58,14.16,2.6,6.16,5.22,9.76,5.22,9.76,0,0-3.69-9.72-4.39-13.79-.7-4.07,2.51-9.71-1.35-11.78-3.87-2.08-7.35-.63-7.96-3.14-.62-2.51.94-10.81-3.56-17.88-5.75-9.03-11.64-6.72-11.64-6.72h0Z"/>
      <path class="cls-8" d="m159.13,40.26s-17.32-.4-31.51-4.78c-4.93-1.52-10.02-3.11-14.55-4.52-8.5-2.66-15.07-4.74-15.07-4.74,0,0,9.44,4.44,27.99,10.45,8.8,2.85,18.4,4.64,24.13,4.89,6.87.3,9.01-1.29,9.01-1.29h0Z"/>
      <path class="cls-8" d="m150.99,50.49s-11.45-2.01-23.38-6.07c-11.93-4.07-27.91-10.69-27.91-10.69,0,0,4.43,4.01,18.51,9.73,14.08,5.72,29.57,7.48,32.78,7.02h0Z"/>
      <path class="cls-8" d="m136.62,58.67s-7.18-.41-16.89-5.3c-9.71-4.89-21.06-11.95-21.06-11.95,0,0,6.4,6.04,18.05,12.07,13.04,6.75,19.13,5.05,19.9,5.17h0Z"/>
      <path class="cls-8" d="m118.81,63.06s-5.03,3.39-10.89,1.91c-5.85-1.48-10.85-6.36-10.85-6.36l-3.13-3.15s6.15,5.33,11.86,7.45c5.7,2.12,10.45-.25,10.45-.25l2.57.4h0Z"/>
      <path class="cls-8" d="m110.29,66.39s-2.27,1.77-6.72,1.39c-4.44-.38-7.44-2.39-9.51-4.11-2.06-1.71-5.16-5.36-5.16-5.36,0,0,3.28,3.2,7.57,5.45,7.43,3.88,10.58,2.27,10.58,2.27l3.23.37h0Z"/>
      <path class="cls-8" d="m104.11,70.51s-3.61,1.63-8.33-.21c-4.72-1.83-7.9-4.18-9.02-5.49-1.12-1.3-1.58-2.69-1.58-2.69,0,0,2.37,3.02,6.96,5.2,4.59,2.18,8.13,2.05,8.13,2.05l3.84,1.13h0Z"/>
      <path class="cls-8" d="m96.95,72.19s-2.37,2.27-5.86.94c-3.48-1.32-8.14-5.81-8.32-6.26-.18-.45-.67-1.89-.67-1.89,0,0,3.72,4.21,7.09,5.85,3.36,1.64,5.05.96,5.05.96l2.71.39h0Z"/>
      <path class="cls-8" d="m89.27,73.2s-2.34,1.42-5.85.28c-3.51-1.14-4.85-3.06-5.01-3.5-.16-.44,3.95,2.11,5.68,2.51,1.73.4,2.98-.49,2.97-.48-.01,0,2.21,1.19,2.21,1.19h0Z"/>
      <path class="cls-8" d="m45.88,41.01s-.89.79-.3,1.8c.66,1.13,1.78,1.04,2.51.43.73-.61,1.7-2.12,3.01-2.42,1.31-.3,2.57.63,2.57.63,0,0-1.72-.69-2.87.3-1.15.99-1.41,2.78-3.25,3.01-1.28.16-2.44-.55-2.79-2.15-.24-1.07,1.12-1.61,1.12-1.61h0Z"/>
      <path class="cls-8" d="m51.67,41.3s.64,2.35-.53,3.74c-1.17,1.39-3.58.2-3.58.2,0,0,2.14.45,2.86-.46,1.33-1.69.16-3.15.16-3.15l1.09-.32h0Z"/>
      <path class="cls-8" d="m48.08,45.44s3.27.61,5.03,1.55c1.76.93,1.96,2.99,1.27,4.27,0,0,2.03-1.41,1.23-3.56-.8-2.14-3.78-2.32-5.18-2.33-1.4,0-2.35.06-2.35.06h0Z"/>
      <path class="cls-8" d="m136.62,58.67s-1.65,2.82-8.97,3.48c-7.32.66-14.17-1.23-21.06-5.18-6.89-3.95-9.6-7.5-9.6-7.5,0,0,6.59,5.68,15.95,8.49,14.93,4.48,18.83.48,19.3.46.47-.02,0,0,0,0l4.38.26h0Z"/>
      <path class="cls-8" d="m118.87,63s-4.04-1.04-10.96-5.73c-6.92-4.69-11.71-8.9-11.71-8.9,0,0,2.69,4.36,9.7,9.74,7.02,5.39,12.97,4.88,12.97,4.88h0Z"/>
      <path class="cls-8" d="m110.42,66.4s-4.46-.44-10.47-5.66c-6.01-5.22-8.42-7.88-8.42-7.88,0,0,2.11,4.62,7.68,9.27,5.57,4.65,11.22,4.26,11.22,4.26h0Z"/>
      <path class="cls-8" d="m104.36,70.64s-4.43-1.56-8.61-5.82c-4.18-4.26-6.95-6.9-6.95-6.9,0,0,.78,2.94,5.79,8.02,5.02,5.09,9.77,4.7,9.77,4.7h0Z"/>
      <path class="cls-8" d="m97.59,72.28s-4.49-1.23-7.93-4.78c-3.44-3.55-4.65-5.57-4.65-5.57,0,0,.36,2.95,4.34,6.91,3.97,3.96,8.24,3.43,8.24,3.43h0Z"/>
      <path class="cls-8" d="m90.02,73.39s-2-.11-4.22-3.28c-2.22-3.17-3.6-5.72-3.6-5.72,0,0-1.16.82,1.44,4.67,2.61,3.86,6.37,4.32,6.37,4.32h0Z"/>
      <path class="cls-8" d="m166.92,27.5s-2.84,6.58-13.59,8.66c-10.75,2.08-19.76,1.25-20.47,1.18-.71-.08-14.88-4.46-14.88-4.46,0,0,8.71,2.63,20.65,2.86,11.94.24,21.29-2.44,23.2-5.8l-.54-1.17,5.64-1.27h0Z"/>
      <path class="cls-8" d="m158.86,40.51s-4.16,6.54-13.46,6.87c-9.3.34-21.45-3.37-21.45-3.37l-11.25-3.72s21.56,5.76,29.87,5.19c8.31-.56,13.62-5.22,13.62-5.22l2.67.24h0Z"/>
      <path class="cls-8" d="m150.62,50.56s-2.47,4.63-12.1,4.42c-9.63-.2-15.99-1.95-22.67-4.3-6.67-2.35-11.96-5.01-11.96-5.01l-3.61-2.75s13.1,5.93,27.38,9.11c14.27,3.18,18.77-1.18,19.45-1.63.68-.46,3.5.16,3.5.16h0Z"/>
      <path class="cls-8" d="m59.93,39.86s.45-1.79-1.1-5.59c-1.54-3.79-4.6-5.86-4.6-5.86,0,0,3.87.54,6.43,5.8,2.56,5.26,1.56,8.73,1.56,8.73l-2.29-3.08h0Z"/>
      <path class="cls-8" d="m69.15,62.19s1.1-6.87-.55-15.64c-1.65-8.77-5.24-14.89-5.24-14.89,0,0,4.49,3.33,6.59,12.7,2.1,9.37,1.41,17.38,1.41,17.38l-.36,3.39-1.84-2.93h0Z"/>
      <path class="cls-8" d="m46.73,50.55s-.09,2.42-1.07,3.86c-.98,1.44-2.14,2.26-2.14,2.26,0,0,.73.15,2.99-1.68,2.27-1.83,2.87-4.11,2.87-4.11,0,0-.65-.23-1.38-.33-.74-.1-1.28,0-1.28,0h0Z"/>
      <path class="cls-8" d="m41.88,44.78s-1.02-1.48.25-3.21c1.28-1.74,3.44-1.64,5.56-3.07,1.36-.92,1.66-2.31,1.7-3.09.06-1.15-1.06-1.35-1.7-1.61,0,0,.99,1.82-.5,3.23-1.49,1.42-3.1,1.52-4.73,2.37-2.58,1.35-2.09,3.46-1.81,4.45.28.99.87,1.32.87,1.32l.37-.39h0Z"/>
      <path class="cls-8" d="m47.17,39.87s2.26-1.28,4.4-1.86c2.14-.58,3.62-1.3,4.68-2.45,1.06-1.15.87-2.62.87-2.62,0,0-.64,1.46-3.11,2.7-2.47,1.24-3.01,1.66-4.49,2.41-1.48.75-2.36,1.83-2.36,1.83h0Z"/>
      <path class="cls-8" d="m57.19,32.54s.52.86.46,2.51c-.05,1.65-1.47,4.28-1.47,4.28l-1.6-.25s1.15-.52,1.9-2.27c.75-1.75.25-2.47.25-2.47l.29-.65.16-1.15h0Z"/>
      <path class="cls-8" d="m51.48,37.56s.17-.5-.56-1.36c-.73-.86-1.82-.98-1.82-.98l-1.58-1.53s1.94.43,3.09,1.06c1.15.63,1.8,2.27,1.8,2.27l-.93.54h0Z"/>
      <path class="cls-8" d="m52.95,39.2s3.1-.39,5.56,1.15c2.45,1.55,2.97,3.46,4.17,4.71s2.77,1.3,2.77,1.3c0,0-1.74-1.15-3.27-3.94-.97-1.78-2.43-3.23-4.51-4.04-2.08-.81-4.68.69-4.73.81h0Z"/>
      <path class="cls-8" d="m65.45,46.37s-.68.24-1.78.13c-1.1-.11-2.07-.35-2.07-.35l-1.22-1.73s1.06.75,2.22.84l.67.04,2.19,1.06h0Z"/>
      <path class="cls-8" d="m58.48,43.29s2.09,2,3.87,5.23c2.27,4.1,1.81,5.4,3.72,10.92,1.91,5.52,5.73,8.02,5.73,8.02l-.29-2.55s-1.45-1.18-3.29-4.61c-1.84-3.43-1.99-5.85-3.04-8.9-1.21-3.53-3.29-7-6.71-8.11-1.6-.52,0,0,0,0h0Z"/>
      <path class="cls-8" d="m43.47,121.04s-1.19.75-3.52,1.48c-2.33.73-3.91,1.32-4.37,2.38-.46,1.06.16,1.63.16,1.63l-1.67,1.31s-1.03-1.59.16-3.53c1.18-1.94,2.78-2.28,4.71-2.61,1.94-.33,4.54-.67,4.54-.67h0Z"/>
      <path class="cls-8" d="m39.6,128s-2.87,1.3-4.6,3.34c-1.74,2.04,0,4.57.83,4.81l1.21-.08s-1.5-.82-1.48-2.84c.02-2.02,4.04-5.23,4.04-5.23h0Z"/>
      <path class="cls-8" d="m37.86,125.34s-2.81,1.56-4.33,3.17c-1.52,1.61-2.48,3.75-1.11,5.64.63.87,2.28,1.25,3.06.94.88-.35.86,1.01.86,1.01,0,0-3.28.68-5.07-1.62-1.79-2.3-.63-4.78.89-6.17,1.52-1.39,5.69-2.97,5.69-2.97h0Z"/>
      <path class="cls-8" d="m25.83,101.84s-1.55-.74-.21-3.05c1.96-3.38,6.17-1.31,6.49-1.32.32,0,0,0,0,0,0,0-2.58-.36-4.42.61-1.85.98-1.97,3.57-1.86,3.76h0Z"/>
      <path class="cls-8" d="m39.57,103.09s-.82,1.95-1.83,2.17c-1.01.21-2.37-.38-2.37-.38l1.2,1.05s.76.66,2.07-.15c1.31-.8,1.73-2.49,1.73-2.49l-.79-.2h0Z"/>
      <path class="cls-8" d="m46.88,84.37s.74,3.44,2.63,5.32c5.09,5.08,9.62,3.39,9.62,3.39l1.25,3.39-13.86-3.88s-1.82-2.3-2.98-5.05c-1.16-2.76-1.04-4.48-1.04-4.48l2.79,2.08-.18-2.28.02-2.3,1.71,3.06.04.74h0Z"/>
      <path class="cls-8" d="m59.7,78.88s-2.65,3.45-2.31,7.33c.34,3.88,3.62,11.22,4.04,11.81.42.59-1.57-1.4-3.48-4.91-1.91-3.51-2.15-7.59-1.06-10.31,1.09-2.72,2.82-3.92,2.82-3.92h0Z"/>
      <path class="cls-8" d="m46.54,91.42s-3.13-.19-4.25.25c0,0,5.54,1.35,6.8,1.66,1.26.3-2.55-1.91-2.55-1.91h0Z"/>
      <path class="cls-8" d="m73.38,81.3s1.62,3.35.42,8.81c-1.2,5.46-3.78,7.18-3.46,10.38.32,3.2,1.21,4.25,1.21,4.25,0,0-3.97-1.51-4.38-2.63l.99,2.86s2.45.96,4.75,1.15c2.3.19,2.49-.23,2.49-.23,0,0-3.59-1.66-3.53-5.8.06-4.14,2.69-5.08,3.94-10.42,1.24-5.34-2.43-8.37-2.43-8.37h0Z"/>
      <path class="cls-8" d="m45.77,69.6s-1.96,4.52-1.27,8.91c.69,4.39,2.07,6.18,3.66,7.81,1.59,1.64,3.02,2.64,3.02,2.64l-.91-2.83s-2.22-1.39-3.79-5.23c-1.57-3.85-.99-10.82-.71-11.29h0Z"/>
      <path class="cls-8" d="m45.24,78.85s.02,3.68.47,5.42c.46,1.74,1.03,3.47,1.03,3.47,0,0-1.65-2.44-2.13-4.89-.49-2.46.14-5.48.14-5.48l.49,1.48h0Z"/>
      <path class="cls-8" d="m54.24,77.09s-3.17,4.42-2.48,9.04c.69,4.62,5.21,7.48,6.6,7.43,1.39-.04-.31,1.46-.31,1.46l-9.79-4.05-2.61-5.84.45-2.44,3.57,4.03,1.2.54s-1.45-3.67-.19-6.27c1.26-2.61,3.65-5.33,3.65-5.33l-.08,1.44h0Z"/>
      <path class="cls-8" d="m55.52,103.98l-1.88-.93s2.14,2.43,1.93,5.45c-.2,3.01-3.08,9.64-3.08,9.64v1.13s6.99-12.1,6.99-12.1l-1.26-2.25-2.7-.93h0Z"/>
      <path class="cls-8" d="m76.14,96.68s-.88,4.52,4.4,7.27c5.28,2.76,11.44,2.39,11.44,2.39l-4.75,2.08-4.64,8.38,1.64.64s-4.49-.06-6.77.87l3.51-3.1,3.29-4.46,1.41-2.45s-1.93-.14-5.15-1.4c-3.22-1.26-6.9-6.17-6.9-6.17l.14-3.91,2.38-.15h0Z"/>
      <path class="cls-8" d="m51.6,47.93s2.7.35,1.98,5.93c-.73,5.58-4.2,9.68-5.96,12.02,0,0,1.57-2.42,2.55-5.97.97-3.55.04-6.1.04-6.1,0,0,1.65-1.55,1.89-3.07.24-1.52-.49-2.81-.49-2.81h0Z"/>
      <path class="cls-8" d="m49.66,54.68s.13,2.75-2.34,6.95c-2.47,4.2-5.37,6.31-5.37,6.31,0,0,3.15-3.72,4.25-6.93,1.1-3.21.82-4.3.82-4.3l2.63-2.04h0Z"/>
    </g>
    <path class="cls-5" d="m33.51,55.1s1.19-4.69,3.11-5.87c0,0-2.57.95-3.2,3.15s.09,2.72.09,2.72Z"/>
  </g>
</svg>