<?xml version="1.0" encoding="UTF-8"?>
<svg id="Layer_1" data-name="Layer 1" xmlns="http://www.w3.org/2000/svg" xmlns:xlink="http://www.w3.org/1999/xlink" viewBox="0 0 190 150">
  <defs>
    <style>
      .cls-1 {
        fill: #e68a1b;
      }

      .cls-1, .cls-2, .cls-3, .cls-4, .cls-5, .cls-6, .cls-7, .cls-8, .cls-9 {
        stroke-width: 0px;
      }

      .cls-2 {
        fill: url(#linear-gradient);
      }

      .cls-3 {
        fill: #f4931c;
      }

      .cls-10 {
        filter: url(#outer-glow-1);
      }

      .cls-4 {
        fill: none;
      }

      .cls-5 {
        fill: #fff;
      }

      .cls-6 {
        fill: url(#linear-gradient-2);
      }

      .cls-7 {
        fill: url(#linear-gradient-3);
      }

      .cls-8 {
        fill: #1e110e;
      }

      .cls-9 {
        fill: url(#linear-gradient-4);
      }
    </style>
    <filter id="outer-glow-1" filterUnits="userSpaceOnUse">
      <feOffset dx="0" dy="0"/>
      <feGaussianBlur result="blur" stdDeviation="5"/>
      <feFlood flood-color="#f7931a" flood-opacity=".75"/>
      <feComposite in2="blur" operator="in"/>
      <feComposite in="SourceGraphic"/>
    </filter>
    <linearGradient id="linear-gradient" x1="95.01" y1="72.86" x2="95.01" y2="112.51" gradientUnits="userSpaceOnUse">
      <stop offset="0" stop-color="#f7931a"/>
      <stop offset="1" stop-color="#1e110e"/>
    </linearGradient>
    <linearGradient id="linear-gradient-2" x1="106.4" y1="67.03" x2="152.44" y2="67.03" xlink:href="#linear-gradient"/>
    <linearGradient id="linear-gradient-3" x1="93.37" y1="78.26" x2="93.37" y2="33.05" xlink:href="#linear-gradient"/>
    <linearGradient id="linear-gradient-4" x1="83.29" y1="67.03" x2="37.38" y2="67.03" xlink:href="#linear-gradient"/>
  </defs>
  <g class="cls-10">
    <path class="cls-4" d="m105.96,118.34c.25.41.47.81.66,1.21.25-.82.54-1.78.87-2.91.33-1.24.56-2.58.69-3.94-.57,2.04-1.34,4.02-2.22,5.64Z"/>
    <path class="cls-8" d="m90.66,44.08l-.94.86c.34-.27.65-.56.94-.86Z"/>
    <path class="cls-8" d="m102.89,72.18c.2-.33.39-.7.56-1.08-.16.32-.35.67-.56,1.08Z"/>
    <path class="cls-2" d="m104.59,81.92c-.6.7-1.57,1.55-3.09,2.09,3.15-5.07,3.69-9.1,3.76-10.85-.04-.1-.08-.2-.12-.31,0,0,0,0,0,0-.52,2.57-1.4,3.74-2.83,5.16-.07-1.03-.42-2.34-.82-3.01-.85,2.35-2.44,4.59-3.59,5.6-.79.82-1.75,1.45-2.71,2.04h0s-.38.24-.38.24h0s0,0,0,0l-.38-.24h0c-.97-.59-1.92-1.23-2.71-2.05-1.14-1.01-2.74-3.25-3.59-5.6-.4.67-.74,1.98-.82,3.01-1.42-1.42-2.3-2.59-2.83-5.16,0,0,0,0,0,0-.04.11-.08.22-.13.33.07,1.75.62,5.78,3.76,10.82-1.52-.54-2.49-1.39-3.09-2.09,1.54,4.53,3.74,8.28,5.64,9.62-1.53.06-3.07-.4-4.41-1.22-.38-.24-.74-.5-1.09-.78-3.16,2.17-7.05,8.74-7.05,8.74,0,0,2.18-1.78,4.03-2.71-1.38,2.29-2.88,7.92-2.38,12.2.05-.54.11-1.07.19-1.58.28-1.78.75-3.57,1.58-5.23.39-1.4.94-2.77,1.62-4.08.73-1.37,1.61-2.65,2.7-3.76-.52,1.46-1.1,2.85-1.62,4.24-.16.42-.31.83-.45,1.25-.25,2.26-.37,6.22,1.07,9.78.21-2.22,2.12-5.97,3.18-7.78.29-1.15.68-2.32,1.19-3.52-.02.26-.03.52-.05.77.47-1.98.91-2.88.91-2.88,0,0-.57,9.49,4.96,16.94-.93-1.96-1.63-4.03-1.66-5.97.01.03.03.05.04.08-.17-1.15-.15-2.36.16-3.71.61,3.66,3.41,7.67,5.97,10.2-2.29-3.76-3.58-7.58-2.2-12.38.35,2.26.49,4.81,1.61,7.76.58,1.52,1.35,2.8,2.22,4.02.24-1.55.41-3.11.43-4.68.06-2.01,0-3.99-.13-6.11.03.05.05.1.08.15-.04-.5-.07-1.04-.11-1.6.59.79,3.5,5.95,3.77,8.72,1.35-3.31,1.33-6.96,1.12-9.28-.68-2.11-1.54-4.08-2.23-5.99,2.18,2.22,3.67,5.3,4.44,8.38.96,2.1,1.49,4.31,1.73,6.45.56-4.3-.95-10.07-2.36-12.39,1.85.93,4.03,2.71,4.03,2.71,0,0-3.95-6.68-7.13-8.8-.37.3-.75.58-1.16.83-1.34.82-2.88,1.28-4.41,1.22.22-.15.42-.3.63-.46l-.91.46c1.89-1.34,4.1-5.09,5.64-9.62Z"/>
    <path class="cls-6" d="m106.4,63.86l.36,1.58c1.24,1.53,3.81,5.76,1.59,12.78-.03.11-.06.21-.09.32-.01.27-.02.53-.04.78.14-.37.27-.74.4-1.11.23.57.36,1.18.41,1.81.7.95,2.32,2.88,4.44,3.48-.13-3.5,1.73-6.74,1.73-6.74,0,0,.96,2.27,2.47,3.79-.36-1.88-.48-4.04-.29-5.68,1.61,2.09,5.45,4.15,6.35,4.61-.89-2-1.42-5.3-1.15-7.68,1.42,1.85,4.01,3.07,5.09,3.52-.41-1.4-.61-2.59-.58-3.17,1.83,1.35,5.4,2.49,7.21,3.01-1.55-1.77-3.3-3.93-4.59-6,5.13,2.71,10.03,3.18,12.83,3.18-3.96-2.34-6.15-6.68-6.15-6.68,3.19.89,8.54,1.34,9.48.3-.89-.05-5.88-2.15-9.15-3.73,11.1-.07,15.73-4.96,15.73-4.96,0,0-5.59,1.66-14.49,1.43,6-1.4,10.04-4.83,13.03-8.1-1.89,1.02-7.55,2-10.04,2.39-2.67,2.5-5.68,4.61-9.11,6.04-3.33,1.42-7.03,1.97-10.55,1.43-1.72-.07-3.56-.34-5.52-.88-1.68-.13-2.8,1.83-3.65,3.4-.04.19-.1.38-.16.57-.26.82-.66,1.58-1.2,2.2.06-.8.07-1.47.05-2.05-1.77,1.08-4.41.17-4.41.17Z"/>
    <path class="cls-7" d="m93.46,41.77c.65.63,1.2,1.42,1.51,2.28.34.9.5,1.84.56,2.75.11,1.71-.06,3.45-.43,5.12-.19,3.27-1.23,6.95-6.11,10.21.34-.53.68-1.45.98-2.47-.91,1.07-2.02,2.19-3.33,3.17-.48.72-.82,1.38-1.06,1.99-1.17,2.96.36,6.32,1.48,7.85.38-1.61,1.24-3.32,1.93-4.66-.07,3.24,2.77,7.33,5.81,10.24,3.04-2.91,5.88-7,5.81-10.24.69,1.35,1.56,3.06,1.94,4.68.04-.06.08-.12.12-.18,1.41-4.23-1.04-9.29-1.83-10.77-.21.38-.44.76-.68,1.11,0-.01,0-.02,0-.03-.49,1.18-1.06,2.49-1.72,3.96,1.32-4.36.46-13.28-.33-19.56.5.83,1.05,2.12,1.43,3.06-.74-4.4-3.49-11.55-7.76-12.88,1.71-1.62,2.27-3.42,2.46-4.36-2.18,1.85-5.66,3.49-6.86,4.03-1.55.98-2.9,2.04-2.24,2.3.71.27,2.37-.4,3.37-.85.4-.26.83-.54,1.31-.83-.08.55-.26,4-1.58,4.56-.05,0-.36.28-1.33-.14-.43-.21-.79-.46-1.14-.74-.28.19-.69.49-1.18.33-.25-.07-.41-.23-.53-.38-.23-.3-.34-.62-.4-.95,0,0,.64,3.3,2.48,4.53,1.47,1,3.94-.54,4.85-1.18.33-.38.6-.77.8-1.15.48-.86.73-1.9.84-3.1.51.72.77,1.5.84,2.3Z"/>
    <path class="cls-9" d="m83.15,65.07c.05-.1.09-.2.14-.3-1.24.51-2.59.87-4.05.97-.52-.6-.9-1.31-1.16-2.08-.89-1.61-2.09-4.25-4.03-4.1-1.86.51-3.62.78-5.26.86-3.54.57-7.28.02-10.64-1.41-3.42-1.43-6.41-3.52-9.07-6.01-2.36-.37-8.31-1.38-10.25-2.43,1.15,1.26,2.46,2.54,3.96,3.71.3.18.58.36.86.55-.05,0-.1,0-.15,0,2.28,1.66,5.02,3.07,8.36,3.85-8.9.23-14.49-1.43-14.49-1.43,0,0,4.63,4.89,15.73,4.96-3.27,1.59-8.26,3.68-9.15,3.73.94,1.04,6.29.59,9.48-.3,0,0-2.19,4.34-6.15,6.68,2.79,0,7.69-.46,12.83-3.18-1.29,2.07-3.03,4.23-4.59,6,1.81-.52,5.39-1.67,7.21-3.01.02.58-.17,1.77-.58,3.17,1.08-.45,3.67-1.67,5.09-3.52.27,2.38-.26,5.69-1.15,7.68.9-.46,4.74-2.52,6.35-4.61.19,1.63.07,3.8-.29,5.68,1.51-1.52,2.47-3.79,2.47-3.79,0,0,1.87,3.24,1.73,6.74,2.17-.6,3.82-2.62,4.48-3.54.05-.61.18-1.19.4-1.73,0,0,0,0,0,0-2.44-7.69.88-12.03,1.9-13.14Z"/>
    <path class="cls-1" d="m90.04,94.98s-.44.91-.91,2.88c-.18,2.99-.24,5.15.08,7.23,1.37,4.09,5.32,9.01,8.39,13.38-.59-1.85-1.3-3.7-1.85-5.07-.26-.49-.51-.98-.75-1.49-5.53-7.45-4.96-16.94-4.96-16.94Z"/>
    <path class="cls-1" d="m93.55,102.31c-.31,1.35-.33,2.57-.16,3.71.78,1.59,1.6,3.1,2.43,4.5,1.04,1.52,2.31,3.23,3.48,4.34,1.49,1.41,3,2.34,4.3,3.68-.56-.89-1.16-1.74-1.73-2.53-.85-1.18-1.65-2.34-2.36-3.51-2.56-2.53-5.36-6.54-5.97-10.2Z"/>
    <path class="cls-5" d="m99.29,114.87c-1.16-1.1-2.44-2.81-3.48-4.34,3.14,5.32,6.26,9.01,6.29,9.04,1.06,1.36,2.61,4.08,3.27,6.73.44-1.12.43-2.3.16-3.48-.01,0-.02,0-.03,0,0-.01.01-.03.02-.04-.34-1.44-1.08-2.88-1.93-4.23-1.3-1.35-2.81-2.27-4.3-3.68Z"/>
    <path class="cls-5" d="m89.21,105.09c.47,3.11,1.78,6.02,4.76,11.2.88,1.52,5.93,8.74,4.33,15.05,4.23-3.42,2.64-8.84-.03-13.57-.72-1.24-1.66-2.74-2.52-4.36.55,1.36,1.26,3.22,1.85,5.07-3.07-4.37-7.02-9.29-8.39-13.38Z"/>
    <path class="cls-1" d="m83.75,98.62c-.33.96-.6,1.92-.81,2.89h0s-.02.06-.03.09c-.19.89-.31,1.78-.37,2.69.53,4.36,2.73,8.34,2.73,8.34,0,0,.23-3.94,1.5-7.09.2-1.43.53-2.81,1.02-4.1.05-.27.12-.55.19-.82-1.06,1.81-2.96,5.56-3.18,7.78-1.45-3.55-1.32-7.51-1.07-9.78Z"/>
    <path class="cls-1" d="m105.19,108.39c-.26-2.78-3.17-7.93-3.77-8.72.03.56.07,1.1.11,1.6.68,1.12,1.15,2.38,1.45,3.7,1.49,3.23,1.74,7.65,1.74,7.65,0,0,2.03-3.66,2.66-7.81-.08-2.04-.51-3.92-1.08-5.69.21,2.31.22,5.97-1.12,9.28Z"/>
    <path class="cls-5" d="m82.55,104.28c-.13,1.89.03,3.84.61,5.91.77,2.88,1.73,5.67,3.34,8.01.74,1.08,1.5,1.93,2.22,2.62-1.68-4.62-2.65-10.25-1.94-15.29-1.28,3.16-1.5,7.09-1.5,7.09,0,0-2.2-3.98-2.73-8.34Z"/>
    <path class="cls-5" d="m102.98,104.97c.69,3.01.53,6.39.06,9.38.5.62,1,1.25,1.49,1.91.96-1.88,1.64-3.95,2.21-6.07.54-1.93.71-3.71.65-5.38-.63,4.15-2.66,7.81-2.66,7.81,0,0-.25-4.42-1.74-7.65Z"/>
    <path class="cls-1" d="m82.12,95.57c-1.85.93-4.03,2.71-4.03,2.71,0,0,3.89-6.58,7.05-8.74-.37-.3-.72-.62-1.04-.97-1.11.86-2.18,1.76-3.21,2.69-4.37,5.15-5.56,7.95-6.04,9.39,1.32-1.26,2.84-1.92,2.84-1.92,0,0-1.92,8.92,1.06,14.93-.03-2.07.45-4.01.95-5.45.01-.15.03-.3.04-.45-.49-4.28,1-9.91,2.38-12.2Z"/>
    <path class="cls-1" d="m111.93,98.28s-2.18-1.78-4.03-2.71c1.41,2.32,2.92,8.09,2.36,12.39,0,.04,0,.07.01.11.52,1.46,1.03,3.46,1,5.6,2.97-6.01,1.06-14.93,1.06-14.93,0,0,1.52.66,2.84,1.92-.48-1.44-1.66-4.23-6.01-9.36-1.06-.97-2.17-1.89-3.33-2.79-.32.34-.67.67-1.03.97,3.18,2.11,7.13,8.8,7.13,8.8Z"/>
    <path class="cls-1" d="m102.67,72.52c-.04.06-.08.12-.12.18-.38-1.62-1.24-3.33-1.94-4.68.07,3.24-2.77,7.33-5.81,10.24-3.04-2.91-5.88-7-5.81-10.24-.69,1.34-1.55,3.04-1.93,4.66-1.12-1.53-2.65-4.89-1.48-7.85.24-.6.58-1.27,1.06-1.99,1.32-.99,2.43-2.1,3.33-3.17-.31,1.02-.64,1.94-.98,2.47,4.88-3.26,5.93-6.94,6.11-10.21-.02.08-.03.16-.05.23-.24-1.52-.38-3.63-.59-5.04-.29,3.1-1.94,8.53-5.5,11.85-3.67,3.42-8.44,5.2-9.76,4.8-.02.57,0,1.21.05,1.97,1.47-.11,2.82-.46,4.05-.97-.05.1-.1.2-.14.3-.19.42-.36.84-.51,1.24.02-.04.04-.08.07-.12-.2.76-.31,1.53-.32,2.29-.03.76.05,1.51.18,2.24.1.54.44,1.63.61,2.14.34-.96,1.18-1.96,1.78-2.6,0,1.42.97,3.87,1.76,4.84.19-1.91,1.68-3.27,1.73-3.45.28,3.27,2.79,6.48,4.35,7.84.59.61,1.28,1.1,2,1.55.71-.45,1.41-.94,2-1.55,1.55-1.36,4.07-4.57,4.35-7.84.06.19,1.54,1.55,1.73,3.45.79-.98,1.75-3.42,1.76-4.84.6.64,1.45,1.64,1.78,2.6.18-.51.52-1.6.61-2.14.13-.73.21-1.48.18-2.24-.01-.76-.12-1.52-.32-2.29.03.04.05.09.08.13-.08-.33-.18-.67-.3-.99.03.03.06.07.09.1l-.36-1.58s2.64.92,4.41-.17c-.02-.5-.06-.93-.11-1.33-1.35.96-6.84,1.45-9.1-2.16-.23.53-.47,1.05-.75,1.55.8,1.47,3.24,6.54,1.83,10.77Zm.78-1.43c-.17.39-.36.75-.56,1.08.21-.41.4-.77.56-1.08Z"/>
    <path class="cls-1" d="m85,81.92c.6.7,1.57,1.55,3.09,2.09-3.14-5.05-3.69-9.07-3.76-10.82-.35.85-.81,1.51-.97,2.19-.56-.61-1-1.43-1.3-2.25,0,.37-.01.76-.02,1.16.58,5.63,2.89,11.28,5.37,14.7.95.9,2.02,1.69,3.23,2.55-1.89-1.34-4.1-5.09-5.64-9.62Z"/>
    <path class="cls-1" d="m102.56,88.9c.98-.92,1.8-1.97,2.48-3.11.26-.43.5-.84.73-1.24-1.13,1.83-2.83,3.79-4.04,5.1.29-.24.57-.49.83-.75Z"/>
    <path class="cls-1" d="m106.55,83.09s-.04.08-.06.12c.75-1.46,1.27-2.71,1.71-3.9.02-.25.03-.51.04-.78-.5,1.81-1.18,3.36-1.7,4.56Z"/>
    <path class="cls-1" d="m107.53,73.16c-.31.81-.74,1.62-1.29,2.23-.17-.69-.63-1.35-.98-2.22-.07,1.74-.6,5.78-3.76,10.85,1.52-.54,2.49-1.39,3.09-2.09-1.54,4.53-3.74,8.28-5.64,9.62l.91-.46c.62-.45,1.2-.89,1.74-1.34,2.69-3.3,5.32-9.39,5.95-15.46,0-.39-.02-.77-.02-1.14Z"/>
    <path class="cls-3" d="m82.06,73.13c-.31-.84-.49-1.68-.51-2.31-.03-.82.07-1.64.25-2.42.18-.74.46-1.45.84-2.09.15-.4.32-.82.51-1.24-1.02,1.11-4.34,5.45-1.9,13.14,0,0,0,0,0,0,0,0,0,0,0-.01.76,2.16,1.63,4.4,3.56,7.59.69,1.14,1.5,2.19,2.48,3.11.03.03.07.06.11.1-2.48-3.42-4.79-9.08-5.37-14.7,0-.4.02-.79.02-1.16Z"/>
    <path class="cls-3" d="m108.25,78.53c.03-.11.06-.21.09-.32,2.22-7.01-.34-11.25-1.59-12.78-.03-.04-.06-.07-.09-.1.12.33.22.66.3.99.38.63.65,1.34.83,2.07.18.79.27,1.6.25,2.42-.02.64-.2,1.49-.52,2.34,0,.37.01.75.02,1.14-.63,6.06-3.25,12.16-5.95,15.46.04-.03.09-.07.13-.1,1.21-1.3,2.91-3.26,4.04-5.1.26-.47.5-.91.72-1.34.02-.04.04-.08.06-.12.52-1.2,1.2-2.75,1.7-4.56Z"/>
    <path class="cls-1" d="m86.13,44.9c-1.83-1.24-2.48-4.53-2.48-4.53.27.2.55.55.79.67.51.26,1.44-.79,4.06-2.51-1,.46-2.66,1.12-3.37.85-.66-.25.69-1.32,2.24-2.3,1.2-.54,4.68-2.18,6.86-4.03-.19.95-.75,2.74-2.46,4.36,4.27,1.33,7.02,8.48,7.76,12.88-.38-.94-.93-2.23-1.43-3.06.79,6.28,1.65,15.2.33,19.56.66-1.47,1.24-2.78,1.72-3.96.07-.52.14-1.01.2-1.48v.02s.62-3.67,0-11.93c-.63-8.26-4.72-11.83-6.61-12.52,1.32-.54,2.28-1.65,2.91-2.67-.58.39-1.33.76-2.11.76.53-.79.42-2.68.34-3.53-.19.18-.4.37-.66.59-.95.82-1.91,1.13-2.48,1.25,0,0,0-.02.01-.03-.19.06-.38.1-.54.1.11-.11.23-.24.34-.37-.02,0-.03,0-.05,0,.2-.2.26-.82.14-1.59-.37.91-1.18,2.28-1.99,3.18-1.12,1.26-4.99,3.47-5.91,3.93-.93.46-1.42.83-1.12,3.63,0,0-.01.01-.04.03.35.79.77,1.55,1.18,2.2-.07-.45-.08-.92-.03-1.37.56,1.03,1.36,3.98,3.95,3.07.68-.24,1.38-.66,2.02-1.17l.94-.86c.11-.12.22-.24.32-.36-.91.64-3.38,2.17-4.85,1.18Z"/>
    <path class="cls-3" d="m94.24,32.07c.26-.22.47-.42.66-.59.08.85.19,2.74-.34,3.53.78,0,1.53-.37,2.11-.76-.64,1.02-1.59,2.14-2.91,2.67,1.88.69,5.98,4.26,6.61,12.52.63,8.26,0,11.93,0,11.93v-.02c.53-3.71.9-5.96.8-9.32-.27-9.12-2.14-11.61-2.95-12.69-.7-.97-1.69-1.74-2.81-2.54.37.01.74.06,1.11.13.48-.69,2.23-3.45,2.06-6.31-1.26,2.25-3.44,3.83-3.44,3.83,0,0,.93-2.71.26-6.15-.26,2.52-2.25,4.53-3.62,4.99,0,0,0,.02-.01.03.57-.12,1.53-.43,2.48-1.25Z"/>
    <path class="cls-3" d="m83.77,38.55c.93-.46,4.79-2.68,5.91-3.93.8-.9,1.62-2.27,1.99-3.18-.1-.64-.32-1.38-.7-2.07.02,1.93-1.2,3.49-1.97,4.27-3.97,4.61-7.99,3.1-6.56,7.63.02.07.22.96.21.91-.3-2.8.2-3.16,1.12-3.63Z"/>
    <path class="cls-3" d="m88.95,58.97c3.57-3.32,5.22-8.75,5.5-11.85,0-.06-.02-.13-.03-.19-.14-.84-.33-1.66-.65-2.4,0,0,0,0,0-.01.8,6.66-4.08,16.01-14.5,18.04-.04.36-.07.77-.09,1.21,1.32.4,6.09-1.38,9.76-4.8Z"/>
    <path class="cls-3" d="m110.7,62.36c-.08-.6-.19-1.12-.3-1.63-3.57,1.22-6.56,1.27-8.12-2.31-.2.6-.43,1.2-.68,1.79,2.26,3.61,7.76,3.12,9.1,2.16Z"/>
    <path class="cls-1" d="m76.37,83.48c.13-3.5-1.73-6.74-1.73-6.74,0,0-.96,2.27-2.47,3.79.36-1.88.48-4.04.29-5.68-1.61,2.09-5.45,4.15-6.35,4.61.89-2,1.42-5.3,1.15-7.68-1.43,1.85-4.01,3.07-5.09,3.52.41-1.4.61-2.59.58-3.17-1.83,1.35-5.4,2.49-7.21,3.01,1.55-1.77,3.3-3.93,4.59-6-5.13,2.71-10.03,3.18-12.83,3.18,3.96-2.34,6.15-6.68,6.15-6.68-3.19.89-8.54,1.34-9.48.3.89-.05,5.88-2.15,9.15-3.73-11.1-.07-15.73-4.96-15.73-4.96,0,0,5.59,1.66,14.49,1.43-3.34-.78-6.08-2.19-8.36-3.85-.44-.03-.86-.07-1.31-.13-6.94-.32-11.38-1.85-13.89-3.08,2.53,3.08,8.86,9.94,15.94,11.33,1.44.07,2.68.05,4.46.12-.52.37-3.02,2.5-11.59,2.5-.53,0-1.04-.02-1.55-.05l-1.56.46s7.16,4.75,15.15.94c.28-.16.56-.32.85-.48-.36.6-.78,1.16-1.23,1.68-2.04,3.6-5.5,5.52-6.77,6.13,2.23.19,8.71.49,13.49-1.81-.33.27-.68.53-1.04.79.32-.15.49-.25.49-.25,0,0-.52.78-1.59,1.88-.58,1.02-1.67,2.79-2.63,3.34,1.92.26,8.94-2.84,10.32-4.03,0,0-.89,4.66-3.02,6.15,2.18-.64,5.4-3.12,6.89-5.2,0,0-.64,6.19-1.88,7.63,3.22,0,7.33-4.01,7.33-4.01,0,0,.64,2.73-.21,5.4,1.15-1.11,3.21-3.18,3.53-4.07,1.14.89,1.98,4.26,1.78,5.15,1.68-.65,4.09-2.35,5.29-3.24.04-.07.09-.14.12-.21-.07-.61-.09-1.23-.04-1.82-.67.92-2.32,2.94-4.48,3.54Z"/>
    <path class="cls-5" d="m73.69,80.06c-.32.88-2.38,2.95-3.53,4.07.85-2.68.21-5.4.21-5.4,0,0-4.11,4.01-7.33,4.01,1.24-1.44,1.88-7.63,1.88-7.63-1.49,2.08-4.71,4.56-6.89,5.2,2.13-1.49,3.02-6.15,3.02-6.15-1.39,1.19-8.41,4.29-10.32,4.03.97-.55,2.06-2.32,2.63-3.34-1.66,1.69-4.65,4.12-9.09,5.52,8.52,1.17,15.44-4.42,15.44-4.42,0,0-2.51,4.66-6.69,7.17,5.84.15,11.08-5.88,11.08-5.88,0,0-.79,4.99-4.76,8.47,6.29-.81,10.57-5.79,10.57-5.79,0,0-.33,3.67-1.81,6.19,3.82-1.12,5.61-4.74,5.61-4.74,0,0,1.26,2.45.99,5.09,2.11-.64,4.95-2.62,6.05-4.48-1.21.9-3.61,2.6-5.29,3.24.2-.89-.64-4.26-1.78-5.15Z"/>
    <path class="cls-5" d="m34.01,65.97l1.56-.46c-2.8-.16-5.33-.76-7.71-1.83,4.52,5.38,14.04,6.05,15.19,6.11,2.31-.79,4.09-1.74,6.11-2.88-7.99,3.8-15.15-.94-15.15-.94Z"/>
    <path class="cls-5" d="m28.31,51.61c2.51,1.23,6.95,2.76,13.89,3.08-2.27-.33-4.94-1.33-11.02-4.49-3.57-1.85-7.83-5.51-10.26-8.46.47,1.63,1.05,3.22,1.72,4.77,2.94,6.64,8,13.1,14.95,15.38,1.77.6,3.21.72,4.49.88h0c.81.08,1.51.13,2.16.16-7.08-1.39-13.41-8.25-15.94-11.33Z"/>
    <path class="cls-5" d="m42.01,74.25c1.26-.61,4.73-2.53,6.77-6.13-3.52,4.06-9.5,5.55-15.03,5.54,3.2,1.66,6.34,2.71,9.91,2.55,4.66-.21,9.31-2.26,10.8-2.98.36-.26.71-.52,1.04-.79-4.78,2.3-11.26,2-13.49,1.81Z"/>
    <path class="cls-1" d="m38.83,50.58c1.94,1.05,7.89,2.06,10.25,2.43-.72-.67-1.42-1.37-2.09-2.1-3.05-.53-12.94-3.16-21.91-15.6.51,3.16,3.67,8.79,6.32,11.93,3.97,3.28,8.2,5.1,11.39,7.05-1.51-1.18-2.82-2.46-3.96-3.71Z"/>
    <path class="cls-1" d="m78.08,63.66s-.03-.08-.04-.12c-.63-2.03-.33-3.59-.26-4.71-.97-1.78-4.77-1.17-7.23-.71-2.03.38-5.62.72-8.71.38,2.18.77,4.52,1.35,7.19,1.9-.08.01-.16.02-.23.04,1.64-.09,3.4-.35,5.26-.86,1.94-.15,3.14,2.48,4.03,4.1Z"/>
    <path class="cls-3" d="m35.42,40.42l-.88-.74c.31.32.62.63.93.94-.02-.06-.04-.13-.06-.19Z"/>
    <path class="cls-5" d="m47,50.91c-1.88-2.02-3.58-4.23-5.16-6.51-1.5-2.17-2.89-4.39-4.2-6.65-.61,4.96.83,6.65,1.56,7.53-5-.74-9.72-7.66-12.61-11.77-1.78-2.58-3.4-5.27-4.75-8.13-.4-.86-.78-1.73-1.13-2.61-.02,1.87.1,3.74.36,5.59.57,3.98,1.84,7.85,3.88,11.3,1.88,3.24,4.12,5.66,6.44,7.58-2.64-3.13-5.81-8.76-6.32-11.93,8.97,12.44,18.85,15.07,21.91,15.6Z"/>
    <path class="cls-3" d="m70.55,58.11c2.46-.46,6.26-1.06,7.23.71.14-2.03-.46-2.68-8.56-2.24-6.09.33-11.93-.14-16.5-5.45.02.9.39,1.91.8,2.72,2.71,2.18,5.36,3.58,8.33,4.63,3.09.34,6.67,0,8.71-.38Z"/>
    <path class="cls-5" d="m147.82,74.25c-2.23.19-8.71.49-13.49-1.81.24.19.48.38.74.57,0-.01-.02-.02-.02-.02,0,0,5.65,2.97,11.3,3.23,3.57.16,6.71-.89,9.91-2.55-5.62,0-11.7-1.54-15.2-5.75-.06-.04-.13-.09-.19-.13,2.01,3.82,5.65,5.84,6.95,6.47Z"/>
    <path class="cls-5" d="m141.49,67.28c1.76.98,3.4,1.82,5.46,2.52,1.15-.06,10.67-.73,15.19-6.11-2.42,1.09-5,1.69-7.85,1.84l1.53.45s-6.68,4.42-14.33,1.3Z"/>
    <path class="cls-5" d="m145.53,62.95c.72-.03,1.48-.08,2.38-.17h0c1.28-.16,2.72-.28,4.49-.88,6.95-2.28,12.01-8.74,14.95-15.38.68-1.55,1.26-3.15,1.72-4.77-2.43,2.95-6.69,6.61-10.26,8.46-5.99,3.11-8.67,4.13-10.92,4.48,6.78-.35,11.14-1.85,13.61-3.07-2.54,3.09-8.88,9.97-15.99,11.34Z"/>
    <path class="cls-5" d="m139.1,78.2c-1.92.26-8.94-2.84-10.32-4.03,0,0,.89,4.66,3.02,6.15-2.18-.64-5.4-3.12-6.89-5.2,0,0,.64,6.19,1.88,7.63-3.22,0-7.33-4.01-7.33-4.01,0,0-.64,2.73.21,5.4-1.15-1.11-3.21-3.18-3.53-4.07-1.14.89-1.98,4.26-1.78,5.15-1.54-.59-3.68-2.07-4.96-3,1.2,1.79,3.88,3.63,5.9,4.24-.26-2.64.99-5.09.99-5.09,0,0,1.79,3.62,5.61,4.74-1.48-2.53-1.81-6.19-1.81-6.19,0,0,4.28,4.98,10.57,5.79-3.96-3.48-4.76-8.47-4.76-8.47,0,0,5.24,6.03,11.08,5.88-4.18-2.51-6.69-7.17-6.69-7.17,0,0,6.92,5.59,15.44,4.42-4.84-1.53-7.95-4.27-9.5-5.95.45.85,1.75,3.13,2.87,3.78Z"/>
    <path class="cls-1" d="m137.96,58.68c8.9.23,14.49-1.43,14.49-1.43,0,0-4.63,4.89-15.73,4.96,3.27,1.59,8.26,3.68,9.15,3.73-.94,1.04-6.29.59-9.48-.3,0,0,2.19,4.34,6.15,6.68-2.79,0-7.69-.46-12.83-3.18,1.29,2.07,3.03,4.23,4.59,6-1.81-.52-5.39-1.67-7.21-3.01-.02.58.17,1.77.58,3.17-1.08-.45-3.67-1.67-5.09-3.52-.27,2.38.26,5.69,1.15,7.68-.9-.46-4.74-2.52-6.35-4.61-.19,1.63-.07,3.8.29,5.68-1.51-1.52-2.47-3.79-2.47-3.79,0,0-1.87,3.24-1.73,6.74-2.11-.59-3.74-2.52-4.44-3.48.04.5.03,1.01-.02,1.53.1.23.23.46.39.69,1.28.93,3.42,2.41,4.96,3-.2-.89.64-4.26,1.78-5.15.32.88,2.38,2.95,3.53,4.07-.85-2.68-.21-5.4-.21-5.4,0,0,4.11,4.01,7.33,4.01-1.24-1.44-1.88-7.63-1.88-7.63,1.49,2.08,4.71,4.56,6.89,5.2-2.13-1.49-3.02-6.15-3.02-6.15,1.39,1.19,8.41,4.29,10.32,4.03-1.12-.64-2.42-2.93-2.87-3.78-.71-.77-1.09-1.31-1.17-1.42-.25-.19-.5-.38-.74-.57,4.78,2.3,11.26,2,13.49,1.81-1.3-.63-4.94-2.65-6.95-6.47.06.04.13.09.19.13-.38-.46-.74-.94-1.06-1.47.51.29,1,.57,1.49.84,7.65,3.12,14.33-1.3,14.33-1.3l-1.53-.45c-.46.02-.93.04-1.41.04-8.57,0-11.07-2.13-11.59-2.5,1.69-.06,2.89-.05,4.24-.11,7.1-1.37,13.45-8.25,15.99-11.34-2.48,1.22-6.84,2.72-13.61,3.07-.53.08-1.04.13-1.55.15,3.12-2.08,7.5-3.85,11.66-7.13,2.71-3.01,6.19-9.07,6.73-12.4-8.77,12.16-18.42,14.94-21.7,15.56-.67.73-1.37,1.43-2.08,2.1,2.49-.39,8.15-1.37,10.04-2.39-2.99,3.28-7.03,6.7-13.03,8.1Z"/>
    <path class="cls-1" d="m115.77,59.56c1.96.54,3.8.8,5.52.88-.11-.02-.21-.03-.32-.05,2.7-.56,5.07-1.15,7.27-1.93-3.14.39-6.88.04-8.97-.35-2.34-.44-5.89-1-7.07.47.03,1.04.36,2.49-.09,4.39.85-1.58,1.97-3.53,3.65-3.4Z"/>
    <path class="cls-5" d="m164.73,35.31c-.54,3.33-4.02,9.39-6.73,12.4,2.54-1.99,4.99-4.54,7.03-8.06,2.05-3.44,3.31-7.32,3.88-11.3.26-1.85.38-3.72.36-5.59-.35.89-.73,1.76-1.13,2.61-1.35,2.85-2.96,5.55-4.75,8.13-2.89,4.11-7.61,11.03-12.61,11.77.73-.88,2.17-2.57,1.56-7.53-1.32,2.26-2.7,4.48-4.2,6.65-1.56,2.27-3.26,4.46-5.12,6.47,3.28-.61,12.93-3.4,21.7-15.56Z"/>
    <path class="cls-3" d="m119.27,58.11c2.09.39,5.82.74,8.97.35,2.93-1.05,5.56-2.45,8.24-4.6.41-.81.78-1.81.8-2.72-4.58,5.31-10.41,5.78-16.5,5.45-7.77-.42-8.64.16-8.58,2,1.18-1.47,4.73-.9,7.07-.47Z"/>
    <path class="cls-3" d="m80.23,40.94c-.05.1-.1.2-.15.3.06-.05.11-.11.17-.16,0-.05-.01-.1-.02-.15Z"/>
    <path class="cls-3" d="m80.3,48.92c1.03-1.49,2.57-2.59,4-3.12-.28-.41-.44-.89-.52-1.39-.4-.65-.83-1.41-1.18-2.2-.35.31-2.98,2.78-2.3,6.71Z"/>
    <path class="cls-5" d="m82.6,42.21s.04-.03.04-.03c-.4.24-1.35.28-2.29,1.83-1.03,1.67-1.49,4.44-.66,5.99.17-.38.38-.73.61-1.07-.68-3.93,1.95-6.39,2.3-6.71Z"/>
    <path class="cls-5" d="m86.91,40.49c-.14.11-.27.22-.4.33,1.07.86,1.35.67,1.39.69h0s.01-.01.02-.01c.37-.27.8-1.58.94-2.01.08-.25.15-.5.22-.75-.23.19-.46.38-.7.57-.49.39-.99.78-1.47,1.18Z"/>
    <path class="cls-5" d="m77.69,98.75s-1.52.66-2.84,1.92c.48-1.44,1.67-4.24,6.04-9.39-1.95,1.77-3.74,3.71-5.29,5.92-3.38,4.8-4.48,8.24-4.76,11.69,1.28-4.61,4.15-7.02,5.83-8.45-1.83,4.36-.99,14.22,3.95,17.8-.97-3.16-1.17-6.8-.92-10-.5,1.45-.98,3.38-.95,5.45-2.97-6.01-1.06-14.93-1.06-14.93Z"/>
    <path class="cls-5" d="m112.32,98.75s1.92,8.92-1.06,14.93c.03-2.15-.48-4.14-1-5.6.43,4.02-.16,7.79-.88,10.16,4.94-3.58,5.78-13.44,3.95-17.8,1.68,1.44,4.56,3.84,5.83,8.45-.29-3.45-1.39-6.9-4.76-11.69-1.54-2.2-3.32-4.12-5.25-5.89,4.34,5.13,5.53,7.92,6.01,9.36-1.32-1.26-2.84-1.92-2.84-1.92Z"/>
    <path class="cls-8" d="m81.55,70.82c.02.63.19,1.47.51,2.31.31.82.75,1.64,1.3,2.25.17-.69.62-1.34.97-2.19.04-.11.09-.22.13-.33,0,0,0,0,0,0,.52,2.57,1.4,3.74,2.83,5.16.07-1.03.42-2.34.82-3.01.85,2.35,2.44,4.59,3.59,5.6.79.82,1.75,1.45,2.71,2.04h0s.38.24.38.24h0s0,0,0,0l.38-.24h0c.97-.59,1.92-1.23,2.71-2.05,1.14-1.01,2.74-3.25,3.59-5.6.4.67.74,1.98.82,3.01,1.42-1.42,2.3-2.59,2.83-5.16,0,0,0,0,0,0,.04.11.08.21.12.31.35.87.81,1.53.98,2.22.55-.61.99-1.42,1.29-2.23.32-.85.5-1.7.52-2.34.03-.82-.07-1.64-.25-2.42-.18-.73-.45-1.44-.83-2.07-.03-.04-.05-.09-.08-.13.2.76.31,1.53.32,2.29.03.76-.05,1.51-.18,2.24-.1.54-.44,1.63-.61,2.14-.34-.96-1.18-1.96-1.78-2.6,0,1.42-.97,3.87-1.76,4.84-.19-1.91-1.68-3.27-1.73-3.45-.28,3.27-2.79,6.48-4.35,7.84-.59.61-1.28,1.1-2,1.55-.71-.45-1.41-.94-2-1.55-1.55-1.36-4.07-4.57-4.35-7.84-.06.19-1.54,1.55-1.73,3.45-.79-.98-1.75-3.42-1.76-4.84-.6.64-1.45,1.64-1.78,2.6-.18-.51-.52-1.6-.61-2.14-.13-.73-.21-1.48-.18-2.24.01-.76.12-1.52.32-2.29-.02.04-.05.08-.07.12-.38.64-.66,1.35-.84,2.09-.18.79-.27,1.6-.25,2.42Z"/>
    <path class="cls-8" d="m84.44,41.04c-.25-.12-.52-.47-.79-.67.06.33.17.65.4.95.12.15.28.3.53.38.49.16.9-.14,1.18-.33.35.28.71.53,1.14.74.97.43,1.29.14,1.33.14,1.33-.56,1.51-4.01,1.58-4.56-.48.29-.92.57-1.31.83-2.62,1.72-3.55,2.77-4.06,2.51Zm4.41-1.55c-.14.43-.57,1.74-.94,2.01,0,0-.02.02-.02.01h0s-.33.17-1.39-.69c.13-.11.27-.22.4-.33.48-.4.98-.79,1.47-1.18.23-.19.46-.38.7-.57-.07.25-.14.5-.22.75Z"/>
    <path class="cls-8" d="m166.15,54.39c7.91-11.47,6.51-19.77,6.11-21.41-1.64,2.78-2.58,4.11-3.49,4.77,4.98-12.06,1.81-21.77,1.81-21.77,0,0-5.3,13.19-14.39,22.93-.54.58-1.1,1.15-1.67,1.7.04-.13.08-.26.11-.39.93-3.67-1.8-8.39-1.8-8.39,0,0-6.65,11.28-9.9,15.39-1.03,1.3-2.12,2.54-3.27,3.73-.04-2.31-1.44-4.19-1.44-4.19,0,0-4.22,6.47-12.74,7.15-5.76.46-15.6-1.88-15.43,4.47-1.21.31-2.91.65-3.7.52-3.13-.53-2.46-8.85-3.44-13.19h-.02c-.68-3.29-1.8-6.66-4.75-8.21,3.7-4.04,2.83-10.43.29-13.43.36,2.21-.2,4.63-1.72,6.94.53-2.58-.66-5.42-2.84-7.33.72,2.86.04,5.42-.93,7.29-.21-1.34-1.02-3.22-2.94-4.15.32,1.64-1.12,4.33-2.56,5.98-3.52,3.5-8.06,2.81-7.22,8.14,0,.05.01.09.02.15-.06.05-.11.11-.17.16-1.31,1.17-2.05,3.02-2.32,4.76-.71,4.9,2.06,5.92,2.52,6.27.24-.51.61-3.14,4.1-4.52,2.29,1.73,5.64.57,7.53-1.67-.06,1.07-.26,2.15-.51,3.08-1.08,4.11-3.71,6.56-3.74,6.6-1.41,1.61-4.8,3.47-7.91,4.27.07-.38.14-.78.18-1.23.63-6.88-9.52-4.43-15.41-4.9-8.52-.68-12.74-7.15-12.74-7.15,0,0-1.41,1.88-1.44,4.19-1.15-1.18-2.24-2.43-3.27-3.73-3.25-4.11-9.9-15.39-9.9-15.39,0,0-2.82,4.89-1.74,8.59.02.06.04.13.06.19-.32-.31-.63-.62-.93-.94-9.52-9.82-14.74-24.12-14.74-24.12,0,0-3.55,10.14,1.43,22.2-.92-.66-1.86-2-3.49-4.77-.4,1.64-1.8,9.94,6.11,21.41,2.21,3.2,4.77,5.86,7.3,7.51.46.3.94.58,1.43.84-2.15-.47-5.47-1.46-8.64-3.39.94,5.35,4.01,9.96,12.11,11.69-3.24.16-3.92-.04-10.39-.24.63.56,6.77,6.75,15.72,7.66-1.81.52-2.2.66-6.04,1.56,3,1.43,7.13,3.31,12.51,2.86l-1.89.8c1.82,1.25,5.86,2.64,10.58,1.42-.88.7-4.72,2.44-4.72,2.44,0,0,8.16,1.71,13.72-1.38-.37.87-1.19,2.55-1.19,2.55,0,0,4.03.38,6.76-1.36.55-.35,1.05-.76,1.51-1.21-.15,1.23-.75,2.27-1.41,4.16.88-.38,7.19-2.29,10.3-5.96.31.88.71,1.7,1.14,2.39-20.88,17.23-11.88,28.78-11.88,28.78,0,0,.15-5.17,3.22-9.48-1.06,6.22.86,13.02,10.01,16.57-.78-3.04-1.81-5.97-2.2-9.64.63,2.24,1.48,4.47,2.79,6.52,1.5,2.38,4.86,4.41,6.84,5.25-.09-.14-1.44-4.11-2.55-11.51-.17-1.16-.33-2.33-.44-3.49.15.41.3.83.49,1.26,2.42,5.87,11.71,18.77,5.64,23.48,7.4-.61,8.61-6.93,8.65-7.72.79,2.53,1.33,4.9,1.33,4.9,0,0,4.23-3.75,2.98-9.48,10.16-4.24,8.33-16.24,8.28-16.52,1.74,2.13,3.57,7.46,3.82,9.53,0-.04,8.64-12.02-12.35-28.52.43-.7.82-1.53,1.12-2.41,3.08,3.73,9.51,5.68,10.4,6.07-.66-1.89-1.26-2.93-1.41-4.16.46.46.96.87,1.51,1.21,2.73,1.74,6.76,1.36,6.76,1.36,0,0-.82-1.68-1.19-2.55,5.56,3.1,13.72,1.38,13.72,1.38,0,0-3.84-1.74-4.72-2.44,4.72,1.22,8.76-.17,10.58-1.42l-1.89-.8c5.38.45,9.51-1.43,12.51-2.86-3.84-.9-4.23-1.04-6.04-1.56,8.95-.91,15.09-7.1,15.72-7.66-6.47.2-7.15.4-10.39.24,8.09-1.73,11.16-6.34,12.11-11.69-3.17,1.93-6.49,2.92-8.64,3.39.49-.26.96-.54,1.43-.84,2.53-1.65,5.09-4.31,7.3-7.51Zm-74.37-11.82c-.2.37-.47.76-.8,1.15-.1.12-.21.24-.32.36-.29.3-.61.59-.94.86-.64.51-1.33.93-2.02,1.17-2.59.91-3.39-2.04-3.95-3.07-.05.45-.04.91.03,1.37.08.5.24.98.52,1.39-1.43.53-2.98,1.63-4,3.12-.23.34-.44.69-.61,1.07-.83-1.54-.37-4.32.66-5.99.94-1.54,1.89-1.58,2.29-1.83.01.05-.19-.85-.21-.91-1.43-4.52,2.59-3.02,6.56-7.63.77-.78,2-2.34,1.97-4.27.37.69.6,1.43.7,2.07.12.77.06,1.4-.14,1.59.01,0,.03,0,.05,0-.12.14-.23.26-.34.37.16,0,.35-.03.54-.1,1.38-.46,3.36-2.47,3.62-4.99.66,3.44-.26,6.15-.26,6.15,0,0,2.18-1.59,3.44-3.83.17,2.86-1.59,5.62-2.06,6.31-.37-.07-.74-.12-1.11-.13,1.12.8,2.11,1.57,2.81,2.54.81,1.08,2.68,3.57,2.95,12.69.1,3.36-.28,5.61-.79,9.32-.07.47-.13.96-.2,1.48,0,.01,0,.02,0,.03.24-.36.47-.73.68-1.11.28-.5.53-1.02.75-1.55.25-.59.49-1.18.68-1.79,1.56,3.59,4.55,3.54,8.12,2.31.11.51.22,1.03.3,1.63.05.4.09.83.11,1.33.02.58.01,1.25-.05,2.05.55-.63.94-1.39,1.2-2.2.06-.2.11-.39.16-.57.45-1.9.12-3.34.09-4.39-.06-1.84.81-2.42,8.58-2,6.09.33,11.93-.14,16.5-5.45-.02.9-.39,1.91-.8,2.72-2.68,2.15-5.31,3.56-8.24,4.6-2.2.79-4.57,1.38-7.27,1.93.11.02.21.03.32.05,3.52.55,7.22,0,10.55-1.43,3.43-1.43,6.44-3.54,9.11-6.04.72-.67,1.41-1.37,2.08-2.1,1.86-2.01,3.56-4.21,5.12-6.47,1.5-2.17,2.89-4.39,4.2-6.65.61,4.96-.83,6.65-1.56,7.53,5-.74,9.72-7.66,12.61-11.77,1.78-2.58,3.4-5.27,4.75-8.13.4-.86.78-1.73,1.13-2.61.02,1.87-.1,3.74-.36,5.59-.57,3.98-1.84,7.85-3.88,11.3-2.04,3.52-4.5,6.06-7.03,8.06-4.16,3.27-8.54,5.05-11.66,7.13.52-.03,1.03-.07,1.55-.15,2.25-.35,4.93-1.37,10.92-4.48,3.57-1.85,7.83-5.51,10.26-8.46-.47,1.63-1.05,3.22-1.72,4.77-2.94,6.64-8,13.1-14.95,15.38-1.77.6-3.21.72-4.49.88h0c-.9.09-1.66.14-2.38.17-1.34.06-2.55.05-4.24.11.52.37,3.02,2.5,11.59,2.5.48,0,.95-.01,1.41-.04,2.85-.15,5.43-.75,7.85-1.84-4.52,5.38-14.04,6.05-15.19,6.11-2.06-.7-3.7-1.54-5.46-2.52-.48-.27-.97-.55-1.49-.84.32.53.68,1.01,1.06,1.47,3.5,4.21,9.58,5.75,15.2,5.75-3.2,1.66-6.34,2.71-9.91,2.55-5.65-.25-11.3-3.23-11.3-3.23,0,0,0,0,.02.02.08.11.46.66,1.17,1.42,1.55,1.68,4.66,4.42,9.5,5.95-8.52,1.17-15.44-4.42-15.44-4.42,0,0,2.51,4.66,6.69,7.17-5.84.15-11.08-5.88-11.08-5.88,0,0,.79,4.99,4.76,8.47-6.29-.81-10.57-5.79-10.57-5.79,0,0,.33,3.67,1.81,6.19-3.82-1.12-5.61-4.74-5.61-4.74,0,0-1.26,2.45-.99,5.09-2.02-.61-4.7-2.45-5.9-4.24-.15-.23-.29-.46-.39-.69.05-.51.06-1.03.02-1.53-.05-.63-.18-1.24-.41-1.81-.13.37-.26.74-.4,1.11-.44,1.19-.97,2.45-1.71,3.9-.22.43-.46.87-.72,1.34-.22.4-.46.81-.73,1.24-.69,1.14-1.5,2.19-2.48,3.11-.27.26-.55.5-.83.75-.04.03-.09.07-.13.1-.54.45-1.12.89-1.74,1.34-.21.15-.42.3-.63.46,1.53.06,3.07-.4,4.41-1.22.4-.25.79-.53,1.16-.83.36-.3.71-.63,1.03-.97,1.15.89,2.26,1.82,3.33,2.79,1.93,1.76,3.71,3.69,5.25,5.89,3.38,4.8,4.48,8.24,4.76,11.69-1.28-4.61-4.15-7.02-5.83-8.45,1.83,4.36.99,14.22-3.95,17.8.72-2.36,1.31-6.14.88-10.16,0-.04,0-.07-.01-.11-.24-2.14-.76-4.35-1.73-6.45-.78-3.08-2.27-6.16-4.44-8.38.68,1.91,1.55,3.87,2.23,5.99.57,1.77,1,3.65,1.08,5.69.06,1.67-.11,3.46-.65,5.38-.57,2.12-1.25,4.19-2.21,6.07-.5-.66-1-1.29-1.49-1.91.47-2.99.63-6.37-.06-9.38-.3-1.33-.78-2.58-1.45-3.7-.03-.05-.05-.1-.08-.15.13,2.12.19,4.1.13,6.11-.02,1.57-.18,3.13-.43,4.68-.87-1.21-1.65-2.5-2.22-4.02-1.12-2.95-1.26-5.5-1.61-7.76-1.39,4.81-.09,8.62,2.2,12.38.71,1.17,1.51,2.33,2.36,3.51.57.79,1.17,1.64,1.73,2.53.85,1.35,1.59,2.79,1.93,4.23,0,.01-.02.03-.02.04.01,0,.02,0,.03,0,.27,1.18.27,2.35-.16,3.48-.66-2.65-2.21-5.37-3.27-6.73-.02-.03-3.14-3.72-6.29-9.04-.83-1.4-1.66-2.91-2.43-4.5-.01-.03-.03-.05-.04-.08.02,1.94.73,4.01,1.66,5.97.24.5.49,1,.75,1.49.86,1.62,1.8,3.13,2.52,4.36,2.67,4.73,4.27,10.16.03,13.57,1.6-6.31-3.46-13.53-4.33-15.05-2.99-5.18-4.29-8.09-4.76-11.2-.31-2.07-.26-4.24-.08-7.23.02-.25.03-.51.05-.77-.5,1.2-.9,2.36-1.19,3.52-.07.27-.14.55-.19.82-.49,1.29-.82,2.67-1.02,4.1-.71,5.04.26,10.67,1.94,15.29-.73-.69-1.48-1.54-2.22-2.62-1.61-2.34-2.58-5.14-3.34-8.01-.58-2.07-.74-4.02-.61-5.91.06-.91.18-1.8.37-2.69,0-.03.02-.06.03-.08h0c.21-.97.48-1.93.81-2.89.14-.42.29-.83.45-1.25.52-1.39,1.1-2.78,1.62-4.24-1.09,1.11-1.97,2.39-2.7,3.76-.68,1.31-1.22,2.68-1.62,4.08-.83,1.66-1.3,3.45-1.58,5.23-.08.51-.14,1.04-.19,1.58-.01.15-.03.3-.04.45-.25,3.2-.04,6.84.92,10-4.94-3.58-5.78-13.44-3.95-17.8-1.68,1.44-4.56,3.84-5.83,8.45.29-3.45,1.39-6.9,4.76-11.69,1.55-2.22,3.34-4.15,5.29-5.92,1.03-.94,2.1-1.83,3.21-2.69.33.34.68.67,1.04.97.35.28.71.55,1.09.78,1.34.82,2.88,1.28,4.41,1.22-1.21-.86-2.28-1.65-3.23-2.55-.03-.03-.07-.06-.11-.1-.98-.92-1.8-1.97-2.48-3.11-1.93-3.19-2.8-5.43-3.56-7.59,0,0,0,0,0,.01-.22.54-.35,1.13-.4,1.73-.05.59-.04,1.21.04,1.82-.04.07-.08.14-.12.21-1.11,1.86-3.94,3.84-6.05,4.48.26-2.64-.99-5.09-.99-5.09,0,0-1.79,3.62-5.61,4.74,1.48-2.53,1.81-6.19,1.81-6.19,0,0-4.28,4.98-10.57,5.79,3.96-3.48,4.76-8.47,4.76-8.47,0,0-5.24,6.03-11.08,5.88,4.18-2.51,6.69-7.17,6.69-7.17,0,0-6.92,5.59-15.44,4.42,4.44-1.4,7.43-3.83,9.09-5.52,1.07-1.09,1.59-1.88,1.59-1.88,0,0-.18.09-.49.25-1.49.72-6.15,2.77-10.8,2.98-3.57.16-6.71-.89-9.91-2.55,5.53,0,11.5-1.48,15.03-5.54.45-.52.86-1.07,1.23-1.68-.29.16-.57.32-.85.48-2.02,1.15-3.8,2.1-6.11,2.88-1.15-.06-10.67-.73-15.19-6.11,2.38,1.07,4.92,1.67,7.71,1.83.51.03,1.02.05,1.55.05,8.57,0,11.07-2.13,11.59-2.5-1.78-.07-3.02-.05-4.46-.12-.66-.03-1.35-.08-2.16-.16h0c-1.28-.16-2.72-.28-4.49-.88-6.95-2.28-12.01-8.74-14.95-15.38-.68-1.55-1.26-3.15-1.72-4.77,2.43,2.95,6.69,6.61,10.26,8.46,6.08,3.16,8.75,4.16,11.02,4.49.44.07.87.11,1.31.13.05,0,.1,0,.15,0-.28-.18-.56-.37-.86-.55-3.19-1.96-7.42-3.78-11.39-7.05-2.33-1.92-4.56-4.34-6.44-7.58-2.05-3.44-3.31-7.32-3.88-11.3-.26-1.85-.38-3.72-.36-5.59.35.89.73,1.76,1.13,2.61,1.35,2.85,2.96,5.55,4.75,8.13,2.89,4.11,7.61,11.03,12.61,11.77-.73-.88-2.17-2.57-1.56-7.53,1.32,2.26,2.7,4.48,4.2,6.65,1.57,2.28,3.28,4.49,5.16,6.51.67.72,1.37,1.42,2.09,2.1,2.66,2.49,5.66,4.58,9.07,6.01,3.36,1.43,7.1,1.98,10.64,1.41.08-.01.16-.02.23-.04-2.66-.55-5.01-1.13-7.19-1.9-2.97-1.05-5.62-2.46-8.33-4.63-.41-.81-.78-1.81-.8-2.72,4.58,5.31,10.41,5.78,16.5,5.45,8.1-.44,8.7.21,8.56,2.24-.08,1.13-.37,2.68.26,4.71.01.04.03.08.04.12.26.77.64,1.49,1.16,2.08-.06-.76-.07-1.4-.05-1.97.01-.45.04-.85.09-1.21,10.42-2.02,15.3-11.38,14.5-18.04,0,0,0,0,0,.01.31.74.51,1.55.65,2.4,0,.06.02.13.03.19.21,1.42.36,3.52.59,5.04.02-.08.03-.16.05-.23.37-1.68.54-3.42.43-5.12-.06-.91-.21-1.85-.56-2.75-.32-.86-.87-1.65-1.51-2.28-.06-.8-.33-1.58-.84-2.3-.11,1.21-.36,2.24-.84,3.1Zm15.71,74.06c-.33,1.12-.62,2.09-.87,2.91-.19-.4-.41-.8-.66-1.21.88-1.62,1.65-3.6,2.22-5.64-.14,1.36-.37,2.7-.69,3.94Z"/>
  </g>
</svg>