<?xml version="1.0" encoding="UTF-8"?>
<svg xmlns="http://www.w3.org/2000/svg" xmlns:xlink="http://www.w3.org/1999/xlink" viewBox="0 0 190 150">
  <defs>
    <style>
      .cls-1 {
        fill: url(#Gradient_2-8);
      }

      .cls-1, .cls-2, .cls-3, .cls-4, .cls-5, .cls-6, .cls-7, .cls-8, .cls-9, .cls-10, .cls-11, .cls-12, .cls-13, .cls-14, .cls-15, .cls-16, .cls-17, .cls-18, .cls-19, .cls-20, .cls-21, .cls-22, .cls-23, .cls-24, .cls-25, .cls-26, .cls-27, .cls-28, .cls-29 {
        stroke-width: 0px;
      }

      .cls-2 {
        fill: url(#linear-gradient);
      }

      .cls-30 {
        filter: url(#outer-glow-3);
      }

      .cls-3 {
        fill: url(#Gradient_2-2);
      }

      .cls-4 {
        fill: url(#Gradient_2-11);
      }

      .cls-5 {
        fill: #834d17;
      }

      .cls-31 {
        isolation: isolate;
      }

      .cls-6 {
        fill: url(#Gradient_2-13);
      }

      .cls-7 {
        fill: #fa8609;
      }

      .cls-32 {
        opacity: .35;
      }

      .cls-8 {
        opacity: .61;
      }

      .cls-8, .cls-12, .cls-16, .cls-20, .cls-29 {
        fill: #fdb173;
      }

      .cls-8, .cls-12, .cls-16, .cls-29 {
        mix-blend-mode: overlay;
      }

      .cls-9 {
        fill: url(#Gradient_2-12);
      }

      .cls-10 {
        fill: url(#Gradient_2-9);
      }

      .cls-11 {
        fill: url(#Gradient_2-6);
      }

      .cls-12, .cls-20 {
        opacity: .55;
      }

      .cls-13 {
        fill: #fff;
      }

      .cls-14 {
        fill: url(#Gradient_2-15);
      }

      .cls-15 {
        fill: url(#linear-gradient-2);
      }

      .cls-17 {
        fill: url(#Gradient_2-4);
      }

      .cls-18 {
        fill: url(#Gradient_2-14);
      }

      .cls-19 {
        fill: url(#linear-gradient-3);
      }

      .cls-21 {
        fill: url(#Gradient_2);
      }

      .cls-22 {
        fill: url(#Gradient_2-5);
      }

      .cls-23 {
        fill: url(#Gradient_2-7);
      }

      .cls-24 {
        fill: #f5931c;
      }

      .cls-25 {
        fill: url(#Gradient_2-3);
      }

      .cls-26 {
        fill: #1e110e;
      }

      .cls-27 {
        fill: url(#linear-gradient-4);
      }

      .cls-28 {
        fill: url(#Gradient_2-10);
      }

      .cls-29 {
        opacity: .68;
      }
    </style>
    <filter id="outer-glow-3" filterUnits="userSpaceOnUse">
      <feOffset dx="0" dy="0"/>
      <feGaussianBlur result="blur" stdDeviation="5"/>
      <feFlood flood-color="#ff8500" flood-opacity=".75"/>
      <feComposite in2="blur" operator="in"/>
      <feComposite in="SourceGraphic"/>
    </filter>
    <linearGradient id="linear-gradient" x1="37.6" y1="96.02" x2="37.6" y2="74.63" gradientUnits="userSpaceOnUse">
      <stop offset="0" stop-color="#f7931a"/>
      <stop offset="1" stop-color="#1e110e"/>
    </linearGradient>
    <linearGradient id="Gradient_2" data-name="Gradient 2" x1="750.1" y1="1031.96" x2="750" y2="1023.48" gradientTransform="translate(343.03 1731.3) rotate(-47.25) scale(1.33 -1.33) skewX(.03)" gradientUnits="userSpaceOnUse">
      <stop offset="0" stop-color="#fa8609"/>
      <stop offset="1" stop-color="#fdb173"/>
    </linearGradient>
    <linearGradient id="Gradient_2-2" data-name="Gradient 2" x1="761.04" y1="1075.49" x2="760.93" y2="1067.01" gradientTransform="translate(275.24 1797.66) rotate(-43.73) scale(1.33 -1.33) skewX(.03)" xlink:href="#Gradient_2"/>
    <linearGradient id="Gradient_2-3" data-name="Gradient 2" x1="689.63" y1="1487.92" x2="689.53" y2="1479.44" gradientTransform="translate(-534.13 2167.31) rotate(-9.87) scale(1.33 -1.33) skewX(.03)" xlink:href="#Gradient_2"/>
    <linearGradient id="Gradient_2-4" data-name="Gradient 2" x1="213.92" y1="305.74" x2="213.84" y2="299.17" gradientTransform="translate(1.57 -397.44) rotate(32.81) scale(1.33) skewX(.03)" xlink:href="#Gradient_2"/>
    <linearGradient id="linear-gradient-2" x1="33.03" y1="83.87" x2="150.48" y2="83.87" xlink:href="#linear-gradient"/>
    <linearGradient id="Gradient_2-5" data-name="Gradient 2" x1="58.67" y1="128.51" x2="58.74" y2="128.51" gradientTransform="translate(-32.98 -12.08) rotate(-3.31)" xlink:href="#Gradient_2"/>
    <linearGradient id="Gradient_2-6" data-name="Gradient 2" x1="72.58" y1="75.72" x2="80.48" y2="75.72" gradientTransform="translate(-32.98 -12.08) rotate(-3.31)" xlink:href="#Gradient_2"/>
    <linearGradient id="Gradient_2-7" data-name="Gradient 2" x1="79.88" y1="40.43" x2="90.59" y2="40.43" gradientTransform="translate(-32.98 -12.08) rotate(-3.31)" xlink:href="#Gradient_2"/>
    <linearGradient id="linear-gradient-3" x1="49.88" y1="102.34" x2="71.89" y2="102.34" xlink:href="#linear-gradient"/>
    <linearGradient id="Gradient_2-8" data-name="Gradient 2" x1="-237.75" y1="591.14" x2="-237.86" y2="582.67" gradientTransform="translate(-111.52 -698.68) rotate(-169.77) scale(1.33 -1.33) skewX(.03)" xlink:href="#Gradient_2"/>
    <linearGradient id="Gradient_2-9" data-name="Gradient 2" x1="-198.5" y1="574.56" x2="-198.6" y2="566.09" gradientTransform="translate(-19.83 -676.98) rotate(-166.26) scale(1.33 -1.33) skewX(.03)" xlink:href="#Gradient_2"/>
    <linearGradient id="Gradient_2-10" data-name="Gradient 2" x1="171.89" y1="536.09" x2="171.79" y2="527.62" gradientTransform="translate(726.95 -193.11) rotate(-132.4) scale(1.33 -1.33) skewX(.03)" xlink:href="#Gradient_2"/>
    <linearGradient id="Gradient_2-11" data-name="Gradient 2" x1="475.89" y1="1356.77" x2="475.81" y2="1350.2" gradientTransform="translate(-1722.7 733.61) rotate(-89.72) scale(1.33) skewX(.03)" xlink:href="#Gradient_2"/>
    <linearGradient id="linear-gradient-4" x1="90.45" y1="118.96" x2="119.03" y2="118.96" xlink:href="#linear-gradient"/>
    <linearGradient id="Gradient_2-12" data-name="Gradient 2" x1="-638.22" y1="798.52" x2="-638.32" y2="790.05" gradientTransform="translate(-1154.2 -316.48) rotate(148.3) scale(1.33 -1.33) skewX(.03)" xlink:href="#Gradient_2"/>
    <linearGradient id="Gradient_2-13" data-name="Gradient 2" x1="-610.51" y1="756.99" x2="-610.61" y2="748.51" gradientTransform="translate(-1071.06 -361.77) rotate(151.81) scale(1.33 -1.33) skewX(.03)" xlink:href="#Gradient_2"/>
    <linearGradient id="Gradient_2-14" data-name="Gradient 2" x1="-271.13" y1="457.5" x2="-271.23" y2="449.03" gradientTransform="translate(-191.61 -500.38) rotate(-174.33) scale(1.33 -1.33) skewX(.03)" xlink:href="#Gradient_2"/>
    <linearGradient id="Gradient_2-15" data-name="Gradient 2" x1="203.26" y1="1715.32" x2="203.18" y2="1708.75" gradientTransform="translate(-1395.02 1825.77) rotate(-131.64) scale(1.33) skewX(.03)" xlink:href="#Gradient_2"/>
  </defs>
  <g class="cls-31">
    <g id="Layer_1" data-name="Layer 1">
      <g class="cls-30">
        <path class="cls-26" d="m150.52,75.3c.03-1.51,4.75.71,4.31-.89-.44-1.6-8.03-4.07-7.85-5.94.18-1.87,8.42-1.24,4.06-3.14-4.36-1.89-9.96-1.18-11.96-2.69-2.01-1.51,5.17-2.04.77-3.76-4.4-1.72-10.07,1.86-11.94.69-1.87-1.17,2.49-4.16.82-4.99-1.68-.83-8.99,6.5-11.57,6.54-2.58.03,2.2-7.69,1.24-8.82-.96-1.13-3.42,2.83-7.67,6.92-4.24,4.08-6.34,13.16-8.2,13.1-1.87-.07-.8-6.88-2.69-6.24-1.88.63-2.24,14.55-4.89,12.98-2.65-1.57-.68,10.7-2.88,12.01-2.21,1.32-2.26-8.42-3.1-8.95-.85-.53-2.58,5.62-1.89,11.57.69,5.95.23,7.96-1.52,6.84-1.75-1.12-.75,5.1-2.17,5.77-1.42.67-1.41-8.36-1.66-8.52-.24-.16-.43-1.43-2.53,3.5-2.1,4.93-.23,15.1-2.32,16.18-2.09,1.08-.9-5.5-2.62-5.09-1.72.4-1.63,5.02-3.56,8.86-1.93,3.83-5.18,5.01-5.99,1.97-.82-3.04-5.36,1.94-7.02.41-1.67-1.53,7.5-4.27,6-5.03-1.5-.76-5.52,1.05-9.15,1.19-3.63.14-3.94-1.33-4.09-4.39-.14-3.06,1.78-1.91,1.78-1.91h0c1.03.64,2.11,1.69,2.34.85.41-1.48-4.73-7.82-1.86-8.62,2.86-.8,5.03,9.03,5.97,8.03.94-1-.79-6.93-.54-9.38.25-2.45-.54-7.31,1.93-8.06,2.47-.76,2.15,2.7,2.32,4.03.17,1.33,1.38.27,4.24-4.81,2.87-5.08,3.4-10.23,6.04-9.86,2.64.37.47,7.19,1.71,7.81,1.24.63,2.35-4.91,5.51-8.85,3.16-3.94,2.82-9.26,4.29-9.11,1.46.15-.29,5.08,1.02,4.59,1.31-.48,2.5-4.1,4.64-7.27,2.14-3.17,2-6.94,3.65-7.23,1.65-.28.19,9.35,3.16,2.26,2.97-7.09.12-14.28.92-15.06.81-.78,1.44,1.72,2.51,1.08,1.07-.64-2.67-5.95-2.16-7.26.51-1.31,4.01,4.01,5.09,4.55,1.08.54,1.19-.5-1.42-7.5-2.61-7-9.11-8.66-9.64-9.8-.53-1.13,3.85-.75,3.92-1.62.07-.87-6.58-1.08-6.91-3.21-.33-2.13,8.61-1.49,9.57-2.01.96-.52-6.6-2.47-15.36-3.07-8.76-.6-9.38,2.98-9.38,2.98l12.16,24.91s-13.47,17.45-13.95,17.86c-.48.41-21.19,22.25-25.14,27.33-3.95,5.08-4.65,13.1-4.85,21.35-.12,5.14,4.38,7.91,7.33,8.52,3.7,7.15,15.5,5.95,28.23.33,13.5-5.96,11.49-14.57,14.21-19.87,2.72-5.31,3.56-14.95,8.68-23.95,5.12-9,18.89-14.32,23.01-15.98,4.12-1.67,16.24,1.59,20.15,5.87,3.91,4.28,2.44,15.13,1.7,19.09-.75,3.96-12.39,18.38-15.63,21.01-3.24,2.63-2,6.46.44,3.73,2.44-2.73,2.9-.55,4.19.6,1.29,1.15,1.83-5.63,3.71-7.24,1.88-1.61,1.63,1.11,2.78,1.8,1.14.69,1.93-6.92,3.3-8.33,1.37-1.42,1.98,2.04,3.45,1.37,1.47-.67,1.7-8.88,2.01-10.56.31-1.68,1.57,3.08,2.46,2.34.89-.74-.98-9.9-.31-11.39.67-1.49,3.76,4.73,3.82.42.06-4.31-5.04-9.31-5.01-10.82Z"/>
        <g>
          <path class="cls-26" d="m171.87,128.05c-.26,1.07-3.95,1.15-7.69,2.77-2.97,1.29-3.99,2.22-7.65,2.35,1.04.7,2.44,1.3,4.21,1.61,5.2.93,5.36,3.61,4.52,4.22-.84.61-.98-1.82-3.77-.37-.87.45-1.79.96-2.77,1.31-2.14.79-4.52.88-7.18-1.83-3.86-3.94-5.18-3.1-5.18-3.1,1.28,1.09,1.69,2.06,1.43,4.41-.26,2.35,4.05,4.41.87,3.79-3.18-.62-2.59-5.59-7.63-6.72-1.81-.41-2.69-1.42-3.08-2.54v-.02s-.01-.02-.01-.03c-.53-1.59-.08-3.41.12-4.07-.06-.15-.15-.36-.23-.61-.56-1.62-1.26-5.07,2.42-6.36,4.88-1.7,3.72-6.58,6.8-7.56,3.09-.98-.96,1.57-.43,3.87.52,2.31.23,3.31-.92,4.54,0,0,1.41.69,4.79-3.68,3.38-4.36,6.88-2.78,9.82-1.66,2.94,1.12,2.8-1.31,3.71-.8.9.51,1.06,3.19-4,4.71-2.74.82-4.47,2.24-5.3,3.56.84.02,1.7.15,2.57.46,4.46,1.58,13.79-.8,14.56,1.17.06.16.07.34.02.55Z"/>
          <path class="cls-26" d="m157.29,126.33c-.87-.31-1.73-.44-2.57-.46.84-1.33,2.57-2.74,5.3-3.56,5.06-1.52,4.91-4.2,4-4.71-.9-.51-.76,1.91-3.71.8-2.94-1.12-6.44-2.7-9.82,1.66-3.38,4.36-4.79,3.68-4.79,3.68,1.15-1.23,1.44-2.24.92-4.54-.53-2.3,3.51-4.85.43-3.87-3.08.98-1.93,5.85-6.8,7.56-3.68,1.29-2.98,4.74-2.42,6.36,3.39.15,8.59.34,12.1.27,5.59-.1,9.79.21,14.05-.61,3.36-.64,5.62-1.47,7.87-1.39-.78-1.97-10.1.41-14.56-1.17Zm-6.97-3.25c-.46-.54.41-2.04,1.94-3.36,1.53-1.32,3.15-1.96,3.61-1.42.46.54-.41,2.04-1.94,3.36-1.54,1.32-3.15,1.96-3.61,1.42Z"/>
          <g>
            <g>
              <path class="cls-2" d="m48.66,95.42c-2.58-.98-4.39-3.45-9.26-.93-1.09.57-2,.97-2.77,1.22,0,0,0,0,0,0-.11.04-.21.07-.31.09-.52.15-.98.22-1.38.21-.88,0-1.52-.36-2.09-1-.03-.04-.07-.08-.1-.12,0,0,0-.01-.01-.02-.04-.05-.09-.1-.13-.16-.04-.05-.08-.11-.12-.16-.24-.33-.48-.72-.73-1.16-1.61-2.83-2.68-6.03-3.3-5.04-.1.17-.22.38-.35.6-.65,1.13-1.59,2.77-2.55,2.43-1.17-.41-1.41-1.46-.07-3.9.07-.12.14-.25.21-.38.61-1.04.8-1.75.77-2.36,0-.05,0-.09-.01-.14,0-.02,0-.03,0-.05,0-.04-.01-.08-.02-.12-.06-.31-.17-.61-.31-.93-.01-.03-.03-.06-.04-.09-.02-.04-.04-.08-.05-.12-.03-.05-.05-.1-.07-.16-.06-.12-.12-.25-.18-.38-.02-.04-.04-.09-.06-.13-.01-.04-.03-.07-.05-.11-.08-.19-.17-.39-.25-.61,0,0,0,0,0,0-.02-.06-.04-.12-.06-.18-.02-.07-.05-.13-.07-.2-.06-.2-.15-.39-.24-.57-1-1.95-3.39-2.48-2.71-3.8.74-1.45,2.09-.16,3.56.66.5.28.9.75,1.21,1.24h0c.59.94.84,1.97.84,1.97,0,0,.35-.87.27-2.51,0-.03,0-.06,0-.08-.14-1.58-1.97-2.11-1.43-3.18.86-1.54,2.5.06,3.31.99.33.38.5,1.09.58,1.8.13,1.07.06,2.15.06,2.15.48-.3.77-.63.94-.97.72-1.39-.62-2.91.86-3.22,1.3-.27,1.94,1.22,2.05,3.01.02.4-.09.79-.3,1.16-.89,1.6-3.49,2.89-4.16,3.59-.14.14-.18.39-.15.7,0,.02,0,.04,0,.06.01.1.03.2.05.31,0,.03.01.05.02.08.08.34.23.72.42,1.12.03.05.05.11.08.17.03.07.07.14.11.21.03.05.05.1.08.14,0,0,0,0,0,0,.05.08.09.16.14.24.03.04.05.09.08.13.4.65.9,1.27,1.43,1.74.03.03.06.05.09.08.25.21.5.37.75.49.04.02.07.03.11.05.02.01.05.02.07.03.04.01.08.03.12.04.07.02.13.04.2.05.02,0,.04,0,.06.01.03,0,.06.01.09.01.04,0,.08,0,.11,0,.68.02,1.42-.57,2.21-1.47h0c1.36-1.54,2.9-3.96,4.65-5.66.47-.46.95-.86,1.45-1.19,3.46-2.26,8.08.06,8.08.06,5.54,4.36.83,15.17-1.75,14.19Z"/>
              <g>
                <path class="cls-21" d="m23.61,76.85c-2.39-1.42-5.92-2.53-5.48-2.13,2.33,2.1,4.11,3.26,4.48,3.48.37.22.77-.04,1.05-.41.28-.37.32-.72-.05-.93Z"/>
                <path class="cls-16" d="m22.19,76.23c.63.31,1,.66.96.73-.04.07-.52-.19-1.14-.5-.63-.31-1.16-.55-1.13-.62.04-.07.68.08,1.31.38Z"/>
              </g>
              <g>
                <path class="cls-3" d="m28.35,75.03c-2.3-1.56-5.75-2.89-5.33-2.47,2.2,2.24,3.9,3.51,4.25,3.75.35.24.77,0,1.07-.35.3-.35.36-.69,0-.93Z"/>
                <path class="cls-16" d="m26.97,74.32c.61.35.96.72.91.79s-.51-.22-1.11-.56c-.61-.35-1.13-.62-1.09-.69.04-.07.68.12,1.28.46Z"/>
              </g>
              <g>
                <path class="cls-25" d="m33.8,76.81c-1.04-2.58-3.17-5.6-3.06-5.02.58,3.08,1.29,5.08,1.45,5.48.16.4.64.44,1.08.31.44-.13.69-.37.53-.77Z"/>
                <path class="cls-16" d="m33.05,75.44c.31.63.39,1.13.32,1.16-.07.03-.3-.46-.61-1.09-.31-.63-.59-1.14-.52-1.18s.5.48.81,1.1Z"/>
              </g>
              <g>
                <path class="cls-17" d="m26.08,90.89c-1.54,1.51-4.13,2.89-3.89,2.49,1.26-2.11,2.37-3.33,2.6-3.56s.66-.05,1.02.24c.35.3.51.59.27.83Z"/>
                <path class="cls-16" d="m25.09,91.61c.42-.34.62-.69.56-.75-.06-.06-.37.22-.8.56-.42.34-.79.61-.74.67.06.06.55-.14.97-.48Z"/>
              </g>
              <path class="cls-24" d="m27.02,82.44c-.2-.98-.35-1.78-.03-1.93.32-.15.74.53.94,1.5.2.98.09,1.9-.23,2.05-.32.15-.49-.65-.68-1.63Zm2.91-2.18c.01-.6.02-1.08.23-1.12.21-.04.36.4.35.99-.01.6-.19,1.11-.4,1.16-.21.04-.2-.44-.19-1.03Zm6.29,7.76c-.8.9-1.53,1.49-2.21,1.47-.04,0-.08,0-.11,0-.03,0-.06,0-.09-.01-.02,0-.04,0-.06-.01-.07-.01-.13-.03-.2-.05-.04-.01-.08-.02-.12-.04-.02,0-.05-.02-.07-.03-.03-.01-.07-.03-.11-.05-.25-.12-.51-.29-.75-.49-.03-.03-.06-.05-.09-.08-.53-.46-1.02-1.09-1.43-1.74-.03-.04-.05-.09-.08-.13-.05-.08-.09-.16-.14-.24,0,0,0,0,0,0l-.07-.13s0,0,0-.01c-.04-.07-.07-.14-.11-.21-.03-.06-.06-.11-.08-.17-.19-.4-.33-.78-.42-1.12,0-.03-.01-.05-.02-.08-.02-.11-.04-.21-.05-.31,0-.02,0-.04,0-.06-.03-.31.01-.56.15-.7.67-.71,3.27-1.99,4.16-3.59-.58.43-1.47.55-2.61-.95-.17.34-.46.66-.94.97,0,0,.06-1.08-.06-2.15-.43.47-1.35,1.2-2.47.39,0,.03,0,.06,0,.08.08,1.64-.27,2.51-.27,2.51,0,0-.26-1.03-.84-1.97-.11.8-.54,1.67-2.07,1.9.09.18.17.37.24.57.02.07.04.14.07.2.02.06.04.12.06.18,0,0,0,0,0,0,0,0,0,0,0,.02.08.21.16.41.24.6.02.04.03.07.05.11.02.04.04.09.06.13.06.13.12.26.18.38.03.05.05.11.07.16.02.04.04.08.05.12.02.03.03.06.04.09.14.32.26.62.31.93,0,.04.01.08.02.12,0,.02,0,.03,0,.05,0,.04,0,.09.01.14.04.61-.16,1.32-.77,2.36-.08.13-.15.26-.21.38,0,0,.51.04,1.09.25.58.21,1.23.57,1.52,1.22.13-.23.25-.44.35-.6.62-.98,1.69,2.21,3.3,5.04.25.44.49.82.73,1.16.04.06.08.11.12.16.04.05.08.1.12.15,0,0,0,0,0,0,0,0,0,.01.01.02.03.04.06.08.1.12.57.64,1.21.99,2.09,1-1.23-.61-2.16-2.48,1.3-8.01Z"/>
              <path class="cls-26" d="m30.68,86.45c-1.24-2.22-1.17-2.83-.57-3.69.61-.86.64-2.55.64-2.55.48-.3.77-.63.94-.96,1.14,1.51,2.03,1.39,2.61.95-.89,1.6-3.49,2.89-4.16,3.59-.36.38-.08,1.5.54,2.65Z"/>
              <path class="cls-26" d="m32.72,94.89c-.33-.4-.64-.89-.97-1.47-1.61-2.83-2.68-6.03-3.3-5.04-.1.17-.22.37-.35.6-.57-1.29-2.61-1.46-2.61-1.46h0c.07-.12.14-.25.22-.38,1.49-2.55.49-3.1-.28-5.19.08.2.77,1.82,1.97,3.22,1.27,1.49,2.25,1.43,3.28,3.75,1.02,2.32.22,3.61,2.06,5.97Z"/>
            </g>
            <path class="cls-26" d="m49.58,93.91c-.41.45-.85.9-1.31,1.35-2.39-1.06-4.25-3.17-8.88-.77-.73.38-1.38.68-1.95.92-.29.12-.56.22-.81.3,0,0,0,0,0,0-.11.04-.21.07-.31.09,4.04-5.3,4.75-10.16,4.57-13.45.47-.46.95-.86,1.45-1.19,2.01-1.31,4.41-1.08,6.07-.65,1.2.31,2.02.72,2.02.72.43.34.8.72,1.12,1.13,1.02,3,1.63,7.61-1.94,11.55Z"/>
            <path class="cls-26" d="m49.58,93.91c-.41.45-.85.9-1.31,1.35-2.39-1.06-4.25-3.17-8.88-.77-.73.38-1.38.68-1.95.92,3.99-8.18,8.67-12.91,10.95-14.9,1.2.31,2.02.72,2.02.72.43.34.8.72,1.12,1.13,1.02,3,1.63,7.61-1.94,11.55Z"/>
          </g>
          <path class="cls-15" d="m150.44,81.77l.03.77c.07,2.04-.1,4.07-.51,6.01-.08.49-.22.97-.33,1.45l-.18.72c-.06.24-.14.47-.22.7l-.03.11-.11.36-.08.24c-.08.23-.14.47-.23.7l-.52,1.36c-.46,1.11-.97,2.18-1.53,3.23-.06.11-.12.22-.18.33-1.22,2.22-2.65,4.3-4.27,6.21-.59.74-1.26,1.42-1.89,2.12-.33.34-.67.67-1,1-.11.11-.21.21-.32.32-.08.08-.16.16-.25.24-.15.14-.3.28-.45.42l-1.05.94-.95.84-.47.41-.45.42c-.29.28-.61.56-.88.85-1.16,1.15-2.21,2.36-3.11,3.64-.03.04-.06.08-.08.12-.08.12-.16.23-.23.35-.11.17-.21.33-.32.49-.19.33-.38.66-.57.98-.24.49-.49.99-.68,1.49h0c-.05.12-.09.24-.13.36-.02.05-.03.1-.05.15-.45,1.34-.58,2.67-.29,3.83.13.59.39,1.13.75,1.64.09.13.17.26.28.37.05.05.09.1.13.15.06.07.12.14.19.21.02.01.03.03.05.04.1.1.21.19.31.29.06.06.13.11.2.16l.2.15h0c.11.09.31.22.43.3l.45.28.49.25c.08.04.16.09.25.13l.24.1h.02s.36.16.36.16l.16.07.55.18c.36.14.75.22,1.13.32,1.34.33,2.76.5,4.2.57.52.02,2.45.23,2.97.3l7.49.9-7.37,1.69c-2.49.57-5.07.72-7.6.35-.16-.02-.32-.05-.48-.08-.36-.07-.71-.13-1.07-.21-.11-.02-.22-.05-.33-.08-.02,0-.04,0-.05-.01l-.73-.19-.72-.24-.36-.12c-.12-.04-.24-.1-.36-.15l-.72-.3c-.23-.12-.47-.24-.7-.37-.12-.06-.23-.12-.35-.19l-.34-.22-.34-.22c-.11-.07-.23-.15-.33-.23l-.64-.51c-.21-.18-.4-.38-.6-.58-.18-.17-.34-.36-.5-.55-.02-.03-.04-.05-.07-.08-.06-.07-.12-.15-.18-.23-.27-.35-.52-.71-.73-1.09-.3-.52-.55-1.08-.73-1.65-.11-.27-.16-.54-.23-.82-.07-.27-.14-.55-.16-.82-.03-.27-.08-.55-.1-.83l-.02-.82c.01-1.08.14-2.15.41-3.14.31-1.25.76-2.42,1.3-3.53.05-.1.1-.2.15-.3.29-.57.6-1.11.92-1.65,1.01-1.66,2.17-3.18,3.41-4.59.3-.37.63-.7.95-1.05l.48-.52.49-.5.97-.97.86-.88c.29-.29.56-.59.82-.9.08-.09.17-.19.25-.28.09-.1.17-.19.26-.29.1-.12.2-.23.3-.35.5-.64,1.03-1.25,1.48-1.91.96-1.29,1.79-2.66,2.54-4.04l.05-.1.16-.3.33-.65c.17-.35.32-.71.48-1.07l.24-.53.2-.54.2-.54c.07-.18.14-.36.19-.55.78-2.35,1.23-4.77,1.22-7.11,0-.14,0-.29,0-.43-.01-.41-.04-.83-.08-1.24l-.05-.53c-.02-.18-.05-.34-.08-.51-.02-.17-.06-.33-.1-.5-.03-.17-.07-.33-.11-.49-.16-.66-.37-1.3-.63-1.91-.23-.55-.5-1.09-.8-1.61-.04-.06-.07-.12-.11-.18-.03-.04-.05-.09-.08-.13-.33-.52-.69-1.02-1.09-1.5-.43-.51-.9-1-1.4-1.44-.51-.44-1.04-.85-1.6-1.22-1.03-.69-2.16-1.22-3.32-1.62h0c-.1-.03-.2-.07-.31-.1-.03-.01-.06-.02-.09-.03-.61-.19-1.24-.32-1.87-.43-.33-.06-.66-.09-1-.13l-.5-.04-.54-.02c-1.45-.05-2.85.05-4.18.32-.74.15-1.46.35-2.16.6-.11.04-.22.08-.33.12-1.51.58-2.93,1.4-4.27,2.43-.1.08-.2.16-.3.24-.06.05-.12.1-.18.15-1.09.9-2.13,1.93-3.11,3.06-.97,1.14-1.89,2.38-2.76,3.69-.17.27-.35.53-.53.8l-.18.3-.55.9c-.4.69-.81,1.38-1.19,2.09-.02.04-.04.07-.06.11-.06.11-.12.22-.18.33-.31.57-.6,1.15-.9,1.72-.18.36-.36.74-.54,1.1l-.27.55-.26.56-.52,1.12-.5,1.14-.25.57-.24.57-.09.22-.14.33-.26.6c-.63,1.55-1.26,3.1-1.85,4.68-.12.31-.24.63-.35.94-.04.11-.08.22-.12.33,0,0,0,0,0,0-.13.37-.27.73-.4,1.1l-.93,2.51-.24.64-.25.64-.5,1.27c-.33.85-.7,1.69-1.05,2.54-.51,1.2-1.05,2.39-1.61,3.59-.05.11-.1.21-.15.31-.98,2.06-2.05,4.1-3.21,6.12-.28.49-.57.99-.87,1.48-.69,1.14-1.43,2.27-2.19,3.39-.57.8-1.12,1.6-1.74,2.38-.3.39-.6.79-.91,1.17l-.96,1.15c-.31.39-.67.76-1.01,1.13-.35.38-.68.76-1.05,1.12l-.37.37-.29.29-.44.44-1.16,1.06c-.38.36-.8.69-1.21,1.03-.41.34-.82.68-1.26.99-.44.32-.87.64-1.32.95l-1.38.9c-1.79,1.09-3.71,2.05-5.75,2.82-.11.04-.21.08-.32.12,0,0-.01,0-.02,0-2.16.79-4.45,1.31-6.75,1.59l-.86.1c-.29.03-.58.04-.86.06l-.86.05-.43.02c-.15,0-.29,0-.43,0l-1.72-.02c-.56-.04-1.13-.08-1.7-.12l-.42-.03c-.14-.01-.28-.04-.42-.05l-.83-.11-.83-.12c-.28-.04-.54-.1-.82-.15-.54-.11-1.08-.21-1.63-.33l-.07-.02-.43-.11-1.15-.3-.41-.11-.1-.03-.12-.04-.25-.08c-.32-.11-.67-.23-.97-.35l-.88-.36c-.29-.12-.58-.26-.87-.39-1.15-.55-2.25-1.17-3.29-1.87-1.04-.71-2.01-1.48-2.92-2.31-.27-.25-.54-.5-.8-.76-.09-.09-.18-.18-.27-.28-.51-.52-.99-1.06-1.44-1.61-.77-.93-1.47-1.91-2.1-2.91-.63-1.01-1.2-2.04-1.68-3.11-.62-1.34-1.14-2.72-1.55-4.13-.04-.12-.07-.23-.1-.35h0c-.2-.71-.37-1.42-.51-2.14-.22-1.14-.39-2.28-.48-3.44-.02-.21-.03-.43-.04-.64-.01-.17-.02-.35-.03-.52-.02-.48-.03-.96-.02-1.45,0-.01,0-.03,0-.04,0-.28,0-.56.02-.83l.05-.87v-.22s.03-.2.03-.2l.04-.4.16-1.58c.06-.53.15-1.05.23-1.57.02-.15.05-.3.07-.45.06-.37.12-.75.21-1.11l.34-1.55c.12-.52.27-1.03.41-1.54.26-1.03.62-2.02.95-3.03.18-.5.38-.99.58-1.48l.3-.74c.1-.25.22-.49.32-.73l.67-1.45c.24-.48.49-.94.73-1.42l.37-.71c.13-.23.27-.46.4-.69l.82-1.37c.29-.45.59-.89.89-1.33l.45-.66c.16-.22.32-.43.48-.64l.07-.09.89-1.19,1.03-1.23.52-.61.16-.18.38-.41,1.09-1.18,1.15-1.12.58-.56.6-.53,1.22-1.06.9-.71.37-.29.64-.5.54-.41,1.07-.8.32-.24,1.8-1.34c1.19-.89,2.36-1.77,3.51-2.65.38-.29.77-.59,1.15-.88.12-.09.25-.19.37-.28.7-.54,1.39-1.08,2.07-1.63.23-.18.46-.36.68-.54.11-.09.23-.18.34-.27.25-.2.5-.41.75-.61.25-.2.49-.4.74-.61,0,0,0,0,0,0,.25-.2.49-.41.74-.62.28-.23.55-.46.82-.69.2-.17.4-.34.6-.51.01-.01.02-.02.03-.03.2-.17.4-.35.6-.52.07-.06.15-.13.22-.2.2-.18.4-.35.59-.53.19-.17.38-.34.56-.51.04-.04.09-.08.13-.12.52-.48,1.03-.97,1.53-1.45.31-.31.62-.61.92-.92.67-.68,1.32-1.37,1.93-2.05.1-.11.19-.22.29-.33.24-.28.48-.55.71-.83.1-.11.19-.23.28-.35.19-.23.37-.47.55-.7.08-.11.17-.21.24-.32.02-.03.05-.06.07-.09.07-.1.15-.2.22-.29.09-.12.17-.24.25-.35.08-.12.16-.23.24-.35.03-.05.06-.09.09-.14.3-.45.58-.89.82-1.33.2-.36.39-.71.55-1.06.05-.11.1-.22.15-.33.03-.07.06-.14.09-.21.39-.94.59-1.75.63-2.37.02-.31.01-.58-.02-.83v-.02s0-.04,0-.04v-.1s-.04-.19-.04-.19l-.05-.38-.02-.19-.04-.18-.07-.35c-.02-.08-.03-.16-.05-.23h0c-.02-.09-.04-.17-.06-.25,0-.03-.02-.07-.03-.1-.02-.07-.04-.14-.06-.2,0-.03-.01-.05-.02-.08-.02-.08-.05-.16-.07-.24-.02-.07-.04-.14-.07-.2-.02-.07-.05-.14-.07-.2-.11-.3-.22-.57-.35-.84l-.06-.12s-.03-.09-.06-.12c-.05-.07-.09-.15-.13-.23-.07-.17-.19-.3-.27-.46-.02-.04-.04-.08-.06-.11,0,0,0,0,0,0-.03-.04-.06-.07-.08-.11-.05-.07-.1-.15-.15-.22-.05-.08-.12-.14-.18-.21-.06-.07-.11-.15-.18-.22-.23-.26-.5-.53-.79-.79-.06-.05-.12-.11-.18-.16-.06-.05-.11-.09-.17-.14-.12-.1-.25-.2-.39-.3-.06-.04-.11-.08-.17-.13-.1-.08-.21-.15-.32-.23-.22-.14-.43-.29-.68-.42-.23-.15-.49-.27-.73-.42-.52-.26-1.06-.53-1.64-.78-.58-.24-1.18-.48-1.8-.7-.16-.06-.31-.11-.46-.16l-.46-.16-.22-.08-.21-.08c-.07-.03-.14-.05-.19-.07-.02-.01-.07-.03-.08-.04,0-.01-.06-.03.02-.04l-.6-1.86-3.7-11.37c.2-.02,4.08-.61,4.19-.63l.26-.04c.17-.03.32-.05.47-.06l.45-.06c.15-.02.3-.03.44-.05.58-.06,1.16-.09,1.74-.11,1.15-.03,2.3,0,3.46.1,1.16.1,2.33.29,3.51.55,1.18.26,2.36.61,3.55,1.04,1.27.47,2.54,1.06,3.78,1.78.11.06.21.12.32.18.95.57,1.88,1.21,2.77,1.92.59.47,1.16.98,1.7,1.52.02.01.03.03.05.05.09.09.19.19.28.28,1.3,1.34,2.45,2.85,3.37,4.45.33.57.64,1.15.92,1.73.07.14.13.28.19.42.79,1.74,1.34,3.51,1.7,5.25l.18.92c.03.15.06.31.08.46l.06.45.05.43.04.35v.13s.06.45.06.45l.02.23v.12s.02.14.02.14c.11,1.48.06,2.95-.13,4.36-.16,1.24-.41,2.42-.73,3.55-.03.11-.06.22-.1.34-.4,1.32-.89,2.57-1.43,3.73-1.05,2.24-2.28,4.19-3.57,5.97-.76,1.04-1.55,2.03-2.36,2.97-.07.09-.15.18-.23.26-.49.56-.98,1.11-1.48,1.64-1.4,1.49-2.82,2.88-4.27,4.19-.41.37-.82.73-1.22,1.09-.09.08-.18.16-.27.23-2.41,2.1-4.86,4.04-7.31,5.89-.55.41-1.1.83-1.65,1.23-.1.07-.2.15-.3.22-1.01.74-2.03,1.47-3.04,2.19-.1.07-.2.14-.29.21-1.2.85-2.39,1.68-3.58,2.5l-2.18,1.51-.92.64-.16.11-.53.37-.41.31-.83.6-.8.65-.4.32-.38.34-.77.69c-.17.16-.33.32-.49.48-.03.03-.06.06-.09.09-.05.05-.09.09-.13.13-2.48,2.53-4.5,5.51-5.91,8.73-.29.67-.56,1.35-.8,2.04-.04.12-.08.24-.12.36-.23.69-.43,1.4-.6,2.1-.1.33-.15.66-.22.99-.05.25-.1.49-.15.73-.02.09-.03.18-.05.27v.1s-.14.9-.14.9l-.04.25-.02.13v.11s-.05.42-.05.42c-.04.57-.06,1.14-.04,1.72.02.41.05.81.1,1.22.01.12.03.23.04.35,0,.05.01.1.02.15.35,2.28,1.25,4.48,2.55,6.21.33.43.67.84,1.04,1.21.21.21.43.42.66.61.1.09.21.18.32.26.06.05.12.1.18.14.4.31.83.57,1.26.81.11.06.22.12.33.17.11.05.23.1.34.16.1.05.18.07.27.12l.06.03.03.02.06.02.23.07c.3.09.61.18.91.28.32.08.65.16.97.24.16.04.33.09.49.12l.31.06.17.03.17.03.32.06c.08.01.16.03.24.04l.24.03.95.12c.32.01.63.03.94.05.08,0,.16.01.23.01h.23s.46,0,.46,0c.16,0,.31,0,.47,0l.46-.04c.36-.03.71-.06,1.06-.11.12-.01.23-.03.34-.05.75-.12,1.49-.28,2.22-.52,1.19-.37,2.36-.88,3.52-1.51.08-.04.16-.09.23-.13.11-.06.22-.13.33-.2,2.11-1.27,4.14-2.96,6.03-4.96l.67-.73.09-.1c.05-.05.09-.1.14-.15.21-.23.4-.48.61-.71.5-.57.97-1.2,1.45-1.8.69-.92,1.37-1.86,2.02-2.84.08-.11.15-.22.22-.33.16-.24.31-.47.46-.72.87-1.36,1.71-2.77,2.51-4.21.06-.11.12-.22.18-.32.71-1.3,1.4-2.63,2.05-3.99.35-.75.72-1.49,1.06-2.24l.35-.77.14-.32.02-.04.26-.57.25-.57,1-2.35c.35-.83.7-1.65,1.06-2.48.71-1.65,1.47-3.29,2.24-4.94l.19-.4.16-.33.24-.5.3-.62.31-.61.62-1.22.65-1.22.32-.61.34-.61c.21-.37.41-.74.62-1.12.02-.03.04-.07.06-.1.04-.07.08-.14.12-.21.43-.74.85-1.47,1.31-2.2.48-.8,1.01-1.59,1.53-2.39l.76-1.1.06-.08c.05-.07.1-.15.16-.22.22-.32.46-.63.69-.94,1.16-1.55,2.41-3.07,3.79-4.53.15-.16.31-.32.47-.48.08-.08.17-.17.25-.25,1.2-1.19,2.5-2.32,3.92-3.36,1.7-1.25,3.58-2.36,5.61-3.21.73-.31,1.49-.59,2.25-.83.12-.04.24-.08.37-.11,1.22-.37,2.48-.64,3.73-.82,2.17-.31,4.34-.33,6.43-.14.26.02.52.05.79.07l.82.11c.54.09,1.09.18,1.63.31.37.08.74.17,1.1.27.11.03.22.06.33.09.59.17,1.17.36,1.73.57.82.31,1.62.66,2.4,1.06.1.05.21.1.31.16,2.99,1.58,5.62,3.81,7.59,6.5.56.76,1.07,1.55,1.53,2.37.06.11.12.21.17.32,0,0,.01.02.02.03.5.95.92,1.93,1.27,2.94.35,1.01.62,2.04.81,3.09.05.26.09.52.13.79.04.26.08.52.1.79.02.26.06.53.07.79Z"/>
          <g class="cls-32">
            <path class="cls-5" d="m96.9,48.12c-3.44-.43-5.34-2.16-5.8-2.63-1.03.87-2.11,1.51-3.11,1.96-2.3,1.04-4.55,1.33-5.85,1.4-.69.04-1.1.02-1.11.02l.02-.34s3.37.16,6.81-1.4c3.26-1.48,5.51-3.93,6.73-7.31.07.14.13.28.19.42-.86,2.2-2.09,3.82-3.42,5.02.44.45,2.24,2.08,5.5,2.51l.04.35Z"/>
            <path class="cls-5" d="m85.51,29.88c-.95,6.75-4.23,10.31-7.06,12.16-1.28.84-2.56,1.39-3.69,1.77-.11-.08-.22-.17-.34-.25,1.16-.36,2.51-.93,3.86-1.81,2.78-1.82,6.01-5.34,6.92-12.05.11.06.21.12.32.18Z"/>
            <path class="cls-5" d="m90.3,33.65c-.15.55-.34,1.12-.57,1.7-1.33,3.33-4.44,7.62-11.66,9.14l-.07-.33c7.07-1.49,10.11-5.68,11.41-8.93.25-.63.45-1.25.61-1.85.09.09.19.19.28.28Z"/>
            <path class="cls-5" d="m96.15,57.09c-.03.11-.06.22-.1.34-1.65-.08-3.24-.29-4.74-.59-1.79,1.53-3.67,2.29-5.43,2.61-.46,5.46,1.26,8.8,2.81,10.64-.07.09-.15.18-.23.26-1.59-1.87-3.38-5.28-2.93-10.84-.36.06-.72.09-1.07.11-1.11.06-2.13-.03-3.01-.19-2.8-.5-4.75-1.68-4.83-1.73l.18-.29c.08.05,7.64,4.6,14.08-.66-6.22-1.31-10.68-3.97-10.75-4.01l.18-.29c.09.05,7.13,4.25,15.84,4.65Z"/>
            <path class="cls-5" d="m81.5,77.28c-.09.08-.18.16-.27.23-1.5-.93-2.78-1.96-3.89-3.01-.78.13-1.52.21-2.22.25-1.31.08-2.49.01-3.55-.15-.9,4.04-.32,7.43.7,10.03-.1.07-.2.15-.3.22-1-2.54-1.68-6.05-.74-10.31-2.74-.48-4.67-1.61-5.96-2.7-.86-.73-1.5-1.49-1.97-2.15.09-.07.18-.15.27-.22.46.66,1.1,1.41,1.94,2.12,2,1.69,5.61,3.5,11.52,2.61-1.78-1.77-3.07-3.61-3.98-5.24-1.24-2.21-1.94-4.3-2.34-5.82.09-.09.19-.19.28-.28.38,1.52,1.08,3.67,2.36,5.95,1.5,2.68,4.01,5.92,8.14,8.47Z"/>
            <path class="cls-5" d="m59.83,72.44c.12.99.36,2.21.8,3.57.99,3.05,3.23,7.4,8.3,11.03-.1.07-.2.14-.29.21-.93-.67-1.77-1.37-2.52-2.08-6.57-.08-9.77-2.7-11.3-4.89-.74-1.06-1.18-2.11-1.43-2.96l.3-.22c.24.85.66,1.93,1.42,3,2.08,2.96,5.76,4.58,10.65,4.72-3.11-3.06-4.67-6.29-5.45-8.72-.42-1.29-.65-2.46-.79-3.42l.32-.24Z"/>
            <path class="cls-5" d="m52.09,86.49c-.66-3.16-.56-6.13-.39-7.91l-.02.02-.34.26c-.15,1.83-.21,4.68.42,7.7.57,2.73,1.79,5.92,4.32,8.58-4.93.76-8.55.05-10.76-2.1-2.01-1.97-2.34-4.7-2.35-6.19l-.33.4c.07,1.6.51,4.14,2.44,6.03.35.34.73.64,1.14.91-.56,3.78.07,6.7,1.05,8.87-5.55,3.05-9.7,2.44-12.22,1.38-.27-.11-.53-.23-.77-.36l-.08.34c.22.12.46.22.7.33,1.05.44,2.37.81,3.96.89,3,4.07,6.07,6.05,9.11,5.87h.05c.38-.03.74-.09,1.09-.17v-.1c.03-.09.04-.18.06-.27-.38.1-.77.17-1.18.19h-.05c-2.87.17-5.78-1.69-8.66-5.52.29,0,.59,0,.89-.02,2.06-.12,4.48-.75,7.23-2.26.46.95.99,1.75,1.5,2.4.41.52.83.97,1.23,1.36.04-.12.08-.24.12-.36-.36-.36-.73-.76-1.1-1.22-1.64-2.08-3.41-5.7-2.64-11.17,1.81,1.07,4.2,1.53,7.15,1.36.85-.05,1.75-.15,2.69-.3.19.19.39.38.6.56.07-.07.15-.15.22-.22-2.57-2.26-4.28-5.36-5.1-9.28Z"/>
            <path class="cls-5" d="m53.56,124.87s-.04.01-.05.02c-.99.29-2.11.52-3.34.59-.42.02-.85.03-1.29.01-2.3,5.58-5.29,7.6-7.4,8.31-.07.02-.14.04-.2.06-.09-.09-.18-.18-.27-.28.13-.03.26-.07.39-.12,2.02-.69,4.88-2.63,7.12-7.99-2.94-.18-6.29-1.35-9.64-4.51-1.17.63-2.25.88-3.19.94-.54.03-1.03,0-1.46-.08-.04-.12-.07-.23-.1-.35.31.06.66.1,1.03.11,2.17.05,4.39-1.06,6.46-3.19-1.68.09-3.24-.13-4.67-.65-1.69-.61-2.95-1.57-3.86-2.49-.01-.17-.02-.35-.03-.52.89.98,2.2,2.04,4.01,2.7,3.29,1.19,7.27.73,11.86-1.34.01.12.03.23.04.35-2.45,1.1-4.74,1.74-6.85,1.92-1.02,1.1-2.01,1.88-2.94,2.43,5.25,4.91,10.5,4.82,14.05,3.83.1.09.21.18.32.26Z"/>
            <path class="cls-5" d="m72.32,139.08c.05.17.09.34.13.5-.11.04-.21.08-.32.12-.04-.18-.09-.36-.14-.54-1.12-4.09-3.71-6.9-7.69-8.34-.07.13-.14.26-.21.39-1.3,2.23-3.58,3.76-6.76,4.56-.86,1.77-1.89,3.04-2.84,3.94-.34.32-.68.61-1.02.86l-.43-.11c.4-.28.82-.62,1.23-1.01,2.03-1.92,4.39-5.59,4.72-12.37l.17.03.17.03c-.17,3.49-.88,6.17-1.81,8.22,2.94-.79,5.06-2.24,6.28-4.32.73-1.25,1.05-2.58,1.15-3.75.12-.01.23-.03.34-.05-.08,1.02-.32,2.15-.83,3.27,2.85,1.04,4.73,2.7,5.97,4.48,1.23-4.83,1.24-7.94.84-9.91.11-.06.22-.13.33-.2.44,2.07.42,5.34-.91,10.47h-.02c.82,1.26,1.34,2.57,1.65,3.73Z"/>
            <path class="cls-5" d="m85.26,131.11l-.29.29c-.97-4.95-2.95-8.2-4.63-10.18-.71-.84-1.41-1.51-2.04-2.03l.23-.26c.64.53,1.34,1.21,2.06,2.05.68.8,1.4,1.8,2.1,3.03,2.34-4.56,1.25-8.19-.07-10.43.08-.11.15-.22.22-.33.24.38.47.81.68,1.28.96,2.15,1.63,5.6-.62,9.84.95,1.77,1.82,4,2.38,6.74Z"/>
            <path class="cls-5" d="m102.83,99.87c-.04.11-.08.22-.12.33-2.22-.76-6.37-1.32-11.77,1.78,1.56,1.77,2.97,4.43,3.33,8.4,1.13.56,2.3,1.26,3.46,2.1-.05.11-.1.21-.15.31-4.6-3.38-9.19-4.27-11.78-4.48.06-.11.12-.22.18-.32,1.9.17,4.77.7,7.93,2.21-.49-4.8-2.54-7.61-4.46-9.21l.14-.32c.37.3.75.65,1.12,1.04,4.38-2.54,7.93-2.67,10.15-2.34.77.12,1.43.29,1.98.48Z"/>
            <path class="cls-5" d="m109.19,85.43c-.06.11-.12.22-.18.33-2.15-.38-4.64-.27-7.3.89.57,1.31,1.06,2.94,1.38,4.98.78.47,1.56,1.03,2.33,1.68l-.14.33c-3.31-2.83-6.79-3.84-9.33-4.17-.47-.06-.92-.1-1.35-.12l.16-.33c.4.02.81.06,1.24.12,1.88.24,4.26.85,6.71,2.27-.9-5.27-2.92-7.74-4.55-8.89.02-.03.04-.07.06-.1.04-.07.08-.14.12-.21.17.12.34.25.52.4.85.71,1.86,1.87,2.71,3.74,2.82-1.23,5.45-1.3,7.62-.91Z"/>
            <path class="cls-5" d="m111.17,82.03c-1.15-1.21-2.24-2.18-3.25-2.95.69-2.12.82-3.91.66-5.38,3.59-1.07,6.75-.42,9.16.64.1-.08.2-.16.3-.24-2.47-1.12-5.76-1.85-9.51-.74-.2-1.41-.68-2.53-1.19-3.35-.08.08-.17.17-.25.25,1.4,2.34,1.58,5.31.53,8.61-1.76-1.29-3.28-2-4.47-2.39-.36-.11-.69-.2-1.01-.27-.05.07-.11.15-.16.22l-.06.08c.36.07.74.17,1.16.3,1.9.62,4.66,2.09,7.9,5.52l.18-.3Z"/>
            <path class="cls-5" d="m122.65,71.54c-.11.04-.22.08-.33.12-.18-4.04-1.24-7.08-3.16-9.04-.01-.01-.02-.02-.03-.03.12-.04.24-.08.37-.11,1.91,2,2.97,5.05,3.16,9.06Z"/>
            <path class="cls-5" d="m138.76,64.16c-1.41,3.6-3.6,5.85-5.46,7.2h0c-.1-.03-.2-.07-.31-.1-.03-.01-.06-.02-.09-.03.75-.52,1.56-1.2,2.35-2.05-1.45-2.67-1.51-5.16-1.25-6.9.11.03.22.06.33.09-.23,1.65-.17,4.01,1.17,6.54,1.1-1.25,2.16-2.85,2.96-4.91.1.05.21.1.31.16Z"/>
            <path class="cls-5" d="m149.2,91.52c-1.69-1.53-3.58-4.08-4.99-8.3.03-.04.06-.08.09-.12,1.31-1.87,1.68-4.41,1.12-7.54.93-.59,1.83-1.31,2.63-2.21-.06-.11-.11-.22-.17-.32-1.98,2.3-4.73,3.49-7.15,4.11.03.04.06.09.08.13.04.06.07.12.11.18.15-.04.3-.08.46-.12,1.16-.33,2.47-.83,3.74-1.58.51,2.98.14,5.39-1.09,7.15-.39.55-.82.99-1.26,1.34,0,.14,0,.29,0,.43.4-.29.81-.67,1.19-1.12,1.45,4.25,3.4,6.8,5.12,8.33l.11-.36Z"/>
            <path class="cls-5" d="m146.72,97.4c-.06.11-.12.22-.18.33-2.69-.17-5.07-.98-6.8-1.77l.16-.3c1.74.79,4.13,1.6,6.83,1.74Z"/>
            <path class="cls-5" d="m139.05,107.39c-.08.08-.16.16-.25.24-1.97-1.51-3.08-3.38-3.7-4.98.09-.1.17-.19.26-.29.6,1.59,1.69,3.5,3.7,5.02Z"/>
            <path class="cls-5" d="m131.13,115.62c-1.17.03-2.22-.14-3.11-.4.2,1.45.78,2.54,1.54,3.36h0c-.05.12-.09.24-.13.36-.89-.91-1.57-2.15-1.76-3.84-.75-.25-1.37-.55-1.85-.83.05-.1.1-.2.15-.3,1.09.62,2.97,1.42,5.4,1.29-.08.12-.16.23-.23.35Z"/>
            <path class="cls-5" d="m130.49,125.34c-1.47,1.22-2.96,1.74-4.15,1.95-.02-.03-.04-.05-.07-.08-.06-.07-.12-.15-.18-.23,1.17-.17,2.68-.66,4.16-1.9.06.07.12.14.19.21.02.01.03.03.05.04Z"/>
            <path class="cls-5" d="m133.41,131.26c-.11-.02-.22-.05-.33-.08.21-1.21.27-2.64-.02-4.17h.02s.36.16.36.16c.26,1.5.19,2.9-.02,4.09Z"/>
          </g>
          <path class="cls-24" d="m84.33,57.16c-.22.52-.47,1.05-.75,1.58-.29.56-.64,1.1-1.03,1.65-1.5,2.09-3.7,4.12-6.36,6.17-.93.72-1.91,1.43-2.93,2.16-2.56,1.8-5.39,3.63-8.34,5.53-.94.61-1.9,1.22-2.86,1.84-2.58,1.67-5.2,3.41-7.76,5.23-.94.67-1.88,1.36-2.8,2.06-2.19,1.66-4.3,3.39-6.27,5.22-.9.83-1.76,1.69-2.59,2.56-4.4,4.64-7.74,9.87-9.02,15.97.06-.37.12-.75.21-1.11l.34-1.55c.12-.52.27-1.03.41-1.54.26-1.03.62-2.02.95-3.03.18-.5.38-.99.58-1.48l.3-.74c.1-.25.22-.49.32-.73l.67-1.45c.24-.48.49-.94.73-1.42l.37-.71c.13-.23.27-.46.4-.69l.82-1.37c.29-.45.59-.89.89-1.33l.45-.66c.16-.22.32-.43.48-.64l.07-.09.89-1.19,1.03-1.23.52-.61.16-.18.38-.41,1.09-1.18,1.15-1.12.58-.56.6-.53,1.22-1.06.9-.71.37-.29.64-.5.54-.41,1.07-.8.32-.24,1.8-1.34c1.19-.89,2.36-1.77,3.51-2.65.38-.29.77-.59,1.15-.88.12-.09.25-.19.37-.28.7-.54,1.39-1.08,2.07-1.63.23-.18.46-.36.68-.54.11-.09.23-.18.34-.27.25-.2.5-.41.75-.61.25-.2.49-.4.74-.61,0,0,0,0,0,0,.25-.2.5-.41.74-.62.28-.23.55-.46.82-.69.2-.17.4-.34.6-.51.01-.01.02-.02.03-.03.2-.17.4-.35.6-.52.07-.06.15-.13.22-.2.2-.18.4-.35.59-.53.19-.17.38-.34.56-.51.04-.04.09-.08.13-.12.52-.48,1.03-.97,1.53-1.45.31-.31.62-.61.92-.92.67-.68,1.32-1.37,1.93-2.05.1-.11.19-.22.29-.33.24-.28.48-.55.71-.83.1-.11.19-.23.28-.35.19-.23.37-.47.55-.7.08-.11.16-.21.24-.32.02-.03.05-.06.07-.09.07-.1.15-.2.22-.29.09-.12.17-.24.25-.35.08-.12.16-.23.24-.35.03-.05.06-.09.09-.14.3-.45.58-.89.82-1.33.2-.36.39-.71.55-1.06.05-.11.1-.22.15-.33.03-.07.06-.14.09-.21.39-.94.59-1.75.63-2.37.02-.31.01-.58-.02-.83v-.02s0-.04,0-.04v-.1s-.04-.19-.04-.19l-.05-.38-.02-.19-.04-.18-.07-.35c-.02-.08-.03-.16-.05-.23h0c-.02-.09-.04-.17-.06-.25,0-.03-.02-.07-.03-.1-.02-.07-.04-.14-.06-.2,0-.03-.01-.05-.02-.08-.03-.08-.05-.16-.07-.24-.02-.07-.04-.14-.07-.2-.02-.07-.05-.14-.07-.2-.11-.3-.22-.57-.35-.84l-.06-.12s-.03-.09-.06-.12c-.05-.07-.09-.15-.13-.23-.07-.17-.19-.3-.27-.46-.02-.04-.04-.08-.06-.11,0,0,0,0,0,0-.03-.04-.06-.07-.08-.11-.05-.07-.1-.15-.15-.22-.05-.08-.12-.14-.18-.21-.06-.07-.11-.15-.18-.22-.23-.26-.5-.53-.79-.79-.06-.05-.12-.11-.18-.16-.06-.05-.11-.09-.17-.14-.12-.1-.25-.2-.39-.3-.06-.04-.11-.08-.17-.13-.1-.08-.21-.15-.32-.23-.22-.14-.43-.29-.68-.42-.23-.15-.49-.27-.73-.42-.52-.26-1.06-.53-1.64-.78-.58-.24-1.18-.48-1.8-.7-.16-.06-.31-.11-.46-.16l-.46-.16-.22-.08-.21-.08c-.07-.03-.14-.05-.19-.07-.02-.01-.07-.03-.08-.04,0-.01-.06-.03.02-.04l-.6-1.86c3.54-2.8,5.82-4.49,5.82-4.49,0,0,6.19,3.14,9.93,8.7.63.93,1.19,1.93,1.64,2.99.54,1.28.92,2.65,1.07,4.11.24,2.24-.07,4.69-1.17,7.33Z"/>
          <path class="cls-26" d="m72.03,96.87s0,0,0,0c0,0,0-.02,0-.02,0,0,0,.01,0,.02Z"/>
          <path class="cls-22" d="m33.04,113.24c0-.28,0-.56.02-.83,0,.29,0,.56-.02.83Z"/>
          <path class="cls-26" d="m57.1,95.86s-.09.09-.13.13c-2.48,2.53-4.5,5.51-5.91,8.73-2.43-3.59-1.04-10.84-1.04-10.84,0,0,4.02.73,7.08,1.97Z"/>
          <path class="cls-13" d="m84.43,45.73c-2.28,1.54-4.47,2.58-6.41,3.27-.19-.82-.44-1.51-.72-2.11l-.06-.12s-.03-.09-.06-.12c-.05-.07-.09-.15-.13-.23-.07-.17-.19-.3-.27-.46-.02-.04-.04-.08-.06-.11,2.13-.73,4.16-1.77,6.08-3.11.63.93,1.19,1.93,1.64,2.99Z"/>
          <path class="cls-13" d="m84.33,57.16c-.22.52-.47,1.05-.75,1.58-.29.56-.64,1.1-1.03,1.65-2.98-.38-5.51-1.15-7.57-2.02.37-.48.71-.95,1.03-1.41.34-.5.65-.99.91-1.47,2.31.92,4.79,1.48,7.41,1.68Z"/>
          <path class="cls-13" d="m76.2,66.57c-.93.72-1.91,1.43-2.93,2.16-1.83-1.22-3.32-2.52-4.5-3.73l2.46-2.37c1.46,1.52,3.12,2.83,4.97,3.94Z"/>
          <path class="cls-13" d="m64.93,74.25c-.94.61-1.9,1.22-2.86,1.84-.91-1.3-1.63-2.55-2.19-3.7.93-.72,1.85-1.44,2.75-2.17.63,1.41,1.39,2.75,2.29,4.02Z"/>
          <path class="cls-13" d="m54.31,81.33c-.94.67-1.88,1.36-2.8,2.06-.59-1.27-1.04-2.48-1.38-3.6l2.93-2.23c.31,1.29.73,2.54,1.25,3.77Z"/>
          <path class="cls-13" d="m45.24,88.6c-.9.83-1.76,1.69-2.59,2.56-.42-.89-.76-1.76-1.05-2.58l.89-1.19,1.03-1.23.52-.61.16-.18c.27,1.1.61,2.18,1.04,3.24Z"/>
          <g>
            <path class="cls-24" d="m60.24,45.42s2.19,4.51-3.25,7.85c-5.43,3.34-7.24,5.36-5.98,9.94,0,0-1.07-4.43,2.96-6.2,4.03-1.77,10.04-3.45,9.86-9.52-.18-6.07-3.75-2.51-3.59-2.07Z"/>
            <path class="cls-26" d="m57.04,37.22s8.77-15.78,9.59-9.19c.25,2.01,9.02-6.98,10.73-6.03,2.03,1.12-6.41,9.79-4.47,10.2,1.94.41,7.65-3.5,7.87-1.15.22,2.34-9.28,8.56-7.89,9.88,1.38,1.32,7.16-1.36,8.04.15.87,1.52-12.13,5.93-10.45,7.84,1.68,1.91,6.55.06,6.54,1.45,0,1.4-14.42,2.66-12.56,4.56s2.94,2.62-1.03,4.86c-3.97,2.24,2.52,1.34,3.03,2.62.51,1.28-6.89,1.22-9.46,2.38-2.57,1.15-2.28-4.67,2.37-7.29,4.65-2.62,5.69-8.79,4.77-11.01-.91-2.22-7.08-9.28-7.08-9.28Z"/>
            <path class="cls-11" d="m43.96,58.94s2.33,4.11,7.94,2.51c0,0-2.21-1.04-4.13-4.07-1.92-3.03-3.81,1.56-3.81,1.56Z"/>
            <path class="cls-7" d="m53.91,62.28s-3.07-.97-2.81-4.93c0,0,1.01,1.33,3.3,2.17,2.3.85-.49,2.76-.49,2.76Z"/>
            <path class="cls-24" d="m70.62,38.21c-.69,2.19.21,7.66-3.16,8.73-2.18.69-1.71,2.61-2.1,4.7,0,0,0,.02,0,.05-.22,1.12-.69,2.29-1.96,3.34-3.67,3-6.47,4.74-5.23,7.11,1.02,1.96-.55,4.22-2.95,3.98t0,0c-.51-.05-1.05-.22-1.62-.52-2.16-1.16-1.99-2.68-.75-4.45.04-.06.08-.11.12-.17.46-.62,1.04-1.27,1.69-1.95.22-.23.44-.45.68-.69,2.97-2.96,5.49-3.58,6.84-7.43.11-.33.75-3.07-1.68-3.86-2.43-.79-4.36,2.11-7.11,6.87-2.75,4.75-5.35,4.09-8.71,6.32-1.69,1.12-2.59,1.14-3.28.5,0,0,0,0,0,0-.67-.63-1.14-1.91-1.94-3.39-1.63-2.99-1.02-5.64,4.51-4.51,5.53,1.13,4.48-3.86,6.21-5.71,1.73-1.84-3.21-.63-1.04-5.41,2.17-4.78,8.82-10.4,11.35-14.96,2.53-4.57,1.18-8.73,2.2-8.15.27.15.66.93.99,2.11.05.18.1.37.15.57,0,.02.01.05.02.08.83,3.43,1.14,9.32-2.03,13.52,0,0,4.24-2.11,6.34-4.96.37-.5.68-.71.93-.69t0,0c1.16.1.77,5.37-2.9,9.83,0,0,2.25-.96,3.79-3.2,1.54-2.24,1.33.16.64,2.35Z"/>
            <path class="cls-26" d="m51.43,25.41c.1.1.21.21.32.33l-.32-.33Z"/>
            <g>
              <path class="cls-23" d="m55.43,12.91c0,4.07,1.82,7.28,1.23,13.19-.59,5.91-.75,8.19.45,9.81,1.2,1.62-1.37,4.5-4.14,3.84-1.08-.25-1.5-1.08-1.19-5.11.31-4.03.5-8.87-2.61-9.8,0,0,.74-.91,2.26.56h0c.1.1.21.21.32.34,0,0,0,0,.01.02,1.73,1.94,1.9,6.21,1.9,6.21,0,0,1.3-6.88,1.09-11.52-.15-3.28-1.09-8.18.53-11.22.14-.25.29-.5.46-.72,0,0,0,0,.01-.01.03-.03.05-.06.07-.09.68-.84,1.64-1.45,3-1.74-.2.06-3.42,1.13-3.41,6.25Z"/>
              <path class="cls-26" d="m55.37,17.38c.66,3.85.93,6.97.13,11.34-.8,4.36.8,9.33-.98,9.92-.21.07-.4.07-.57,0-.92-.36-1.12-2.7-.77-6.34.38-4.07-1.24-6.31-1.41-6.53,1.73,1.94,1.9,6.21,1.9,6.21,0,0,1.3-6.88,1.09-11.52-.03-.66-.09-1.39-.16-2.16-.26-3.03-.6-6.64.69-9.06-.86,1.81-.5,4.81.08,8.15Z"/>
              <path class="cls-26" d="m54.72,28.06c-.6,4.46-1.98,9.29-.77,10.57-.92-.36-1.12-2.7-.77-6.34.38-4.07-1.24-6.31-1.41-6.53,1.73,1.94,1.9,6.21,1.9,6.21,0,0,1.3-6.88,1.09-11.52-.03-.66-.09-1.39-.16-2.16h0s.81,4.57.11,9.76Z"/>
            </g>
            <path class="cls-26" d="m60.46,45.32c-2.82-1.02-4.47,2.83-5.72,5.49-.02.03-.02.05-.02.05-.26.56-.51,1.07-.75,1.46-1.2,2.01-3.08,4.44-5.86,5.8,0,0,0,0-.01,0-.06.03-.13.06-.19.09-.28.13-.57.25-.87.35-3.38,1.2-2.96,2.31-5.03,5.09-1.95,2.62-3.2,1.84-3.33,1.74.68.64,1.58.63,3.28-.5.82-.54,1.6-.92,2.34-1.24,2.3-.99,4.29-1.49,6.37-5.08,2.75-4.76,4.68-7.66,7.11-6.87,2.43.79,1.79,3.53,1.68,3.86-1.35,3.86-3.87,4.47-6.84,7.43-.23.23-.46.46-.68.69,2.57-2.43,6.14-4.18,8.18-6.92,2.55-3.42,3.77-10.21.34-11.45Zm-.26,9.08c.6-3.87-2.56-4.21-2.56-4.21,5.02-1.58,2.64,4.03,2.56,4.21Z"/>
            <path class="cls-26" d="m62.83,52.11c2.62-3.82,2.33-9.78-.6-10.39-2.44-.51-4.53,3.96-4.78,4.44,1.25-2.66,2.9-6.51,5.72-5.49,3.43,1.24,2.21,8.03-.34,11.45Z"/>
            <path class="cls-26" d="m47.01,59c-.74.32-1.52.69-2.34,1.24-1.69,1.12-2.59,1.14-3.28.5.14.1,1.39.89,3.33-1.74,2.06-2.78,1.65-3.89,5.03-5.09.3-.11.59-.22.87-.35-.93.47-4.75,2.58-3.61,5.44Z"/>
            <path class="cls-26" d="m42.66,53.27c-.41-.01-.73.13-.99.37-.31.3-.52.74-.65,1.2-.26.89-.26,1.82-.26,1.82-.46-1-.66-1.73-.68-2.26-.03-.67.2-1.04.54-1.22.76-.41,2.04.08,2.04.08Z"/>
            <path class="cls-26" d="m41.67,53.65c-.31.3-.52.74-.65,1.2-.32-.14-.63-.29-.94-.44-.61-.3-1.21-.61-1.81-.93-.97-.53-1.92-1.11-2.84-1.74-.91-.64-1.8-1.33-2.59-2.18-.39-.42-.75-.88-1.05-1.4-.15-.26-.27-.54-.37-.84-.1-.3-.16-.62-.17-.94-.04-.65.18-1.31.52-1.83.34-.53.79-.93,1.25-1.28.46-.35.97-.63,1.45-.89l.7-.38.68-.41c.89-.57,1.72-1.23,2.38-2.03.66-.78,1.13-1.73,1.22-2.74.11-1.01-.18-2.04-.63-2.98-.47-.94-1.11-1.81-1.82-2.6-.71-.8-1.5-1.54-2.33-2.24-.41-.35-.83-.69-1.26-1.02-.21-.16-.43-.34-.65-.51-.11-.08-.21-.18-.31-.27-.1-.1-.21-.18-.3-.28-.4-.39-.75-.82-1.06-1.29-.3-.47-.53-.99-.67-1.53-.13-.54-.16-1.12-.06-1.67.09-.55.31-1.08.59-1.55.58-.95,1.46-1.67,2.42-2.19.96-.51,2.04-.82,3.12-.9-1.08.11-2.14.44-3.08.98-.94.53-1.77,1.27-2.31,2.2-.27.46-.45.97-.53,1.49-.08.52-.04,1.06.1,1.57.14.51.37.99.67,1.43.3.44.65.84,1.04,1.2.09.1.2.18.3.26.1.09.2.18.31.26.22.16.42.32.65.49.44.32.88.65,1.31.99.86.68,1.68,1.42,2.43,2.22.76.8,1.45,1.68,1.98,2.68.27.5.47,1.03.62,1.58.15.55.2,1.14.16,1.72-.04.58-.17,1.16-.41,1.69-.23.53-.53,1.04-.89,1.47-.71.9-1.59,1.63-2.51,2.26l-.7.45-.72.42c-.47.27-.91.53-1.31.84-.39.31-.75.67-.99,1.07-.13.2-.21.4-.27.61-.06.21-.08.43-.06.65.01.22.06.44.14.66.08.22.18.43.31.64.25.42.57.81.93,1.17.72.73,1.57,1.37,2.45,1.95.89.58,1.82,1.11,2.77,1.6.58.29,1.16.58,1.75.85.35.16.7.31,1.05.46Z"/>
            <path class="cls-26" d="m55.49,41.81h0c.59,1.64,1.19,4.18-.29,5.19-1.69,1.15-3.58-.5-4.43-1.4-.28-.3-.45-.52-.45-.52,0,0,.31-.12.76-.36.95-.51,2.56-1.56,3.38-3.25.17-.35.31-.73.4-1.13,0,0,.31.61.62,1.47Z"/>
            <path class="cls-13" d="m54.47,41.48c.09,1.1.13,3.35-1.04,3.84-.07.03-.14.05-.21.07-.02,0-.04,0-.06.01-.19.03-.4.03-.64-.02-.04,0-.08-.02-.13-.03-.07-.02-.15-.04-.23-.07-.32-.11-.68-.3-1.09-.56.95-.51,2.56-1.56,3.38-3.25Z"/>
            <path class="cls-26" d="m53.43,45.32c-.07.03-.14.05-.21.07-.02,0-.04,0-.06.01-.19.03-.4.03-.64-.02-.22-.62-.28-1.08-.13-1.15.18-.09.6.37,1.03,1.09Z"/>
            <path class="cls-26" d="m55.49,41.81h0c.59,1.64,1.19,4.18-.29,5.19-1.69,1.15-3.58-.5-4.43-1.4,0,0,2.09,1.99,3.7.92,1.61-1.07,1.01-4.71,1.01-4.71,0,0,0,0,0,0Z"/>
            <path class="cls-26" d="m69.09,29.23c-.95.22-.39.64-2.77,4.05-2.38,3.41-6.7,6.36-7.67,5.42-.46-.45-.19-1.2.5-2.42,0,0,0,0,0-.01.07-.13.15-.27.23-.4,0,0,0,0,0,0,0,0,0,0,0-.01,0,0,0,0,0,0,.78-1.33,1.94-3.15,3.17-5.61,1.99-4.01,1.57-7.47,1.27-8.87.83,3.43,1.14,9.32-2.03,13.52,0,0,1.47-.73,3.12-1.92,1.14-.82,2.37-1.87,3.23-3.04.37-.5.68-.71.93-.69Z"/>
            <path class="cls-26" d="m69.09,29.23c-.95.22-.39.64-2.77,4.05-2.38,3.41-6.7,6.36-7.67,5.42-.46-.45-.19-1.2.5-2.42-.3.58-.64,1.56.2,1.81.98.29,3.89-2.45,5.58-5.13,1.14-.82,2.37-1.87,3.23-3.04.37-.5.68-.71.93-.69Z"/>
            <path class="cls-16" d="m48.83,61.24c-.08.26-.74.29-1.48.07-.74-.22-1.28-.61-1.2-.87.08-.26.74-.29,1.48-.07.74.22,1.28.61,1.2.87Z"/>
            <path class="cls-16" d="m52.38,60.63c-.16.08-.49-.23-.73-.69-.24-.47-.3-.91-.14-.99.16-.08.49.23.73.69.24.47.3.91.14.99Z"/>
            <path class="cls-26" d="m65.36,51.69c-.22,1.12-.69,2.29-1.96,3.34-3.67,3-6.47,4.74-5.23,7.11,1.02,1.96-.55,4.22-2.95,3.98,2.73-.12,2.4-2.32,1.04-4.68-1.36-2.36.72-4.31,4.69-5.69,3.66-1.27,4.33-3.69,4.41-4.06Z"/>
          </g>
          <path class="cls-26" d="m96.89,53.54c-.16,1.24-.41,2.42-.73,3.55-.03.11-.06.22-.1.34-.4,1.32-.89,2.57-1.43,3.73-1.05,2.24-2.28,4.19-3.57,5.97-.76,1.04-1.55,2.03-2.36,2.97-.07.09-.15.18-.23.26-.49.56-.98,1.11-1.48,1.64-1.4,1.49-2.82,2.88-4.27,4.19-.41.37-.82.73-1.22,1.09-.09.08-.18.16-.27.23-2.41,2.1-4.86,4.04-7.31,5.89-.55.41-1.1.83-1.65,1.23-.1.07-.2.15-.3.22-1.01.74-2.03,1.47-3.04,2.19-.1.07-.2.14-.29.21-1.2.85-2.39,1.68-3.58,2.5l-2.18,1.51-.92.64c-.74-2.92-.08-5.38-.08-5.38,0,0,5.5,1.77,17.16-9.51,11.67-11.28,16.26-14.44,17.84-23.47Z"/>
          <g>
            <path class="cls-19" d="m68.58,110.72c-.14,0-.28.02-.43.02-3.14.12-2.86,1.4-4.49,3.36-.14.16-.25.33-.36.51-1.1,1.89-.27,4.19-1.75,4.33-1.62.15-1.26-1.67-1.36-3.35-.03-.58.15-1.17.39-1.69h0c.48-1,1.21-1.77,1.21-1.77,0,0-.92.17-2.26,1.12-.02.02-.05.03-.07.05-1.25.96-.72,2.79-1.91,2.91-1.76.1-1.3-2.14-.95-3.32.14-.48.65-1.01,1.21-1.46.83-.68,1.78-1.21,1.78-1.21-.51-.24-.94-.31-1.32-.28-1.56.14-2.12,2.08-3.18,1-.93-.95-.02-2.29,1.44-3.34.33-.24.72-.35,1.14-.38,1.83-.11,4.31,1.39,5.27,1.58,1.18.22,3.81-4.47,2.72-6.32-.35-.59-1.24-.89-2.43-1.07h0c-2.57-.41-6.48-.3-9.05-1.46-3.76-1.7-4.29-6.85-4.29-6.85.7-7.02,12.34-8.86,12.91-6.15.56,2.7-.55,5.56,4.2,8.31,1.07.62,1.89,1.16,2.51,1.68,0,0,0,0,0,0,2.14,1.77,1.86,3.11.68,5.34-1.52,2.88-3.64,5.5-2.47,5.49.2,0,.43-.01.7-.03,1.3-.06,3.19-.15,3.42.84.28,1.21-.47,1.98-3.25,2.15Z"/>
            <g>
              <path class="cls-1" d="m60.6,118.03c.09,2.78,1.05,6.35,1.15,5.76.51-3.09.54-5.22.53-5.64-.01-.43-.45-.63-.91-.66-.46-.03-.78.12-.76.54Z"/>
              <path class="cls-16" d="m60.84,119.57c-.08-.69.02-1.2.1-1.2.08,0,.12.54.2,1.23.08.69.16,1.28.08,1.28-.08,0-.3-.62-.38-1.31Z"/>
            </g>
            <g>
              <path class="cls-10" d="m56.52,115.02c-.08,2.78.66,6.4.79,5.82.7-3.06.86-5.17.87-5.6.01-.43-.41-.66-.87-.72s-.78.07-.79.5Z"/>
              <path class="cls-16" d="m56.66,116.56c-.03-.7.09-1.19.17-1.19.08,0,.09.54.12,1.24s.08,1.29,0,1.29c-.08,0-.27-.63-.3-1.33Z"/>
            </g>
            <g>
              <path class="cls-28" d="m55.08,109.46c-1.61,2.26-3.02,5.68-2.59,5.28,2.29-2.15,3.6-3.82,3.84-4.17.25-.35.03-.77-.32-1.08-.35-.31-.69-.38-.93-.03Z"/>
              <path class="cls-16" d="m54.34,110.83c.36-.6.74-.94.81-.89s-.23.5-.59,1.1c-.36.6-.65,1.11-.71,1.07s.13-.67.49-1.27Z"/>
            </g>
            <g>
              <path class="cls-4" d="m71.11,108.4c2.1.48,4.65,1.92,4.19,1.94-2.45.07-4.08-.2-4.4-.28s-.4-.53-.34-.99c.06-.46.23-.75.55-.67Z"/>
              <path class="cls-16" d="m72.24,108.85c-.52-.17-.92-.15-.94-.07-.02.08.39.19.9.37.52.17.95.34.96.26.02-.08-.42-.39-.93-.56Z"/>
            </g>
            <path class="cls-24" d="m69.51,96.92c.21.23,4.01,4.39-6.28,4.47,1.19.19,2.08.49,2.43,1.07.61,1.04.06,2.97-.76,4.43,0,0,0,.01,0,.02-.64,1.13-1.43,1.98-1.95,1.88-.96-.18-3.44-1.68-5.27-1.58.68.26,1.25.94.6,2.71.38-.04.81.03,1.32.28,0,0-.95.53-1.78,1.21.62.11,1.74.5,1.65,1.87.02-.02.04-.03.07-.05,1.34-.95,2.26-1.12,2.26-1.12,0,0-.73.77-1.21,1.77.73-.33,1.7-.45,2.71.72.1-.17.22-.34.36-.51.09-.11.17-.21.25-.31,0,0,0,0,.01-.02,1.35-1.77,1.27-2.91,4.23-3.03.15,0,.29-.01.43-.02h0s-.95-1.81-.17-2.99c-.26.01-.5.03-.7.03-1.16,0,.95-2.61,2.47-5.49.31-.59.56-1.12.72-1.61,0,0,0,0,0,0,0,0,0-.01,0-.02.43-1.35.16-2.41-1.41-3.71Zm-6.03,15.22c-.72.7-1.31,1.25-1.61,1.06-.3-.19.04-.91.76-1.6.72-.7,1.55-1.1,1.85-.91.3.19-.28.76-1,1.45Zm-3.4-1.28c-.51.31-.92.56-1.07.41-.15-.15.14-.52.65-.83.51-.31,1.04-.44,1.19-.29.15.15-.26.4-.77.71Z"/>
            <path class="cls-26" d="m64.89,106.91c-1.2,2.24-1.75,2.51-2.8,2.46-1.05-.05-2.5.83-2.5.83-.51-.24-.94-.31-1.32-.28.65-1.78.08-2.46-.6-2.71,1.83-.11,4.31,1.39,5.27,1.58.51.1,1.31-.75,1.95-1.88Z"/>
            <path class="cls-26" d="m70.91,100.65c-.16.49-.41,1.02-.72,1.61-1.52,2.88-3.64,5.5-2.47,5.49.2,0,.43-.01.7-.03-.78,1.18.17,2.99.17,2.99h0c-.14,0-.28.02-.43.02-2.96.11-2.88,1.26-4.23,3.03.12-.17,1.12-1.63,1.65-3.39.57-1.87,0-2.67,1.4-4.78,1.41-2.11,2.92-2.13,3.93-4.94Z"/>
          </g>
          <path class="cls-12" d="m55.02,95.32c.97,1.48,1.14,3.09.38,3.59-.76.5-2.17-.29-3.14-1.77-.97-1.48-1.14-3.09-.38-3.59.76-.5,2.17.29,3.14,1.77Z"/>
          <path class="cls-12" d="m58.13,97.16c.57.28.91.75.76,1.04-.15.29-.72.3-1.29.01-.57-.28-.91-.75-.76-1.04.15-.29.72-.3,1.29-.01Z"/>
          <path class="cls-12" d="m62.5,90.51c.14.91-.12,1.71-.59,1.78-.47.07-.97-.61-1.11-1.52-.14-.91.12-1.71.59-1.78.47-.07.97.61,1.11,1.52Z"/>
          <path class="cls-26" d="m141.87,98.83c-1.37,1.91-3.01,3.6-4.81,5.1-11.27,9.37-14.88,15.88-11.72,21.95,0,0,0,.01,0,.02-.3-.52-.55-1.08-.73-1.65-.11-.27-.16-.54-.23-.82-.07-.27-.14-.55-.16-.82-.03-.27-.08-.55-.1-.83l-.02-.82c.01-1.08.14-2.15.41-3.14.31-1.25.76-2.42,1.3-3.53.05-.1.1-.2.15-.3.29-.57.6-1.11.92-1.65,1.01-1.66,2.17-3.18,3.41-4.59.3-.37.63-.7.95-1.05l.48-.52.49-.5.97-.97.86-.88c.29-.29.56-.59.82-.9.08-.09.17-.19.25-.28.09-.1.17-.19.26-.29.1-.12.2-.23.3-.35.5-.64,1.03-1.25,1.48-1.91.96-1.29,1.79-2.66,2.54-4.04l.05-.1.16-.3.33-.65c.17-.35.32-.71.48-1.07l.24-.53.2-.54.2-.54c.07-.18.14-.36.19-.55.78-2.35,1.23-4.77,1.22-7.11,0-.14,0-.29,0-.43-.01-.41-.04-.83-.08-1.24l-.05-.53c-.02-.18-.05-.34-.08-.51-.02-.17-.06-.33-.1-.5-.03-.17-.07-.33-.11-.49-.16-.66-.37-1.3-.63-1.91-.23-.55-.5-1.09-.8-1.61-.04-.06-.07-.12-.11-.18-.03-.04-.05-.09-.08-.13-.33-.52-.69-1.02-1.09-1.5-.43-.51-.9-1-1.4-1.44-.51-.44-1.04-.85-1.6-1.22-1.03-.69-2.16-1.22-3.32-1.62h0c-.1-.03-.2-.07-.31-.1-.03-.01-.06-.02-.09-.03-.61-.19-1.24-.32-1.87-.43-.33-.06-.66-.09-1-.13l-.5-.04-.54-.02c-1.45-.05-2.85.05-4.18.32-.74.15-1.46.35-2.16.6-.11.04-.22.08-.33.12-1.51.58-2.93,1.4-4.27,2.43-.1.08-.2.16-.3.24-.06.05-.12.1-.18.15-1.09.9-2.13,1.93-3.11,3.06-.97,1.14-1.89,2.38-2.76,3.69-.17.27-.35.53-.53.8l-.18.3-.55.9c-.4.69-.81,1.38-1.19,2.09-.02.04-.04.07-.06.11-.06.11-.12.22-.18.33-.31.57-.6,1.15-.9,1.72-.18.36-.36.74-.54,1.1l-.27.55-.26.56-.52,1.12-.5,1.14-.25.57-.24.57-.09.22-.14.33-.26.6c-.63,1.55-1.26,3.1-1.85,4.68-.12.31-.24.63-.35.94-.04.11-.08.22-.12.33.1-.39,6.82-25.47,21.11-32.46,5.44-2.66,11.96-2.04,16.79,1.61,8.6,6.51,8.61,19.24,1.27,29.48Z"/>
          <path class="cls-26" d="m93.5,120.4c-.69,1.14-1.43,2.27-2.19,3.39-.57.8-1.12,1.6-1.74,2.38-.3.39-.6.79-.91,1.17l-.96,1.15c-.31.39-.67.76-1.01,1.13-.35.38-.68.76-1.05,1.12l-.37.37-.29.29-.44.44-1.16,1.06c-.38.36-.8.69-1.21,1.03-.41.34-.82.68-1.26.99-.44.32-.87.64-1.32.95l-1.38.9c-1.79,1.09-3.71,2.05-5.75,2.82-.11.04-.21.08-.32.12,0,0-.01,0-.02,0-2.16.79-4.45,1.31-6.75,1.59l-.86.1c-.29.03-.58.04-.86.06l-.86.05-.43.02c-.15,0-.29,0-.43,0l-1.72-.02c-.56-.04-1.13-.08-1.7-.12l-.42-.03c-.14-.01-.28-.04-.42-.05l-.83-.11-.83-.12c-.28-.04-.54-.1-.82-.15-.54-.11-1.08-.21-1.63-.33l-.07-.02-.43-.11-1.15-.3-.41-.11-.1-.03-.12-.04-.25-.08c-.32-.11-.67-.23-.97-.35l-.88-.36c-.29-.12-.58-.26-.87-.39-1.15-.55-2.25-1.17-3.29-1.87-1.04-.71-2.01-1.48-2.92-2.31-.27-.25-.54-.5-.8-.76-.09-.09-.18-.18-.27-.28-.51-.52-.99-1.06-1.44-1.61-.77-.93-1.47-1.91-2.1-2.91-.63-1.01-1.2-2.04-1.68-3.11-.62-1.34-1.14-2.72-1.55-4.13-.04-.12-.07-.23-.1-.35h0c-.2-.71-.37-1.42-.51-2.14-.22-1.14-.39-2.28-.48-3.44-.02-.21-.03-.43-.04-.64-.01-.17-.02-.35-.03-.52-.02-.48-.03-.96-.02-1.45,0-.01,0-.03,0-.04,0-.28,0-.56.02-.83l.05-.87v-.22s.03-.2.03-.2l.04-.4s-.65,19.24,18.59,25.25c19.23,6.01,33.71-4.11,41.74-15.57Z"/>
          <g>
            <g>
              <path class="cls-27" d="m117.39,120.05c-.1.1-.2.2-.31.31-2.25,2.18-1.19,2.95-1.1,5.5,0,.21.03.42.07.61.44,2.14,2.6,3.29,1.59,4.39-1.1,1.2-2.06-.4-3.25-1.59-.41-.41-.67-.97-.84-1.52h0c-.31-1.07-.28-2.13-.28-2.13,0,0-.57.74-.94,2.34,0,.03-.01.06-.02.08-.29,1.55,1.33,2.56.52,3.45-1.24,1.25-2.39-.73-2.92-1.84-.22-.46-.19-1.18-.08-1.9.16-1.06.52-2.09.52-2.09-.54.16-.91.4-1.17.68-1.06,1.15-.19,2.97-1.69,2.87-1.32-.09-1.54-1.69-1.16-3.44.09-.39.3-.74.6-1.04,1.29-1.3,4.14-1.84,4.97-2.35,1.03-.62-.15-5.87-2.2-6.52-.65-.2-1.52.17-2.53.82h0c-2.18,1.42-5.02,4.11-7.71,4.97-3.94,1.25-7.77-2.23-7.77-2.23-4.17-5.69,3.27-14.84,5.49-13.2,2.22,1.63,3.3,4.5,8.68,3.37,1.21-.25,2.18-.4,2.99-.43,0,0,0,0,0,0,2.78-.12,3.46,1.07,4.08,3.52.79,3.16.97,6.53,1.83,5.74.15-.13.31-.3.5-.49.92-.91,2.27-2.24,3.1-1.66,1.02.71.97,1.79-.98,3.77Z"/>
              <g>
                <path class="cls-9" d="m116.34,130.82c1.92,2,5.02,4.03,4.7,3.52-1.68-2.65-3.08-4.24-3.38-4.55-.3-.31-.75-.17-1.12.11-.37.28-.5.6-.2.91Z"/>
                <path class="cls-16" d="m117.54,131.8c-.52-.47-.79-.9-.73-.96.06-.06.45.32.97.78.52.47.97.84.92.9-.06.06-.64-.26-1.16-.72Z"/>
              </g>
              <g>
                <path class="cls-6" d="m111.28,131.3c1.8,2.12,4.77,4.33,4.48,3.81-1.52-2.74-2.82-4.42-3.09-4.75s-.74-.22-1.13.05c-.38.26-.54.57-.26.9Z"/>
                <path class="cls-16" d="m112.42,132.36c-.49-.5-.73-.95-.67-1.01.06-.05.43.35.92.84.49.5.92.9.86.95-.06.05-.62-.29-1.11-.79Z"/>
              </g>
              <g>
                <path class="cls-18" d="m106.51,128.13c.31,2.76,1.55,6.25,1.6,5.66.27-3.12.12-5.24.08-5.67-.05-.43-.5-.59-.96-.59-.46,0-.76.18-.72.6Z"/>
                <path class="cls-16" d="m106.87,129.65c-.13-.69-.08-1.2,0-1.21.08-.01.16.53.29,1.21s.26,1.26.18,1.27c-.08.01-.35-.59-.48-1.28Z"/>
              </g>
              <g>
                <path class="cls-14" d="m117.73,116.63c1.89-1.05,4.75-1.68,4.41-1.36-1.78,1.69-3.17,2.57-3.46,2.73-.29.16-.65-.13-.91-.51s-.33-.71-.04-.87Z"/>
                <path class="cls-16" d="m118.87,116.21c-.5.22-.78.5-.74.57.04.07.42-.11.92-.33.5-.22.93-.38.89-.45-.04-.07-.57,0-1.07.21Z"/>
              </g>
              <path class="cls-24" d="m108.86,109.16c.31.03,5.92.59-1.68,7.52,1.01-.65,1.88-1.03,2.53-.82,1.15.36,2.03,2.17,2.39,3.8,0,0,0,.01,0,.02.28,1.27.25,2.43-.19,2.7-.83.5-3.68,1.04-4.97,2.35.68-.26,1.56-.14,2.26,1.62.26-.28.62-.52,1.17-.68,0,0-.35,1.03-.52,2.09.54-.34,1.63-.79,2.48.29,0-.03,0-.06.02-.08.36-1.6.94-2.34.94-2.34,0,0-.03,1.06.28,2.12.32-.74.97-1.47,2.5-1.28-.04-.2-.07-.4-.07-.61,0-.14-.01-.27-.02-.4,0,0,0,0,0-.02-.18-2.22-1-3.02,1.12-5.08.11-.1.21-.21.31-.31h0s-1.92-.71-2.12-2.11c-.19.19-.36.35-.5.49-.86.78-1.04-2.58-1.83-5.74-.16-.65-.33-1.21-.54-1.68,0,0,0,0,0,0,0,0,0-.01,0-.02-.58-1.29-1.49-1.9-3.52-1.82Zm5.69,15.35c-.07,1-.14,1.81-.49,1.87-.35.06-.58-.71-.5-1.7.07-1,.42-1.85.77-1.91.35-.06.3.75.22,1.75Zm-3.39,1.32c-.17.57-.31,1.03-.52,1.02-.21-.01-.24-.48-.07-1.05.17-.57.48-1.02.69-1.01.21.01.08.48-.1,1.05Z"/>
              <path class="cls-26" d="m112.1,119.68c.6,2.47.37,3.04-.44,3.7-.81.67-1.3,2.29-1.3,2.29-.54.16-.91.4-1.17.68-.7-1.76-1.58-1.88-2.26-1.62,1.29-1.3,4.14-1.84,4.97-2.35.45-.27.48-1.43.19-2.7Z"/>
              <path class="cls-26" d="m112.4,111c.21.47.38,1.03.54,1.68.79,3.16.97,6.53,1.83,5.74.15-.13.31-.3.5-.49.2,1.4,2.12,2.11,2.12,2.11h0c-.1.1-.2.2-.31.31-2.12,2.06-1.3,2.86-1.12,5.08-.02-.21-.26-1.97-1.03-3.63-.83-1.77-1.79-1.99-2.15-4.5-.36-2.51.75-3.54-.38-6.3Z"/>
            </g>
            <path class="cls-12" d="m95.08,116.23c.97,1.48,1.14,3.09.38,3.59-.76.5-2.17-.29-3.14-1.77-.97-1.48-1.14-3.09-.38-3.59.76-.5,2.17.29,3.14,1.77Z"/>
            <path class="cls-12" d="m98.2,118.08c.57.28.91.75.76,1.04-.15.29-.72.3-1.29.01-.57-.28-.91-.75-.76-1.04s.72-.3,1.29-.01Z"/>
            <path class="cls-12" d="m102.1,110.79c.82.41,1.32,1.1,1.11,1.52-.21.42-1.06.43-1.88.02-.82-.41-1.32-1.1-1.11-1.52.21-.42,1.06-.43,1.88-.02Z"/>
          </g>
          <path class="cls-8" d="m158.72,139.95c-2.14.79-4.52.88-7.18-1.83-3.86-3.94-5.18-3.1-5.18-3.1,1.28,1.09,1.69,2.06,1.43,4.41-.26,2.35,4.05,4.41.87,3.79-3.18-.62-2.59-5.59-7.63-6.72-1.81-.41-2.69-1.42-3.08-2.54v-.02s-.01-.02-.01-.02c0,.02.03.07.07.15.28.53,1.32,2.17,3.5,1.79,2.59-.46,3.63-3.7,6.72-3.01,4.08.9,4.54,8.52,10.48,7.11Z"/>
        </g>
        <path class="cls-20" d="m110.02,71.15c-1.25-.87-4.58,1.78-7.44,5.91-2.85,4.13-4.15,8.18-2.9,9.05,1.25.87,3.81-2.33,6.66-6.45,2.85-4.13,4.93-7.63,3.67-8.5Z"/>
        <path class="cls-29" d="m112.44,59.24c-.47-.32-1.71.66-2.77,2.2-1.06,1.54-1.55,3.05-1.08,3.37.47.32,1.42-.87,2.48-2.4s1.84-2.84,1.37-3.17Z"/>
        <path class="cls-29" d="m100.11,42.66c.43-.37-.22-1.82-1.45-3.23-1.23-1.41-2.57-2.25-3-1.88-.43.37.49,1.59,1.72,3,1.23,1.41,2.3,2.48,2.73,2.11Z"/>
        <path class="cls-29" d="m79.04,31.59c-.24-.51-1.81-.28-3.5.53s-2.86,1.87-2.61,2.38c.24.51,1.66-.04,3.35-.85,1.69-.8,3.01-1.55,2.76-2.06Z"/>
        <path class="cls-29" d="m75.01,24.28c-.37-.43-1.82.21-3.24,1.42-1.42,1.22-2.27,2.55-1.9,2.98.37.43,1.59-.48,3.01-1.69,1.42-1.22,2.5-2.28,2.13-2.71Z"/>
        <path class="cls-29" d="m77.38,84.95c.47.32,1.71-.67,2.77-2.21,1.06-1.54,1.54-3.05,1.07-3.37-.47-.32-1.42.87-2.48,2.41-1.06,1.54-1.83,2.85-1.36,3.17Z"/>
        <path class="cls-29" d="m79.91,102.59c-.57-.04-1.14,1.43-1.29,3.3-.14,1.86.2,3.41.76,3.45.57.04.79-1.46.93-3.33.14-1.86.15-3.38-.41-3.42Z"/>
        <path class="cls-12" d="m45.47,121.35c-1.01,1.14.19,3.87,2.7,6.1,2.5,2.23,5.36,3.12,6.37,1.98,1.01-1.14-.83-3.16-3.34-5.4-2.5-2.23-4.72-3.82-5.74-2.69Z"/>
        <path class="cls-20" d="m90.35,60.54c1.37.68,3.45-.76,4.66-3.2,1.21-2.44,1.08-4.97-.29-5.65-1.37-.68-2.6,1.18-3.81,3.63-1.21,2.44-1.93,4.55-.56,5.22Z"/>
      </g>
    </g>
  </g>
</svg>