<?xml version="1.0" encoding="UTF-8"?>
<svg id="Layer_1" data-name="Layer 1" xmlns="http://www.w3.org/2000/svg" xmlns:xlink="http://www.w3.org/1999/xlink" viewBox="0 0 190 150">
  <defs>
    <style>
      .cls-1 {
        fill: url(#linear-gradient-3);
      }

      .cls-1, .cls-2, .cls-3, .cls-4, .cls-5, .cls-6, .cls-7, .cls-8, .cls-9, .cls-10, .cls-11 {
        fill-rule: evenodd;
        stroke-width: 0px;
      }

      .cls-2 {
        fill: #10090a;
      }

      .cls-3 {
        fill: #673a02;
      }

      .cls-4 {
        fill: #342821;
      }

      .cls-5 {
        fill: url(#linear-gradient);
      }

      .cls-6 {
        fill: #f3921c;
      }

      .cls-7 {
        fill: #fff;
      }

      .cls-8 {
        fill: url(#linear-gradient-2);
      }

      .cls-12 {
        filter: url(#outer-glow-5);
      }

      .cls-9 {
        fill: #1b110f;
      }

      .cls-10 {
        fill: #814e2c;
      }

      .cls-11 {
        fill: url(#linear-gradient-4);
      }
    </style>
    <filter id="outer-glow-5" filterUnits="userSpaceOnUse">
      <feOffset dx="0" dy="0"/>
      <feGaussianBlur result="blur" stdDeviation="5"/>
      <feFlood flood-color="#f3921c" flood-opacity=".75"/>
      <feComposite in2="blur" operator="in"/>
      <feComposite in="SourceGraphic"/>
    </filter>
    <linearGradient id="linear-gradient" x1="32.56" y1="-120.63" x2="79.82" y2="-120.63" gradientTransform="translate(19.86 123.22) rotate(33.69)" gradientUnits="userSpaceOnUse">
      <stop offset="0" stop-color="#f3921c"/>
      <stop offset="1" stop-color="#1e110e"/>
    </linearGradient>
    <linearGradient id="linear-gradient-2" x1="26.7" y1="197.73" x2="26.7" y2="107.54" gradientTransform="translate(-51.45 -57.42) rotate(-34.27)" xlink:href="#linear-gradient"/>
    <linearGradient id="linear-gradient-3" x1="70.97" y1="87.71" x2="70.97" y2="126.64" gradientTransform="matrix(1,0,0,1,0,0)" xlink:href="#linear-gradient"/>
    <linearGradient id="linear-gradient-4" x1="86.71" y1="-1.31" x2="86.71" y2="92.59" gradientTransform="translate(7.98 35.58) rotate(2.16)" xlink:href="#linear-gradient"/>
  </defs>
  <g class="cls-12">
    <path class="cls-2" d="m148.32,36.46c1.59-3.09,2.22-6.18,3.13-9.51-5.5,4.4-9.04,9.27-14.13,13.47-1.32,1.09-2.75,2.09-4.17,3.04-2.02,1.35-4.1,2.61-6.16,3.89-1.12.7-3.41,2.01-4.02,3.19-.65,1.25-1.22,3.64-1.58,5.2-1.43,2.49-3.24,5.29-5.1,7.44-1.09,1.26-2.79,3.07-4.2,4l-1.36.9c-.47.05-.95.1-1.42.16-.48.06-1.02.12-1.52.26-.54-.13-1.31-.43-1.74-.6-.61-.23-1.21-.47-1.8-.72-.76-.31-2.52-2.15-3.1-2.8l-1.42-1.62-7.55,6.31.08,1.12c.3,4.5,1.59,11.37,4.29,15.04,1.59,2.16,3.74,3.73,6.33,4.45,1.06.3,2.45.5,3.56.39l2.32-.23c.5.07,1.04.09,1.54,0,.68-.12,1.3-.45,1.7-.96.3.1.61.18.9.25,1.68.38,3.46.36,5.03-.41.7-.34,1.45-.91,1.9-1.56l.53-.77c1.82-.14,3.59-.79,5.12-1.79.73-.48,1.46-1.07,2.02-1.75.49-.59.86-1.3.9-2.03,1.51-.45,2.94-1.2,4.02-2.37.59-.65,1.17-1.55,1.37-2.42l.11-.46c.68-.22,1.34-.53,1.94-.91.88-.55,1.79-1.42,2.13-2.42.17,0,.34.02.51.02,2.28.09,6.24-.18,7.53-2.5l.27-.48c2.84-.49,5.83-2.2,7.7-4.3l1.56-1.76c1.31-.68,2.54-1.54,3.67-2.52,1.18-1.02,2.48-2.38,3.36-3.67l3.41-5-.78.22c1.63-1.77,2.95-3.81,3.94-6.04.69-1.56,1.38-3.59,1.61-5.3l.73-5.59c2.07-4.1,2.2-5.89,2.81-10.29l-6.92,4.74c.14-.28.27-.56.41-.84,2.18-4.65,2.43-7.46,3.19-12.41-4.63,4.54-8.92,9.55-13.77,13.77-.41.36-.83.71-1.26,1.06-.68.56-1.39,1.09-2.1,1.6-1.7,1.21-3.58,2.41-5.51,3.51h0Z"/>
    <path class="cls-5" d="m99.48,65.84s2.44,2.77,3.91,3.38c1.46.61,4.27,1.73,4.73,1.5.46-.23,1.87-.33,4.58-.62,2.7-.29,4.77-2.3,4.77-2.3l-4.16,1.22s1.98-1.31,4.65-4.4c2.68-3.09,5.51-8.07,5.51-8.07,0,0,.9-3.92,1.46-5,.56-1.07,8.85-5.35,13.8-9.43,4.95-4.08,8.84-9.33,8.84-9.33,0,0-2.22,5.82-6.62,10.59-4.4,4.77-10.2,7.55-10.2,7.55,0,0,1.25-.37,2.89-1.05h0s4.42-1.07,6.6-1.03c2.18.04,4.74,1.41,4.74,1.41,0,0-.6.61-1.39,1.36-.8.75-2.09,1.13-2.09,1.13,0,0-1.2-.32-3.38-.54-2.18-.23-3.95.8-3.95.8,0,0,2.91-.57,5.77.36,2.86.92,4.48,3.12,4.48,3.12,0,0-1.39.84-2.91,1.01-1.51.17-3.73-.33-3.73-.33,0,0-1.41-.81-3.02-1.28-1.61-.48-3.13-.17-3.13-.17,0,0,2.35.26,5.08,2,2.73,1.74,3.44,4.13,3.44,4.13,0,0-2.11.59-3.96.36-1.85-.22-4.36-1.28-4.36-1.28,0,0-.12-.04-1.06-.31-.95-.27-2.69-.51-2.69-.51,0,0,1.49.63,3.85,2.04,2.35,1.41,3.87,3.11,3.87,3.11,0,0-1.23.43-2.38.63-1.15.2-4.35-.4-4.35-.4,0,0-1.14-.46-2.16-.84-1.02-.37-2.44.39-2.44.39,0,0,.15.06,2.19.53,2.05.47,3.88,2.45,3.88,2.45,0,0-1.02.54-2.64.91-1.62.38-7.67-.05-7.67-.05,0,0,3.29.86,5,1.71,1.72.84,1.87,1.34,1.87,1.34,0,0-.77.2-3.58,1.08-2.81.88-7.74-.34-7.74-.34,0,0,.92.3,2.72,1.49,1.8,1.19,2.04,2.47,2.04,2.47,0,0-1.25.46-3.64.26-2.39-.2-5.2-1.32-5.2-1.32,0,0,.09.07,1.45,1.79,1.35,1.72,2.12,3.59,2.12,3.59,0,0-.63.01-2.94-1.32-2.31-1.33-3.73-2.91-3.73-2.91,0,0,.59,4.56-.73,3.62-1.32-.93-2.97-3.55-2.97-3.55,0,0-.72,2.72-1.7,1.51-.97-1.2-2.25-5.02-2.25-5.02,0,0-.26,2.73.11,4.75.37,2.02,2.98,4.46,2.98,4.46,0,0,.13-1.01.61-1.85.48-.84.52-1.38.52-1.38,0,0,.26.53,1.47,1.86,1.21,1.33,3.18,2.17,3.18,2.17,0,0,.04-.54.17-1.58.12-1.03-.18-2.24-.18-2.24,0,0,1.6,1.43,3.79,2.31,2.19.88,3.71.74,3.71.74,0,0,.22-1.23-.55-2.39-.76-1.16-1.47-2.34-1.47-2.34,0,0,2.95.44,5.08.28,2.13-.16,2.55-.5,2.55-.5,0,0-.41-.9-.82-1.66-.41-.76-.84-1.35-.84-1.35,0,0,1.34.09,4.34-.6l6.02,1.54s-.6,2.62-4.93,3.42c-4.33.8-7.81.33-7.81.33,0,0,5.16,1.44,6.88,1.18,1.72-.25-2.13,4.16-6.87,3.71-4.74-.45-7.18-2.84-7.18-2.84,0,0,1.76,1.88,3.41,3.01,1.65,1.13,2.87,1.55,2.87,1.55,0,0-1.27,1.84-4.62,1.07-3.36-.77-5.1-2.93-5.1-2.93,0,0,1.49,3.02,1.92,3.34.43.32-1.64.79-4.06-1.1-2.42-1.89-3.14-3.38-3.14-3.38,0,0,.78,1.92,1.86,3.3,1.08,1.38,1.35,1.67,1.35,1.67,0,0-4.66.47-7.89-3.94-3.23-4.41-3.86-13.88-3.86-13.88l5.04-4.21h0Zm37.96-17.86c.56-.35,1.1-.72,1.6-1.12,3.14-2.55,5.29-5.84,5.29-5.84,0,0,7.61-3.54,13-7.96,5.39-4.42,10.45-10.34,10.45-10.34,0,0-2.45,9.1-8.71,14.69-6.26,5.6-15.98,9.39-15.98,9.39,0,0,10.06-2.97,13.81-5.83,3.75-2.86,6.35-5.72,6.35-5.72l8.18-5.6s-3.18,10.47-11.18,15.83c-5.7,3.82-9.85,4.89-11.77,5.2,0,0-3.18-1.97-6.58-2.68-1.7-.35-3.31-.23-4.48-.03h0Zm10.88,2.8c2.38-.09,8.49-.62,12.92-3.52,5.61-3.69,7.32-6.63,7.32-6.63,0,0-1.05,8.12-8.3,12.98-4.38,2.94-9.25,3.38-12.42,3.27-.03-.01-1.02-.5-2.43-1.78-1.43-1.3-2.16-1.41-2.16-1.41,0,0,.71-.43,2.25-1.29,1.23-.68,2.39-1.36,2.82-1.61h0Zm-1.08,6.54c1.9.41,4.51.69,7.03.09,4.78-1.15,6.47-1.61,6.47-1.61,0,0-4.34,6.36-10.81,6.82-2.81.2-4.98.19-6.53.12,0,0-.13-.36-.84-1.6-.71-1.24-2.46-2.36-2.46-2.36,0,0,2.65.49,4.76-.29,1.13-.42,1.91-.85,2.38-1.15h0Zm-4.43,5.61c1.5.3,3.41.65,4.92.83,2.91.34,4.58-.24,4.58-.24,0,0-2.92,3.29-7.04,3.68-2.16.2-4.9-.16-7.02-.54.28-.07.43-.12.43-.12,0,0-.03-.02-.52-.91-.49-.89-1.43-2.07-1.43-2.07,0,0,2.05.47,3.48.14.92-.21,1.96-.54,2.6-.76h0Zm-5.49,3.93c.84.31,1.79.63,2.59.86,2.06.57,4.16.98,4.16.98,0,0-.87,1.56-5.51,1.36-2.16-.09-4.25-.35-5.85-.6.58-.24.97-.43.97-.43l-.47-.59c-.47-.59-1.57-1.36-1.57-1.36,0,0,1.29,0,3.35,0,.89,0,1.71-.1,2.34-.22h0Zm-5.39,2.9c1.52.57,3.32,1.26,3.78,1.43.82.32-1.42,2.68-4.94,2.65-1.9-.02-3.44-.02-4.46-.02h0c3.49-.87,4.37-1.66,4.37-1.66l-.9-.53c-.9-.53-2.74-1.27-2.74-1.27,0,0,.99.21,2.82-.06.71-.1,1.44-.32,2.08-.55h0Z"/>
    <path class="cls-7" d="m101.42,67.8c.67.61,1.39,1.18,1.97,1.42,1.46.61,4.27,1.73,4.73,1.5.46-.23,1.87-.33,4.58-.62,2.7-.29,4.77-2.3,4.77-2.3l-4.16,1.22s1.98-1.31,4.65-4.4c2.68-3.09,5.51-8.07,5.51-8.07,0,0,.9-3.92,1.46-5,.56-1.07,8.85-5.35,13.8-9.43,4.95-4.08,8.84-9.33,8.84-9.33,0,0-.64,1.68-1.92,3.98-7.86,7.64-18.27,14.68-18.71,15.27-.44.59-1.59,3.49-1.59,3.49l2.01-2.06s-.93,1.74-3.55,5.86c-2.62,4.12-7.25,8.1-7.25,8.1l3.62-.74s-2.59,2.79-5.07,3.77c-2.49.99-6.16.93-6.16.93l.55.77s-1.39-.28-3.84-1.01c-2.44-.74-4.22-2.06-4.22-2.06l-.23-.2-.47-.09.68-1.01h0Zm28.77,7.37l1.44.37s-.6,2.62-4.93,3.42c-3.65.68-6.69.45-7.56.36h0s5.23-.42,7.69-1.26c1.88-.65,2.97-2.19,3.37-2.88h0Zm-5.77,5.28c.54.06,1.01.07,1.34.02,1.72-.25-2.13,4.16-6.87,3.71-2.31-.22-4.07-.9-5.28-1.54h0s3.92.41,6.8.12c2.06-.21,3.4-1.55,4-2.31h0Zm-7.84,4.8c.86.47,1.41.66,1.41.66,0,0-1.27,1.84-4.62,1.07-3.19-.73-4.93-2.72-5.09-2.91l-.3-.67,1.53.95s2.11.99,4.22,1.41c1.34.27,2.33-.16,2.87-.51h0Zm-6.93,1.41c.22.37.41.65.53.74.43.32-1.64.79-4.06-1.1-1.02-.8-1.74-1.52-2.23-2.1-.62-.93-1.16-1.77-1.16-1.77,0,0,.65,1.12,3,2.59,1.68,1.05,3.19,1.48,3.92,1.65h0Zm-4.43.03c.77.97.97,1.19.97,1.19,0,0-2.68.27-5.39-1.53,0-.77.25-1.16.61-.86.78.66,2.89,1.17,3.81,1.2h0Zm38.47-44.77c2.16-.75,8.74-3.18,12.95-6.45,5.09-3.96,8.74-8.11,8.74-8.11,0,0-1.56,3.99-3.83,7.45,4.43-5.42,6.22-12.07,6.22-12.07,0,0-5.06,5.91-10.45,10.34-5.39,4.42-13,7.96-13,7.96,0,0-.22.34-.63.89h0Zm16.59-3.75c1.27-.72,2.84-1.68,3.82-2.11,2.37-1.04,3.03-1.5,3.03-1.5,0,0-1.2,5.49-5.54,9.61-.57.55-1.11,1.05-1.61,1.5.09-.06.18-.12.27-.18,8-5.36,11.18-15.83,11.18-15.83l-8.18,5.6s-1.13,1.24-2.96,2.9h0Zm-5.28,11.69h0s3.5-.24,6.35-1.71c2.85-1.47,4.14-2.35,4.14-2.35,0,0-1.92,4.13-5.26,6.87-3.31,2.71-7.85,3.96-7.93,3.98,2.51-.39,5.31-1.25,7.94-3.01,7.25-4.86,8.3-12.98,8.3-12.98,0,0-1.71,2.94-7.32,6.63-1.91,1.25-4.12,2.06-6.22,2.59h0Zm.39,7.29l2.12.35s-3.1,3.69-5.35,4.41c-2.24.71-4.6.84-4.6.84.73-.03,1.51-.07,2.35-.13,6.47-.46,10.81-6.82,10.81-6.82,0,0-1.42.39-5.34,1.34h0Zm-6.97,6.69c.26.7.04,1.6-2.09,2.28-1.88.6-3.82.86-5.36.97,1.47.17,2.99.25,4.3.13,4.12-.39,7.04-3.68,7.04-3.68,0,0-1.41.49-3.89.3h0Zm-6.14,4.49c-.45.22-1.37.55-3.22.85-3.14.52-6.37.3-6.37.3,1.61.25,3.69.51,5.85.6,4.64.19,5.51-1.36,5.51-1.36,0,0-.74-.14-1.78-.38h0Zm-7.38,2.58h0s.24,1.53-2.45,2.24c-2.55.67-5.78.7-6.12.7,1.02,0,2.55,0,4.43.02,3.52.03,5.75-2.33,4.94-2.65-.14-.06-.43-.16-.79-.3h0Z"/>
    <path class="cls-6" d="m143.82,37.25c2.28-2.47,3.75-4.45,3.75-4.45,0,0-2.22,5.82-6.62,10.59-3.82,4.14-8.68,6.77-9.91,7.4l-.75.21s5.7-3.7,8.94-7.2c1.68-1.82,3.36-4.45,4.59-6.55h0Zm-11.83,13.28h0s0,0,0,0h0Zm1.28-.48c.12-.05.24-.1.37-.15h0s.15-.04.4-.09c-.28.08-.54.16-.77.24h0Zm4.01-.88c1.07-.18,2.17-.31,2.96-.3,2.18.04,4.74,1.41,4.74,1.41,0,0-.6.61-1.39,1.36-.8.75-2.09,1.13-2.09,1.13,0,0-1.2-.32-3.38-.54-1.53-.16-2.86.3-3.52.59-1.61.26-2.88.78-2.88.78,0,0,3.15-1.61,5.38-1.99,2.23-.38,3.66,0,3.66,0,0,0,.77-.71,1.11-1.17.34-.46.36-.49.36-.49,0,0-1.47-.97-4.45-.83-.17,0-.35.02-.52.04h0Zm1.21,3.87c.48.08.97.2,1.46.35,2.86.92,4.48,3.12,4.48,3.12,0,0-1.39.84-2.91,1.01-1.51.17-3.73-.33-3.73-.33,0,0-1.41-.81-3.02-1.28-1.61-.48-3.13-.17-3.13-.17,0,0,2.35.26,5.08,2,2.73,1.74,3.44,4.13,3.44,4.13,0,0-2.11.59-3.96.36-1.85-.22-4.36-1.28-4.36-1.28,0,0-.12-.04-1.06-.31-.95-.27-2.69-.51-2.69-.51,0,0,1.49.63,3.85,2.04,2.35,1.41,3.87,3.11,3.87,3.11,0,0-1.23.43-2.38.63-1.15.2-4.35-.4-4.35-.4,0,0-1.14-.46-2.16-.84-.19-.07-.4-.1-.61-.1.52-.03,1.08-.04,1.67-.01,2.93.14,4.73-.36,4.73-.36,0,0-1.01-1.11-3.42-2.38-2.41-1.27-3.95-1.93-3.95-1.93,0,0,3.3-1.06,6.64-.34,3.33.72,5.95,1.23,5.95,1.23,0,0-.82-2.06-3.55-3.55-2.73-1.49-4.74-1.57-4.74-1.57,0,0,3.41-.78,5.32-.4,1.91.38,2.71.86,2.71.86,0,0,1.54.18,2.7.01,1.17-.17,1.6-.33,1.6-.33,0,0-.67-1.73-3.48-2.78h0Zm-12.62,11.58c-.74.11-1.4.46-1.4.46,0,0,.15.06,2.19.53,2.05.47,3.88,2.45,3.88,2.45,0,0-1.02.54-2.64.91-1.62.38-7.67-.05-7.67-.05,0,0,3.29.86,5,1.71,1.72.84,1.87,1.34,1.87,1.34,0,0-.77.2-3.58,1.08-2.81.88-7.74-.34-7.74-.34,0,0,.01,0,.04.01h0c-1.17-.39-1.95-1.21-1.95-1.21,0,0,5.86,1.08,8.34.53,2.48-.55-3.67-3.33-3.67-3.33,0,0,7.6-.34,8.74-.81,1.14-.47-4.41-2.71-4.41-2.71,0,0,1.18-.41,2.99-.57h0Zm-5.84,11c.44.61.52,1.05.52,1.05,0,0-1.25.46-3.64.26-2.39-.2-5.2-1.32-5.2-1.32,0,0,.09.07,1.45,1.79.06.08.12.16.18.24-.75-.87-1.63-1.81-2.38-2.48-1.76-1.55.57-.5,3.76.52,2.47.79,4.51.23,5.31-.07h0Zm-5.35,4.13c.39.73.6,1.24.6,1.24,0,0-.63.01-2.94-1.32-2.31-1.33-3.73-2.91-3.73-2.91,0,0,.59,4.56-.73,3.62-1.32-.93-2.97-3.55-2.97-3.55,0,0-.72,2.72-1.7,1.51-.97-1.2-2.25-5.02-2.25-5.02,0,0-.04.48-.07,1.18-.22-4.07.56-6.67.56-6.67,0,0,1.26,2.64,1.55,5.04.29,2.41.41,4.33.41,4.33,0,0,1.19-.95,1.58-2.45.4-1.5.43-1.92.43-1.92,0,0,.65,2.35.54,2.87-.11.52,1.52,3.76,1.85,3.25.34-.51.84-2.09.52-3.76-.32-1.67,1.22,1.31,1.22,1.31,0,0,1.4,1.12,3.12,2.24.95.62,1.6.88,2,.99h0Zm-13.61-1.73v.06c.38,2.02,2.99,4.46,2.99,4.46,0,0,.13-1.01.61-1.85.48-.84.52-1.38.52-1.38,0,0,.26.53,1.47,1.86,1.21,1.33,3.18,2.17,3.18,2.17,0,0,.04-.54.17-1.58.12-1.03-.18-2.24-.18-2.24,0,0,1.6,1.43,3.79,2.31,2.19.88,3.71.74,3.71.74,0,0,.22-1.23-.55-2.39-.76-1.16-1.47-2.34-1.47-2.34,0,0,2.95.44,5.08.28,2.13-.16,2.55-.5,2.55-.5,0,0-.41-.9-.82-1.66-.41-.76-.84-1.35-.84-1.35,0,0,1.34.09,4.34-.6l3.01.77c-2.93.55-4.53.87-4.53.87l1.66,3.48h0c-.12.01-2.98.31-5.14.29-1.07-.04-1.71-.12-1.71-.12-1.87-.36,1.07,3.1,1.07,3.1,0,0-.73,1.44-2.64,1.55-3.7-.75-5.6-2.61-5.6-2.61,0,0,.61.65,1.45,1.42-1.34-.71-2.05-1.42-2.05-1.42,0,0,.69,1.71.79,2.86l.1,1.15s-1.3.08-3.4-.94c-.22-.22-.34-.36-.34-.36,0,0,.05.1.13.26-2.23-1.14-3.04-2.78-3.04-2.78,0,0,.06,2.1-.12,2.79-.17.68-.19,1.06-.19,1.06-1.57-1.44-2.06-2.47-2.06-2.47,0,0,.21.52.57,1.22-.25-.23-.49-.48-.71-.72-.85-.97-1.73-2.64-1.73-2.64,0,0,0-.91-.06-2.75h0Zm53.13-42.61c-1.01,1.19-3,3.36-5.26,4.8-3.26,2.08-4.76,3.08-4.76,3.08l6.95-2.86s-1.56,2.79-4.32,4.69c-.11.07-.21.14-.31.21-2.03.96-3.39,1.49-3.39,1.49,0,0,.79-.23,2.02-.63-1.64.94-2.44,1.1-2.44,1.1,0,0,4.31.21,7.49,1.3,1.2.41,2.01.71,2.55.92-1.87.72-3.3,1.04-4.21,1.19,0,0-3.18-1.97-6.58-2.68-1.7-.35-3.31-.23-4.48-.03.56-.35,1.1-.72,1.6-1.12,3.14-2.55,5.29-5.84,5.29-5.84,0,0,5.07-2.36,9.86-5.63h0Zm-.84,14.82l-6.63,3.98s2.45,1.05,4.05,2.29c.14.11.27.21.39.3-1.22.12-2.35.14-3.31.11-.03-.01-1.02-.5-2.43-1.78-1.43-1.3-2.16-1.41-2.16-1.41,0,0,.71-.43,2.25-1.29,1.23-.68,2.39-1.36,2.82-1.61,1.08-.04,2.92-.17,5.02-.57h0Zm-.9,7.49h0s-2.99,1.71-5.31,2.47c-2.32.75-3.28.76-3.28.76l3.72,1.81c-1.7.06-3.09.04-4.18,0,0,0-.13-.36-.84-1.6-.71-1.24-2.46-2.36-2.46-2.36,0,0,2.65.49,4.76-.29,1.13-.42,1.91-.85,2.38-1.15,1.44.31,3.29.55,5.2.38h0Zm-6.17,5.85c-.86.51-2.01,1.13-2.96,1.44-1.79.58-3.35.54-3.35.54l.76,1.5c-.86-.11-1.7-.24-2.46-.38.28-.07.43-.12.43-.12,0,0-.03-.02-.52-.91-.49-.89-1.43-2.07-1.43-2.07,0,0,2.05.47,3.48.14.92-.21,1.96-.54,2.6-.76,1.04.21,2.28.44,3.45.62h0Zm-5.6,4.36c-.62.1-1.81.26-3.27.26-2.15,0-3.52.06-3.52.06l2.37,1.66c-1.31-.12-2.52-.28-3.54-.44.58-.24.97-.43.97-.43l-.47-.59c-.47-.59-1.57-1.36-1.57-1.36,0,0,1.29,0,3.35,0,.89,0,1.71-.1,2.34-.22.84.31,1.79.63,2.59.86.25.07.5.14.75.2h0Zm-5.76,2.97c-.46.13-.97.25-1.46.34-1.63.31-2.84.17-2.84.17l2.45,1.22s-.58.62-1.73,1.21c-.19.01-.37.02-.57.02-1.9-.02-3.44-.02-4.46-.02h0c3.49-.87,4.37-1.66,4.37-1.66l-.9-.53c-.9-.53-2.74-1.27-2.74-1.27,0,0,.99.21,2.82-.06.71-.1,1.44-.32,2.08-.55,1.04.39,2.2.83,2.98,1.13h0Z"/>
    <path class="cls-2" d="m41.73,36.17c-1.6-3.08-2.25-6.17-3.18-9.5,5.52,4.37,9.09,9.22,14.2,13.4,1.33,1.08,2.76,2.07,4.18,3.02,2.03,1.34,4.11,2.59,6.18,3.86,1.12.69,3.42,2,4.04,3.17.65,1.24,1.24,3.64,1.6,5.19,1.45,2.49,3.27,5.27,5.14,7.41,1.1,1.25,2.81,3.05,4.22,3.98l1.37.9c.48.05.95.1,1.42.15.48.06,1.02.12,1.52.25.54-.13,1.3-.44,1.74-.61.6-.23,1.2-.48,1.8-.73.76-.32,2.51-2.16,3.08-2.81l1.41-1.62,7.58,6.27-.07,1.12c-.28,4.5-1.54,11.37-4.21,15.06-1.58,2.17-3.72,3.75-6.31,4.48-1.06.3-2.44.51-3.56.4l-2.32-.22c-.5.08-1.03.1-1.54.01-.68-.11-1.3-.44-1.71-.95-.3.1-.61.18-.9.25-1.68.39-3.46.38-5.03-.39-.7-.34-1.46-.9-1.91-1.55l-.53-.76c-1.82-.14-3.6-.78-5.13-1.77-.73-.48-1.47-1.07-2.03-1.74-.49-.59-.86-1.3-.91-2.02-1.52-.44-2.94-1.18-4.03-2.35-.6-.64-1.18-1.54-1.38-2.41l-.11-.46c-.68-.22-1.34-.52-1.95-.9-.88-.55-1.8-1.41-2.14-2.41-.17,0-.34.02-.51.03-2.28.11-6.24-.15-7.55-2.46l-.27-.48c-2.84-.48-5.84-2.17-7.72-4.27l-1.57-1.75c-1.32-.67-2.55-1.53-3.68-2.5-1.18-1.02-2.49-2.36-3.38-3.66l-3.43-4.98.78.21c-1.64-1.76-2.97-3.8-3.97-6.02-.7-1.56-1.4-3.58-1.63-5.3l-.75-5.58c-2.08-4.09-2.23-5.88-2.86-10.28l6.94,4.71c-.14-.28-.28-.56-.41-.84-2.21-4.64-2.46-7.44-3.25-12.4,4.65,4.52,8.97,9.5,13.84,13.7.42.36.84.71,1.26,1.06.68.56,1.39,1.08,2.11,1.59,1.7,1.2,3.59,2.39,5.52,3.48h0Z"/>
    <path class="cls-8" d="m90.72,65.31s-2.43,2.78-3.89,3.4c-1.46.62-4.26,1.75-4.72,1.52-.46-.23-1.88-.32-4.58-.6-2.71-.28-4.78-2.28-4.78-2.28l4.17,1.2s-1.98-1.3-4.67-4.37c-2.69-3.07-5.55-8.04-5.55-8.04,0,0-.92-3.92-1.48-4.99-.56-1.07-8.88-5.3-13.84-9.36-4.97-4.06-8.89-9.29-8.89-9.29,0,0,2.24,5.81,6.67,10.56,4.43,4.75,10.24,7.5,10.24,7.5,0,0-1.25-.37-2.9-1.04h0s-4.43-1.05-6.6-1c-2.18.05-4.74,1.44-4.74,1.44,0,0,.6.61,1.4,1.35.8.75,2.09,1.12,2.09,1.12,0,0,1.2-.32,3.37-.56,2.18-.24,3.95.78,3.95.78,0,0-2.91-.55-5.77.38-2.85.94-4.46,3.14-4.46,3.14,0,0,1.4.84,2.91,1,1.51.16,3.73-.35,3.73-.35,0,0,1.41-.81,3.01-1.3,1.61-.48,3.13-.18,3.13-.18,0,0-2.34.27-5.07,2.02-2.72,1.75-3.42,4.15-3.42,4.15,0,0,2.11.58,3.96.35,1.84-.23,4.36-1.3,4.36-1.3,0,0,.12-.04,1.06-.32.95-.28,2.68-.52,2.68-.52,0,0-1.49.64-3.84,2.06-2.34,1.42-3.85,3.13-3.85,3.13,0,0,1.23.42,2.38.62,1.15.19,4.34-.42,4.34-.42,0,0,1.14-.47,2.15-.85,1.01-.38,2.44.38,2.44.38,0,0-.15.06-2.19.54-2.04.48-3.87,2.47-3.87,2.47,0,0,1.02.53,2.64.9,1.62.37,7.67-.08,7.67-.08,0,0-3.28.88-5,1.73-1.71.85-1.87,1.35-1.87,1.35,0,0,.77.19,3.58,1.06,2.81.87,7.74-.38,7.74-.38,0,0-.92.31-2.71,1.51-1.79,1.2-2.03,2.48-2.03,2.48,0,0,1.25.45,3.64.25,2.39-.21,5.19-1.35,5.19-1.35,0,0-.09.07-1.44,1.8-1.35,1.73-2.11,3.6-2.11,3.6,0,0,.63,0,2.94-1.34,2.31-1.35,3.71-2.93,3.71-2.93,0,0-.57,4.56.75,3.62,1.31-.94,2.95-3.56,2.95-3.56,0,0,.74,2.71,1.71,1.51.97-1.21,2.23-5.04,2.23-5.04,0,0,.27,2.73-.09,4.75-.36,2.02-2.96,4.48-2.96,4.48,0,0-.13-1.01-.61-1.85-.48-.84-.53-1.38-.53-1.38,0,0-.25.53-1.46,1.86-1.21,1.34-3.17,2.18-3.17,2.18,0,0-.05-.54-.17-1.58-.13-1.03.17-2.24.17-2.24,0,0-1.59,1.43-3.78,2.33-2.19.9-3.71.76-3.71.76,0,0-.22-1.23.53-2.39.76-1.17,1.46-2.34,1.46-2.34,0,0-2.95.46-5.08.3-2.13-.15-2.55-.49-2.55-.49,0,0,.4-.9.81-1.67.41-.77.84-1.35.84-1.35,0,0-1.34.09-4.34-.58l-6.02,1.57s.61,2.61,4.95,3.4c4.34.78,7.81.29,7.81.29,0,0-5.15,1.46-6.87,1.21-1.72-.25,2.15,4.15,6.89,3.67,4.74-.48,7.16-2.87,7.16-2.87,0,0-1.75,1.89-3.4,3.03-1.64,1.14-2.86,1.57-2.86,1.57,0,0,1.28,1.83,4.63,1.05,3.35-.78,5.09-2.95,5.09-2.95,0,0-1.48,3.03-1.91,3.35-.43.32,1.65.78,4.06-1.12,2.41-1.91,3.12-3.4,3.12-3.4,0,0-.77,1.92-1.84,3.31-1.08,1.38-1.34,1.68-1.34,1.68,0,0,4.66.45,7.87-3.98,3.21-4.43,3.8-13.9,3.8-13.9l-5.06-4.18h0Zm-38.05-17.67c-.56-.34-1.11-.72-1.6-1.11-3.15-2.54-5.32-5.81-5.32-5.81,0,0-7.63-3.5-13.04-7.9-5.41-4.4-10.5-10.29-10.5-10.29,0,0,2.49,9.09,8.78,14.65,6.29,5.57,16.02,9.32,16.02,9.32,0,0-10.07-2.92-13.84-5.77-3.77-2.84-6.38-5.69-6.38-5.69l-8.21-5.57s3.23,10.45,11.25,15.77c5.72,3.79,9.87,4.85,11.79,5.14,0,0,3.17-1.99,6.56-2.71,1.7-.36,3.3-.25,4.48-.05h0Zm-10.87,2.85c-2.38-.08-8.5-.58-12.93-3.46-5.63-3.66-7.35-6.6-7.35-6.6,0,0,1.09,8.12,8.36,12.95,4.39,2.92,9.27,3.34,12.43,3.21.03-.01,1.02-.51,2.42-1.8,1.42-1.31,2.15-1.42,2.15-1.42,0,0-.71-.43-2.26-1.28-1.23-.68-2.4-1.35-2.82-1.6h0Zm1.11,6.53c-1.9.41-4.5.71-7.03.12-4.78-1.12-6.47-1.58-6.47-1.58,0,0,4.37,6.33,10.84,6.76,2.81.19,4.98.17,6.53.09,0,0,.13-.36.83-1.61.7-1.25,2.45-2.37,2.45-2.37,0,0-2.65.5-4.77-.27-1.14-.41-1.91-.84-2.39-1.14h0Zm4.45,5.59c-1.5.31-3.41.67-4.92.85-2.91.35-4.58-.22-4.58-.22,0,0,2.94,3.27,7.06,3.64,2.16.19,4.9-.18,7.02-.58-.28-.07-.43-.12-.43-.12,0,0,.03-.02.51-.91.48-.89,1.42-2.08,1.42-2.08,0,0-2.04.48-3.48.16-.92-.2-1.97-.54-2.6-.75h0Zm5.51,3.9c-.84.31-1.78.64-2.59.87-2.06.58-4.15,1-4.15,1,0,0,.88,1.55,5.52,1.34,2.16-.1,4.24-.37,5.85-.62-.58-.24-.97-.43-.97-.43l.47-.59c.47-.59,1.57-1.37,1.57-1.37,0,0-1.29,0-3.35.02-.89,0-1.71-.1-2.35-.21h0Zm5.41,2.88c-1.52.58-3.32,1.27-3.77,1.45-.81.32,1.43,2.68,4.95,2.63,1.9-.02,3.44-.04,4.46-.04h0c-3.5-.86-4.38-1.64-4.38-1.64l.9-.53c.9-.53,2.74-1.28,2.74-1.28,0,0-.99.22-2.82-.05-.71-.1-1.45-.31-2.08-.54h0Z"/>
    <path class="cls-7" d="m88.79,67.28c-.67.61-1.39,1.19-1.96,1.43-1.46.62-4.26,1.75-4.72,1.52-.46-.23-1.88-.32-4.58-.6-2.71-.28-4.78-2.28-4.78-2.28l4.17,1.2s-1.98-1.3-4.67-4.37c-2.69-3.07-5.55-8.04-5.55-8.04,0,0-.92-3.92-1.48-4.99-.56-1.07-8.88-5.3-13.84-9.36-4.97-4.06-8.89-9.29-8.89-9.29,0,0,.65,1.68,1.94,3.97,7.9,7.6,18.34,14.6,18.78,15.18.44.59,1.61,3.48,1.61,3.48l-2.02-2.05s.94,1.74,3.58,5.84c2.64,4.11,7.29,8.06,7.29,8.06l-3.63-.72s2.6,2.77,5.09,3.75c2.49.97,6.16.9,6.16.9l-.54.77s1.39-.28,3.83-1.03c2.44-.75,4.21-2.08,4.21-2.08l.22-.2.47-.09-.68-1.01h0Zm-28.74,7.51l-1.44.37s.61,2.61,4.95,3.4c3.65.66,6.69.42,7.56.32h0s-5.23-.39-7.7-1.23c-1.89-.64-2.98-2.18-3.38-2.87h0Zm5.79,5.25c-.54.06-1,.08-1.34.03-1.72-.25,2.15,4.15,6.89,3.67,2.31-.23,4.07-.92,5.27-1.57h0s-3.91.43-6.8.15c-2.06-.2-3.41-1.53-4.01-2.29h0Zm7.86,4.76c-.86.47-1.41.67-1.41.67,0,0,1.28,1.83,4.63,1.05,3.19-.75,4.92-2.74,5.08-2.94l.3-.67-1.52.96s-2.11,1-4.21,1.44c-1.34.28-2.33-.15-2.87-.5h0Zm6.93,1.37c-.22.37-.41.65-.53.74-.43.32,1.65.78,4.06-1.12,1.02-.8,1.73-1.53,2.22-2.11.62-.93,1.15-1.78,1.15-1.78,0,0-.64,1.12-2.99,2.6-1.68,1.06-3.18,1.5-3.91,1.67h0Zm4.43,0c-.76.97-.96,1.19-.96,1.19,0,0,2.68.26,5.38-1.56,0-.77-.26-1.16-.62-.85-.78.67-2.88,1.19-3.81,1.22h0Zm-38.69-44.59c-2.16-.74-8.76-3.14-12.98-6.39-5.11-3.93-8.78-8.07-8.78-8.07,0,0,1.58,3.99,3.86,7.43-4.46-5.4-6.28-12.04-6.28-12.04,0,0,5.09,5.89,10.5,10.29,5.41,4.4,13.04,7.9,13.04,7.9,0,0,.22.34.63.88h0Zm-16.61-3.67c-1.27-.72-2.85-1.66-3.83-2.09-2.37-1.02-3.04-1.49-3.04-1.49,0,0,1.23,5.48,5.59,9.58.58.54,1.12,1.04,1.62,1.5-.09-.06-.18-.12-.27-.18-8.03-5.32-11.25-15.77-11.25-15.77l8.21,5.57s1.13,1.23,2.98,2.88h0Zm5.33,11.66h0s-3.5-.22-6.36-1.68c-2.86-1.46-4.15-2.33-4.15-2.33,0,0,1.94,4.12,5.29,6.84,3.32,2.7,7.87,3.92,7.95,3.94-2.51-.37-5.32-1.22-7.95-2.97-7.27-4.83-8.36-12.95-8.36-12.95,0,0,1.72,2.94,7.35,6.6,1.91,1.24,4.13,2.04,6.23,2.56h0Zm-.35,7.29l-2.12.36s3.12,3.68,5.37,4.38c2.25.7,4.6.82,4.6.82-.73-.02-1.51-.06-2.35-.12-6.47-.43-10.84-6.76-10.84-6.76,0,0,1.42.39,5.35,1.32h0Zm7,6.65c-.26.7-.03,1.6,2.1,2.27,1.89.59,3.83.84,5.36.94-1.47.18-2.99.27-4.29.15-4.12-.37-7.06-3.64-7.06-3.64,0,0,1.41.48,3.89.28h0Zm6.16,4.46c.45.22,1.38.54,3.22.84,3.14.5,6.37.27,6.37.27-1.6.26-3.68.52-5.85.62-4.64.22-5.52-1.34-5.52-1.34,0,0,.74-.15,1.78-.39h0Zm7.4,2.54h0s-.23,1.53,2.47,2.23c2.55.66,5.79.67,6.13.67-1.02,0-2.55.02-4.43.04-3.52.05-5.77-2.31-4.95-2.63.14-.06.43-.17.79-.31h0Z"/>
    <path class="cls-6" d="m46.24,36.93c-2.29-2.46-3.77-4.43-3.77-4.43,0,0,2.24,5.81,6.67,10.56,3.84,4.12,8.71,6.73,9.95,7.36l.75.21s-5.72-3.68-8.97-7.16c-1.69-1.81-3.38-4.43-4.62-6.53h0Zm11.89,13.22h0s0,0,0,0h0Zm-1.28-.48c-.12-.05-.24-.1-.37-.15h0s-.15-.04-.4-.09c.28.08.54.16.77.24h0Zm-4.01-.86c-1.07-.17-2.17-.3-2.96-.28-2.18.05-4.74,1.44-4.74,1.44,0,0,.6.61,1.4,1.35.8.75,2.09,1.12,2.09,1.12,0,0,1.2-.32,3.37-.56,1.53-.17,2.87.29,3.52.57,1.61.25,2.88.76,2.88.76,0,0-3.16-1.6-5.39-1.96-2.24-.37-3.66.03-3.66.03,0,0-.77-.7-1.11-1.17-.35-.46-.37-.49-.37-.49,0,0,1.47-.98,4.45-.85.17,0,.35.02.52.03h0Zm-1.19,3.88c-.48.08-.97.2-1.46.36-2.85.94-4.46,3.14-4.46,3.14,0,0,1.4.84,2.91,1,1.51.16,3.73-.35,3.73-.35,0,0,1.41-.81,3.01-1.3,1.61-.48,3.13-.18,3.13-.18,0,0-2.34.27-5.07,2.02-2.72,1.75-3.42,4.15-3.42,4.15,0,0,2.11.58,3.96.35,1.84-.23,4.36-1.3,4.36-1.3,0,0,.12-.04,1.06-.32.95-.28,2.68-.52,2.68-.52,0,0-1.49.64-3.84,2.06-2.34,1.42-3.85,3.13-3.85,3.13,0,0,1.23.42,2.38.62,1.15.19,4.34-.42,4.34-.42,0,0,1.14-.47,2.15-.85.19-.07.4-.1.61-.11-.52-.03-1.08-.03-1.67,0-2.93.15-4.73-.33-4.73-.33,0,0,1.01-1.11,3.41-2.4,2.4-1.28,3.94-1.95,3.94-1.95,0,0-3.31-1.04-6.64-.31-3.33.74-5.94,1.26-5.94,1.26,0,0,.81-2.06,3.53-3.57,2.72-1.51,4.73-1.59,4.73-1.59,0,0-3.41-.76-5.32-.37-1.91.39-2.71.87-2.71.87,0,0-1.54.19-2.7.03-1.17-.17-1.6-.32-1.6-.32,0,0,.66-1.73,3.47-2.8h0Zm12.67,11.52c.74.11,1.4.45,1.4.45,0,0-.15.06-2.19.54-2.04.48-3.87,2.47-3.87,2.47,0,0,1.02.53,2.64.9,1.62.37,7.67-.08,7.67-.08,0,0-3.28.88-5,1.73-1.71.85-1.87,1.35-1.87,1.35,0,0,.77.19,3.58,1.06,2.81.87,7.74-.38,7.74-.38,0,0-.01,0-.04.01h0c1.16-.39,1.95-1.22,1.95-1.22,0,0-5.86,1.11-8.34.57-2.49-.54,3.66-3.34,3.66-3.34,0,0-7.6-.31-8.74-.77-1.15-.46,4.39-2.74,4.39-2.74,0,0-1.18-.41-2.99-.56h0Zm5.89,10.97c-.43.61-.52,1.05-.52,1.05,0,0,1.25.45,3.64.25,2.39-.21,5.19-1.35,5.19-1.35,0,0-.09.07-1.44,1.8-.06.08-.12.16-.18.24.75-.87,1.62-1.82,2.37-2.49,1.76-1.56-.57-.49-3.76.54-2.47.8-4.51.25-5.31-.04h0Zm5.37,4.11c-.39.73-.6,1.24-.6,1.24,0,0,.63,0,2.94-1.34,2.31-1.35,3.71-2.93,3.71-2.93,0,0-.57,4.56.75,3.62,1.31-.94,2.95-3.56,2.95-3.56,0,0,.74,2.71,1.71,1.51.97-1.21,2.23-5.04,2.23-5.04,0,0,.05.48.08,1.18.2-4.07-.59-6.66-.59-6.66,0,0-1.25,2.64-1.52,5.05-.28,2.41-.39,4.34-.39,4.34,0,0-1.19-.95-1.6-2.45-.4-1.5-.44-1.92-.44-1.92,0,0-.63,2.36-.53,2.88.11.52-1.5,3.77-1.84,3.26-.34-.51-.85-2.09-.54-3.76.31-1.67-1.22,1.31-1.22,1.31,0,0-1.4,1.13-3.11,2.25-.94.62-1.6.89-1.99,1h0Zm13.61-1.8v.06c-.37,2.02-2.97,4.48-2.97,4.48,0,0-.13-1.01-.61-1.85-.48-.84-.53-1.38-.53-1.38,0,0-.25.53-1.46,1.86-1.21,1.34-3.17,2.18-3.17,2.18,0,0-.05-.54-.17-1.58-.13-1.03.17-2.24.17-2.24,0,0-1.59,1.43-3.78,2.33-2.19.9-3.71.76-3.71.76,0,0-.22-1.23.53-2.39.76-1.17,1.46-2.34,1.46-2.34,0,0-2.95.46-5.08.3-2.13-.15-2.55-.49-2.55-.49,0,0,.4-.9.81-1.67.41-.77.84-1.35.84-1.35,0,0-1.34.09-4.34-.58l-3.01.78c2.94.53,4.54.85,4.54.85l-1.64,3.48h0c.12.01,2.98.3,5.14.27,1.07-.04,1.71-.13,1.71-.13,1.87-.37-1.05,3.11-1.05,3.11,0,0,.73,1.44,2.65,1.54,3.7-.77,5.59-2.63,5.59-2.63,0,0-.61.66-1.45,1.43,1.34-.72,2.04-1.43,2.04-1.43,0,0-.68,1.71-.78,2.86l-.1,1.15s1.3.08,3.4-.96c.22-.22.34-.36.34-.36,0,0-.05.1-.13.26,2.22-1.15,3.03-2.79,3.03-2.79,0,0-.05,2.1.13,2.79.17.68.19,1.06.19,1.06,1.56-1.45,2.05-2.48,2.05-2.48,0,0-.21.52-.56,1.22.25-.23.49-.48.7-.73.85-.98,1.72-2.65,1.72-2.65,0,0-.01-.91.04-2.75h0Zm-53.33-42.36c1.01,1.19,3.02,3.34,5.29,4.78,3.27,2.07,4.78,3.06,4.78,3.06l-6.96-2.83s1.57,2.79,4.34,4.67c.11.07.21.14.31.21,2.03.95,3.39,1.47,3.39,1.47,0,0-.79-.23-2.02-.62,1.64.93,2.45,1.09,2.45,1.09,0,0-4.31.23-7.49,1.33-1.2.42-2,.72-2.54.93,1.87.71,3.3,1.02,4.22,1.17,0,0,3.17-1.99,6.56-2.71,1.7-.36,3.3-.25,4.48-.05-.56-.34-1.11-.72-1.6-1.11-3.15-2.54-5.32-5.81-5.32-5.81,0,0-5.08-2.33-9.89-5.58h0Zm.91,14.82l6.65,3.94s-2.44,1.06-4.04,2.31c-.14.11-.27.21-.39.3,1.22.12,2.35.13,3.31.09.03-.01,1.02-.51,2.42-1.8,1.42-1.31,2.15-1.42,2.15-1.42,0,0-.71-.43-2.26-1.28-1.23-.68-2.4-1.35-2.82-1.6-1.08-.04-2.92-.16-5.03-.55h0Zm.94,7.49h0s3,1.7,5.32,2.44c2.32.74,3.28.74,3.28.74l-3.71,1.83c1.7.05,3.09.03,4.18-.03,0,0,.13-.36.83-1.61.7-1.25,2.45-2.37,2.45-2.37,0,0-2.65.5-4.77-.27-1.14-.41-1.91-.84-2.39-1.14-1.44.31-3.29.56-5.2.4h0Zm6.2,5.82c.87.51,2.01,1.12,2.96,1.42,1.79.58,3.36.53,3.36.53l-.75,1.51c.86-.11,1.7-.25,2.46-.39-.28-.07-.43-.12-.43-.12,0,0,.03-.02.51-.91.48-.89,1.42-2.08,1.42-2.08,0,0-2.04.48-3.48.16-.92-.2-1.97-.54-2.6-.75-1.04.21-2.28.45-3.45.64h0Zm5.63,4.34c.62.1,1.81.25,3.27.24,2.15-.01,3.52.04,3.52.04l-2.36,1.68c1.31-.13,2.52-.29,3.54-.46-.58-.24-.97-.43-.97-.43l.47-.59c.47-.59,1.57-1.37,1.57-1.37,0,0-1.29,0-3.35.02-.89,0-1.71-.1-2.35-.21-.84.31-1.78.64-2.59.87-.25.07-.5.14-.75.21h0Zm5.77,2.95c.46.12.97.24,1.46.33,1.63.3,2.84.15,2.84.15l-2.44,1.23s.59.61,1.73,1.2c.19.01.37.02.57.01,1.9-.02,3.44-.04,4.46-.04h0c-3.5-.86-4.38-1.64-4.38-1.64l.9-.53c.9-.53,2.74-1.28,2.74-1.28,0,0-.99.22-2.82-.05-.71-.1-1.45-.31-2.08-.54-1.03.4-2.2.84-2.98,1.14h0Z"/>
    <path class="cls-2" d="m86.83,96.68c.74.38,2.01.65,2.81.78,1.02.17,2.49.2,3.51-.03l2.44-.54.23,2.49c.14,1.52-.43,3.27-1.3,4.49-.73,1.02-1.94,1.92-3.17,2.58,0,.04,0,.08,0,.12.14.07.28.14.4.2.56.28,1.12.55,1.68.82,1.38.68,3.44,1.66,4,3.2.2.55.37,1.11.52,1.67.33,1.24.76,2.93.03,4.09-.93,1.49-3,2.19-4.65,1.63-1.54-.52-3.64-.92-3.84-2.93-.06-.61.12-1.1.28-1.63-.12-.09-.24-.18-.34-.25-.52-.39-1.05-.77-1.58-1.15-.92-.66-2.61-1.79-3.26-2.67-.52-.7-.85-1.68-1.08-2.52-.3-1.13-.66-2.75-.09-3.83.24-.45.85-1.51.91-2.02-.05-.44-.36-1.17-.55-1.55l-3.25-6.37,6.26,3.42h0Z"/>
    <path class="cls-6" d="m85.78,98.63s.25.14.75.32c-.19.03-.37.08-.54.14-.12-.28-.21-.46-.21-.46h0Zm5.84,1.17c1.2-.03,2.01-.21,2.01-.21,0,0,.03.33-.04.82l-1.97-.62h0Zm1.33,2.46c-.07.11-.14.23-.22.34-1.05,1.47-3.61,2.47-3.61,2.47,0,0,0,2.11.23,2.77.24.65,5.59,2.53,6.02,3.72.43,1.19,1.03,3.41.76,3.84-.27.42-1.18,1.01-2.07.71-.89-.3-2.31-.64-2.35-1.06-.04-.42.72-1.7.29-2.39-.43-.69-4.99-3.57-5.61-4.42-.62-.84-1.22-3.57-.99-3.99,0,0,.64,1.1,1,2.06.35.96,1.26,1.28,1.26,1.28,0,0-.14-2.75.15-3.19.28-.44,1.51-.76,1.51-.76l-.9.76s.67-.1,2.13-.69c.86-.35,1.78-.98,2.4-1.44h0Z"/>
    <path class="cls-9" d="m95.82,112.97c.28,1.04.49,2.13.31,2.41-.27.42-1.18,1.01-2.07.71-.89-.3-2.31-.64-2.35-1.06-.03-.29.32-.98.4-1.61.59.12,1.66.28,2.51.06.58-.15.96-.35,1.2-.51h0Z"/>
    <path class="cls-2" d="m64.5,101.35c.08-2.49.79-4.92,1.96-7.16.7-1.34,1.74-2.91,2.82-4l5.12-5.2-.33,1.32c.78-.31,1.6-.51,2.39-.6l1.62-.18.5,1.55c.29.89.39,2.06.39,2.98-.01,2.31-.65,4.57-1.73,6.6-1.34,2.52-1.37,6.68-.75,9.45l.53,2.34c.99,1.22,2.04,2.5,2.62,3.95.77,1.93.89,4.55.27,6.56-.88,5.62-5.67,9-10.49,10.92,1.5-2.9,2.07-5.4,1.77-7.68,0-.02,0-.03-.01-.05-.29-.46-2.82-1.36-3.38-1.59-2.57-1.09-4.59-2.58-5.51-5.33-.9-2.69-.78-5.62-.09-8.34.32-1.25.81-2.7,1.42-3.86l.89-1.69h0Z"/>
    <path class="cls-1" d="m76.68,87.71s-3.71.4-4.61,2.98c-.91,2.58-1.84,7.4-1.84,7.4,0,0-.08-3.17.01-4.08.1-.9.47-2.41.47-2.41,0,0-5.2,5.28-4.04,12.22,1.16,6.94,6.89,9.24,6.89,9.24,0,0-4.31-1.79-5.96-3.44-1.65-1.65-2.21-5.65-2.21-5.65,0,0-2.91,5.53-1.2,10.63,1.71,5.1,8.57,4.07,8.99,7.35.43,3.28-.85,4.69-.85,4.69,0,0,4.12-3.08,4.89-6.37.77-3.29-1.85-6.45-1.85-6.45,0,0,1.72,1.38,2.17,2.76.45,1.38.44,1.8.44,1.8,0,0,.81-2.66-.22-5.23-1.03-2.57-4.38-5.07-5.05-8.02-.67-2.95-.3-5.8-.3-5.8,0,0,.05,2.22.52,4.06.47,1.84,1.6,3.16,1.6,3.16,0,0-1.43-6.37.94-10.83,2.37-4.46,1.21-8.02,1.21-8.02h0Z"/>
    <path class="cls-3" d="m73.49,88.9c-.61.43-1.14,1.01-1.42,1.8-.58,1.63-1.16,4.17-1.51,5.81-.05,1.84.2,3.78.2,3.78,0,0,.06-1.75.49-4.14.42-2.39,2.23-5.53,2.23-5.53,0,0,.13-.79.02-1.72h0Zm-3.15,4.43c.15-.83.37-1.73.37-1.73,0,0-5.2,5.28-4.04,12.22.42,2.51,1.44,4.42,2.57,5.82-.04-.07-1.83-3.21-1.87-8.11-.03-3.44,1.84-6.6,2.98-8.21h0Zm-4.59,12.42c-.26-1-.37-1.77-.37-1.77,0,0-2.91,5.53-1.2,10.63,1.71,5.1,8.57,4.07,8.99,7.35.43,3.28-.85,4.69-.85,4.69,0,0,.1-.08.28-.22.84-1.43,1.52-3.66.82-5.9-.91-2.9-3.71-2.28-6.96-5.02-3.25-2.74-.71-9.75-.71-9.75h0Z"/>
    <path class="cls-6" d="m68.01,107.8c2.09,3.88,5.55,5.26,5.55,5.26,0,0-4.31-1.79-5.96-3.44-.78-.78-1.32-2.09-1.67-3.25h0s.15,2.68,1.82,5.12c1.67,2.45,6.14,3.33,7.24,6.9.82,2.64-1.07,6.15-2.11,7.81,1.15-.97,3.75-3.38,4.34-5.93.77-3.29-1.85-6.45-1.85-6.45,0,0,1.72,1.38,2.17,2.76.45,1.38.44,1.8.44,1.8,0,0,.81-2.66-.22-5.23-1.03-2.57-4.38-5.07-5.05-8.02-.67-2.95-.3-5.8-.3-5.8,0,0,.05,2.22.52,4.06.47,1.84,1.6,3.16,1.6,3.16,0,0-1.13-5.03.28-9.28-.47-1.9-.94-3.86-.94-3.86,0,0-1.09.76-1.97,4.01-.88,3.25-.72,5.89-.72,5.89l-.84-3.65s-.56,2.31.47,6.11c1.03,3.8,5.82,7.49,5.82,7.49,0,0-2.16-1.29-5.09-2.65-2.35-1.09-3.26-2.36-3.53-2.81h0Z"/>
    <path class="cls-2" d="m96.42,42.09l3.09,2.05-.24,1.01c-.99,4.08-2.08,8.17-3.25,12.2-.82,2.81-1.68,5.7-2.75,8.42-.37.94-.8,1.98-1.34,2.84-.51.82-1.3,1.62-2.36,1.47-.16-.02-.32-.07-.46-.13-1.19-.53-2.19-1.47-2.72-2.67-.22-.51-.36-1.1-.34-1.66-2.73-.02-3.76-1.53-5.42-3.31,3.58-.51,5.93.15,2.47-3.72-1.08-1.21-1.66-2.71-1.73-4.33-.03-.61.01-1.35.16-1.98-1.37-.42-2.53-1.7-2.89-2.99,2.56-.5,4.14-1.2,5.35-3.63.32-.65.61-1.21.98-1.75-.18.03-.36.08-.51.13l-2.75.81c1.02-2.41,2.17-5.15,6.14-6.36,1.67-.47,3.43-.51,5.11-.06.69.18,1.52.49,2.13.89l.41.27.92,2.5h0Z"/>
    <path class="cls-6" d="m94.28,40.56s-2.5-1.63-6.03-.64c-3.53.99-4.28,2.72-4.28,2.72,0,0,1.11-.39,2.34-.29,1.23.11,1.27.14,1.27.14,0,0,.43-.15,1-.31.37-.23.91-.54,1.45-.75.98-.37,1.09-.37,1.09-.37,0,0-1.79-.24-1.92-.25-.13-.02,1.74-.84,3.03-.52,1.29.32,1.35.43,1.35.43l.76.04-.07-.2h0Zm-4.35,1.73c-1.04.3-2.27.81-3.07,1.64-1.6,1.66-1.44,3.16-3.27,4.71-1.83,1.55-2.87,1.75-2.87,1.75,0,0,.31.73,3,.32.62-.09,1.15-.25,1.58-.42.3-.13,1.23-.6,1.62-1.64.47-1.25,1.33-2.37,1.33-2.37,0,0-.36.16-.96.74-.59.58-.78.93-.78.93,0,0,.16-1.21,1.23-2.58,1.07-1.37,1.99-1.71,1.99-1.71,0,0-.92.12-1.32.34-.4.21-.4.23-.4.23,0,0,.47-1,1.83-1.46,1.36-.45,2.15-.37,2.15-.37,0,0-.24-.33-2.06-.11h0Zm-4.39,9c-1.04.64-2.53,1.16-2.53,1.16,0,0-.82,2.89,1.19,5.14,2.02,2.25,2.49,3.25,1.8,4.68-.68,1.43-2.49,1.02-2.49,1.02,0,0,.21.14.54.3.94.07,2.07-.1,2.5-1.21.79-2.04-.11-3.88-.09-6.23.02-2.34.51-3.5.51-3.5,0,0-.72.95-1,2.31-.28,1.37-.16,2.06-.16,2.06,0,0-.57-1.26-.43-2.82.14-1.56,1.04-2.64,1.04-2.64,0,0-.69.29-1.11.85-.42.56-.57.81-.57.81,0,0-.08-.89.79-1.93h0Zm1.99,14.58c.06.86.76,2.09,2.18,2.71.51.23,1.24-1.02,2.06-3.05-1.56.15-3.03.27-4.23.33h0Z"/>
    <path class="cls-3" d="m92.76,39.91c-1.07-.31-2.65-.52-4.51,0-3.53.99-4.28,2.72-4.28,2.72,0,0,.54-.19,1.29-.27.56-.61,1.6-1.51,3.18-1.82.96-.19,1.8-.26,2.46-.28.45-.07.93-.09,1.34.02.13.03.24.06.34.09l.18-.46h0Zm-7.59,23.61c.85-.4,1.63-1.16,1.35-2.63-.56-2.94-2.32-3.27-2.78-5.73-.25-1.35-.1-2.38.08-3.04-.48.2-.82.32-.82.32,0,0-.82,2.89,1.19,5.14,2.02,2.25,2.49,3.25,1.8,4.68-.68,1.43-2.49,1.02-2.49,1.02,0,0,.21.14.54.3.36.03.75.02,1.12-.06h0Zm-3.28-12.7c.71-.39,1.91-1.16,2.67-2.25,1.14-1.62,1.64-3.66,3.12-4.75.82-.6,1.4-1.08,1.76-1.38-.92.31-1.9.78-2.58,1.48-1.6,1.66-1.44,3.16-3.27,4.71-1.83,1.55-2.87,1.75-2.87,1.75,0,0,.15.36,1.16.43h0Z"/>
    <path class="cls-6" d="m84.94,42.41c.39-.06.87-.1,1.37-.06,1.23.11,1.27.14,1.27.14,0,0,.43-.15,1-.31.37-.23.91-.54,1.45-.75.98-.37,1.09-.37,1.09-.37,0,0-1.79-.24-1.92-.25-.05,0,.16-.12.51-.24-.25.02-.51.05-.78.1-1.73.3-3.4,1.34-4,1.74h0Zm-.86,21.18c.24.01,2.21.06,2.43-2.21.24-2.42-1.82-4.58-1.72-6.71.06-1.22.64-2.19,1.13-2.81.28-.2.52-.3.52-.3,0,0-.89,1.08-1.04,2.64-.14,1.56.43,2.82.43,2.82,0,0-.12-.69.16-2.06.28-1.37,1-2.31,1-2.31,0,0-.49,1.16-.51,3.5-.02,2.34.88,4.18.09,6.23-.43,1.1-1.54,1.28-2.47,1.21h0Zm-.79-12.81s1.77-.58,2.38-2.42c.62-1.85,1.01-2.72,1.4-3.32.39-.6.46-.66.46-.66l-.54.22s.33-.91,1.07-1.56c.61-.33,1.27-.58,1.87-.75,1.82-.22,2.06.11,2.06.11,0,0-.79-.09-2.15.37-1.36.45-1.83,1.46-1.83,1.46,0,0,0-.02.4-.23.4-.21,1.32-.34,1.32-.34,0,0-.92.33-1.99,1.71-1.07,1.37-1.23,2.58-1.23,2.58,0,0,.19-.35.78-.93.59-.58.96-.74.96-.74,0,0-.86,1.12-1.33,2.37-.39,1.04-1.32,1.51-1.62,1.64-.43.18-.96.33-1.58.42-.15.02-.3.04-.44.06h0Z"/>
    <path class="cls-2" d="m114.11,60.63c.88.18,1.68.5,2.46,1,3.2,2.23,1.92,6.79,1.93,7.28-.98-1.69-2.07-2.64-4.01-3.14l-2.26.92c-1.45.59-3.43.76-4.94.36-1.24-.33-2.35-.6-3.5-1.22-1.61-.87-2.76-2.17-3.61-3.77-.88-1.65-1.18-3.49-.9-5.33.12-.77.37-1.72.73-2.42l.16-.31,2.81-2.07.7.2c1.94.55,3.77,2.15,4.41,4.08.53,1.62,1.16,2.01,2.83,1.91,1.04-.06,2.64-1.44,3.55-2.06.38,1.75.78,2.91-.37,4.56h0Z"/>
    <path class="cls-6" d="m105.49,54.84c.5.46.95,1.06,1.21,1.84.79,2.38,2.1,3.06,4.33,2.93,2.23-.13,2.41-1.56,2.41-1.56,0,0-.03,1.5-.94,2.16l-.92.66s-2.27-.02-3.85-.82c-1.58-.79-2.24-1.52-2.24-1.52,0,0,1.28,2.03,3.9,2.85,2.62.83,4.27.12,6.39,1.49,2.12,1.37,1.91,3.56,1.91,3.56,0,0-1.17-2.03-3.48-2.2-2.31-.17-3.15.02-4.61.07-1.46.05-1.65.05-1.65.05,0,0,1.47.76,2.54.86,1.08.11,1.19.11,1.19.11,0,0-2.03.82-4,.3-1.09-.29-2.32-.55-3.51-1.29.31,0,.53,0,.65.02,1.35.3,2.12.37,2.12.37,0,0-1.95-1.35-1.26-1.32.69.03,1.48-.24,1.48-.24l-2.97-1.11s-.31-.4.71-.02c1.02.38,3.37.42,3.37.42,0,0-1.16-.7-2.34-1.92-1.18-1.22-1.59-2.43-1.59-2.43,0,0,.24-.66.96-.07.72.59,1.93.91,1.93.91,0,0-.27-.36-.87-1.28-.6-.92-.51-1.69-.51-1.69,0,0-.13-.45-.35-1.14h0Z"/>
    <path class="cls-3" d="m105.91,55.29c.32.39.6.85.78,1.4.79,2.38,2.1,3.06,4.33,2.93,2.23-.13,2.41-1.56,2.41-1.56,0,0-.03,1.5-.94,2.16l-.92.66s-.29,0-.73-.04l.7-.63s-1.68.16-3.48-.66c-.33-.15-.61-.36-.85-.61-.06-.08-.31-.42-.79-1.15-.45-.91-.59-1.8-.59-1.8l.08-.69h0Zm3.31,6.05c.05.02.1.04.16.05,2.62.83,4.27.12,6.39,1.49,2.12,1.37,1.91,3.56,1.91,3.56,0,0-1.17-2.03-3.48-2.2-1.66-.13-2.57-.06-3.49,0,.47-.14,1.61-.43,3.04-.44,1.91-.01,2.82.62,2.82.62l-.55-.51c-.55-.51-1.82-1.14-3.58-1.45-1.76-.31-3.22-1.12-3.23-1.13h0Zm-.28,3.47c.48.19,1.05.37,1.55.42,1.08.11,1.19.11,1.19.11,0,0-1.49.6-3.14.45.82-.13,1.31-.36,1.31-.36l-.91-.61h0Z"/>
    <path class="cls-6" d="m109.53,60.65c-.6-.12-1.25-.31-1.81-.59-1.58-.79-2.24-1.52-2.24-1.52,0,0,1.23,1.95,3.75,2.8.36.27.94.62,1.77.84,1.52.41,1.56.47,1.56.47,0,0-1.17.12-1.88.13-.71,0-1.29,0-1.29,0l1.6.74s-.5.16-1.61.24c-1.11.09-2.29.09-2.29.09l.89.5h-.03s.08.04.23.11h0s-.89-.09-.89-.09l1.58.97s-2.2-.29-3.45-.65c-.18-.05-.36-.17-.51-.32,1.29.28,2.03.35,2.03.35,0,0-1.95-1.35-1.26-1.32.69.03,1.48-.24,1.48-.24l-2.97-1.11s-.31-.4.71-.02c1.02.38,3.37.42,3.37.42,0,0-1.16-.7-2.34-1.92-1.18-1.22-1.59-2.43-1.59-2.43,0,0,.24-.66.96-.07.72.59,1.93.91,1.93.91,0,0-.27-.36-.87-1.28-.6-.92-.51-1.69-.51-1.69,0,0-.03-.12-.1-.32h0s.46.82,1.17,2.17c.7,1.35,1.03,2.21,2.63,2.81h0Z"/>
    <path class="cls-2" d="m91.98,42.4c-.02-.66.02-1.31.08-1.9.08-.82.21-1.63.36-2.44.38-1.93,1.79-3.98,1.79-3.98.65-.09,2.8,2.85,3.03,4.4l.11.12c.52.6,1.02,1.45,1.4,2.14.11.19.26.44.42.67.3.02.6.05.88.1.3-.49.63-.98.98-1.4.4-.48.92-.21,1.45-.6l4.05-4.24c1.52,2.99,2.02,4.84.84,8.32-.25.73-.62,1.6-1.07,2.37.43,1.68,1.01,4.19.89,5.32-.17,1.49-.43,3.3-1.15,4.62-.41.76-.78,1.79-1.05,2.61l-.11.33c0,.28.02.55.04.82.04.64.16,1.26.36,1.87.16.51.37,1,.52,1.51.37,1.3-.07,2.78-.71,4.02,1.96,1.78,3.67,4.46,4.01,7.01.23,1.73.44,3.84.34,5.62l.3,2.77c.16.37.31.73.44,1.09.25.7.49,1.54.64,2.37,1.24.76,2.01,2.16,2.01,3.75,0,.85-.08,1.59-.38,2.39-.31.84-.44,1.24-.56,2.17-.4,3.1-1.11,5.69-2.74,8.38-.95,1.57-2.66,3.35-4.57,3.69.19.4.37.75.54,1.02.48.77,1.36,1.63,1.99,2.3,1.07,1.14,2.34,2.52,2.82,4.03.4,1.24.53,2.89.6,4.19.08,1.57.26,4.64-.86,5.86-1.64,1.79-5.84.9-7.52-.48-1.16-.94-2.79-2.43-2.62-4.08.08-.8.73-1.86.81-2.57-.08-.16-.25-.39-.33-.51-.56-.82-1.06-1.59-1.14-2.61-.16-1.85-1.16-4.76-1.98-6.4-.58-1.16-1.36-2.2-2.18-3.2-.68-.82-1.65-1.87-2.01-2.86-.03-.1-.07-.19-.1-.29h-.01c-1.15.09-2.49.05-3.62-.16-.92-.18-1.86-.42-2.77-.75-.2.81-.37,1.64-.54,2.45-.25,1.21-.37,2.58.2,3.73.7,1.42.79,1.98,1.09,3.5.26,1.29,1.22,3.32,1.8,4.5.49,1,1.04,2.04,1.66,2.97,1.81,2.69,3.63,5.03,4.31,8.29.39,1.86.41,4.36-.23,6.19l-.32.89-3.01,1.34-.69-.14c-1.15-.23-2.51-.74-3.47-1.4-.39-.27-1.05-.68-1.39-1.02l-.81-.82.21-1.13c.14-.75.46-2.91.36-3.8-.2-.13-.42-.25-.62-.41-.62-.49-1.03-1.12-1.22-1.89-.36-1.44-.77-2.49-1.37-3.86-.59-1.34-1.35-2.69-2.05-3.97-.68-1.26-2.66-4.62-2.78-5.94-.02-.2-.27-.78-.35-.98-.45-1.14-.83-2.28-1.15-3.47-.49-1.78-1.18-3.53-1.73-5.3-.71-2.27-1.27-4.57-1.43-6.96-.22-3.37.14-7.32,2.64-9.86.53-.54,1.2-1.22,1.85-1.71.64-.77,1.28-1.54,1.92-2.31.61-.74,1.34-1.56,1.89-2.33.15-.23.33-.43.54-.59.13-.33.27-.65.41-.95.83-1.8,2.39-4.8,3.91-5.99.2-.16.4-.31.6-.47,0-1.46.07-3.08.49-4.48.08-.27.17-.55.24-.82,0-2.7.1-5.45.28-8.15.16-2.28.38-5.23,1.09-7.4.57-1.72,1.73-4.12,3.5-5.13h0Zm9.81,54.36l.42-.05c.15-.02.5-.1.73-.19.09-.41.19-.82.29-1.23-.31.36-.63.71-.96,1.02-.15.15-.31.3-.49.45h0Z"/>
    <path class="cls-11" d="m96.8,44.98s-1.67.07-2.37-1.38c-.7-1.46.36-6.19.4-6.06.04.13.26,1.48.46,2.71.2,1.23.42,1.86.42,1.86l-.02-2.06s.45.52,1.13,1.76c.68,1.24,1.36,1.8,1.36,1.8,0,0,1.46-.03,1.94.22.48.25.54.25.54.25l.82-.58s.64-1.22,1.25-1.95c.61-.74,1.3-1.16,1.3-1.16l1.67-2.24s.18,3-.42,4.77c-.6,1.77-1.36,2.66-1.36,2.66,0,0,1.19,4.53,1.08,5.49-.11.96-.32,2.77-.89,3.81-.57,1.04-1.21,2.97-1.21,2.97l-.17-1.46s-.14,1.54-.01,3.46c.13,1.92.75,3.15.95,3.84-.66-1-1.23-.06-1.92.02-.69.08-.97-.64-1.89-.6-.92.04-.98,2.31-1.67,2.4-.69.08-1-1.6-1.01-1.61-.04-.7-.08-1.39-.15-1.87-.18-1.21-.44-2.3-.44-2.3,0,0-.01.88.01,1.92.03,1.04.03,1.38.03,1.38,0,0-.84-3.65-1.96-4.79-1.12-1.14-2.01-2.02-2.07-3.98-.05-1.96.54-5,.54-5,0,0-1.61,3.01-1.43,6.12.18,3.11,2.2,3.12,2.51,4.38.32,1.27,1.75,4.89,1.75,4.89,0,0-.15,2.94,1.05,4.2,1.2,1.26,2.43.65,2.85,1,.43.34,1.19.34,1.96.02.77-.31,1.79-1.1,1.79-1.1,0,0,2.83,2.26,3.28,5.64.45,3.38.31,5.38.31,5.38l.25,2.27-1.09-1.18s1.05,1.64,1.72,3.48c.67,1.84.68,3.22.68,3.22,0,0,1.85.12,1.84,2.14,0,2.02-.57,1.46-.93,4.27-.36,2.81-.96,5.08-2.44,7.51-1.48,2.43-3.13,2.68-3.13,2.68,0,0-1.31-.68-1.75-2.22-.43-1.53.09-3.04.09-3.04,0,0,2.27-.25,2.56-1.56.3-1.31.48-2.04.48-2.04,0,0,1.02-1.7.86-2.85-.16-1.15-.36-2.3-.26-3.23.11-.92,1.02-2.12,1.02-2.12,0,0-.96.08-1.3.86-.14.31-.2.98-.22,1.68h0s-1.5-.41-2.32-1.48c-.81-1.07-.32-2.67-.32-2.68.23-.51.41-.84.41-.84,0,0-.87.98-1.54,2.18h0s-.9.98-1.02.52c-.12-.46-.81-.95-.81-.95,0,0,.43,1.3.21,2.73-.22,1.42-.67,2.39-1.56,2.51-.88.12-.93-.57-1.44-2.1-.51-1.53-1.82-3.43-1.83-3.44-.15-.34-.3-.66-.44-.96-.78-1.72-1.32-1.91-1.32-1.91,0,0,1.45,3.41,1.66,5.83.21,2.42,2.51,7.09,2.51,7.09,0,0,2.63,1.98,2.72,4.25.09,2.27,1.59,6.37,2.68,8.13,1.09,1.76,3.99,4,4.58,5.85.59,1.84.75,7.3.21,7.88-.53.58-3.38.22-4.5-.7-1.12-.91-1.86-1.79-1.82-2.14.04-.35.91-2.01.82-3.04-.08-1.04-1.4-2.06-1.48-3.06-.08-1-.76-4.34-2.21-7.21-1.44-2.87-3.73-4.81-4.08-5.81-.35-1-.71-2.8-3.38-5.16-2.67-2.36-2.04-6.02-3.05-6.74-1-.72-2.56-2.79-2.56-2.79,0,0,.09,1.34,1.02,2.57,0,0,.67,1.91.37,3.6-.29,1.69.83,2.8.49,3.42-.34.62-1.46.7-2.54.02-1.08-.68-2.82-1.78-2.82-1.78,0,0,1.98,2.79,5.1,3.8,2.14.69,3.76.59,4.58.46.37.53.43.86.43.86,0,0-1.69.13-3.04-.13-1.35-.26-4-.93-5.86-2.61-1.86-1.68-2.91-3.05-2.91-3.05,0,0,.55,1.73,1.68,3.37,1.13,1.64,2.05,2.02,2.05,2.02,0,0-.41,1.5-.86,3.7-.44,2.19-.28,3.81.39,5.15.66,1.34.59,1.34.91,2.95.32,1.61,2.2,5.9,3.79,8.27,1.59,2.37,3.38,4.62,3.98,7.5.6,2.88-.15,5-.15,5l-1.49.67s-1.62-.33-2.66-1.06c-1.04-.72-1.08-.76-1.08-.76,0,0,.63-3.46.31-4.85-.32-1.38-1.55-1.06-1.82-2.18-.28-1.11-.4-1.73-1.49-4.22-1.1-2.49-4.56-8.31-4.65-9.23-.08-.92-.7-1.69-1.57-4.83-.87-3.15-2.78-7.24-3.09-11.81-.3-4.57.79-6.92,2.01-8.16,1.22-1.24,1.79-1.63,1.79-1.63,0,0,3.92-4.68,4.15-5.07.23-.39-.29,2.23-.29,2.23,0,0,.52-2.16,1.39-4.05.87-1.89,2.27-4.4,3.27-5.18l.99-.78.32,1.69s.14-1.46.13-3.04c-.01-1.58.09-2.92.39-3.92.3-1,.34-1.16.34-1.16,0,0-.01-11.26,1.27-15.15,1.28-3.89,3.04-4.1,3.04-4.1,0,0,.68.42,1.51.78.83.36,1.67.08,1.67.08h0Zm8.81,46.01c0,.46.02.77.02.77,0,0-1.19-.22-2.93-1.44-.38-.27-.56-.7-.61-1.2.13.14.3.32.53.54.58.54,2.14,1.07,2.99,1.33h0Zm-3.13,1.03c.19.18.32.27.32.27,0,0-1.1,1.51-2.06,2.44-.95.93-1.76,1.32-1.76,1.32,0,0-.22-.39-.5-.97.25-.14.63-.37,1.18-.74,1.16-.78,2.82-2.32,2.82-2.32h0Z"/>
    <path class="cls-6" d="m102.23,101.2c-.13-1.24.23-2.29.23-2.29,0,0,2.27-.25,2.56-1.56.3-1.31.48-2.04.48-2.04,0,0,1.02-1.7.86-2.85-.16-1.15-.36-2.3-.26-3.23,0-.02,0-.04,0-.06.22-.35.57-.86,1.02-.99.77-.24,1.65-.26,2.29.35.64.61.57,1.53.57,1.53,0,0-.8-1.19-1.6-.78-.8.41-1.21.59-1.04,1.7.16,1.11.21,2.52-.39,4.17-.6,1.66-.44,2.39-.89,3.7-.45,1.31-.95,1.66-2.41,2.06-.57.15-1.06.24-1.44.3h0Zm3.79-13.53c-.07.09-.13.18-.18.3-.14.31-.2.98-.22,1.68h0s-1.5-.41-2.32-1.48c-.81-1.07-.32-2.67-.32-2.68.23-.51.41-.84.41-.84,0,0-.87.98-1.54,2.18h0s-.9.98-1.02.52c-.12-.46-.81-.95-.81-.95,0,0,.43,1.3.21,2.73-.22,1.42-.67,2.39-1.56,2.51-.88.12-.93-.57-1.44-2.1-.51-1.53-1.82-3.43-1.83-3.44-.15-.34-.3-.66-.44-.96-.02-.04-.04-.09-.06-.13.14-.86.26-2.2.12-3.92-.25-3.11-1.66-6.06-1.23-5.56.43.5,2.75,2.98,3.65,5.31.9,2.34,1.78,1.06,1.78,1.06l-.28-1.54s1.43,1.41,1.63,2.56c.2,1.15.24,1.27.24,1.27,0,0,.53-1.54.78-3.12.26-1.58,1.32-2.89,1.93-4.13.61-1.23,1.03-1.55,1.03-1.55,0,0-.33,2-.66,4.23-.33,2.23-.28,3.5-.28,3.5,0,0,.61-1.08,1.11-1.08.5,0,.01,1.77.25,3.11.24,1.34,1.03,2.51,1.03,2.51h0Zm-6.07,7.74c-.26-.25-.53-.5-.79-.74.15-.09.31-.2.49-.33,1.16-.78,2.82-2.32,2.82-2.32.19.18.32.27.32.27,0,0-1.1,1.51-2.06,2.44-.28.27-.55.5-.78.68h0Zm5.66-4.42c0,.46.02.77.02.77,0,0-1.19-.22-2.93-1.44-.38-.27-.56-.7-.61-1.2.13.14.3.32.53.54.58.54,2.14,1.07,2.99,1.33h0Z"/>
    <path class="cls-6" d="m103.56,121.56l-.03-.03c-1.12-.91-1.86-1.79-1.82-2.14.04-.35.91-2.01.82-3.04-.08-1.04-1.4-2.06-1.48-3.06-.08-1-.76-4.34-2.21-7.21-1.44-2.87-3.73-4.81-4.08-5.81-.35-1-.71-2.8-3.38-5.16-2.67-2.36-2.04-6.02-3.05-6.74-1-.72-2.56-2.79-2.56-2.79-.64-1.08-1.22-2.47-1.35-3.54-.13-1.07.24-2.8.24-2.8,0,0,1.33,3.45,3.04,5.47,1.71,2.02,3.06,2.71,3.26,3.97.2,1.27.49,3.46,1.69,5.14,1.2,1.68,1.9,2.64,2.49,3.48.58.84,1.1,2.49,2.65,4.32,1.55,1.83,2.82,6.28,3.76,9.04.94,2.76,2.49,4.09,2.58,5.82.08,1.53-.23,3.83-.56,5.08h0Zm-16.41-29.78c-.28,1.68.83,2.77.49,3.39-.34.62-1.46.7-2.54.02-1.08-.68-2.82-1.78-2.82-1.78,0,0,1.98,2.79,5.1,3.8,2.14.69,3.76.59,4.58.46.37.53.43.86.43.86,0,0-1.69.13-3.04-.13-1.35-.26-4-.93-5.86-2.61-1.86-1.68-2.91-3.05-2.91-3.05,0,0,.55,1.73,1.68,3.37,1.13,1.64,2.05,2.02,2.05,2.02,0,0-.41,1.5-.86,3.7-.44,2.19-.28,3.81.39,5.15.66,1.34.59,1.34.91,2.95.32,1.61,2.2,5.9,3.79,8.27,1.59,2.37,3.38,4.62,3.98,7.5.6,2.88-.15,5-.15,5l-1.49.67s-.38-.08-.88-.24c.28-.27.53-.7.69-1.35.57-2.35.74-3.7-.63-6.68-1.37-2.99-5.5-10.57-5.98-12.37-.48-1.8-.71-1.88-1.41-3.29-.7-1.42-2-5.67-2-5.67l1.36,2.3s-.44-1.69-.26-3.76c.18-2.08-.23-5.02-1.21-7.02-.97-2-2.33-2.68-2.33-2.68,0,0,1.75.06,2.89,1.44,1.15,1.38,3.65,1.61,4.85,1.35.52-.11.9-.83,1.16-1.59h0Z"/>
    <path class="cls-7" d="m96.8,44.98s-.33.01-.75-.1l-.59-.23c-.39-.2-.77-.53-1.03-1.06-.7-1.46.36-6.19.4-6.06.04.13.26,1.48.46,2.71.2,1.23.42,1.86.42,1.86l-.02-2.06s.45.52,1.13,1.76c.68,1.24,1.36,1.8,1.36,1.8,0,0,1.46-.03,1.94.22.48.25.54.25.54.25l.82-.58s.36-.68.79-1.32l2.66,1.65c-.51,1.17-1.01,1.75-1.01,1.75,0,0,.43,1.63.75,3.14l-.45.84s-.12,2.4-.53,3.77c-.41,1.37-.79,2.37-.79,2.37,0,0,.17-1.02.14-2-.03-.98-.28-2.05-.28-2.05,0,0,0,1.25-.48,2.58-.49,1.33-.23,2.88-.16,6.11.03,1.32.13,2.36.25,3.13-.19.11-.39.21-.6.24-.69.08-.97-.64-1.89-.6-.21-2.27-.95-8.26-.95-8.26l.18-1.65-.33-.56s-.19.35-.71.26c-.52-.09-.75-.59-1.28-1.1-.52-.51-1.08-.82-1.03-1.51.05-.69.42-.87.65-.81.23.06,1.2.53,1.2.53,0,0-1.2-1.32-1.76-1.2-.56.12-1.07.83-1.12,1.91-.05,1.08.26,1.55.28,1.98.02.42-.26.77.4,1.65.66.88,1.14.3,1.56.78.43.48,1.21,5.29,1.18,5.95-.03.65-.1,2.27-.29,2.04-.19-.23-1.42-5.33-1.42-5.33l-.45,1.58s-.86-1.68-1.83-3.06c-.97-1.38-.83-3.53-.47-5.84.37-2.31,1.09-3.62,1.09-3.62,0,0-1.99,1.44-2.48,2.75-.49,1.31-.64,2.04-.64,2.04,0,0-.17-2.07.05-3.04.22-.96.51-2.3,1.59-3.16.5-.4,1.14-.54,1.67-.58.06.02.11.05.17.07.83.36,1.67.08,1.67.08h0Zm-8.82,85.16c-.82-.57-.85-.6-.85-.6,0,0,.63-3.46.31-4.85-.32-1.38-1.55-1.06-1.82-2.18-.28-1.11-.4-1.73-1.49-4.22-1.1-2.49-4.56-8.31-4.65-9.23-.08-.92-.7-1.69-1.57-4.83-.87-3.15-2.78-7.24-3.09-11.81-.3-4.57.79-6.92,2.01-8.16,1.22-1.24,1.79-1.63,1.79-1.63,0,0,3.92-4.68,4.15-5.07.23-.39-.29,2.23-.29,2.23,0,0,.52-2.16,1.39-4.05.87-1.89,2.27-4.4,3.27-5.18l.99-.78.32,1.69s.14-1.46.13-3.04c-.01-1.58.09-2.92.39-3.92.3-1,.34-1.16.34-1.16,0,0-.01-11.26,1.27-15.15,1.28-3.89,3.04-4.1,3.04-4.1,0,0,.1.06.26.15-.72.35-2.65,1.67-3.21,6.11-.69,5.5-.76,11.5-.71,12.88.05,1.38-.52,2.66-.62,4.39-.1,1.73.51,6.38.51,6.38,0,0-.62-.8-.89-1.34-.27-.54-1.27-.49-1.27-.49,0,0-3.51,3.22-2.75,7.71.77,4.49,2.35,5.94,2.35,5.94,0,0-1.55-1.18-2.44-2.86-.9-1.68-1.14-3.34-1.14-3.34,0,0-.73.69-1.14,1.43-.41.74-1.45,1.63-2.6,2.13-1.15.51-5.57,3.26-4.01,11.5,1.56,8.24,3.97,13.1,3.97,13.1,0,0,2.35,5.13,3.83,8.62,1.49,3.49,2.74,5.94,2.74,5.94,0,0,1.2.49,1.59,2.26.25,1.09.06,3.69-.11,5.52h0Z"/>
    <path class="cls-10" d="m95,38.5c.09.5.19,1.14.29,1.75.2,1.23.42,1.86.42,1.86v-1.61s.71,1.32,1.04,2.26c.33.94.95,1.65.95,1.65,0,0-1.88.07-2.43-.79-.54-.86-.27-5.11-.27-5.12h0Zm2.82,4.75c.22.24.36.36.36.36,0,0,1.46-.03,1.94.22.48.25.54.25.54.25l.18-.13c1.48,2.28,3.4,5.4,3.34,6.08h0c-.1,1.11-.84,1.66-.84,1.66l-.87-1.3s-.04.25-.18,1.39c-.15,1.13-.83,2.49-.83,2.49,0,0,.12-1.28-.27-2.21-.39-.93-.76-1.74-.76-1.74l.07,1.5s-.19-.25-.8-1.49c-.61-1.24-.77-3.26-1.02-4.87-.17-1.15-.63-1.87-.87-2.19h0Z"/>
    <path class="cls-4" d="m107.01,101.85c-1.41,2.09-2.89,2.31-2.89,2.31,0,0-1.31-.68-1.75-2.22-.43-1.53.09-3.04.09-3.04,0,0,1.34-.15,2.09-.81h0s-.01,1.82.88,2.7c.55.55,1.18.88,1.57,1.06h0Zm-.53,10.41c.61.72,1.12,1.43,1.33,2.09.05.16.1.35.14.56-.43-.77-.96-1.7-1.48-2.65h0Zm1.81,5.4c.13,2.05.06,4.22-.26,4.57-.53.58-3.38.22-4.5-.7-1.12-.91-1.86-1.79-1.82-2.14.04-.35.91-2.01.82-3.04,0,0,1.92,2.08,3.86,2,.87-.04,1.49-.35,1.91-.69h0Zm-15.59,9.16c.23,2.29-.33,3.87-.33,3.87l-1.49.67s-1.62-.33-2.66-1.06c-1.04-.72-1.08-.76-1.08-.76,0,0,.25-1.4.36-2.77,0,0,1.4,1.02,2.78.85,1.38-.16,2.42-.8,2.43-.8h0Z"/>
    <path class="cls-9" d="m102.23,101.2c-.13-1.24.23-2.29.23-2.29,0,0,1.34-.15,2.09-.81h0s0,1.31.53,2.24c-.34.23-.79.4-1.42.57-.57.15-1.06.24-1.44.3h0Z"/>
    <path class="cls-9" d="m90,131.12c.28-.27.53-.7.69-1.35.21-.86.37-1.59.41-2.31.95-.25,1.59-.64,1.6-.64.23,2.29-.33,3.87-.33,3.87l-1.49.67s-.38-.08-.88-.24h0Zm14.12-13.48c-.06,1.38-.3,2.96-.56,3.92l-.03-.03c-1.12-.91-1.86-1.79-1.82-2.14.04-.35.91-2.01.82-3.04,0,0,.66.71,1.59,1.29h0Z"/>
    <path class="cls-2" d="m109.81,43.28c1.37.05,2.98-1.36,4.08-2.38.74,5.51-3.92,10.01-9.1,9.37-2.28-.28-4.46-2.49-5.34-4.52-.26-.6-.53-1.2-.81-1.8l-2.93-4.23,1.04-.87c1.17-.98,2.97-1.21,4.41-.81,1.05.29,2.07.97,2.98,1.55.39.25,1.87,1.23,2.34,1.14.87-.16,2.51-2.4,3.02-3.26.56,1.88.99,3.91.31,5.8h0Z"/>
    <path class="cls-6" d="m97.71,39.99s1.22-1.02,3.07-.52c1.85.5,4.25,3.04,5.98,2.72,1.73-.32,2.1-2.02,2.1-2.02,0,0,.11,2.27-.86,3.2l-.97.93s-1.45-.17-2.56-.79l-1.11-.62s1.43,1.63,3.35,2c1.92.37,4.67-.29,5.33-1.12.67-.83.69-.87.69-.87,0,0,.19,1.47-1.38,2.72-1.58,1.25-3.85,1.36-5.22,1.14-1.37-.22-1.44-.24-1.44-.24,0,0-1.61-1.58-2.25-2.65-.39-.65-.72-1.02-.92-1.22.46.09.94.15.94.15,0,0-.23-.57-.87-.99-.64-.42-1.56-.62-1.56-.62l1.6.1s-.31-.61-1.7-.91c-.67-.14-1.33-.03-1.83.12l-.37-.53h0Zm3.69,2.65c.21.32.66,1.08.79,1.74.18.86,1.08,2.39,2.79,3.26,1.72.87,3.38.3,3.38.3,0,0-1.47,1.09-3.4.85-1.29-.16-2.47-1.17-3.28-2.2-.31-.7-.51-1.53-.61-2.28-.18-1.37-.63-1.93-.63-1.93l.52.15c.12.04.27.07.42.1h0Z"/>
    <path class="cls-3" d="m97.71,39.99s1.22-1.02,3.07-.52c1.85.5,4.25,3.04,5.98,2.72,1.73-.32,2.1-2.02,2.1-2.02-.01.52-.81,2.61-2.35,2.68-1.54.07-3.71-1.97-5.56-2.85-1.4-.67-2.61-.13-3.11.17l-.13-.19h0Zm7.16,4.17c.52.32,1.14.61,1.83.75,1.92.37,4.67-.29,5.33-1.12.67-.83.69-.87.69-.87,0,0,.04.33-.08.82-.45.75-1.11,1.54-2.06,1.9-2.01.77-3.79.13-3.79.13,0,0,.13,0,1.02.01.88.01,1.8-.26,1.8-.26,0,0-.33,0-2.04-.23-1.71-.24-2.71-1.12-2.71-1.12h0Zm-2.35,1.08s.35,2.01,2.76,2.95c.58.23,1.19.34,1.78.39.81-.26,1.32-.64,1.32-.64,0,0-1.67.57-3.38-.3-1.23-.63-2.04-1.59-2.47-2.4h0Z"/>
    <path class="cls-2" d="m98.7,52.9s-.34.41-.88.53c-.54.12-1.05-1.03-1.55-1.39-.5-.36-.77-.51-.89-1.2-.12-.69-.07-1.27-.07-1.27,0,0-.33,1.5-.14,2.21l.2.71s-.23.41.35,1.11c.58.71,1.27.47,1.52.53.25.06.82,2.2.99,3.93.17,1.73.65,4.61.65,4.61l-.3-8.34s.51-.8.55-1.46c.03-.65-.42-1.13-.42-1.13,0,0,.07.34.07.61,0,.28-.09.55-.09.55h0Z"/>
    <path class="cls-7" d="m92.25,62.74s-.48,3.04,1.13,6.99c1.61,3.95,3.94,7.27,4.02,7.58.08.31-1.31-5.91-2.72-8.86-1.41-2.95-2.43-5.71-2.43-5.71h0Z"/>
    <path class="cls-7" d="m100.11,79.75s.14-2.31.73-4.62c.6-2.31,1.85-3.9,1.85-3.9,0,0-.22,1.81-.66,3.81-.45,2-1.92,4.7-1.92,4.7h0Z"/>
    <path class="cls-7" d="m92.62,86.49s-3.87-2.93-4.73-5.73c-.87-2.8.17-3.38.87-2.35.7,1.03.4,2.38,1.76,4.1,1.36,1.72,2.11,3.98,2.11,3.98h0Z"/>
    <path class="cls-7" d="m79.98,101.04s-2.48-7.44-1.75-7.98c.73-.54,1.24.99,1.41,2.99.17,2,.35,4.99.35,4.99h0Z"/>
  </g>
</svg>