<?xml version="1.0" encoding="utf-8"?>
<!-- Generator: Adobe Illustrator 28.0.0, SVG Export Plug-In . SVG Version: 6.00 Build 0)  -->
<svg version="1.1" id="Layer_1" xmlns="http://www.w3.org/2000/svg" xmlns:xlink="http://www.w3.org/1999/xlink" x="0px" y="0px"
	 viewBox="0 0 806 806" style="enable-background:new 0 0 806 806;" xml:space="preserve">
<style type="text/css">
	.st0{opacity:0.2;fill-rule:evenodd;clip-rule:evenodd;fill:#F7931A;enable-background:new    ;}
	.st1{fill:none;stroke:url(#SVGID_1_);stroke-width:6;}
</style>
<path class="st0" d="M477.2,641c-4.1,8.9-6.9,16.7-14,24c-7.7,8-13.7,9.5-23.6,12.4c-5.8,1.7-7,3.7-14.4,3.6
	c-4.8-0.1-11.5-1.3-16.2-0.2c-10.4,2.4-16.1,11.6-27.8,12.3c-11.1,0.6-18.3-3.1-28-6c-9.1-2.8-19.7-6.7-28.1-10
	c-9.2-3.5-17.5-6-27-9c-10.2-3.3-15.5-10.1-28.3-6.5c-0.8,4.8,0.4,12.3-5.5,14.7c-4,1.6-10.7-2.6-15-4.3c-11.2-4.3-21.3-6.7-32-11.1
	c-5.2-2.2-8.9-2-14.1-5.9c-5-3.7-10.4-6.5-15.6-10c-9.7-6.4-19.1-13.5-28.7-20c-18.5-12.5-30.4-29.8-41.6-48
	c-5.9-9.6-9.3-20.1-13-31.1c-4.6-13.5-3-17.3,6-28.3c16.2,6.7,22.6-3.3,18.1-20.6c-3.9-15.1-5.6-35.3-2.2-51.1
	c0.6-2.8,2.7-4.8,3.2-8.8c0.5-4.4-0.4-7.6,0.8-12.1c1.9-7.3,3.2-12.2,3.1-20c0-7.9-1.1-16.4,0.9-24c1.3-4.8,2.9-6.8,3.2-12
	c0.3-5.3-0.7-10,0.8-15.1c3.9-13.3,16.1-17.1,27.1-20.9c7.5-2.6,11.3-5.2,16.1,0c5.1,5.5,3.9,13,3.9,20.1c0.1,13.4-8.6,25.2-16,36
	c-3.3,4.8-9.1,9.5-8.3,16.1c0.5,3.6,5,4.2,4.7,7.9c-0.4,4.4-5.1,5.8-7.5,8.9c-19.1,25,16.9,46.8,34,60.1
	c9.7,7.6,24.5,11.4,28.2,23.9c4,13.4-5.3,24.5-10.1,36c-5.1,12-9.5,33-2.1,44.2c3.2,4.8,9.3,7.6,14.1,9.9c7,3.4,9.7,7.6,15.9,12.1
	c10.1,7.4,22.6,9.7,35.1,9c7.9-0.5,13.7-3.7,20-8.1c4.8-3.4,11.2-9.5,16.9-11.1c4.1-1.1,7.1-0.3,11.2-0.8c5.6-0.7,6.7-3,11.6-4.3
	c8.5-2.2,14.6,3.8,21.2,7.2c5.7,2.9,12.3,6.9,19.2,5.2c6.6-1.8,14.3-6,20.7-7.3c15.3-3.2,40-4.3,52.2,6.1
	c6.2,5.3,8.3,12.5,13.8,18.1c5.5,5.5,15.4,6.7,17.1,18.9L477.2,641L477.2,641z M173.2,293c14.7,0.3,28.1-10.7,40.1-19
	c9.8-6.8,20.1-17.5,24.9-28c1.4-3.2,1.9-5.7,3-9c0.2-0.7,3.8-10.2,3.8-10.5c-0.1-5.5-4.7-12.2-8.8-16.5c-11.9-12.3-30.1-3.4-42.1,4
	c-11.3,7-22.2,14.9-31.8,24c-4.6,4.3-10.9,8.3-14.2,13.9c-4.3,7.3-3.1,16.2-2.9,25.1c0.2,13.5-17.5,29.1,3.9,32.1
	c8.4,1.2,34.2-5.9,36.1-16.1h-12L173.2,293L173.2,293z"/>
<path class="st0" d="M437.2,721c3.6,4.1,7.9,1.3,12.1,0c4-1.3,7.4-2,11.9-2c8.8,0,16.7,0,25-2c7.9-2,15.4-3.1,23-5
	c3-0.8,5.9-2.5,8.9-3.1c1.9-0.4,4,0.3,5.9-0.1c0.9-0.1,1-1.3,1.6-1.4c1.5-0.4,3-0.1,4.6-0.4c7.6-1.3,14.7-3.6,21.5-5.6
	c3.2-1,6.1-1.1,9-2.9c3.1-1.9,7.3-3.9,10-6c10.8-8,22.6-14.7,32.5-24.5c9.3-9.3,18.8-17.8,28.5-26.5c2.2-2,4.1-4.6,6.5-6.5
	c2.6-2,5-3,7.5-5.5c5-5.1,9-10.7,13-16.5c7.9-11.4,18-20.8,24.3-33.2c3-6,5.7-11.9,9.3-17.7c2.2-3.6,4.4-8.1,6-12.1
	c1.2-3,3.6-6.6,4.5-9.5c1.3-4.3,1.2-8.4,2.4-12.6c0.5-1.8,1.8-3.1,2.2-4.8c0.6-2.2-0.6-4.9-0.2-7.2c0.4-2,1.7-2.9,2.2-4.8
	c0.6-2.2-0.6-4.9-0.2-7.2c0.4-2,1.7-2.9,2.2-4.8c0.6-2.6-0.8-5.6-0.2-8.2c0.5-1.9,1.8-2.8,2.2-4.8c0.4-2.1,0-4.9-0.1-7.1
	c0-5.2,1.8-9.1,2-14c0.2-4.5,1-10.7,0-15.1c-0.4-2-1.8-2.9-2.2-4.8c-0.6-2.6,0.6-5.3-0.2-7.9c-5.4-1.4-3.7,10-3.6,12.8
	c0,5.2-2.1,8-2,13c0.1,6.2-2.5,7-6.1,11.6c-1.5,2-5.2,5.7-6,8.3c-0.5,1.7-0.5,4.4-0.9,6.1c-0.6,2.1-1.1,3.5-1,6
	c0.1,4.9,0.4,7.4-3.4,10.5c-2.7,2.2-7.2,4.9-10.4,5.6c-4.6,1.1-8.6,1-13.2,1.8c-2.1,0.4-2.9,1.7-4.8,2.2c-2.5,0.6-5.3-1-7.7,0.3
	c-2.3,1.2-5.3,5.8-6,8.1c-1.3,4.3-0.4,7.9,1.5,11.6c0.7,1.3,1.2,2.7,2,4c0.9,1.5,2.8,2.9,3.6,4.4c3.8,6.9-1.7,18.2-3.2,24
	c-0.6,2.2-4,9.2-2.1,11.3c1.9,2.1,13.3,0.3,15.4-1c1.3,2.5-1.1,7.4-1.9,10.1c-0.8,3.2-2.4,7.6-4.3,10.7c-3.6,6-10.2,11.5-16.3,14.7
	c-4.1,2.2-6.5,3.3-7.3-2.2c-0.4-2.5,0.3-3.9-0.9-6.1c-0.9-1.6-2.5-1.8-3.2-3.9c-0.7-2.2,0.7-5,0.1-7.2c-0.4-1.6-1.5-2.7-1.9-4.1
	c-1.1-4.7,0.7-10-0.1-14.8c-1.6-9.6-8.8-14-17.1-16c-8.5-2.1-16.9-4.4-24.9-8c-9-4-18.7-5.5-28.1-2.5c-7.6,2.4-13.7,7-20.8,10.7
	c-3.2,1.8-6.2,2.5-9.3,3.7c-3.6,1.4-7.4,2.8-11.1,3.9c-6.6,1.9-14.2,3-20.3,6.7c-5.7,3.4-13.5,7.9-17.5,13.5
	c-3.9,5.3-7.6,16.3-4.8,22.9c2.1,5,9.7,9.4,13.3,13.7c6.2,7.2,4.5,12,0,19.4c-1.7,2.7-4.6,6.3-5.3,9.3c-1.1,3.9-0.4,9.8-0.2,13.8
	c0.2,3.9,1.4,6.4,3.5,9.5c2,2.9,6.5,4.8,8.1,7.9c1.5,2.7,0.1,4.1-1.1,6.2c-0.4,0.6-1.3,0.8-1.6,1.4c-0.8,1.4-0.3,2.7-0.8,4.1
	c-2,4.6-6,3.9-10,5c-4.2,1.1-8,0.6-12.1-0.9c-2.5-1-3.2-1.7-5.9-2.1c-2.9-0.4-4.3,1.1-6.5,1.6c-4.9,1.1-7.7-2.4-12.6-2.6
	c-3.9-0.2-6.4,1.5-9.4,4.6c-2.5,2.5-6.1,6.7-5.7,10.6c0.4,3.9,5.4,6.3,8.1,10L437.2,721L437.2,721z M293.1,568.4
	c5.8-0.1,13.4,6.6,16.8,11.6c4.7,6.8-4.1,13.8-9,17.2c-1.8,1.3-3.5,2.5-5.7,3.4c-1.3,0.5-4,2.4-5.2,2.4c-3.5,0-4.9-8.4-6.2-11.2
	c-4.2-8.8,2.5-15.1,9.1-20.3L293.1,568.4L293.1,568.4L293.1,568.4z M115.4,402.7c0.4,0.1,0.8,0.1,1.3,0.3c1.8,6-1,12-1.3,17.7
	c-0.4,5.9,0,12,0,17.9v17.9c0,2.5,0.1,4.8-0.4,7.2c-0.2,1.1-1,1.8-1.2,3.3c-0.3,1.9,0,4.1,0,6c0,2.9,0.2,5.8-0.4,8.6
	c0,0.3-1.1,2.9-1.2,3.3c-0.6,1.7,0,1.9-1.1,3.4c-2.7,4.1-7.9,6.8-12.4,4.5c-3.6-1.9-6.4-4.8-10.3-6.4c-5.5-2.3-7.9-5.3-10.5-10.4
	c-2.2-4.2-3-8.9-4.4-13.5c-0.4-1.3-1.3-1.5-1.6-2.8c-0.3-1.3,0-2.9-0.3-4.2c-0.2-1-1.1-1.8-1.2-3.3c0-1.1,0.1-2,0.1-3.1
	c-0.1-0.8-0.5-1.4-1.3-1.8c-0.6-2.4-0.1-4.7-0.3-7.2c-0.2-3.2-1.3-5.7-1.5-9c-0.1-3.2-1.5-5.6-1.5-9v-9c0-6,0.1-11.9,0-17.9
	c0-3.1,0.9-4.7,1.5-7.4c0.6-2.9,0.8-6.2,1.4-9c0.4-2,2.3-4.3,2.7-6.2c0.7-3,1.2-4.5,2.9-7.2c3.2-4.9,5.1-6.9,10.4-9.3
	c5-2.2,11.9-1.3,16.5,2.2c1.5,1.2,4.3,3.7,4.8,5.5c0.4,1.2,0,2.9,0.3,4.2c0.4,1.6,1.2,2.6,1.1,4.8c-0.1,5.7-1.4,13.9-0.1,19.5
	c0.6,2.7,2.5,6,3.4,8.9c1.2,3.6,1.1,6.6,4.1,1.5L115.4,402.7L115.4,402.7z M237.8,562.5c-0.4,1.5,1.3,5.6,1.8,7.2
	c0.6,2.1,1.7,5,2.7,7.1c1.1,2.3,1.8,4.8,2.2,7.5c0.5,2.7,1.8,4.9,2.3,7.4c1.1,5.6-5.5,9.5-10.6,8.3c-4.5-1.1-8.6-4.6-12.2-7.2
	c-2.5-1.8-3.1-1.4-4.5-4.4c-1.2-2.6-1.8-5.3-2.6-7.9c-0.8-2.7-1.5-4.2-1.5-7.4c0-2.9-0.4-6.1,0.4-9c3.4-14.1,18.9-5,22.1,4.5v-6
	L237.8,562.5L237.8,562.5z M257.2,552c1.7-0.4,4.1-2.7,4.6-4.4c0.4-1.3-0.1-2.8,0.3-4.2c0.3-1.1,1-1.8,1.2-3.3
	c0.2-1.5-0.4-3.1-0.1-4.5c0.4-1.6,1.3-2.9,1.6-4.5c0.5-2.9-0.6-6.1-0.1-9c0.5-2.7,3.1-5.7,1.3-8.6c-1.5-2.4-4.8-2.1-7.2-1.8
	c-2.6,0.3-4.8,1.3-7.4,1.9c-3.1,0.7-6.9,2.4-9.6,4.1c-4.2,2.8-8.7,6-9.9,11.1c-1.1,4.8-0.3,12.8,0.8,17.2c0.9,3.8,2.7,9,6.7,11.3
	c3.9,2.3,12.8,1,16.5-0.8l1.5-4.5L257.2,552z"/>
<g>
	
		<linearGradient id="SVGID_1_" gradientUnits="userSpaceOnUse" x1="42.701" y1="403" x2="473.207" y2="403" gradientTransform="matrix(1 0 0 -1 0 806)">
		<stop  offset="0" style="stop-color:#935811"/>
		<stop  offset="1" style="stop-color:#F7931A"/>
	</linearGradient>
	<path shape-rendering="crispEdges" class="st1" d="M403,34L403,34c203.8,0,369,165.2,369,369l0,0c0,203.8-165.2,369-369,369l0,0
		C199.2,772,34,606.8,34,403l0,0C34,199.2,199.2,34,403,34z"/>
</g>
</svg>
