<svg xmlns="http://www.w3.org/2000/svg" width="806" height="806" fill="none"><path opacity=".2" fill-rule="evenodd" clip-rule="evenodd" d="M477.182 641.048c-4.136 8.904-6.94 16.686-14.021 23.977-7.712 7.993-13.671 9.465-23.627 12.409-5.819 1.683-7.01 3.716-14.372 3.576-4.837-.07-11.497-1.262-16.195-.21-10.446 2.383-16.054 11.637-27.762 12.268-11.148.631-18.298-3.084-27.973-6.029-9.114-2.804-19.701-6.73-28.114-9.955-9.184-3.506-17.456-5.959-26.991-8.974-10.236-3.295-15.494-10.096-28.324-6.52-.841 4.767.351 12.339-5.468 14.723-3.996 1.612-10.727-2.594-15.003-4.277-11.217-4.277-21.313-6.66-31.969-11.147-5.188-2.173-8.904-2.033-14.092-5.889-4.978-3.716-10.376-6.52-15.634-10.026-9.675-6.449-19.139-13.46-28.744-19.98-18.509-12.55-30.357-29.796-41.574-48.024-5.889-9.605-9.254-20.121-12.97-31.128-4.557-13.461-3.015-17.317 5.959-28.324 16.195 6.731 22.575-3.295 18.088-20.611-3.926-15.144-5.609-35.264-2.244-51.109.631-2.804 2.735-4.837 3.225-8.763.491-4.417-.35-7.642.772-12.059 1.893-7.291 3.154-12.199 3.084-19.981 0-7.852-1.051-16.405.912-23.976 1.262-4.768 2.944-6.801 3.225-11.989.28-5.328-.701-9.955.841-15.073 3.856-13.321 16.055-17.106 27.062-20.892 7.501-2.594 11.287-5.188 16.124 0 5.118 5.468 3.856 12.97 3.926 20.051.071 13.39-8.553 25.168-15.984 35.965-3.295 4.837-9.114 9.465-8.273 16.125.491 3.645 4.978 4.206 4.697 7.852-.35 4.417-5.117 5.819-7.501 8.904-19.069 24.958 16.896 46.832 34.002 60.082 9.745 7.572 24.468 11.357 28.183 23.907 3.997 13.39-5.258 24.537-10.095 35.965-5.118 11.988-9.465 32.951-2.103 44.168 3.155 4.767 9.324 7.642 14.091 9.885 7.011 3.365 9.675 7.572 15.915 12.129 10.095 7.361 22.575 9.745 35.124 8.974 7.922-.491 13.741-3.716 19.981-8.063 4.837-3.365 11.217-9.464 16.896-11.077 4.066-1.122 7.08-.28 11.217-.771 5.608-.701 6.73-3.015 11.638-4.277 8.483-2.173 14.582 3.786 21.242 7.221 5.679 2.875 12.339 6.941 19.21 5.188 6.59-1.752 14.302-5.959 20.682-7.291 15.283-3.155 39.961-4.276 52.16 6.1 6.169 5.258 8.343 12.549 13.811 18.087 5.469 5.539 15.424 6.661 17.106 18.93l-.14-.071zM173.195 293.033c14.652.281 28.113-10.726 40.102-18.999 9.815-6.8 20.12-17.457 24.888-27.973 1.402-3.155 1.893-5.749 3.014-8.974.211-.701 3.786-10.236 3.786-10.516-.14-5.538-4.697-12.199-8.833-16.475-11.919-12.269-30.147-3.436-42.135 3.996-11.287 7.011-22.224 14.933-31.759 24.047-4.627 4.347-10.937 8.343-14.162 13.881-4.276 7.291-3.085 16.195-2.944 25.099.21 13.531-17.527 29.095 3.926 32.109 8.413 1.192 34.212-5.889 36.105-16.055h-11.988v-.14z" fill="#0D363B" style="&#10;    fill: #F7931A;&#10;"/><path opacity=".2" fill-rule="evenodd" clip-rule="evenodd" d="M437.221 721.042c3.645 4.066 7.922 1.262 12.058 0 3.996-1.262 7.432-1.963 11.919-1.963 8.763 0 16.685 0 25.028-2.034 7.922-1.963 15.424-3.084 22.996-4.977 3.014-.771 5.889-2.454 8.903-3.085 1.893-.421 3.996.28 5.889-.07.912-.14.982-1.262 1.613-1.402 1.542-.351 3.014-.14 4.557-.421 7.571-1.332 14.722-3.575 21.453-5.608 3.225-.982 6.099-1.052 9.044-2.875 3.084-1.893 7.291-3.926 10.025-6.029 10.797-7.992 22.575-14.653 32.46-24.538 9.254-9.324 18.789-17.807 28.534-26.501 2.243-2.033 4.066-4.627 6.45-6.52 2.594-2.033 5.047-3.014 7.501-5.468 5.048-5.118 8.974-10.727 13.04-16.546 7.923-11.427 18.018-20.751 24.258-33.231 3.014-6.029 5.678-11.918 9.254-17.667 2.243-3.645 4.417-8.132 6.029-12.128 1.192-3.015 3.646-6.591 4.487-9.465 1.262-4.277 1.192-8.413 2.384-12.619.49-1.823 1.752-3.085 2.173-4.838.561-2.243-.631-4.907-.21-7.151.42-2.033 1.682-2.944 2.173-4.837.561-2.244-.631-4.908-.21-7.151.42-2.033 1.682-2.945 2.173-4.838.631-2.594-.841-5.608-.21-8.202.491-1.893 1.752-2.805 2.173-4.838.421-2.103 0-4.907-.07-7.081 0-5.188 1.753-9.114 2.033-14.021.21-4.487.982-10.727 0-15.073-.421-2.034-1.753-2.945-2.173-4.838-.631-2.594.631-5.258-.211-7.922-5.398-1.402-3.715 10.025-3.645 12.83 0 5.188-2.103 7.992-1.963 12.97.14 6.169-2.454 7.01-6.1 11.567-1.542 1.963-5.188 5.749-6.029 8.343-.491 1.683-.491 4.417-.911 6.1-.561 2.103-1.052 3.505-.982 6.029.07 4.907.351 7.361-3.435 10.516-2.664 2.173-7.151 4.908-10.446 5.609-4.557 1.051-8.553.981-13.18 1.823-2.104.42-2.875 1.682-4.838 2.173-2.524.631-5.258-.982-7.712.28-2.313 1.192-5.328 5.819-5.959 8.063-1.262 4.276-.42 7.852 1.543 11.567.701 1.333 1.191 2.735 2.033 3.997.911 1.472 2.804 2.944 3.575 4.416 3.786 6.941-1.682 18.158-3.155 24.047-.561 2.244-3.996 9.185-2.103 11.288 1.893 2.103 13.251.28 15.354-.982 1.262 2.524-1.122 7.362-1.893 10.096-.841 3.155-2.384 7.642-4.277 10.726-3.645 5.959-10.165 11.498-16.335 14.723-4.066 2.173-6.52 3.295-7.291-2.173-.351-2.454.35-3.856-.912-6.1-.911-1.612-2.523-1.823-3.154-3.856-.701-2.173.701-4.977.14-7.151-.421-1.612-1.543-2.664-1.893-4.066-1.122-4.697.701-10.025-.07-14.793-1.613-9.605-8.764-13.951-17.106-15.984-8.484-2.104-16.896-4.417-24.889-7.993-8.974-3.996-18.719-5.468-28.113-2.523-7.642 2.383-13.741 7.01-20.752 10.726-3.225 1.753-6.169 2.454-9.324 3.716-3.646 1.402-7.432 2.804-11.147 3.856-6.59 1.893-14.232 3.014-20.332 6.66-5.748 3.435-13.46 7.922-17.527 13.531-3.855 5.328-7.641 16.265-4.767 22.925 2.103 5.048 9.745 9.394 13.321 13.671 6.169 7.221 4.487 11.988 0 19.42-1.683 2.734-4.557 6.31-5.329 9.254-1.051 3.926-.42 9.815-.21 13.811.21 3.856 1.402 6.38 3.505 9.535 1.963 2.944 6.52 4.837 8.133 7.852 1.472 2.734.07 4.066-1.052 6.169-.35.561-1.332.772-1.612 1.403-.771 1.402-.281 2.734-.841 4.136-1.963 4.557-5.96 3.856-10.026 4.978-4.206 1.121-7.992.631-12.058-.912-2.454-.981-3.225-1.682-5.889-2.103-2.945-.421-4.347 1.122-6.52 1.613-4.908 1.051-7.712-2.384-12.62-2.594-3.926-.211-6.38 1.542-9.394 4.557-2.524 2.523-6.1 6.73-5.679 10.586.421 3.926 5.398 6.31 8.132 9.955l.211-.35zM293.079 568.417c5.819-.14 13.391 6.59 16.826 11.568 4.697 6.8-4.066 13.811-8.974 17.176-1.823 1.262-3.505 2.524-5.679 3.365-1.261.491-3.996 2.384-5.188 2.384-3.505 0-4.907-8.413-6.169-11.217-4.206-8.764 2.524-15.144 9.114-20.332v-3.014l.07.07zM115.356 402.682c.421.07.841.14 1.262.28 1.753 5.96-.982 11.989-1.262 17.668-.351 5.889 0 11.988 0 17.947v17.948c0 2.454.14 4.837-.351 7.151-.21 1.051-.981 1.823-1.191 3.295-.281 1.893 0 4.066 0 6.029 0 2.875.21 5.819-.351 8.623 0 .281-1.052 2.945-1.192 3.295-.561 1.683 0 1.893-1.122 3.366-2.734 4.136-7.922 6.8-12.409 4.487-3.645-1.893-6.45-4.768-10.305-6.38-5.469-2.314-7.923-5.328-10.517-10.446-2.173-4.207-3.014-8.904-4.417-13.531-.42-1.262-1.332-1.543-1.612-2.804-.28-1.333 0-2.875-.28-4.207-.21-.981-1.052-1.823-1.192-3.295 0-1.052.14-2.033.14-3.085-.07-.841-.49-1.402-1.262-1.752-.56-2.384-.14-4.698-.28-7.151-.21-3.155-1.332-5.679-1.473-8.974-.14-3.225-1.542-5.609-1.542-8.974v-8.974c0-5.959.07-11.918 0-17.947 0-3.085.911-4.698 1.472-7.432.631-2.944.772-6.169 1.402-9.044.421-2.033 2.314-4.346 2.735-6.239.7-3.015 1.192-4.487 2.944-7.151 3.225-4.908 5.118-6.941 10.446-9.255 5.048-2.243 11.919-1.332 16.476 2.244 1.542 1.192 4.276 3.716 4.837 5.538.351 1.192 0 2.945.28 4.207.351 1.612 1.192 2.594 1.122 4.837-.07 5.749-1.402 13.882-.07 19.49.631 2.734 2.524 5.959 3.435 8.904 1.192 3.575 1.122 6.59 4.137 1.472l.14-.14zm122.478 159.776c-.42 1.472 1.332 5.608 1.823 7.15.631 2.104 1.683 4.978 2.664 7.081 1.052 2.314 1.753 4.838 2.244 7.502.49 2.734 1.822 4.907 2.313 7.431 1.052 5.609-5.538 9.535-10.586 8.343-4.487-1.051-8.553-4.627-12.199-7.221-2.454-1.753-3.085-1.402-4.487-4.417-1.192-2.594-1.753-5.258-2.594-7.922-.841-2.734-1.542-4.206-1.542-7.361 0-2.945-.351-6.1.35-8.974 3.436-14.092 18.859-5.048 22.084 4.487v-5.959l-.07-.14zm19.35-10.446c1.683-.351 4.066-2.735 4.557-4.417.421-1.332-.14-2.805.28-4.207.281-1.121.982-1.823 1.192-3.295.211-1.472-.42-3.085-.14-4.487.351-1.612 1.332-2.874 1.613-4.487.49-2.874-.631-6.099-.141-8.973.491-2.664 3.085-5.749 1.262-8.624-1.542-2.383-4.767-2.103-7.221-1.822-2.594.28-4.767 1.262-7.431 1.892-3.085.702-6.941 2.384-9.605 4.137-4.207 2.804-8.693 6.029-9.885 11.147-1.052 4.767-.281 12.83.771 17.246.911 3.786 2.734 8.974 6.66 11.288 3.856 2.313 12.76.981 16.476-.771l1.472-4.487.14-.14z" fill="#0D363B" style="&#10;    fill: #F7931A;&#10;"/><g filter="url(#filter0_d_55_715)" style="&#10;    stroke: red;&#10;"><rect x="34" y="34" width="738" height="738" rx="369" stroke="url(#paint0_linear_55_715)" stroke-width="6" shape-rendering="crispEdges"/></g><defs><linearGradient id="paint0_linear_55_715" x1="42.701" y1="403" x2="473.207" y2="403" gradientUnits="userSpaceOnUse" style="&#10;    fill: red;&#10;"><stop stop-color="#1992B8" style="stop-color: #935811;"/><stop offset="1" stop-color="#23E5C3" style="&#10;    stop-color: #f7931a;&#10;"/></linearGradient><filter id="" x="0" y="0" width="806" height="806" filterUnits="userSpaceOnUse" color-interpolation-filters="sRGB"><feFlood flood-opacity="0" result="BackgroundImageFix"/><feColorMatrix in="SourceAlpha" values="0 0 0 0 0 0 0 0 0 0 0 0 0 0 0 0 0 0 127 0" result="hardAlpha"/><feMorphology radius="2" operator="dilate" in="SourceAlpha" result="effect1_dropShadow_55_715"/><feOffset/><feGaussianBlur stdDeviation="14.5"/><feComposite in2="hardAlpha" operator="out"/><feColorMatrix values="0 0 0 0 0.137255 0 0 0 0 0.807843 0 0 0 0 0.898039 0 0 0 0.25 0"/><feBlend in2="BackgroundImageFix" result="effect1_dropShadow_55_715"/><feBlend in="SourceGraphic" in2="effect1_dropShadow_55_715" result="shape"/></filter></defs></svg>