<?xml version="1.0" encoding="UTF-8"?>
<svg id="Layer_1" data-name="Layer 1" xmlns="http://www.w3.org/2000/svg" viewBox="0 0 20 20">
  <defs>
    <style>
      .cls-1 {
        fill: #fff;
        stroke-width: 0px;
      }
    </style>
  </defs>
  <path class="cls-1" d="m19.82,8.31c-.02-.75-.52-1.25-1.27-1.26-.48,0-.96,0-1.43,0-.13,0-.25,0-.25-.18,0-.76-.05-1.53.34-2.24.3-.56.1-1.19-.43-1.43-.51-.23-1.05.03-1.34.6-.47.92-.57,1.9-.52,2.91.01.25-.04.36-.33.35-.87-.02-1.75-.02-2.62,0-.24,0-.36-.06-.45-.3-.42-1.1-.86-2.18-1.3-3.27-.36-.89-1.04-1.35-1.99-1.35-1,0-1.99,0-2.99,0-1.11,0-1.82.56-2.09,1.64,0,1.24.01,2.47,0,3.71,0,.09,0,.17,0,.26,0,.02,0,.04,0,.07v.09h-.11c-.05.12-.15.18-.38.14-.17-.03-.33.06-.45.17-.3.28-.6.56-.87.87-.33.38-.3.85.02,1.23.11.13.26.22.15.45-.11.23-.27.22-.46.23-.51.04-.84.4-.86.92,0,.34,0,.68,0,1.02,0,.63.31.96.94,1,.19.01.29.07.38.24.09.18.01.27-.1.39-.42.48-.41.95.04,1.42.21.22.42.43.64.64.41.39.93.41,1.36.03.16-.14.28-.17.47-.09.2.08.2.23.21.4.03.57.38.91.94.92.35.01.71.02,1.07,0,.52-.03.86-.37.89-.89.01-.18-.01-.34.21-.43.22-.09.34,0,.5.13.39.33.92.31,1.3-.04.21-.19.41-.4.61-.61.51-.52.52-.94.06-1.51-.18-.22-.07-.58.2-.57.7.01.99-.4,1.13-1,.66,0,1.31-.01,1.97,0,.29,0,.49-.07.7-.3.89-.97,2.03-1.37,3.29-1.11.68.14,1.2.07,1.71-.36.11-.1.25-.16.38-.24.5-.3.74-.75.75-1.33,0-.44,0-.87,0-1.31ZM8.42,3.99l1.23,3.09h-4.71v-2.99l.02-.11h3.47Zm-2.85,10.93c-1.19,0-2.47-.94-2.47-2.48,0-1.33,1.15-2.44,2.47-2.44,1.2,0,2.47.95,2.47,2.48,0,1.33-1.15,2.44-2.47,2.44Z"/>
  <path class="cls-1" d="m16.42,12.46c-1.48-.01-2.71,1.2-2.71,2.69,0,1.47,1.19,2.71,2.64,2.72,1.48.01,2.71-1.2,2.71-2.69,0-1.47-1.19-2.71-2.64-2.72Zm-.02,3.44c-.41,0-.77-.34-.76-.74,0-.39.34-.72.73-.73.41,0,.77.34.76.74,0,.39-.34.72-.73.73Z"/>
</svg>