<?xml version="1.0" encoding="utf-8"?>
<!-- Generator: Adobe Illustrator 28.0.0, SVG Export Plug-In . SVG Version: 6.00 Build 0)  -->
<svg version="1.1" id="Layer_1" xmlns="http://www.w3.org/2000/svg" xmlns:xlink="http://www.w3.org/1999/xlink" x="0px" y="0px"
	 viewBox="0 0 30 30" style="enable-background:new 0 0 30 30;" xml:space="preserve">
<style type="text/css">
	.st0{fill:url(#SVGID_1_);}
	.st1{fill:url(#SVGID_00000053523035133676211620000008657505104723346622_);}
	.st2{fill:url(#SVGID_00000080885488505437130520000011478164162494726811_);}
</style>
<path d="M26.4,29.7H3.6c-1.8,0-3.3-1.5-3.3-3.3V3.6c0-1.8,1.5-3.3,3.3-3.3h22.8c1.8,0,3.3,1.5,3.3,3.3v22.8
	C29.7,28.2,28.2,29.7,26.4,29.7z"/>
<g>
	<linearGradient id="SVGID_1_" gradientUnits="userSpaceOnUse" x1="7.0539" y1="12.9177" x2="23.333" y2="10.0473">
		<stop  offset="0" style="stop-color:#F7D71A"/>
		<stop  offset="0.2374" style="stop-color:#EF8E1A"/>
		<stop  offset="0.5279" style="stop-color:#FF771A"/>
		<stop  offset="0.8324" style="stop-color:#1E110E"/>
	</linearGradient>
	<path class="st0" d="M14.8,19.8c-0.4,0-0.8-0.1-1.1-0.4l-6.1-6.2c-0.3-0.3-0.5-0.7-0.6-1c-0.3-1-0.7-3.5,1.9-6.1
		c2.3-2.3,4.4-2.6,5.5-2.5c0.6,0,1.2,0.3,1.7,0.7l7,6.4c0.6,0.6,0.7,1.5,0.1,2.1c-0.6,0.6-1.5,0.7-2.1,0.1L15,7.3
		c-0.7-0.6-1.6-0.7-2.4-0.3c-0.5,0.2-1,0.6-1.6,1.2C10.5,8.6,10.2,9,10,9.4c-0.4,0.8-0.2,1.8,0.4,2.4c1.3,1.3,4.1,4.1,5.3,5.4
		c0.6,0.6,0.7,1.5,0.2,2.1C15.6,19.6,15.2,19.8,14.8,19.8z M14.3,6.5C14.3,6.5,14.3,6.5,14.3,6.5C14.3,6.5,14.3,6.5,14.3,6.5z"/>
	
		<linearGradient id="SVGID_00000100352479461397400370000010704208464321973436_" gradientUnits="userSpaceOnUse" x1="95.4355" y1="35.2299" x2="111.7145" y2="32.3595" gradientTransform="matrix(-1 0 0 -1 118.5827 53.453)">
		<stop  offset="0" style="stop-color:#F7D71A"/>
		<stop  offset="0.2374" style="stop-color:#EF8E1A"/>
		<stop  offset="0.5279" style="stop-color:#FF771A"/>
		<stop  offset="0.8324" style="stop-color:#1E110E"/>
	</linearGradient>
	<path style="fill:url(#SVGID_00000100352479461397400370000010704208464321973436_);" d="M17.2,12.2c0.4,0,0.8,0.1,1.1,0.4l4.1,4.2
		c0.3,0.3,0.5,0.7,0.6,1c0.3,1,0.7,3.5-1.9,6.1c-2.3,2.3-4.4,2.6-5.5,2.5c-0.6,0-1.2-0.3-1.7-0.7l-7-6.4c-0.6-0.6-0.7-1.5-0.1-2.1
		c0.6-0.6,1.5-0.7,2.1-0.1l6.1,5.5c0.6,0.6,1.6,0.7,2.3,0.3c0.5-0.2,1.1-0.6,1.7-1.2c0.5-0.5,0.8-0.9,1-1.3c0.4-0.8,0.2-1.7-0.4-2.3
		l-3.4-3.5c-0.6-0.6-0.6-1.5,0-2.1C16.5,12.3,16.9,12.2,17.2,12.2z M15.7,23.5C15.7,23.5,15.7,23.5,15.7,23.5
		C15.7,23.5,15.7,23.5,15.7,23.5z"/>
	
		<radialGradient id="SVGID_00000013882567696928354010000001783152588170263705_" cx="5.6009" cy="10.9185" r="2.2298" gradientTransform="matrix(0.7718 0 0 0.7718 9.7892 2.4607)" gradientUnits="userSpaceOnUse">
		<stop  offset="0" style="stop-color:#F7D71A"/>
		<stop  offset="0.3436" style="stop-color:#EF8E1A"/>
		<stop  offset="1" style="stop-color:#1E110E"/>
	</radialGradient>
	<circle style="fill:url(#SVGID_00000013882567696928354010000001783152588170263705_);" cx="14.1" cy="10.9" r="1.7"/>
</g>
</svg>
