<?xml version="1.0" encoding="UTF-8"?>
<svg id="Layer_1" data-name="Layer 1" xmlns="http://www.w3.org/2000/svg" viewBox="0 0 18 18">
  <defs>
    <style>
      .cls-1 {
        fill: #1e110e;
        stroke-width: 0px;
      }
    </style>
  </defs>
  <path class="cls-1" d="m9,17.83c-.33,0-.67-.02-1-.06-.25-.03-.47-.2-.55-.44l-.52-1.45c-.1-.28-.29-.49-.54-.59-.11-.05-.23-.07-.35-.07-.15,0-.3.04-.45.1l-1.4.66c-.09.04-.19.06-.29.06-.15,0-.3-.05-.42-.15-.52-.41-1-.89-1.41-1.41-.16-.2-.19-.47-.08-.7l.66-1.4c.13-.26.14-.55.03-.8-.1-.25-.31-.44-.59-.54l-1.46-.52c-.24-.08-.41-.3-.44-.55-.04-.33-.06-.66-.06-1s.02-.67.06-1c.03-.25.2-.47.44-.55l1.46-.52c.28-.1.49-.29.59-.54s.09-.53-.03-.8l-.66-1.4c-.11-.23-.08-.5.08-.7.42-.52.89-1,1.41-1.41.12-.09.26-.14.41-.14.1,0,.2.02.29.06l1.4.66c.15.07.3.1.44.1.12,0,.24-.02.35-.07.25-.1.44-.31.54-.59l.52-1.46c.08-.24.3-.41.55-.44.33-.04.66-.06,1-.06s.67.02,1,.06c.25.03.47.2.55.44l.52,1.46c.1.28.29.48.54.59.11.05.23.07.35.07.15,0,.3-.04.44-.1l1.4-.66c.09-.04.19-.06.29-.06.15,0,.3.05.41.14.52.42,1,.89,1.41,1.41.16.2.19.47.08.7l-.66,1.4c-.12.26-.14.55-.03.8.1.25.31.44.59.54l1.46.52c.24.08.41.3.44.55.04.33.06.66.06,1s-.02.67-.06,1c-.03.25-.2.47-.44.55l-1.46.52c-.28.1-.49.29-.59.54s-.09.53.03.8l.66,1.4c.11.23.08.5-.08.7-.42.52-.89.99-1.41,1.41-.12.09-.26.15-.42.15-.1,0-.2-.02-.29-.06l-1.4-.66c-.15-.07-.29-.1-.45-.1-.12,0-.24.02-.35.07-.25.1-.44.31-.54.59l-.52,1.46c-.09.24-.3.41-.55.44-.33.04-.66.06-1,.06Zm-.44-1.34c.15,0,.29.01.44.01s.29,0,.44-.01l.38-1.05c.23-.64.68-1.12,1.28-1.37.28-.11.57-.17.86-.17.35,0,.69.08,1.02.23l1.01.48c.22-.19.43-.4.62-.62l-.48-1.01c-.29-.61-.31-1.28-.06-1.88.25-.6.74-1.06,1.37-1.28l1.05-.38c0-.15.01-.29.01-.44s0-.29-.01-.44l-1.05-.37c-.64-.23-1.12-.68-1.37-1.28-.25-.6-.23-1.27.06-1.88l.48-1.01c-.2-.22-.4-.43-.62-.62l-1.01.48c-.33.16-.67.23-1.02.23-.3,0-.59-.06-.86-.17-.6-.25-1.06-.74-1.28-1.37l-.38-1.05c-.15,0-.29-.01-.44-.01s-.29,0-.44.01l-.37,1.05c-.23.64-.68,1.12-1.28,1.37-.28.11-.57.17-.86.17-.35,0-.69-.08-1.02-.23l-1.01-.48c-.22.19-.43.4-.62.62l.48,1.01c.29.61.31,1.28.06,1.88-.25.6-.74,1.06-1.37,1.28l-1.05.37c0,.15-.01.29-.01.44s0,.29.01.44l1.05.38c.64.23,1.12.68,1.37,1.28.25.6.23,1.27-.06,1.88l-.48,1.01c.19.22.4.43.62.62l1.01-.48c.33-.15.67-.23,1.02-.23.3,0,.59.06.86.17.6.25,1.06.74,1.28,1.37l.37,1.05Z"/>
  <path class="cls-1" d="m9,17.83c-.33,0-.67-.02-1-.06-.16-.02-.3-.13-.36-.29l-.53-1.5c-.12-.35-.37-.62-.7-.75-.32-.13-.69-.12-1.02.04l-1.44.68c-.15.07-.33.05-.46-.05-.52-.42-1-.89-1.41-1.41-.1-.13-.12-.31-.05-.46l.68-1.44c.16-.34.17-.7.04-1.02-.13-.32-.4-.57-.75-.7l-1.5-.53c-.16-.06-.27-.2-.29-.36-.04-.33-.06-.66-.06-1s.02-.67.06-1c.02-.16.13-.3.29-.36l1.5-.53c.35-.12.62-.37.75-.7s.12-.69-.04-1.02l-.68-1.44c-.07-.15-.05-.33.05-.46.41-.52.89-1,1.41-1.41.13-.1.31-.12.46-.05l1.44.68c.34.16.7.17,1.02.04.32-.13.57-.4.7-.75l.53-1.5c.06-.16.2-.27.36-.29.33-.04.66-.06,1-.06s.67.02,1,.06c.16.02.3.13.36.29l.53,1.5c.12.35.37.62.7.75.32.13.69.12,1.02-.04l1.44-.68c.15-.07.33-.05.46.05.52.41,1,.89,1.41,1.41.1.13.12.31.05.46l-.68,1.44c-.16.34-.17.7-.04,1.02.13.32.4.57.75.7l1.5.53c.16.06.27.2.29.36.04.33.06.66.06,1s-.02.67-.06,1c-.02.16-.13.3-.29.36l-1.5.53c-.35.12-.62.37-.75.7-.13.32-.12.69.04,1.02l.68,1.44c.07.15.05.33-.05.46-.41.52-.89,1-1.41,1.41-.13.1-.31.12-.46.05l-1.44-.68c-.34-.16-.7-.17-1.02-.04-.32.13-.57.4-.7.75l-.53,1.5c-.06.16-.2.27-.36.29-.33.04-.66.06-1,.06Zm-.63-.89c.42.03.84.03,1.26,0l.44-1.24c.21-.59.63-1.03,1.18-1.26.55-.23,1.17-.21,1.73.06l1.19.56c.32-.27.62-.57.89-.89l-.56-1.19c-.27-.56-.29-1.18-.06-1.73.23-.55.68-.97,1.26-1.18l1.24-.44c.02-.21.02-.42.02-.63s0-.42-.02-.63l-1.24-.44c-.59-.21-1.03-.63-1.26-1.18-.23-.55-.21-1.17.06-1.73l.56-1.19c-.27-.32-.57-.62-.89-.89l-1.19.56c-.56.27-1.18.29-1.73.06-.55-.23-.97-.68-1.18-1.26l-.44-1.24c-.42-.03-.84-.03-1.26,0l-.44,1.24c-.21.59-.63,1.03-1.18,1.26-.55.23-1.17.21-1.73-.06l-1.19-.56c-.32.27-.62.57-.89.89l.56,1.19c.27.56.29,1.18.06,1.73s-.68.97-1.26,1.18l-1.24.44c-.02.21-.02.42-.02.63s0,.42.02.63l1.24.44c.59.21,1.03.63,1.26,1.18.23.55.21,1.17-.06,1.73l-.56,1.19c.27.32.57.62.89.89l1.19-.56c.56-.27,1.18-.29,1.73-.06.55.23.97.68,1.18,1.26l.44,1.24Z"/>
  <path class="cls-1" d="m9,13.54c-1.21,0-2.35-.47-3.21-1.33-.86-.86-1.33-2-1.33-3.21s.47-2.35,1.33-3.21c.86-.86,2-1.33,3.21-1.33s2.35.47,3.21,1.33,1.33,2,1.33,3.21-.47,2.35-1.33,3.21-2,1.33-3.21,1.33Zm0-8.24c-2.04,0-3.7,1.66-3.7,3.7s1.66,3.7,3.7,3.7,3.7-1.66,3.7-3.7-1.66-3.7-3.7-3.7Z"/>
</svg>